<svg width="24" height="14" viewBox="0 0 24 14" fill="none" xmlns="http://www.w3.org/2000/svg">
<g filter="url(#filter0_i_763_5267)">
<path d="M1.63672 8.61548H8.72763V11.3078H4.32903C2.8421 11.3078 1.63672 10.1024 1.63672 8.61548Z" fill="url(#paint0_linear_763_5267)"/>
</g>
<path fill-rule="evenodd" clip-rule="evenodd" d="M8.72763 8.61548H1.63672C1.63723 9.04022 3.22439 9.38451 5.18217 9.38451C7.13996 9.38451 8.72712 9.04022 8.72763 8.61548Z" fill="#A09FA7"/>
<g filter="url(#filter1_i_763_5267)">
<path d="M22.3633 8.61548H15.2724V11.3078H19.671C21.1579 11.3078 22.3633 10.1024 22.3633 8.61548Z" fill="url(#paint1_linear_763_5267)"/>
</g>
<path fill-rule="evenodd" clip-rule="evenodd" d="M15.2724 8.61548H22.3633C22.3628 9.04022 20.7756 9.38451 18.8178 9.38451C16.86 9.38451 15.2729 9.04022 15.2724 8.61548Z" fill="#A09FA7"/>
<g filter="url(#filter2_i_763_5267)">
<path d="M24 3.76929H15.2727V7.53852H21.2727C22.779 7.53852 24 6.31748 24 4.81124V3.76929Z" fill="url(#paint2_linear_763_5267)"/>
</g>
<path fill-rule="evenodd" clip-rule="evenodd" d="M24 3.76929C23.9999 4.36404 22.0463 4.84617 19.6364 4.84617C17.2265 4.84617 15.2728 4.36404 15.2727 3.76929H24Z" fill="#C0BFC4"/>
<g filter="url(#filter3_i_763_5267)">
<path d="M22.3633 8.61548H15.2724V11.3078H19.671C21.1579 11.3078 22.3633 10.1024 22.3633 8.61548Z" fill="url(#paint3_linear_763_5267)"/>
</g>
<path fill-rule="evenodd" clip-rule="evenodd" d="M15.2724 8.61548H22.3633C22.3628 9.04022 20.7756 9.38451 18.8178 9.38451C16.86 9.38451 15.2729 9.04022 15.2724 8.61548Z" fill="#B7B7B9"/>
<g filter="url(#filter4_i_763_5267)">
<path d="M1.63672 8.61548H8.72763V11.3078H4.32903C2.8421 11.3078 1.63672 10.1024 1.63672 8.61548Z" fill="url(#paint4_linear_763_5267)"/>
</g>
<path fill-rule="evenodd" clip-rule="evenodd" d="M8.72763 8.61548H1.63672C1.63723 9.04022 3.22439 9.38451 5.18217 9.38451C7.13996 9.38451 8.72712 9.04022 8.72763 8.61548Z" fill="#B7B7B9"/>
<g filter="url(#filter5_i_763_5267)">
<path d="M0 3.76929H8.72727V7.53852H2.72727C1.22104 7.53852 0 6.31748 0 4.81124V3.76929Z" fill="url(#paint5_linear_763_5267)"/>
</g>
<path fill-rule="evenodd" clip-rule="evenodd" d="M0 3.76929C9.5541e-05 4.36404 1.95373 4.84617 4.36364 4.84617C6.77355 4.84617 8.72718 4.36404 8.72727 3.76929H0Z" fill="#B7B7B9"/>
<path fill-rule="evenodd" clip-rule="evenodd" d="M15.2724 8.61548H22.3633C22.3628 9.04022 20.7756 9.38451 18.8178 9.38451C16.86 9.38451 15.2729 9.04022 15.2724 8.61548Z" fill="#C0BFC4"/>
<path fill-rule="evenodd" clip-rule="evenodd" d="M0 3.76929C9.5541e-05 4.36404 1.95373 4.84617 4.36364 4.84617C6.77355 4.84617 8.72718 4.36404 8.72727 3.76929H0Z" fill="#A09FA7"/>
<path fill-rule="evenodd" clip-rule="evenodd" d="M8.72763 8.61548H1.63672C1.63723 9.04022 3.22439 9.38451 5.18217 9.38451C7.13996 9.38451 8.72712 9.04022 8.72763 8.61548Z" fill="#C0BFC4"/>
<path fill-rule="evenodd" clip-rule="evenodd" d="M0 3.76929C9.5541e-05 4.36404 1.95373 4.84617 4.36364 4.84617C6.77355 4.84617 8.72718 4.36404 8.72727 3.76929H0Z" fill="#C0BFC4"/>
<g filter="url(#filter6_i_763_5267)">
<ellipse cx="12.0011" cy="7" rx="7.09091" ry="7" fill="#C0BFC4"/>
</g>
<ellipse cx="12.0014" cy="7.00009" rx="5.45455" ry="5.38462" fill="url(#paint6_diamond_763_5267)"/>
<ellipse cx="11.9091" cy="6.84566" rx="4.90909" ry="4.84615" fill="#BABABA"/>
<path d="M10.9251 8.99902H10.2359L9.03417 5.74689H9.74042L10.4125 7.83714C10.4543 7.97383 10.5112 8.17887 10.5834 8.45225L10.6346 8.25291L10.7485 7.83714L11.4149 5.74689H12.1211L10.9251 8.99902ZM14.5861 7.37011C14.5861 7.92067 14.4912 8.33834 14.3013 8.62312C14.1115 8.9041 13.8286 9.04459 13.4527 9.04459C12.7085 9.04459 12.3364 8.48643 12.3364 7.37011C12.3364 6.97902 12.3763 6.66197 12.456 6.41896C12.5395 6.17215 12.6629 5.9899 12.8262 5.87219C12.9895 5.75448 13.204 5.69563 13.4698 5.69563C13.8533 5.69563 14.1343 5.83612 14.3127 6.1171C14.495 6.39428 14.5861 6.81195 14.5861 7.37011ZM13.9311 7.37011C13.9311 7.07014 13.9159 6.83853 13.8856 6.67526C13.859 6.50819 13.8134 6.38858 13.7489 6.31644C13.6843 6.24429 13.5894 6.20822 13.4641 6.20822C13.335 6.20822 13.2363 6.24429 13.1679 6.31644C13.1034 6.38858 13.0559 6.50819 13.0255 6.67526C12.999 6.83853 12.9857 7.07014 12.9857 7.37011C12.9857 7.66627 13.0009 7.89789 13.0312 8.06496C13.0616 8.23203 13.1091 8.35353 13.1736 8.42947C13.2382 8.50162 13.3331 8.53769 13.4584 8.53769C13.5799 8.53769 13.6729 8.49972 13.7375 8.42378C13.8058 8.34404 13.8552 8.22064 13.8856 8.05357C13.9159 7.8865 13.9311 7.65868 13.9311 7.37011Z" fill="#F6F9FF"/>
<defs>
<filter id="filter0_i_763_5267" x="1.63672" y="8.34275" width="7.36257" height="2.96511" filterUnits="userSpaceOnUse" color-interpolation-filters="sRGB">
<feFlood flood-opacity="0" result="BackgroundImageFix"/>
<feBlend mode="normal" in="SourceGraphic" in2="BackgroundImageFix" result="shape"/>
<feColorMatrix in="SourceAlpha" type="matrix" values="0 0 0 0 0 0 0 0 0 0 0 0 0 0 0 0 0 0 127 0" result="hardAlpha"/>
<feOffset dx="0.272727" dy="-0.272727"/>
<feGaussianBlur stdDeviation="0.545455"/>
<feComposite in2="hardAlpha" operator="arithmetic" k2="-1" k3="1"/>
<feColorMatrix type="matrix" values="0 0 0 0 0.552941 0 0 0 0 0.603922 0 0 0 0 0.803922 0 0 0 0.6 0"/>
<feBlend mode="normal" in2="shape" result="effect1_innerShadow_763_5267"/>
</filter>
<filter id="filter1_i_763_5267" x="15.2734" y="8.34275" width="7.36257" height="2.96511" filterUnits="userSpaceOnUse" color-interpolation-filters="sRGB">
<feFlood flood-opacity="0" result="BackgroundImageFix"/>
<feBlend mode="normal" in="SourceGraphic" in2="BackgroundImageFix" result="shape"/>
<feColorMatrix in="SourceAlpha" type="matrix" values="0 0 0 0 0 0 0 0 0 0 0 0 0 0 0 0 0 0 127 0" result="hardAlpha"/>
<feOffset dx="0.272727" dy="-0.272727"/>
<feGaussianBlur stdDeviation="0.545455"/>
<feComposite in2="hardAlpha" operator="arithmetic" k2="-1" k3="1"/>
<feColorMatrix type="matrix" values="0 0 0 0 0.552941 0 0 0 0 0.603922 0 0 0 0 0.803922 0 0 0 0.6 0"/>
<feBlend mode="normal" in2="shape" result="effect1_innerShadow_763_5267"/>
</filter>
<filter id="filter2_i_763_5267" x="15.2734" y="3.22383" width="9.27202" height="4.31474" filterUnits="userSpaceOnUse" color-interpolation-filters="sRGB">
<feFlood flood-opacity="0" result="BackgroundImageFix"/>
<feBlend mode="normal" in="SourceGraphic" in2="BackgroundImageFix" result="shape"/>
<feColorMatrix in="SourceAlpha" type="matrix" values="0 0 0 0 0 0 0 0 0 0 0 0 0 0 0 0 0 0 127 0" result="hardAlpha"/>
<feOffset dx="0.545455" dy="-0.545455"/>
<feGaussianBlur stdDeviation="0.545455"/>
<feComposite in2="hardAlpha" operator="arithmetic" k2="-1" k3="1"/>
<feColorMatrix type="matrix" values="0 0 0 0 0.794499 0 0 0 0 0.794499 0 0 0 0 0.794499 0 0 0 0.6 0"/>
<feBlend mode="normal" in2="shape" result="effect1_innerShadow_763_5267"/>
</filter>
<filter id="filter3_i_763_5267" x="15.2734" y="8.07002" width="7.6353" height="3.23784" filterUnits="userSpaceOnUse" color-interpolation-filters="sRGB">
<feFlood flood-opacity="0" result="BackgroundImageFix"/>
<feBlend mode="normal" in="SourceGraphic" in2="BackgroundImageFix" result="shape"/>
<feColorMatrix in="SourceAlpha" type="matrix" values="0 0 0 0 0 0 0 0 0 0 0 0 0 0 0 0 0 0 127 0" result="hardAlpha"/>
<feOffset dx="0.545455" dy="-0.545455"/>
<feGaussianBlur stdDeviation="0.545455"/>
<feComposite in2="hardAlpha" operator="arithmetic" k2="-1" k3="1"/>
<feColorMatrix type="matrix" values="0 0 0 0 0.794499 0 0 0 0 0.794499 0 0 0 0 0.794499 0 0 0 0.6 0"/>
<feBlend mode="normal" in2="shape" result="effect1_innerShadow_763_5267"/>
</filter>
<filter id="filter4_i_763_5267" x="1.63672" y="8.07002" width="7.6353" height="3.23784" filterUnits="userSpaceOnUse" color-interpolation-filters="sRGB">
<feFlood flood-opacity="0" result="BackgroundImageFix"/>
<feBlend mode="normal" in="SourceGraphic" in2="BackgroundImageFix" result="shape"/>
<feColorMatrix in="SourceAlpha" type="matrix" values="0 0 0 0 0 0 0 0 0 0 0 0 0 0 0 0 0 0 127 0" result="hardAlpha"/>
<feOffset dx="0.545455" dy="-0.545455"/>
<feGaussianBlur stdDeviation="0.545455"/>
<feComposite in2="hardAlpha" operator="arithmetic" k2="-1" k3="1"/>
<feColorMatrix type="matrix" values="0 0 0 0 0.794499 0 0 0 0 0.794499 0 0 0 0 0.794499 0 0 0 0.6 0"/>
<feBlend mode="normal" in2="shape" result="effect1_innerShadow_763_5267"/>
</filter>
<filter id="filter5_i_763_5267" x="0" y="3.22383" width="9.27202" height="4.31474" filterUnits="userSpaceOnUse" color-interpolation-filters="sRGB">
<feFlood flood-opacity="0" result="BackgroundImageFix"/>
<feBlend mode="normal" in="SourceGraphic" in2="BackgroundImageFix" result="shape"/>
<feColorMatrix in="SourceAlpha" type="matrix" values="0 0 0 0 0 0 0 0 0 0 0 0 0 0 0 0 0 0 127 0" result="hardAlpha"/>
<feOffset dx="0.545455" dy="-0.545455"/>
<feGaussianBlur stdDeviation="0.545455"/>
<feComposite in2="hardAlpha" operator="arithmetic" k2="-1" k3="1"/>
<feColorMatrix type="matrix" values="0 0 0 0 0.794499 0 0 0 0 0.794499 0 0 0 0 0.794499 0 0 0 0.6 0"/>
<feBlend mode="normal" in2="shape" result="effect1_innerShadow_763_5267"/>
</filter>
<filter id="filter6_i_763_5267" x="3.81925" y="-1.09091" width="15.2745" height="15.0909" filterUnits="userSpaceOnUse" color-interpolation-filters="sRGB">
<feFlood flood-opacity="0" result="BackgroundImageFix"/>
<feBlend mode="normal" in="SourceGraphic" in2="BackgroundImageFix" result="shape"/>
<feColorMatrix in="SourceAlpha" type="matrix" values="0 0 0 0 0 0 0 0 0 0 0 0 0 0 0 0 0 0 127 0" result="hardAlpha"/>
<feOffset dx="-1.09091" dy="-1.09091"/>
<feGaussianBlur stdDeviation="1.09091"/>
<feComposite in2="hardAlpha" operator="arithmetic" k2="-1" k3="1"/>
<feColorMatrix type="matrix" values="0 0 0 0 0.807843 0 0 0 0 0.803922 0 0 0 0 0.835294 0 0 0 1 0"/>
<feBlend mode="normal" in2="shape" result="effect1_innerShadow_763_5267"/>
</filter>
<linearGradient id="paint0_linear_763_5267" x1="5.18217" y1="8.61548" x2="5.18217" y2="11.3078" gradientUnits="userSpaceOnUse">
<stop stop-color="#AEC9E3"/>
<stop offset="1" stop-color="#9FBCD9"/>
</linearGradient>
<linearGradient id="paint1_linear_763_5267" x1="18.8178" y1="8.61548" x2="18.8178" y2="11.3078" gradientUnits="userSpaceOnUse">
<stop stop-color="#AEC9E3"/>
<stop offset="1" stop-color="#9FBCD9"/>
</linearGradient>
<linearGradient id="paint2_linear_763_5267" x1="19.6364" y1="3.76929" x2="19.6364" y2="7.53852" gradientUnits="userSpaceOnUse">
<stop stop-color="#E5E4E9"/>
<stop offset="1" stop-color="#CACACA"/>
</linearGradient>
<linearGradient id="paint3_linear_763_5267" x1="18.8178" y1="8.61548" x2="18.8178" y2="11.3078" gradientUnits="userSpaceOnUse">
<stop stop-color="#E5E4E9"/>
<stop offset="1" stop-color="#CACACA"/>
</linearGradient>
<linearGradient id="paint4_linear_763_5267" x1="5.18217" y1="8.61548" x2="5.18217" y2="11.3078" gradientUnits="userSpaceOnUse">
<stop stop-color="#E5E4E9"/>
<stop offset="1" stop-color="#CACACA"/>
</linearGradient>
<linearGradient id="paint5_linear_763_5267" x1="4.36364" y1="3.76929" x2="4.36364" y2="7.53852" gradientUnits="userSpaceOnUse">
<stop stop-color="#E5E4E9"/>
<stop offset="1" stop-color="#CACACA"/>
</linearGradient>
<radialGradient id="paint6_diamond_763_5267" cx="0" cy="0" r="1" gradientUnits="userSpaceOnUse" gradientTransform="translate(9.54688 3.76932) rotate(49.2086) scale(9.6015 9.62044)">
<stop stop-color="#A09FA8"/>
<stop offset="1" stop-color="#DEDDE1"/>
</radialGradient>
</defs>
</svg>
