<svg width="24" height="14" viewBox="0 0 24 14" fill="none" xmlns="http://www.w3.org/2000/svg">
<g filter="url(#filter0_i_763_5215)">
<path d="M1.63672 8.61548H8.72763V11.3078H4.32903C2.8421 11.3078 1.63672 10.1024 1.63672 8.61548Z" fill="url(#paint0_linear_763_5215)"/>
</g>
<path fill-rule="evenodd" clip-rule="evenodd" d="M8.72763 8.61548H1.63672C1.63723 9.04022 3.22439 9.38451 5.18217 9.38451C7.13996 9.38451 8.72712 9.04022 8.72763 8.61548Z" fill="#A09FA7"/>
<g filter="url(#filter1_i_763_5215)">
<path d="M22.3633 8.61548H15.2724V11.3078H19.671C21.1579 11.3078 22.3633 10.1024 22.3633 8.61548Z" fill="url(#paint1_linear_763_5215)"/>
</g>
<path fill-rule="evenodd" clip-rule="evenodd" d="M15.2724 8.61548H22.3633C22.3628 9.04022 20.7756 9.38451 18.8178 9.38451C16.86 9.38451 15.2729 9.04022 15.2724 8.61548Z" fill="#A09FA7"/>
<g filter="url(#filter2_i_763_5215)">
<path d="M24 3.76929H15.2727V7.53852H21.2727C22.779 7.53852 24 6.31748 24 4.81124V3.76929Z" fill="url(#paint2_linear_763_5215)"/>
</g>
<path fill-rule="evenodd" clip-rule="evenodd" d="M24 3.76929C23.9999 4.36404 22.0463 4.84617 19.6364 4.84617C17.2265 4.84617 15.2728 4.36404 15.2727 3.76929H24Z" fill="#585C77"/>
<g filter="url(#filter3_i_763_5215)">
<path d="M22.3633 8.61548H15.2724V11.3078H19.671C21.1579 11.3078 22.3633 10.1024 22.3633 8.61548Z" fill="url(#paint3_linear_763_5215)"/>
</g>
<path fill-rule="evenodd" clip-rule="evenodd" d="M15.2724 8.61548H22.3633C22.3628 9.04022 20.7756 9.38451 18.8178 9.38451C16.86 9.38451 15.2729 9.04022 15.2724 8.61548Z" fill="#B7B7B9"/>
<g filter="url(#filter4_i_763_5215)">
<path d="M1.63672 8.61548H8.72763V11.3078H4.32903C2.8421 11.3078 1.63672 10.1024 1.63672 8.61548Z" fill="url(#paint4_linear_763_5215)"/>
</g>
<path fill-rule="evenodd" clip-rule="evenodd" d="M8.72763 8.61548H1.63672C1.63723 9.04022 3.22439 9.38451 5.18217 9.38451C7.13996 9.38451 8.72712 9.04022 8.72763 8.61548Z" fill="#B7B7B9"/>
<g filter="url(#filter5_i_763_5215)">
<path d="M0 3.76929H8.72727V7.53852H2.72727C1.22104 7.53852 0 6.31748 0 4.81124V3.76929Z" fill="url(#paint5_linear_763_5215)"/>
</g>
<path fill-rule="evenodd" clip-rule="evenodd" d="M0 3.76929C9.5541e-05 4.36404 1.95373 4.84617 4.36364 4.84617C6.77355 4.84617 8.72718 4.36404 8.72727 3.76929H0Z" fill="#B7B7B9"/>
<path fill-rule="evenodd" clip-rule="evenodd" d="M15.2724 8.61548H22.3633C22.3628 9.04022 20.7756 9.38451 18.8178 9.38451C16.86 9.38451 15.2729 9.04022 15.2724 8.61548Z" fill="#585C77"/>
<path fill-rule="evenodd" clip-rule="evenodd" d="M0 3.76929C9.5541e-05 4.36404 1.95373 4.84617 4.36364 4.84617C6.77355 4.84617 8.72718 4.36404 8.72727 3.76929H0Z" fill="#A09FA7"/>
<path fill-rule="evenodd" clip-rule="evenodd" d="M8.72763 8.61548H1.63672C1.63723 9.04022 3.22439 9.38451 5.18217 9.38451C7.13996 9.38451 8.72712 9.04022 8.72763 8.61548Z" fill="#585C77"/>
<path fill-rule="evenodd" clip-rule="evenodd" d="M0 3.76929C9.5541e-05 4.36404 1.95373 4.84617 4.36364 4.84617C6.77355 4.84617 8.72718 4.36404 8.72727 3.76929H0Z" fill="#585C77"/>
<g filter="url(#filter6_i_763_5215)">
<ellipse cx="12.0011" cy="7" rx="7.09091" ry="7" fill="#7C7D8F"/>
</g>
<ellipse cx="12.0014" cy="7.00009" rx="5.45455" ry="5.38462" fill="url(#paint6_diamond_763_5215)"/>
<ellipse cx="12.0028" cy="6.99996" rx="4.90909" ry="4.84615" fill="#585C77"/>
<path d="M11.0149 8.5127H10.3258L9.12402 5.26056H9.83026L10.5023 7.35081C10.5441 7.4875 10.6011 7.69254 10.6732 7.96593L10.7245 7.76658L10.8384 7.35081L11.5047 5.26056H12.211L11.0149 8.5127ZM12.5344 8.5127V8.02858H13.3432V5.81302L12.5629 6.29714V5.79024L13.3774 5.26056H13.9925V8.02858H14.7386V8.5127H12.5344Z" fill="#F6F9FF"/>
<defs>
<filter id="filter0_i_763_5215" x="1.63672" y="8.34275" width="7.36257" height="2.96511" filterUnits="userSpaceOnUse" color-interpolation-filters="sRGB">
<feFlood flood-opacity="0" result="BackgroundImageFix"/>
<feBlend mode="normal" in="SourceGraphic" in2="BackgroundImageFix" result="shape"/>
<feColorMatrix in="SourceAlpha" type="matrix" values="0 0 0 0 0 0 0 0 0 0 0 0 0 0 0 0 0 0 127 0" result="hardAlpha"/>
<feOffset dx="0.272727" dy="-0.272727"/>
<feGaussianBlur stdDeviation="0.545455"/>
<feComposite in2="hardAlpha" operator="arithmetic" k2="-1" k3="1"/>
<feColorMatrix type="matrix" values="0 0 0 0 0.552941 0 0 0 0 0.603922 0 0 0 0 0.803922 0 0 0 0.6 0"/>
<feBlend mode="normal" in2="shape" result="effect1_innerShadow_763_5215"/>
</filter>
<filter id="filter1_i_763_5215" x="15.2734" y="8.34275" width="7.36257" height="2.96511" filterUnits="userSpaceOnUse" color-interpolation-filters="sRGB">
<feFlood flood-opacity="0" result="BackgroundImageFix"/>
<feBlend mode="normal" in="SourceGraphic" in2="BackgroundImageFix" result="shape"/>
<feColorMatrix in="SourceAlpha" type="matrix" values="0 0 0 0 0 0 0 0 0 0 0 0 0 0 0 0 0 0 127 0" result="hardAlpha"/>
<feOffset dx="0.272727" dy="-0.272727"/>
<feGaussianBlur stdDeviation="0.545455"/>
<feComposite in2="hardAlpha" operator="arithmetic" k2="-1" k3="1"/>
<feColorMatrix type="matrix" values="0 0 0 0 0.552941 0 0 0 0 0.603922 0 0 0 0 0.803922 0 0 0 0.6 0"/>
<feBlend mode="normal" in2="shape" result="effect1_innerShadow_763_5215"/>
</filter>
<filter id="filter2_i_763_5215" x="15.2734" y="3.22383" width="9.27202" height="4.31474" filterUnits="userSpaceOnUse" color-interpolation-filters="sRGB">
<feFlood flood-opacity="0" result="BackgroundImageFix"/>
<feBlend mode="normal" in="SourceGraphic" in2="BackgroundImageFix" result="shape"/>
<feColorMatrix in="SourceAlpha" type="matrix" values="0 0 0 0 0 0 0 0 0 0 0 0 0 0 0 0 0 0 127 0" result="hardAlpha"/>
<feOffset dx="0.545455" dy="-0.545455"/>
<feGaussianBlur stdDeviation="0.545455"/>
<feComposite in2="hardAlpha" operator="arithmetic" k2="-1" k3="1"/>
<feColorMatrix type="matrix" values="0 0 0 0 0.345098 0 0 0 0 0.360784 0 0 0 0 0.466667 0 0 0 0.6 0"/>
<feBlend mode="normal" in2="shape" result="effect1_innerShadow_763_5215"/>
</filter>
<filter id="filter3_i_763_5215" x="15.2734" y="8.07002" width="7.6353" height="3.23784" filterUnits="userSpaceOnUse" color-interpolation-filters="sRGB">
<feFlood flood-opacity="0" result="BackgroundImageFix"/>
<feBlend mode="normal" in="SourceGraphic" in2="BackgroundImageFix" result="shape"/>
<feColorMatrix in="SourceAlpha" type="matrix" values="0 0 0 0 0 0 0 0 0 0 0 0 0 0 0 0 0 0 127 0" result="hardAlpha"/>
<feOffset dx="0.545455" dy="-0.545455"/>
<feGaussianBlur stdDeviation="0.545455"/>
<feComposite in2="hardAlpha" operator="arithmetic" k2="-1" k3="1"/>
<feColorMatrix type="matrix" values="0 0 0 0 0.345098 0 0 0 0 0.360784 0 0 0 0 0.466667 0 0 0 0.6 0"/>
<feBlend mode="normal" in2="shape" result="effect1_innerShadow_763_5215"/>
</filter>
<filter id="filter4_i_763_5215" x="1.63672" y="8.07002" width="7.6353" height="3.23784" filterUnits="userSpaceOnUse" color-interpolation-filters="sRGB">
<feFlood flood-opacity="0" result="BackgroundImageFix"/>
<feBlend mode="normal" in="SourceGraphic" in2="BackgroundImageFix" result="shape"/>
<feColorMatrix in="SourceAlpha" type="matrix" values="0 0 0 0 0 0 0 0 0 0 0 0 0 0 0 0 0 0 127 0" result="hardAlpha"/>
<feOffset dx="0.545455" dy="-0.545455"/>
<feGaussianBlur stdDeviation="0.545455"/>
<feComposite in2="hardAlpha" operator="arithmetic" k2="-1" k3="1"/>
<feColorMatrix type="matrix" values="0 0 0 0 0.345098 0 0 0 0 0.360784 0 0 0 0 0.466667 0 0 0 0.6 0"/>
<feBlend mode="normal" in2="shape" result="effect1_innerShadow_763_5215"/>
</filter>
<filter id="filter5_i_763_5215" x="0" y="3.22383" width="9.27202" height="4.31474" filterUnits="userSpaceOnUse" color-interpolation-filters="sRGB">
<feFlood flood-opacity="0" result="BackgroundImageFix"/>
<feBlend mode="normal" in="SourceGraphic" in2="BackgroundImageFix" result="shape"/>
<feColorMatrix in="SourceAlpha" type="matrix" values="0 0 0 0 0 0 0 0 0 0 0 0 0 0 0 0 0 0 127 0" result="hardAlpha"/>
<feOffset dx="0.545455" dy="-0.545455"/>
<feGaussianBlur stdDeviation="0.545455"/>
<feComposite in2="hardAlpha" operator="arithmetic" k2="-1" k3="1"/>
<feColorMatrix type="matrix" values="0 0 0 0 0.345098 0 0 0 0 0.360784 0 0 0 0 0.466667 0 0 0 0.6 0"/>
<feBlend mode="normal" in2="shape" result="effect1_innerShadow_763_5215"/>
</filter>
<filter id="filter6_i_763_5215" x="3.81925" y="-1.09091" width="15.2745" height="15.0909" filterUnits="userSpaceOnUse" color-interpolation-filters="sRGB">
<feFlood flood-opacity="0" result="BackgroundImageFix"/>
<feBlend mode="normal" in="SourceGraphic" in2="BackgroundImageFix" result="shape"/>
<feColorMatrix in="SourceAlpha" type="matrix" values="0 0 0 0 0 0 0 0 0 0 0 0 0 0 0 0 0 0 127 0" result="hardAlpha"/>
<feOffset dx="-1.09091" dy="-1.09091"/>
<feGaussianBlur stdDeviation="1.09091"/>
<feComposite in2="hardAlpha" operator="arithmetic" k2="-1" k3="1"/>
<feColorMatrix type="matrix" values="0 0 0 0 0.500445 0 0 0 0 0.500445 0 0 0 0 0.587679 0 0 0 1 0"/>
<feBlend mode="normal" in2="shape" result="effect1_innerShadow_763_5215"/>
</filter>
<linearGradient id="paint0_linear_763_5215" x1="5.18217" y1="8.61548" x2="5.18217" y2="11.3078" gradientUnits="userSpaceOnUse">
<stop stop-color="#AEC9E3"/>
<stop offset="1" stop-color="#9FBCD9"/>
</linearGradient>
<linearGradient id="paint1_linear_763_5215" x1="18.8178" y1="8.61548" x2="18.8178" y2="11.3078" gradientUnits="userSpaceOnUse">
<stop stop-color="#AEC9E3"/>
<stop offset="1" stop-color="#9FBCD9"/>
</linearGradient>
<linearGradient id="paint2_linear_763_5215" x1="19.6364" y1="3.76929" x2="19.6364" y2="7.53852" gradientUnits="userSpaceOnUse">
<stop stop-color="#A2A3B1"/>
<stop offset="1" stop-color="#878899"/>
</linearGradient>
<linearGradient id="paint3_linear_763_5215" x1="18.8178" y1="8.61548" x2="18.8178" y2="11.3078" gradientUnits="userSpaceOnUse">
<stop stop-color="#A2A3B1"/>
<stop offset="1" stop-color="#878899"/>
</linearGradient>
<linearGradient id="paint4_linear_763_5215" x1="5.18217" y1="8.61548" x2="5.18217" y2="11.3078" gradientUnits="userSpaceOnUse">
<stop stop-color="#B5B5BC"/>
<stop offset="1" stop-color="#878899"/>
</linearGradient>
<linearGradient id="paint5_linear_763_5215" x1="4.36364" y1="3.76929" x2="4.36364" y2="7.53852" gradientUnits="userSpaceOnUse">
<stop stop-color="#A3A4B1"/>
<stop offset="1" stop-color="#828394"/>
</linearGradient>
<radialGradient id="paint6_diamond_763_5215" cx="0" cy="0" r="1" gradientUnits="userSpaceOnUse" gradientTransform="translate(9.54688 3.76932) rotate(49.2086) scale(9.6015 9.62044)">
<stop stop-color="#42425C"/>
<stop offset="1" stop-color="#9A9BAA"/>
</radialGradient>
</defs>
</svg>
