<svg width="24" height="14" viewBox="0 0 24 14" fill="none" xmlns="http://www.w3.org/2000/svg">
<g filter="url(#filter0_i_763_5319)">
<path d="M0 3.76904H8.72727V7.53827H2.72727C1.22104 7.53827 0 6.31723 0 4.811V3.76904Z" fill="url(#paint0_linear_763_5319)"/>
</g>
<path fill-rule="evenodd" clip-rule="evenodd" d="M0 3.76904C0 3.76911 0 3.76917 0 3.76924C0 4.36401 1.95367 4.84616 4.36364 4.84616C6.77361 4.84616 8.72727 4.36401 8.72727 3.76924C8.72727 3.76917 8.72727 3.76911 8.72727 3.76904H0Z" fill="#A8B7E7"/>
<g filter="url(#filter1_i_763_5319)">
<path d="M1.63672 8.61548H8.72763V11.3078H4.32903C2.8421 11.3078 1.63672 10.1024 1.63672 8.61548Z" fill="url(#paint1_linear_763_5319)"/>
</g>
<path fill-rule="evenodd" clip-rule="evenodd" d="M8.72763 8.61548H1.63672C1.63723 9.04022 3.22439 9.38451 5.18217 9.38451C7.13996 9.38451 8.72712 9.04022 8.72763 8.61548Z" fill="#A8B7E7"/>
<g filter="url(#filter2_i_763_5319)">
<path d="M22.3633 8.61548H15.2724V11.3078H19.671C21.1579 11.3078 22.3633 10.1024 22.3633 8.61548Z" fill="url(#paint2_linear_763_5319)"/>
</g>
<path fill-rule="evenodd" clip-rule="evenodd" d="M15.2724 8.61548H22.3633C22.3628 9.04022 20.7756 9.38451 18.8178 9.38451C16.86 9.38451 15.2729 9.04022 15.2724 8.61548Z" fill="#A8B7E7"/>
<g filter="url(#filter3_i_763_5319)">
<path d="M24 3.76904H15.2727V7.53827H21.2727C22.779 7.53827 24 6.31723 24 4.811V3.76904Z" fill="url(#paint3_linear_763_5319)"/>
</g>
<path fill-rule="evenodd" clip-rule="evenodd" d="M24 3.76904C24 3.76911 24 3.76917 24 3.76924C24 4.36401 22.0463 4.84616 19.6364 4.84616C17.2264 4.84616 15.2727 4.36401 15.2727 3.76924C15.2727 3.76917 15.2727 3.76911 15.2727 3.76904H24Z" fill="#A8B7E7"/>
<g filter="url(#filter4_i_763_5319)">
<ellipse cx="12.0011" cy="7" rx="7.09091" ry="7" fill="#DCE3FD"/>
</g>
<ellipse cx="12.0014" cy="7.00009" rx="5.45455" ry="5.38462" fill="url(#paint4_diamond_763_5319)"/>
<ellipse cx="12.0028" cy="6.99972" rx="4.90909" ry="4.84615" fill="#6873A8"/>
<path d="M11.0149 8.5127H10.3258L9.12402 5.26056H9.83026L10.5023 7.35081C10.5441 7.4875 10.6011 7.69254 10.6732 7.96593L10.7245 7.76658L10.8384 7.35081L11.5047 5.26056H12.211L11.0149 8.5127ZM12.4035 8.5127V8.06275C12.487 7.8767 12.6066 7.69634 12.7623 7.52168C12.9179 7.34322 13.1154 7.15716 13.3546 6.96352C13.5824 6.77746 13.7419 6.62558 13.833 6.50788C13.9242 6.38637 13.9697 6.26866 13.9697 6.15475C13.9697 5.86998 13.8273 5.72759 13.5426 5.72759C13.4059 5.72759 13.2995 5.76556 13.2236 5.8415C13.1515 5.91744 13.104 6.02945 13.0812 6.17754L12.4319 6.13767C12.4699 5.8377 12.5819 5.60799 12.768 5.44851C12.9578 5.28904 13.2141 5.2093 13.5369 5.2093C13.8862 5.2093 14.1539 5.29093 14.3399 5.45421C14.5298 5.61368 14.6247 5.8377 14.6247 6.12628C14.6247 6.27816 14.5943 6.41675 14.5336 6.54205C14.4766 6.66355 14.4007 6.77746 14.3058 6.88378C14.2108 6.9863 14.1064 7.08312 13.9925 7.17425C13.8786 7.26158 13.7666 7.34891 13.6565 7.43624C13.5501 7.52358 13.4533 7.61091 13.366 7.69824C13.2787 7.78557 13.2122 7.8786 13.1666 7.97732H14.676V8.5127H12.4035Z" fill="#F6F9FF"/>
<defs>
<filter id="filter0_i_763_5319" x="0" y="3.22359" width="9.27202" height="4.31474" filterUnits="userSpaceOnUse" color-interpolation-filters="sRGB">
<feFlood flood-opacity="0" result="BackgroundImageFix"/>
<feBlend mode="normal" in="SourceGraphic" in2="BackgroundImageFix" result="shape"/>
<feColorMatrix in="SourceAlpha" type="matrix" values="0 0 0 0 0 0 0 0 0 0 0 0 0 0 0 0 0 0 127 0" result="hardAlpha"/>
<feOffset dx="0.545455" dy="-0.545455"/>
<feGaussianBlur stdDeviation="0.545455"/>
<feComposite in2="hardAlpha" operator="arithmetic" k2="-1" k3="1"/>
<feColorMatrix type="matrix" values="0 0 0 0 0.552941 0 0 0 0 0.603922 0 0 0 0 0.803922 0 0 0 0.6 0"/>
<feBlend mode="normal" in2="shape" result="effect1_innerShadow_763_5319"/>
</filter>
<filter id="filter1_i_763_5319" x="1.63672" y="8.34275" width="7.36257" height="2.96511" filterUnits="userSpaceOnUse" color-interpolation-filters="sRGB">
<feFlood flood-opacity="0" result="BackgroundImageFix"/>
<feBlend mode="normal" in="SourceGraphic" in2="BackgroundImageFix" result="shape"/>
<feColorMatrix in="SourceAlpha" type="matrix" values="0 0 0 0 0 0 0 0 0 0 0 0 0 0 0 0 0 0 127 0" result="hardAlpha"/>
<feOffset dx="0.272727" dy="-0.272727"/>
<feGaussianBlur stdDeviation="0.545455"/>
<feComposite in2="hardAlpha" operator="arithmetic" k2="-1" k3="1"/>
<feColorMatrix type="matrix" values="0 0 0 0 0.552941 0 0 0 0 0.603922 0 0 0 0 0.803922 0 0 0 0.6 0"/>
<feBlend mode="normal" in2="shape" result="effect1_innerShadow_763_5319"/>
</filter>
<filter id="filter2_i_763_5319" x="15.2734" y="8.34275" width="7.36257" height="2.96511" filterUnits="userSpaceOnUse" color-interpolation-filters="sRGB">
<feFlood flood-opacity="0" result="BackgroundImageFix"/>
<feBlend mode="normal" in="SourceGraphic" in2="BackgroundImageFix" result="shape"/>
<feColorMatrix in="SourceAlpha" type="matrix" values="0 0 0 0 0 0 0 0 0 0 0 0 0 0 0 0 0 0 127 0" result="hardAlpha"/>
<feOffset dx="0.272727" dy="-0.272727"/>
<feGaussianBlur stdDeviation="0.545455"/>
<feComposite in2="hardAlpha" operator="arithmetic" k2="-1" k3="1"/>
<feColorMatrix type="matrix" values="0 0 0 0 0.552941 0 0 0 0 0.603922 0 0 0 0 0.803922 0 0 0 0.6 0"/>
<feBlend mode="normal" in2="shape" result="effect1_innerShadow_763_5319"/>
</filter>
<filter id="filter3_i_763_5319" x="15.2734" y="3.22359" width="9.27202" height="4.31474" filterUnits="userSpaceOnUse" color-interpolation-filters="sRGB">
<feFlood flood-opacity="0" result="BackgroundImageFix"/>
<feBlend mode="normal" in="SourceGraphic" in2="BackgroundImageFix" result="shape"/>
<feColorMatrix in="SourceAlpha" type="matrix" values="0 0 0 0 0 0 0 0 0 0 0 0 0 0 0 0 0 0 127 0" result="hardAlpha"/>
<feOffset dx="0.545455" dy="-0.545455"/>
<feGaussianBlur stdDeviation="0.545455"/>
<feComposite in2="hardAlpha" operator="arithmetic" k2="-1" k3="1"/>
<feColorMatrix type="matrix" values="0 0 0 0 0.517647 0 0 0 0 0.572549 0 0 0 0 0.780392 0 0 0 0.6 0"/>
<feBlend mode="normal" in2="shape" result="effect1_innerShadow_763_5319"/>
</filter>
<filter id="filter4_i_763_5319" x="3.81925" y="-1.09091" width="15.2745" height="15.0909" filterUnits="userSpaceOnUse" color-interpolation-filters="sRGB">
<feFlood flood-opacity="0" result="BackgroundImageFix"/>
<feBlend mode="normal" in="SourceGraphic" in2="BackgroundImageFix" result="shape"/>
<feColorMatrix in="SourceAlpha" type="matrix" values="0 0 0 0 0 0 0 0 0 0 0 0 0 0 0 0 0 0 127 0" result="hardAlpha"/>
<feOffset dx="-1.09091" dy="-1.09091"/>
<feGaussianBlur stdDeviation="1.09091"/>
<feComposite in2="hardAlpha" operator="arithmetic" k2="-1" k3="1"/>
<feColorMatrix type="matrix" values="0 0 0 0 0.686275 0 0 0 0 0.72549 0 0 0 0 0.917647 0 0 0 1 0"/>
<feBlend mode="normal" in2="shape" result="effect1_innerShadow_763_5319"/>
</filter>
<linearGradient id="paint0_linear_763_5319" x1="4.36364" y1="3.76904" x2="4.36364" y2="7.53827" gradientUnits="userSpaceOnUse">
<stop stop-color="#CAD2F9"/>
<stop offset="1" stop-color="#C1C9F7"/>
</linearGradient>
<linearGradient id="paint1_linear_763_5319" x1="5.18217" y1="8.61548" x2="5.18217" y2="11.3078" gradientUnits="userSpaceOnUse">
<stop stop-color="#CAD2F9"/>
<stop offset="1" stop-color="#C1C9F7"/>
</linearGradient>
<linearGradient id="paint2_linear_763_5319" x1="18.8178" y1="8.61548" x2="18.8178" y2="11.3078" gradientUnits="userSpaceOnUse">
<stop stop-color="#CAD2F9"/>
<stop offset="1" stop-color="#C1C9F7"/>
</linearGradient>
<linearGradient id="paint3_linear_763_5319" x1="19.6364" y1="3.76904" x2="19.6364" y2="7.53827" gradientUnits="userSpaceOnUse">
<stop stop-color="#CAD2F9"/>
<stop offset="1" stop-color="#C1C9F7"/>
</linearGradient>
<radialGradient id="paint4_diamond_763_5319" cx="0" cy="0" r="1" gradientUnits="userSpaceOnUse" gradientTransform="translate(9.54688 3.76932) rotate(49.2086) scale(9.6015 9.62044)">
<stop stop-color="#7C8BC1"/>
<stop offset="0.317708" stop-color="#8E9CCE"/>
<stop offset="1" stop-color="#B6BFEA"/>
</radialGradient>
</defs>
</svg>
