<svg width="24" height="20" viewBox="0 0 24 20" fill="none" xmlns="http://www.w3.org/2000/svg">
<path fill-rule="evenodd" clip-rule="evenodd" d="M11.9982 0L5.81641 8.16899H11.9982V0Z" fill="#A9C5DF"/>
<path fill-rule="evenodd" clip-rule="evenodd" d="M11.9982 20L5.81641 11.831H11.9982V20Z" fill="#A9C5DF"/>
<path fill-rule="evenodd" clip-rule="evenodd" d="M12.0018 0L18.1836 8.16898H12.0018V0Z" fill="#87A7C6"/>
<path fill-rule="evenodd" clip-rule="evenodd" d="M12.0018 20L18.1836 11.831H12.0018V20Z" fill="#87A7C6"/>
<g filter="url(#filter0_i_763_5346)">
<path d="M0 5.63379H8.72727V9.57745H2.72727C1.22104 9.57745 0 8.35641 0 6.85018V5.63379Z" fill="url(#paint0_linear_763_5346)"/>
</g>
<path fill-rule="evenodd" clip-rule="evenodd" d="M0 5.63379C0 5.63379 0 5.63379 0 5.6338C0 6.25609 1.95367 6.76056 4.36364 6.76056C6.77361 6.76056 8.72727 6.25609 8.72727 5.6338C8.72727 5.63379 8.72727 5.63379 8.72727 5.63379H0Z" fill="#A8B7E7"/>
<g filter="url(#filter1_i_763_5346)">
<path d="M1.08984 9.76489H8.72621V12.7696H3.81712C2.31088 12.7696 1.08984 11.5485 1.08984 10.0423V9.76489Z" fill="url(#paint1_linear_763_5346)"/>
</g>
<path fill-rule="evenodd" clip-rule="evenodd" d="M1.08984 9.76465C1.09005 10.2387 2.79943 10.623 4.90803 10.623C7.01662 10.623 8.726 10.2387 8.72621 9.76465H1.08984Z" fill="#A8B7E7"/>
<g filter="url(#filter2_i_763_5346)">
<path d="M3.63672 13.1458H10.5458V15.0237H5.51465C4.4775 15.0237 3.63672 14.1829 3.63672 13.1458Z" fill="url(#paint2_linear_763_5346)"/>
</g>
<path fill-rule="evenodd" clip-rule="evenodd" d="M3.63672 13.1458C3.63672 13.1458 3.63672 13.1458 3.63672 13.1458C3.63672 13.4421 5.18337 13.6823 7.09126 13.6823C8.99916 13.6823 10.5458 13.4421 10.5458 13.1458C10.5458 13.1458 10.5458 13.1458 10.5458 13.1458H3.63672Z" fill="#A8B7E7"/>
<g filter="url(#filter3_i_763_5346)">
<path d="M20.3633 13.3335H13.2724V15.0236H18.6731C19.6066 15.0236 20.3633 14.2669 20.3633 13.3335Z" fill="url(#paint3_linear_763_5346)"/>
</g>
<path fill-rule="evenodd" clip-rule="evenodd" d="M20.3633 13.3337C20.3633 13.3337 20.3633 13.3338 20.3633 13.3338C20.3633 13.6005 18.7759 13.8167 16.8178 13.8167C14.8597 13.8167 13.2724 13.6005 13.2724 13.3338C13.2724 13.3338 13.2724 13.3337 13.2724 13.3337H20.3633Z" fill="#A8B7E7"/>
<g filter="url(#filter4_i_763_5346)">
<path d="M24 5.63379H15.2727V9.57745H21.2727C22.779 9.57745 24 8.35641 24 6.85018V5.63379Z" fill="url(#paint4_linear_763_5346)"/>
</g>
<path fill-rule="evenodd" clip-rule="evenodd" d="M24 5.63379C24 5.63379 24 5.63379 24 5.6338C24 6.25609 22.0463 6.76056 19.6364 6.76056C17.2264 6.76056 15.2727 6.25609 15.2727 5.6338C15.2727 5.63379 15.2727 5.63379 15.2727 5.63379H24Z" fill="#7D9BC0"/>
<g filter="url(#filter5_i_763_5346)">
<path d="M22.9102 9.76489H15.2738V12.9574H20.1829C21.6891 12.9574 22.9102 11.7363 22.9102 10.2301V9.76489Z" fill="url(#paint5_linear_763_5346)"/>
</g>
<path fill-rule="evenodd" clip-rule="evenodd" d="M22.9102 9.7644C22.9102 9.76443 22.9102 9.76445 22.9102 9.76448C22.9102 10.2682 21.2007 10.6766 19.092 10.6766C16.9833 10.6766 15.2738 10.2682 15.2738 9.76448C15.2738 9.76445 15.2738 9.76443 15.2738 9.7644H22.9102Z" fill="#7D9BC0"/>
<g filter="url(#filter6_i_763_5346)">
<path d="M20.5469 13.1458H15.2741V15.0237H18.6689C19.7061 15.0237 20.5469 14.1829 20.5469 13.1458Z" fill="url(#paint6_linear_763_5346)"/>
</g>
<path fill-rule="evenodd" clip-rule="evenodd" d="M20.5469 13.1458C20.5469 13.1458 20.5469 13.1458 20.5469 13.1458C20.5469 13.4421 19.3665 13.6823 17.9105 13.6823C16.4545 13.6823 15.2741 13.4421 15.2741 13.1458C15.2741 13.1458 15.2741 13.1458 15.2741 13.1458H20.5469Z" fill="#7D9BC0"/>
<g filter="url(#filter7_i_763_5346)">
<path d="M3.63672 13.1458H8.72763V15.0237H5.51465C4.4775 15.0237 3.63672 14.1829 3.63672 13.1458Z" fill="url(#paint7_linear_763_5346)"/>
</g>
<path fill-rule="evenodd" clip-rule="evenodd" d="M3.63672 13.1458C3.63672 13.1458 3.63672 13.1458 3.63672 13.1458C3.63672 13.4421 4.77636 13.6823 6.18217 13.6823C7.58799 13.6823 8.72763 13.4421 8.72763 13.1458C8.72763 13.1458 8.72763 13.1458 8.72763 13.1458H3.63672Z" fill="#7D9BC0"/>
<g filter="url(#filter8_i_763_5346)">
<path d="M1.08984 9.76489H8.72621V12.9574H3.81712C2.31088 12.9574 1.08984 11.7363 1.08984 10.2301V9.76489Z" fill="url(#paint8_linear_763_5346)"/>
</g>
<path fill-rule="evenodd" clip-rule="evenodd" d="M1.08984 9.7644C1.08984 9.76443 1.08984 9.76445 1.08984 9.76448C1.08984 10.2682 2.7993 10.6766 4.90803 10.6766C7.01675 10.6766 8.72621 10.2682 8.72621 9.76448C8.72621 9.76445 8.72621 9.76443 8.72621 9.7644H1.08984Z" fill="#7D9BC0"/>
<g filter="url(#filter9_i_763_5346)">
<path d="M0 5.63379H8.72727V9.57745H2.72727C1.22104 9.57745 0 8.35641 0 6.85018V5.63379Z" fill="url(#paint9_linear_763_5346)"/>
</g>
<path fill-rule="evenodd" clip-rule="evenodd" d="M0 5.63379C0 5.63379 0 5.63379 0 5.6338C0 6.25609 1.95367 6.76056 4.36364 6.76056C6.77361 6.76056 8.72727 6.25609 8.72727 5.6338C8.72727 5.63379 8.72727 5.63379 8.72727 5.63379H0Z" fill="#7D9BC0"/>
<g filter="url(#filter10_i_763_5346)">
<ellipse cx="12.0011" cy="9.95309" rx="7.09091" ry="7.32394" fill="url(#paint10_linear_763_5346)"/>
</g>
<ellipse cx="12.0014" cy="9.95314" rx="5.45455" ry="5.6338" fill="url(#paint11_diamond_763_5346)"/>
<ellipse cx="12.0028" cy="9.95323" rx="4.90909" ry="5.07042" fill="#5274A0"/>
<path d="M11.0149 11.2581H10.3258L9.12402 8.00592H9.83026L10.5023 10.0962C10.5441 10.2329 10.6011 10.4379 10.6732 10.7113L10.7245 10.5119L10.8384 10.0962L11.5047 8.00592H12.211L11.0149 11.2581ZM14.6987 10.3582C14.6987 10.6619 14.5981 10.8973 14.3969 11.0644C14.1956 11.2277 13.9109 11.3093 13.5426 11.3093C13.1932 11.3093 12.9141 11.2296 12.7053 11.0701C12.5003 10.9106 12.3807 10.679 12.3465 10.3753L13.0072 10.3183C13.0489 10.6297 13.2274 10.7853 13.5426 10.7853C13.6982 10.7853 13.8178 10.7474 13.9014 10.6714C13.9887 10.5917 14.0324 10.474 14.0324 10.3183C14.0324 10.174 13.9792 10.0639 13.8729 9.98796C13.7704 9.90822 13.6147 9.86835 13.4059 9.86835H13.1837V9.34437H13.3945C13.5805 9.34437 13.721 9.3064 13.8159 9.23046C13.9109 9.15452 13.9583 9.0463 13.9583 8.90581C13.9583 8.77292 13.9204 8.6685 13.8444 8.59256C13.7685 8.51282 13.6603 8.47295 13.5198 8.47295C13.3869 8.47295 13.2787 8.51092 13.1951 8.58686C13.1116 8.65901 13.0641 8.76342 13.0527 8.90012L12.4035 8.85455C12.4376 8.57357 12.5534 8.35335 12.7509 8.19387C12.9483 8.0344 13.2084 7.95466 13.5312 7.95466C13.8729 7.95466 14.1387 8.0325 14.3285 8.18818C14.5184 8.34006 14.6133 8.55079 14.6133 8.82038C14.6133 9.02162 14.5526 9.18869 14.4311 9.32158C14.3133 9.45448 14.1425 9.54181 13.9185 9.58358V9.59497C14.1691 9.62534 14.3608 9.70888 14.4937 9.84557C14.6304 9.97847 14.6987 10.1493 14.6987 10.3582Z" fill="#F6F9FF"/>
<path fill-rule="evenodd" clip-rule="evenodd" d="M9.09233 2.87183C6.41673 4.04217 4.54688 6.77767 4.54688 9.95248C4.54688 13.1273 6.41673 15.8628 9.09233 17.0331V16.2297C6.83701 15.1087 5.27415 12.7245 5.27415 9.95248C5.27415 7.18043 6.83701 4.79623 9.09233 3.6753V2.87183Z" fill="url(#paint12_linear_763_5346)"/>
<path fill-rule="evenodd" clip-rule="evenodd" d="M15.0913 2.87183C17.7669 4.04217 19.6367 6.77767 19.6367 9.95248C19.6367 13.1273 17.7669 15.8628 15.0913 17.0331V16.2297C17.3466 15.1087 18.9094 12.7245 18.9094 9.95248C18.9094 7.18043 17.3466 4.79623 15.0913 3.6753V2.87183Z" fill="url(#paint13_linear_763_5346)"/>
<defs>
<filter id="filter0_i_763_5346" x="0" y="5.08833" width="9.27202" height="4.48906" filterUnits="userSpaceOnUse" color-interpolation-filters="sRGB">
<feFlood flood-opacity="0" result="BackgroundImageFix"/>
<feBlend mode="normal" in="SourceGraphic" in2="BackgroundImageFix" result="shape"/>
<feColorMatrix in="SourceAlpha" type="matrix" values="0 0 0 0 0 0 0 0 0 0 0 0 0 0 0 0 0 0 127 0" result="hardAlpha"/>
<feOffset dx="0.545455" dy="-0.545455"/>
<feGaussianBlur stdDeviation="0.545455"/>
<feComposite in2="hardAlpha" operator="arithmetic" k2="-1" k3="1"/>
<feColorMatrix type="matrix" values="0 0 0 0 0.552941 0 0 0 0 0.603922 0 0 0 0 0.803922 0 0 0 0.6 0"/>
<feBlend mode="normal" in2="shape" result="effect1_innerShadow_763_5346"/>
</filter>
<filter id="filter1_i_763_5346" x="1.08984" y="9.21944" width="8.18217" height="3.55009" filterUnits="userSpaceOnUse" color-interpolation-filters="sRGB">
<feFlood flood-opacity="0" result="BackgroundImageFix"/>
<feBlend mode="normal" in="SourceGraphic" in2="BackgroundImageFix" result="shape"/>
<feColorMatrix in="SourceAlpha" type="matrix" values="0 0 0 0 0 0 0 0 0 0 0 0 0 0 0 0 0 0 127 0" result="hardAlpha"/>
<feOffset dx="0.545455" dy="-0.545455"/>
<feGaussianBlur stdDeviation="0.545455"/>
<feComposite in2="hardAlpha" operator="arithmetic" k2="-1" k3="1"/>
<feColorMatrix type="matrix" values="0 0 0 0 0.552941 0 0 0 0 0.603922 0 0 0 0 0.803922 0 0 0 0.6 0"/>
<feBlend mode="normal" in2="shape" result="effect1_innerShadow_763_5346"/>
</filter>
<filter id="filter2_i_763_5346" x="3.63672" y="12.873" width="7.18288" height="2.15066" filterUnits="userSpaceOnUse" color-interpolation-filters="sRGB">
<feFlood flood-opacity="0" result="BackgroundImageFix"/>
<feBlend mode="normal" in="SourceGraphic" in2="BackgroundImageFix" result="shape"/>
<feColorMatrix in="SourceAlpha" type="matrix" values="0 0 0 0 0 0 0 0 0 0 0 0 0 0 0 0 0 0 127 0" result="hardAlpha"/>
<feOffset dx="0.272727" dy="-0.272727"/>
<feGaussianBlur stdDeviation="0.545455"/>
<feComposite in2="hardAlpha" operator="arithmetic" k2="-1" k3="1"/>
<feColorMatrix type="matrix" values="0 0 0 0 0.552941 0 0 0 0 0.603922 0 0 0 0 0.803922 0 0 0 0.6 0"/>
<feBlend mode="normal" in2="shape" result="effect1_innerShadow_763_5346"/>
</filter>
<filter id="filter3_i_763_5346" x="13.2734" y="13.0608" width="7.36257" height="1.96291" filterUnits="userSpaceOnUse" color-interpolation-filters="sRGB">
<feFlood flood-opacity="0" result="BackgroundImageFix"/>
<feBlend mode="normal" in="SourceGraphic" in2="BackgroundImageFix" result="shape"/>
<feColorMatrix in="SourceAlpha" type="matrix" values="0 0 0 0 0 0 0 0 0 0 0 0 0 0 0 0 0 0 127 0" result="hardAlpha"/>
<feOffset dx="0.272727" dy="-0.272727"/>
<feGaussianBlur stdDeviation="0.545455"/>
<feComposite in2="hardAlpha" operator="arithmetic" k2="-1" k3="1"/>
<feColorMatrix type="matrix" values="0 0 0 0 0.552941 0 0 0 0 0.603922 0 0 0 0 0.803922 0 0 0 0.6 0"/>
<feBlend mode="normal" in2="shape" result="effect1_innerShadow_763_5346"/>
</filter>
<filter id="filter4_i_763_5346" x="15.2734" y="5.08833" width="9.27202" height="4.48906" filterUnits="userSpaceOnUse" color-interpolation-filters="sRGB">
<feFlood flood-opacity="0" result="BackgroundImageFix"/>
<feBlend mode="normal" in="SourceGraphic" in2="BackgroundImageFix" result="shape"/>
<feColorMatrix in="SourceAlpha" type="matrix" values="0 0 0 0 0 0 0 0 0 0 0 0 0 0 0 0 0 0 127 0" result="hardAlpha"/>
<feOffset dx="0.545455" dy="-0.545455"/>
<feGaussianBlur stdDeviation="0.545455"/>
<feComposite in2="hardAlpha" operator="arithmetic" k2="-1" k3="1"/>
<feColorMatrix type="matrix" values="0 0 0 0 0.352941 0 0 0 0 0.576471 0 0 0 0 0.776471 0 0 0 0.6 0"/>
<feBlend mode="normal" in2="shape" result="effect1_innerShadow_763_5346"/>
</filter>
<filter id="filter5_i_763_5346" x="15.2734" y="9.21944" width="8.18217" height="3.73784" filterUnits="userSpaceOnUse" color-interpolation-filters="sRGB">
<feFlood flood-opacity="0" result="BackgroundImageFix"/>
<feBlend mode="normal" in="SourceGraphic" in2="BackgroundImageFix" result="shape"/>
<feColorMatrix in="SourceAlpha" type="matrix" values="0 0 0 0 0 0 0 0 0 0 0 0 0 0 0 0 0 0 127 0" result="hardAlpha"/>
<feOffset dx="0.545455" dy="-0.545455"/>
<feGaussianBlur stdDeviation="0.545455"/>
<feComposite in2="hardAlpha" operator="arithmetic" k2="-1" k3="1"/>
<feColorMatrix type="matrix" values="0 0 0 0 0.352941 0 0 0 0 0.576471 0 0 0 0 0.776471 0 0 0 0.6 0"/>
<feBlend mode="normal" in2="shape" result="effect1_innerShadow_763_5346"/>
</filter>
<filter id="filter6_i_763_5346" x="15.2734" y="12.6003" width="5.81889" height="2.42338" filterUnits="userSpaceOnUse" color-interpolation-filters="sRGB">
<feFlood flood-opacity="0" result="BackgroundImageFix"/>
<feBlend mode="normal" in="SourceGraphic" in2="BackgroundImageFix" result="shape"/>
<feColorMatrix in="SourceAlpha" type="matrix" values="0 0 0 0 0 0 0 0 0 0 0 0 0 0 0 0 0 0 127 0" result="hardAlpha"/>
<feOffset dx="0.545455" dy="-0.545455"/>
<feGaussianBlur stdDeviation="0.545455"/>
<feComposite in2="hardAlpha" operator="arithmetic" k2="-1" k3="1"/>
<feColorMatrix type="matrix" values="0 0 0 0 0.352941 0 0 0 0 0.576471 0 0 0 0 0.776471 0 0 0 0.6 0"/>
<feBlend mode="normal" in2="shape" result="effect1_innerShadow_763_5346"/>
</filter>
<filter id="filter7_i_763_5346" x="3.63672" y="12.6003" width="5.6353" height="2.42338" filterUnits="userSpaceOnUse" color-interpolation-filters="sRGB">
<feFlood flood-opacity="0" result="BackgroundImageFix"/>
<feBlend mode="normal" in="SourceGraphic" in2="BackgroundImageFix" result="shape"/>
<feColorMatrix in="SourceAlpha" type="matrix" values="0 0 0 0 0 0 0 0 0 0 0 0 0 0 0 0 0 0 127 0" result="hardAlpha"/>
<feOffset dx="0.545455" dy="-0.545455"/>
<feGaussianBlur stdDeviation="0.545455"/>
<feComposite in2="hardAlpha" operator="arithmetic" k2="-1" k3="1"/>
<feColorMatrix type="matrix" values="0 0 0 0 0.352941 0 0 0 0 0.576471 0 0 0 0 0.776471 0 0 0 0.6 0"/>
<feBlend mode="normal" in2="shape" result="effect1_innerShadow_763_5346"/>
</filter>
<filter id="filter8_i_763_5346" x="1.08984" y="9.21944" width="8.18217" height="3.73784" filterUnits="userSpaceOnUse" color-interpolation-filters="sRGB">
<feFlood flood-opacity="0" result="BackgroundImageFix"/>
<feBlend mode="normal" in="SourceGraphic" in2="BackgroundImageFix" result="shape"/>
<feColorMatrix in="SourceAlpha" type="matrix" values="0 0 0 0 0 0 0 0 0 0 0 0 0 0 0 0 0 0 127 0" result="hardAlpha"/>
<feOffset dx="0.545455" dy="-0.545455"/>
<feGaussianBlur stdDeviation="0.545455"/>
<feComposite in2="hardAlpha" operator="arithmetic" k2="-1" k3="1"/>
<feColorMatrix type="matrix" values="0 0 0 0 0.352941 0 0 0 0 0.576471 0 0 0 0 0.776471 0 0 0 0.6 0"/>
<feBlend mode="normal" in2="shape" result="effect1_innerShadow_763_5346"/>
</filter>
<filter id="filter9_i_763_5346" x="0" y="5.08833" width="9.27202" height="4.48906" filterUnits="userSpaceOnUse" color-interpolation-filters="sRGB">
<feFlood flood-opacity="0" result="BackgroundImageFix"/>
<feBlend mode="normal" in="SourceGraphic" in2="BackgroundImageFix" result="shape"/>
<feColorMatrix in="SourceAlpha" type="matrix" values="0 0 0 0 0 0 0 0 0 0 0 0 0 0 0 0 0 0 127 0" result="hardAlpha"/>
<feOffset dx="0.545455" dy="-0.545455"/>
<feGaussianBlur stdDeviation="0.545455"/>
<feComposite in2="hardAlpha" operator="arithmetic" k2="-1" k3="1"/>
<feColorMatrix type="matrix" values="0 0 0 0 0.352941 0 0 0 0 0.576471 0 0 0 0 0.776471 0 0 0 0.6 0"/>
<feBlend mode="normal" in2="shape" result="effect1_innerShadow_763_5346"/>
</filter>
<filter id="filter10_i_763_5346" x="3.81925" y="1.53824" width="15.2745" height="15.7389" filterUnits="userSpaceOnUse" color-interpolation-filters="sRGB">
<feFlood flood-opacity="0" result="BackgroundImageFix"/>
<feBlend mode="normal" in="SourceGraphic" in2="BackgroundImageFix" result="shape"/>
<feColorMatrix in="SourceAlpha" type="matrix" values="0 0 0 0 0 0 0 0 0 0 0 0 0 0 0 0 0 0 127 0" result="hardAlpha"/>
<feOffset dx="-1.09091" dy="-1.09091"/>
<feGaussianBlur stdDeviation="1.09091"/>
<feComposite in2="hardAlpha" operator="arithmetic" k2="-1" k3="1"/>
<feColorMatrix type="matrix" values="0 0 0 0 0.395154 0 0 0 0 0.538717 0 0 0 0 0.610498 0 0 0 1 0"/>
<feBlend mode="normal" in2="shape" result="effect1_innerShadow_763_5346"/>
</filter>
<linearGradient id="paint0_linear_763_5346" x1="4.36364" y1="5.63379" x2="4.36364" y2="9.57745" gradientUnits="userSpaceOnUse">
<stop stop-color="#CAD2F9"/>
<stop offset="1" stop-color="#C1C9F7"/>
</linearGradient>
<linearGradient id="paint1_linear_763_5346" x1="4.90803" y1="9.76489" x2="4.90803" y2="12.7696" gradientUnits="userSpaceOnUse">
<stop stop-color="#CAD2F9"/>
<stop offset="1" stop-color="#C1C9F7"/>
</linearGradient>
<linearGradient id="paint2_linear_763_5346" x1="7.09126" y1="13.1458" x2="7.09126" y2="15.0237" gradientUnits="userSpaceOnUse">
<stop stop-color="#CAD2F9"/>
<stop offset="1" stop-color="#C1C9F7"/>
</linearGradient>
<linearGradient id="paint3_linear_763_5346" x1="16.8178" y1="13.3335" x2="16.8178" y2="15.0236" gradientUnits="userSpaceOnUse">
<stop stop-color="#CAD2F9"/>
<stop offset="1" stop-color="#C1C9F7"/>
</linearGradient>
<linearGradient id="paint4_linear_763_5346" x1="19.6364" y1="8.0751" x2="23.6365" y2="7.98709" gradientUnits="userSpaceOnUse">
<stop stop-color="#5274A0"/>
<stop offset="1" stop-color="#AAC6E0"/>
</linearGradient>
<linearGradient id="paint5_linear_763_5346" x1="19.092" y1="11.7412" x2="22.5918" y2="11.658" gradientUnits="userSpaceOnUse">
<stop stop-color="#5274A0"/>
<stop offset="1" stop-color="#AAC6E0"/>
</linearGradient>
<linearGradient id="paint6_linear_763_5346" x1="17.9105" y1="14.3083" x2="20.3265" y2="14.2408" gradientUnits="userSpaceOnUse">
<stop stop-color="#5274A0"/>
<stop offset="1" stop-color="#AAC6E0"/>
</linearGradient>
<linearGradient id="paint7_linear_763_5346" x1="6.18217" y1="14.3083" x2="3.84933" y2="14.2454" gradientUnits="userSpaceOnUse">
<stop stop-color="#5274A0"/>
<stop offset="1" stop-color="#AAC6E0"/>
</linearGradient>
<linearGradient id="paint8_linear_763_5346" x1="4.90803" y1="11.7412" x2="1.4082" y2="11.658" gradientUnits="userSpaceOnUse">
<stop stop-color="#5274A0"/>
<stop offset="1" stop-color="#AAC6E0"/>
</linearGradient>
<linearGradient id="paint9_linear_763_5346" x1="4.36364" y1="8.0751" x2="0.363507" y2="7.98709" gradientUnits="userSpaceOnUse">
<stop stop-color="#5274A0"/>
<stop offset="1" stop-color="#AAC6E0"/>
</linearGradient>
<linearGradient id="paint10_linear_763_5346" x1="12.0011" y1="2.62915" x2="12.0011" y2="17.277" gradientUnits="userSpaceOnUse">
<stop stop-color="#ADC8E2"/>
<stop offset="1" stop-color="#7FA1C3"/>
</linearGradient>
<radialGradient id="paint11_diamond_763_5346" cx="0" cy="0" r="1" gradientUnits="userSpaceOnUse" gradientTransform="translate(9.54688 6.57286) rotate(50.486) scale(9.85864 9.80311)">
<stop stop-color="#7897BC"/>
<stop offset="0.737455" stop-color="#B7C9DB"/>
<stop offset="1" stop-color="#B7CADB"/>
</radialGradient>
<linearGradient id="paint12_linear_763_5346" x1="6.8196" y1="2.87183" x2="6.8196" y2="17.0331" gradientUnits="userSpaceOnUse">
<stop stop-color="#799BB2"/>
<stop offset="0.479167" stop-color="#A9C5DF"/>
<stop offset="1" stop-color="#6E92A8"/>
</linearGradient>
<linearGradient id="paint13_linear_763_5346" x1="17.364" y1="2.87183" x2="17.364" y2="17.0331" gradientUnits="userSpaceOnUse">
<stop stop-color="#799BB2"/>
<stop offset="0.479167" stop-color="#A9C5DF"/>
<stop offset="1" stop-color="#6E92A8"/>
</linearGradient>
</defs>
</svg>
