<svg width="24" height="20" viewBox="0 0 24 20" fill="none" xmlns="http://www.w3.org/2000/svg">
<path fill-rule="evenodd" clip-rule="evenodd" d="M11.9982 0L5.81641 8.16899H11.9982V0Z" fill="#ACE5FE"/>
<path fill-rule="evenodd" clip-rule="evenodd" d="M11.9982 20L5.81641 11.831H11.9982V20Z" fill="#ACE5FE"/>
<path fill-rule="evenodd" clip-rule="evenodd" d="M12.0018 0L18.1836 8.16898H12.0018V0Z" fill="#78C4FD"/>
<path fill-rule="evenodd" clip-rule="evenodd" d="M12.0018 20L18.1836 11.831H12.0018V20Z" fill="#78C4FD"/>
<g filter="url(#filter0_i_763_5345)">
<path d="M0 5.63379H8.72727V9.57745H2.72727C1.22104 9.57745 0 8.35641 0 6.85018V5.63379Z" fill="url(#paint0_linear_763_5345)"/>
</g>
<path fill-rule="evenodd" clip-rule="evenodd" d="M0 5.63379C0 5.63379 0 5.63379 0 5.6338C0 6.25609 1.95367 6.76056 4.36364 6.76056C6.77361 6.76056 8.72727 6.25609 8.72727 5.6338C8.72727 5.63379 8.72727 5.63379 8.72727 5.63379H0Z" fill="#A8B7E7"/>
<g filter="url(#filter1_i_763_5345)">
<path d="M1.08984 9.76489H8.72621V12.7696H3.81712C2.31088 12.7696 1.08984 11.5485 1.08984 10.0423V9.76489Z" fill="url(#paint1_linear_763_5345)"/>
</g>
<path fill-rule="evenodd" clip-rule="evenodd" d="M1.08984 9.76465C1.09005 10.2387 2.79943 10.623 4.90803 10.623C7.01662 10.623 8.726 10.2387 8.72621 9.76465H1.08984Z" fill="#A8B7E7"/>
<g filter="url(#filter2_i_763_5345)">
<path d="M3.63672 13.1458H10.5458V15.0237H5.51465C4.4775 15.0237 3.63672 14.1829 3.63672 13.1458Z" fill="url(#paint2_linear_763_5345)"/>
</g>
<path fill-rule="evenodd" clip-rule="evenodd" d="M3.63672 13.1458C3.63672 13.1458 3.63672 13.1458 3.63672 13.1458C3.63672 13.4421 5.18337 13.6823 7.09126 13.6823C8.99916 13.6823 10.5458 13.4421 10.5458 13.1458C10.5458 13.1458 10.5458 13.1458 10.5458 13.1458H3.63672Z" fill="#A8B7E7"/>
<g filter="url(#filter3_i_763_5345)">
<path d="M20.3633 13.3335H13.2724V15.0236H18.6731C19.6066 15.0236 20.3633 14.2669 20.3633 13.3335Z" fill="url(#paint3_linear_763_5345)"/>
</g>
<path fill-rule="evenodd" clip-rule="evenodd" d="M20.3633 13.3337C20.3633 13.3337 20.3633 13.3338 20.3633 13.3338C20.3633 13.6005 18.7759 13.8167 16.8178 13.8167C14.8597 13.8167 13.2724 13.6005 13.2724 13.3338C13.2724 13.3338 13.2724 13.3337 13.2724 13.3337H20.3633Z" fill="#A8B7E7"/>
<g filter="url(#filter4_i_763_5345)">
<path d="M24 5.63379H15.2727V9.57745H21.2727C22.779 9.57745 24 8.35641 24 6.85018V5.63379Z" fill="url(#paint4_linear_763_5345)"/>
</g>
<path fill-rule="evenodd" clip-rule="evenodd" d="M24 5.63379C24 5.63379 24 5.63379 24 5.6338C24 6.25609 22.0463 6.76056 19.6364 6.76056C17.2264 6.76056 15.2727 6.25609 15.2727 5.6338C15.2727 5.63379 15.2727 5.63379 15.2727 5.63379H24Z" fill="#70BEF5"/>
<g filter="url(#filter5_i_763_5345)">
<path d="M22.9102 9.76489H15.2738V12.9574H20.1829C21.6891 12.9574 22.9102 11.7363 22.9102 10.2301V9.76489Z" fill="url(#paint5_linear_763_5345)"/>
</g>
<path fill-rule="evenodd" clip-rule="evenodd" d="M22.9102 9.7644C22.9102 9.76443 22.9102 9.76445 22.9102 9.76448C22.9102 10.2682 21.2007 10.6766 19.092 10.6766C16.9833 10.6766 15.2738 10.2682 15.2738 9.76448C15.2738 9.76445 15.2738 9.76443 15.2738 9.7644H22.9102Z" fill="#70BEF5"/>
<g filter="url(#filter6_i_763_5345)">
<path d="M20.5469 13.1458H15.2741V15.0237H18.6689C19.7061 15.0237 20.5469 14.1829 20.5469 13.1458Z" fill="url(#paint6_linear_763_5345)"/>
</g>
<path fill-rule="evenodd" clip-rule="evenodd" d="M20.5469 13.1458C20.5469 13.1458 20.5469 13.1458 20.5469 13.1458C20.5469 13.4421 19.3665 13.6823 17.9105 13.6823C16.4545 13.6823 15.2741 13.4421 15.2741 13.1458C15.2741 13.1458 15.2741 13.1458 15.2741 13.1458H20.5469Z" fill="#70BEF5"/>
<g filter="url(#filter7_i_763_5345)">
<path d="M3.63672 13.1458H8.72763V15.0237H5.51465C4.4775 15.0237 3.63672 14.1829 3.63672 13.1458Z" fill="url(#paint7_linear_763_5345)"/>
</g>
<path fill-rule="evenodd" clip-rule="evenodd" d="M3.63672 13.1458C3.63672 13.1458 3.63672 13.1458 3.63672 13.1458C3.63672 13.4421 4.77636 13.6823 6.18217 13.6823C7.58799 13.6823 8.72763 13.4421 8.72763 13.1458C8.72763 13.1458 8.72763 13.1458 8.72763 13.1458H3.63672Z" fill="#70BEF5"/>
<g filter="url(#filter8_i_763_5345)">
<path d="M1.08984 9.76489H8.72621V12.9574H3.81712C2.31088 12.9574 1.08984 11.7363 1.08984 10.2301V9.76489Z" fill="url(#paint8_linear_763_5345)"/>
</g>
<path fill-rule="evenodd" clip-rule="evenodd" d="M1.08984 9.7644C1.08984 9.76443 1.08984 9.76445 1.08984 9.76448C1.08984 10.2682 2.7993 10.6766 4.90803 10.6766C7.01675 10.6766 8.72621 10.2682 8.72621 9.76448C8.72621 9.76445 8.72621 9.76443 8.72621 9.7644H1.08984Z" fill="#70BEF5"/>
<g filter="url(#filter9_i_763_5345)">
<path d="M0 5.63379H8.72727V9.57745H2.72727C1.22104 9.57745 0 8.35641 0 6.85018V5.63379Z" fill="url(#paint9_linear_763_5345)"/>
</g>
<path fill-rule="evenodd" clip-rule="evenodd" d="M0 5.63379C0 5.63379 0 5.63379 0 5.6338C0 6.25609 1.95367 6.76056 4.36364 6.76056C6.77361 6.76056 8.72727 6.25609 8.72727 5.6338C8.72727 5.63379 8.72727 5.63379 8.72727 5.63379H0Z" fill="#70BEF5"/>
<g filter="url(#filter10_i_763_5345)">
<ellipse cx="12.0011" cy="9.95309" rx="7.09091" ry="7.32394" fill="url(#paint10_linear_763_5345)"/>
</g>
<ellipse cx="12.0014" cy="9.95314" rx="5.45455" ry="5.6338" fill="url(#paint11_diamond_763_5345)"/>
<ellipse cx="12.0028" cy="9.95323" rx="4.90909" ry="5.07042" fill="#5A93C6"/>
<path d="M11.0149 11.2581H10.3258L9.12402 8.00592H9.83026L10.5023 10.0962C10.5441 10.2329 10.6011 10.4379 10.6732 10.7113L10.7245 10.5119L10.8384 10.0962L11.5047 8.00592H12.211L11.0149 11.2581ZM14.4083 10.5974V11.2581H13.7875V10.5974H12.3123V10.1076L13.6849 8.00592H14.4083V10.1133H14.8411V10.5974H14.4083ZM13.7875 9.0482C13.7875 8.96466 13.7894 8.87544 13.7932 8.78051C13.8007 8.68179 13.8064 8.61914 13.8102 8.59256C13.7685 8.67989 13.6963 8.80519 13.5938 8.96846L12.8363 10.1133H13.7875V9.0482Z" fill="#F6F9FF"/>
<path fill-rule="evenodd" clip-rule="evenodd" d="M9.09233 2.87183C6.41673 4.04217 4.54688 6.77767 4.54688 9.95248C4.54688 13.1273 6.41673 15.8628 9.09233 17.0331V16.2297C6.83701 15.1087 5.27415 12.7245 5.27415 9.95248C5.27415 7.18043 6.83701 4.79623 9.09233 3.6753V2.87183Z" fill="url(#paint12_linear_763_5345)"/>
<path fill-rule="evenodd" clip-rule="evenodd" d="M15.0913 2.87183C17.7669 4.04217 19.6367 6.77767 19.6367 9.95248C19.6367 13.1273 17.7669 15.8628 15.0913 17.0331V16.2297C17.3466 15.1087 18.9094 12.7245 18.9094 9.95248C18.9094 7.18043 17.3466 4.79623 15.0913 3.6753V2.87183Z" fill="url(#paint13_linear_763_5345)"/>
<defs>
<filter id="filter0_i_763_5345" x="0" y="5.08833" width="9.27202" height="4.48906" filterUnits="userSpaceOnUse" color-interpolation-filters="sRGB">
<feFlood flood-opacity="0" result="BackgroundImageFix"/>
<feBlend mode="normal" in="SourceGraphic" in2="BackgroundImageFix" result="shape"/>
<feColorMatrix in="SourceAlpha" type="matrix" values="0 0 0 0 0 0 0 0 0 0 0 0 0 0 0 0 0 0 127 0" result="hardAlpha"/>
<feOffset dx="0.545455" dy="-0.545455"/>
<feGaussianBlur stdDeviation="0.545455"/>
<feComposite in2="hardAlpha" operator="arithmetic" k2="-1" k3="1"/>
<feColorMatrix type="matrix" values="0 0 0 0 0.552941 0 0 0 0 0.603922 0 0 0 0 0.803922 0 0 0 0.6 0"/>
<feBlend mode="normal" in2="shape" result="effect1_innerShadow_763_5345"/>
</filter>
<filter id="filter1_i_763_5345" x="1.08984" y="9.21944" width="8.18217" height="3.55009" filterUnits="userSpaceOnUse" color-interpolation-filters="sRGB">
<feFlood flood-opacity="0" result="BackgroundImageFix"/>
<feBlend mode="normal" in="SourceGraphic" in2="BackgroundImageFix" result="shape"/>
<feColorMatrix in="SourceAlpha" type="matrix" values="0 0 0 0 0 0 0 0 0 0 0 0 0 0 0 0 0 0 127 0" result="hardAlpha"/>
<feOffset dx="0.545455" dy="-0.545455"/>
<feGaussianBlur stdDeviation="0.545455"/>
<feComposite in2="hardAlpha" operator="arithmetic" k2="-1" k3="1"/>
<feColorMatrix type="matrix" values="0 0 0 0 0.552941 0 0 0 0 0.603922 0 0 0 0 0.803922 0 0 0 0.6 0"/>
<feBlend mode="normal" in2="shape" result="effect1_innerShadow_763_5345"/>
</filter>
<filter id="filter2_i_763_5345" x="3.63672" y="12.873" width="7.18288" height="2.15066" filterUnits="userSpaceOnUse" color-interpolation-filters="sRGB">
<feFlood flood-opacity="0" result="BackgroundImageFix"/>
<feBlend mode="normal" in="SourceGraphic" in2="BackgroundImageFix" result="shape"/>
<feColorMatrix in="SourceAlpha" type="matrix" values="0 0 0 0 0 0 0 0 0 0 0 0 0 0 0 0 0 0 127 0" result="hardAlpha"/>
<feOffset dx="0.272727" dy="-0.272727"/>
<feGaussianBlur stdDeviation="0.545455"/>
<feComposite in2="hardAlpha" operator="arithmetic" k2="-1" k3="1"/>
<feColorMatrix type="matrix" values="0 0 0 0 0.552941 0 0 0 0 0.603922 0 0 0 0 0.803922 0 0 0 0.6 0"/>
<feBlend mode="normal" in2="shape" result="effect1_innerShadow_763_5345"/>
</filter>
<filter id="filter3_i_763_5345" x="13.2734" y="13.0608" width="7.36257" height="1.96291" filterUnits="userSpaceOnUse" color-interpolation-filters="sRGB">
<feFlood flood-opacity="0" result="BackgroundImageFix"/>
<feBlend mode="normal" in="SourceGraphic" in2="BackgroundImageFix" result="shape"/>
<feColorMatrix in="SourceAlpha" type="matrix" values="0 0 0 0 0 0 0 0 0 0 0 0 0 0 0 0 0 0 127 0" result="hardAlpha"/>
<feOffset dx="0.272727" dy="-0.272727"/>
<feGaussianBlur stdDeviation="0.545455"/>
<feComposite in2="hardAlpha" operator="arithmetic" k2="-1" k3="1"/>
<feColorMatrix type="matrix" values="0 0 0 0 0.552941 0 0 0 0 0.603922 0 0 0 0 0.803922 0 0 0 0.6 0"/>
<feBlend mode="normal" in2="shape" result="effect1_innerShadow_763_5345"/>
</filter>
<filter id="filter4_i_763_5345" x="15.2734" y="5.08833" width="9.27202" height="4.48906" filterUnits="userSpaceOnUse" color-interpolation-filters="sRGB">
<feFlood flood-opacity="0" result="BackgroundImageFix"/>
<feBlend mode="normal" in="SourceGraphic" in2="BackgroundImageFix" result="shape"/>
<feColorMatrix in="SourceAlpha" type="matrix" values="0 0 0 0 0 0 0 0 0 0 0 0 0 0 0 0 0 0 127 0" result="hardAlpha"/>
<feOffset dx="0.545455" dy="-0.545455"/>
<feGaussianBlur stdDeviation="0.545455"/>
<feComposite in2="hardAlpha" operator="arithmetic" k2="-1" k3="1"/>
<feColorMatrix type="matrix" values="0 0 0 0 0.352941 0 0 0 0 0.576471 0 0 0 0 0.776471 0 0 0 0.6 0"/>
<feBlend mode="normal" in2="shape" result="effect1_innerShadow_763_5345"/>
</filter>
<filter id="filter5_i_763_5345" x="15.2734" y="9.21944" width="8.18217" height="3.73784" filterUnits="userSpaceOnUse" color-interpolation-filters="sRGB">
<feFlood flood-opacity="0" result="BackgroundImageFix"/>
<feBlend mode="normal" in="SourceGraphic" in2="BackgroundImageFix" result="shape"/>
<feColorMatrix in="SourceAlpha" type="matrix" values="0 0 0 0 0 0 0 0 0 0 0 0 0 0 0 0 0 0 127 0" result="hardAlpha"/>
<feOffset dx="0.545455" dy="-0.545455"/>
<feGaussianBlur stdDeviation="0.545455"/>
<feComposite in2="hardAlpha" operator="arithmetic" k2="-1" k3="1"/>
<feColorMatrix type="matrix" values="0 0 0 0 0.352941 0 0 0 0 0.576471 0 0 0 0 0.776471 0 0 0 0.6 0"/>
<feBlend mode="normal" in2="shape" result="effect1_innerShadow_763_5345"/>
</filter>
<filter id="filter6_i_763_5345" x="15.2734" y="12.6003" width="5.81889" height="2.42338" filterUnits="userSpaceOnUse" color-interpolation-filters="sRGB">
<feFlood flood-opacity="0" result="BackgroundImageFix"/>
<feBlend mode="normal" in="SourceGraphic" in2="BackgroundImageFix" result="shape"/>
<feColorMatrix in="SourceAlpha" type="matrix" values="0 0 0 0 0 0 0 0 0 0 0 0 0 0 0 0 0 0 127 0" result="hardAlpha"/>
<feOffset dx="0.545455" dy="-0.545455"/>
<feGaussianBlur stdDeviation="0.545455"/>
<feComposite in2="hardAlpha" operator="arithmetic" k2="-1" k3="1"/>
<feColorMatrix type="matrix" values="0 0 0 0 0.352941 0 0 0 0 0.576471 0 0 0 0 0.776471 0 0 0 0.6 0"/>
<feBlend mode="normal" in2="shape" result="effect1_innerShadow_763_5345"/>
</filter>
<filter id="filter7_i_763_5345" x="3.63672" y="12.6003" width="5.6353" height="2.42338" filterUnits="userSpaceOnUse" color-interpolation-filters="sRGB">
<feFlood flood-opacity="0" result="BackgroundImageFix"/>
<feBlend mode="normal" in="SourceGraphic" in2="BackgroundImageFix" result="shape"/>
<feColorMatrix in="SourceAlpha" type="matrix" values="0 0 0 0 0 0 0 0 0 0 0 0 0 0 0 0 0 0 127 0" result="hardAlpha"/>
<feOffset dx="0.545455" dy="-0.545455"/>
<feGaussianBlur stdDeviation="0.545455"/>
<feComposite in2="hardAlpha" operator="arithmetic" k2="-1" k3="1"/>
<feColorMatrix type="matrix" values="0 0 0 0 0.352941 0 0 0 0 0.576471 0 0 0 0 0.776471 0 0 0 0.6 0"/>
<feBlend mode="normal" in2="shape" result="effect1_innerShadow_763_5345"/>
</filter>
<filter id="filter8_i_763_5345" x="1.08984" y="9.21944" width="8.18217" height="3.73784" filterUnits="userSpaceOnUse" color-interpolation-filters="sRGB">
<feFlood flood-opacity="0" result="BackgroundImageFix"/>
<feBlend mode="normal" in="SourceGraphic" in2="BackgroundImageFix" result="shape"/>
<feColorMatrix in="SourceAlpha" type="matrix" values="0 0 0 0 0 0 0 0 0 0 0 0 0 0 0 0 0 0 127 0" result="hardAlpha"/>
<feOffset dx="0.545455" dy="-0.545455"/>
<feGaussianBlur stdDeviation="0.545455"/>
<feComposite in2="hardAlpha" operator="arithmetic" k2="-1" k3="1"/>
<feColorMatrix type="matrix" values="0 0 0 0 0.352941 0 0 0 0 0.576471 0 0 0 0 0.776471 0 0 0 0.6 0"/>
<feBlend mode="normal" in2="shape" result="effect1_innerShadow_763_5345"/>
</filter>
<filter id="filter9_i_763_5345" x="0" y="5.08833" width="9.27202" height="4.48906" filterUnits="userSpaceOnUse" color-interpolation-filters="sRGB">
<feFlood flood-opacity="0" result="BackgroundImageFix"/>
<feBlend mode="normal" in="SourceGraphic" in2="BackgroundImageFix" result="shape"/>
<feColorMatrix in="SourceAlpha" type="matrix" values="0 0 0 0 0 0 0 0 0 0 0 0 0 0 0 0 0 0 127 0" result="hardAlpha"/>
<feOffset dx="0.545455" dy="-0.545455"/>
<feGaussianBlur stdDeviation="0.545455"/>
<feComposite in2="hardAlpha" operator="arithmetic" k2="-1" k3="1"/>
<feColorMatrix type="matrix" values="0 0 0 0 0.352941 0 0 0 0 0.576471 0 0 0 0 0.776471 0 0 0 0.6 0"/>
<feBlend mode="normal" in2="shape" result="effect1_innerShadow_763_5345"/>
</filter>
<filter id="filter10_i_763_5345" x="3.81925" y="1.53824" width="15.2745" height="15.7389" filterUnits="userSpaceOnUse" color-interpolation-filters="sRGB">
<feFlood flood-opacity="0" result="BackgroundImageFix"/>
<feBlend mode="normal" in="SourceGraphic" in2="BackgroundImageFix" result="shape"/>
<feColorMatrix in="SourceAlpha" type="matrix" values="0 0 0 0 0 0 0 0 0 0 0 0 0 0 0 0 0 0 127 0" result="hardAlpha"/>
<feOffset dx="-1.09091" dy="-1.09091"/>
<feGaussianBlur stdDeviation="1.09091"/>
<feComposite in2="hardAlpha" operator="arithmetic" k2="-1" k3="1"/>
<feColorMatrix type="matrix" values="0 0 0 0 0.460661 0 0 0 0 0.804064 0 0 0 0 0.975765 0 0 0 1 0"/>
<feBlend mode="normal" in2="shape" result="effect1_innerShadow_763_5345"/>
</filter>
<linearGradient id="paint0_linear_763_5345" x1="4.36364" y1="5.63379" x2="4.36364" y2="9.57745" gradientUnits="userSpaceOnUse">
<stop stop-color="#CAD2F9"/>
<stop offset="1" stop-color="#C1C9F7"/>
</linearGradient>
<linearGradient id="paint1_linear_763_5345" x1="4.90803" y1="9.76489" x2="4.90803" y2="12.7696" gradientUnits="userSpaceOnUse">
<stop stop-color="#CAD2F9"/>
<stop offset="1" stop-color="#C1C9F7"/>
</linearGradient>
<linearGradient id="paint2_linear_763_5345" x1="7.09126" y1="13.1458" x2="7.09126" y2="15.0237" gradientUnits="userSpaceOnUse">
<stop stop-color="#CAD2F9"/>
<stop offset="1" stop-color="#C1C9F7"/>
</linearGradient>
<linearGradient id="paint3_linear_763_5345" x1="16.8178" y1="13.3335" x2="16.8178" y2="15.0236" gradientUnits="userSpaceOnUse">
<stop stop-color="#CAD2F9"/>
<stop offset="1" stop-color="#C1C9F7"/>
</linearGradient>
<linearGradient id="paint4_linear_763_5345" x1="19.6364" y1="8.0751" x2="23.6365" y2="7.98709" gradientUnits="userSpaceOnUse">
<stop stop-color="#47A0DB"/>
<stop offset="1" stop-color="#A2DFFF"/>
</linearGradient>
<linearGradient id="paint5_linear_763_5345" x1="19.092" y1="11.7412" x2="22.5918" y2="11.658" gradientUnits="userSpaceOnUse">
<stop stop-color="#47A0DB"/>
<stop offset="1" stop-color="#A2DFFF"/>
</linearGradient>
<linearGradient id="paint6_linear_763_5345" x1="17.9105" y1="14.3083" x2="20.3265" y2="14.2408" gradientUnits="userSpaceOnUse">
<stop stop-color="#47A0DB"/>
<stop offset="1" stop-color="#A2DFFF"/>
</linearGradient>
<linearGradient id="paint7_linear_763_5345" x1="6.18217" y1="14.3083" x2="3.84933" y2="14.2454" gradientUnits="userSpaceOnUse">
<stop stop-color="#47A0DB"/>
<stop offset="1" stop-color="#A2DFFF"/>
</linearGradient>
<linearGradient id="paint8_linear_763_5345" x1="4.90803" y1="11.7412" x2="1.4082" y2="11.658" gradientUnits="userSpaceOnUse">
<stop stop-color="#47A0DB"/>
<stop offset="1" stop-color="#A2DFFF"/>
</linearGradient>
<linearGradient id="paint9_linear_763_5345" x1="4.36364" y1="8.0751" x2="0.363507" y2="7.98709" gradientUnits="userSpaceOnUse">
<stop stop-color="#47A0DB"/>
<stop offset="1" stop-color="#A2DFFF"/>
</linearGradient>
<linearGradient id="paint10_linear_763_5345" x1="12.0011" y1="2.62915" x2="12.0011" y2="17.277" gradientUnits="userSpaceOnUse">
<stop stop-color="#BFF0FE"/>
<stop offset="1" stop-color="#72C1F3"/>
</linearGradient>
<radialGradient id="paint11_diamond_763_5345" cx="0" cy="0" r="1" gradientUnits="userSpaceOnUse" gradientTransform="translate(9.54688 6.57286) rotate(50.486) scale(9.85864 9.80311)">
<stop stop-color="#9DD9FC"/>
<stop offset="0.737455" stop-color="#C2E7F9"/>
<stop offset="1" stop-color="#ACD2FA"/>
</radialGradient>
<linearGradient id="paint12_linear_763_5345" x1="6.8196" y1="2.87183" x2="6.8196" y2="17.0331" gradientUnits="userSpaceOnUse">
<stop stop-color="#86CFF6"/>
<stop offset="1" stop-color="#6DA9DE"/>
</linearGradient>
<linearGradient id="paint13_linear_763_5345" x1="17.364" y1="2.87183" x2="17.364" y2="17.0331" gradientUnits="userSpaceOnUse">
<stop stop-color="#86CFF6"/>
<stop offset="1" stop-color="#6DA9DE"/>
</linearGradient>
</defs>
</svg>
