<svg width="24" height="20" viewBox="0 0 24 20" fill="none" xmlns="http://www.w3.org/2000/svg">
<path fill-rule="evenodd" clip-rule="evenodd" d="M12.0017 0L5.82031 8.16834H12.0017V0Z" fill="#FFDD92"/>
<path fill-rule="evenodd" clip-rule="evenodd" d="M12.0017 20.002L5.82031 11.8336H12.0017V20.002Z" fill="#FDCA65"/>
<path fill-rule="evenodd" clip-rule="evenodd" d="M12.0022 0L18.1836 8.16834H12.0022V0Z" fill="#FFAE3C"/>
<path fill-rule="evenodd" clip-rule="evenodd" d="M12.0022 20.002L18.1836 11.8336H12.0022V20.002Z" fill="#FFAE3C"/>
<g filter="url(#filter0_i_763_5351)">
<path d="M0 5.63599H8.72633V9.57919H2.72807C1.2214 9.57919 0 8.35779 0 6.85112V5.63599Z" fill="url(#paint0_linear_763_5351)"/>
</g>
<path fill-rule="evenodd" clip-rule="evenodd" d="M8.7263 5.6377H0C0.00558606 6.25869 1.9569 6.76165 4.36315 6.76165C6.76941 6.76165 8.72072 6.25869 8.7263 5.6377Z" fill="#A8B7E7"/>
<g filter="url(#filter1_i_763_5351)">
<path d="M1.08984 9.76758H8.72569V12.772H3.81792C2.31124 12.772 1.08984 11.5506 1.08984 10.044V9.76758Z" fill="url(#paint1_linear_763_5351)"/>
</g>
<path fill-rule="evenodd" clip-rule="evenodd" d="M8.72568 9.76343H1.08984C1.09373 10.2368 2.80158 10.6202 4.90776 10.6202C7.01394 10.6202 8.72179 10.2368 8.72568 9.76343Z" fill="#A8B7E7"/>
<g filter="url(#filter2_i_763_5351)">
<path d="M3.63672 13.1448H10.5453V15.0226H5.51451C4.47743 15.0226 3.63672 14.1819 3.63672 13.1448Z" fill="url(#paint2_linear_763_5351)"/>
</g>
<path fill-rule="evenodd" clip-rule="evenodd" d="M3.63674 13.1431C3.63673 13.1437 3.63672 13.1444 3.63672 13.145C3.63672 13.4414 5.18327 13.6816 7.09103 13.6816C8.99879 13.6816 10.5453 13.4414 10.5453 13.145C10.5453 13.1444 10.5453 13.1437 10.5453 13.1431H3.63674Z" fill="#A8B7E7"/>
<g filter="url(#filter3_i_763_5351)">
<path d="M20.3633 13.3318H13.2729V15.0218H18.6733C19.6066 15.0218 20.3633 14.2652 20.3633 13.3318Z" fill="url(#paint3_linear_763_5351)"/>
</g>
<path fill-rule="evenodd" clip-rule="evenodd" d="M20.3633 13.3286C20.3633 13.3288 20.3633 13.329 20.3633 13.3292C20.3633 13.5959 18.776 13.812 16.8181 13.812C14.8601 13.812 13.2729 13.5959 13.2729 13.3292C13.2729 13.329 13.2729 13.3288 13.2729 13.3286H20.3633Z" fill="#A8B7E7"/>
<g filter="url(#filter4_i_763_5351)">
<path d="M24 5.63599H15.2737V9.57919H21.2719C22.7786 9.57919 24 8.35779 24 6.85112V5.63599Z" fill="url(#paint4_linear_763_5351)"/>
</g>
<path fill-rule="evenodd" clip-rule="evenodd" d="M15.2737 5.6377H24C23.9944 6.25869 22.0431 6.76165 19.6368 6.76165C17.2306 6.76165 15.2793 6.25869 15.2737 5.6377Z" fill="#FFA42D"/>
<g filter="url(#filter5_i_763_5351)">
<path d="M22.9102 9.76343H15.2743V12.9557H20.1821C21.6888 12.9557 22.9102 11.7343 22.9102 10.2276V9.76343Z" fill="url(#paint5_linear_763_5351)"/>
</g>
<path fill-rule="evenodd" clip-rule="evenodd" d="M22.9102 9.76343C22.9097 10.2671 21.2005 10.6753 19.0922 10.6753C16.9839 10.6753 15.2748 10.2671 15.2743 9.76343H22.9102Z" fill="#FFA42D"/>
<g filter="url(#filter6_i_763_5351)">
<path d="M20.5469 13.1445H15.2749V15.0222H18.6692C19.7062 15.0222 20.5469 14.1815 20.5469 13.1445Z" fill="url(#paint6_linear_763_5351)"/>
</g>
<path fill-rule="evenodd" clip-rule="evenodd" d="M20.5469 13.1428C20.5469 13.1435 20.5469 13.1442 20.5469 13.1448C20.5469 13.4411 19.3667 13.6813 17.9109 13.6813C16.4551 13.6813 15.2749 13.4411 15.2749 13.1448C15.2749 13.1442 15.2749 13.1435 15.275 13.1428H20.5469Z" fill="#FFA42D"/>
<g filter="url(#filter7_i_763_5351)">
<path d="M0 5.63599H8.72633V9.57919H2.72807C1.2214 9.57919 0 8.35779 0 6.85112V5.63599Z" fill="url(#paint7_linear_763_5351)"/>
</g>
<path fill-rule="evenodd" clip-rule="evenodd" d="M8.7263 5.6377H0C0.00558606 6.25869 1.9569 6.76165 4.36315 6.76165C6.76941 6.76165 8.72072 6.25869 8.7263 5.6377Z" fill="#FFA42D"/>
<g filter="url(#filter8_i_763_5351)">
<path d="M1.08984 9.76343H8.72569V12.9557H3.81792C2.31124 12.9557 1.08984 11.7343 1.08984 10.2276V9.76343Z" fill="url(#paint8_linear_763_5351)"/>
</g>
<path fill-rule="evenodd" clip-rule="evenodd" d="M1.08984 9.76343C1.09031 10.2671 2.79947 10.6753 4.90777 10.6753C7.01606 10.6753 8.72522 10.2671 8.72569 9.76343H1.08984Z" fill="#FFA42D"/>
<g filter="url(#filter9_i_763_5351)">
<path d="M3.63672 13.1445H8.72687V15.0222H5.51436C4.47737 15.0222 3.63672 14.1815 3.63672 13.1445Z" fill="url(#paint9_linear_763_5351)"/>
</g>
<path fill-rule="evenodd" clip-rule="evenodd" d="M3.63674 13.1428C3.63672 13.1435 3.63672 13.1442 3.63672 13.1448C3.63672 13.4411 4.77619 13.6813 6.18179 13.6813C7.5874 13.6813 8.72687 13.4411 8.72687 13.1448C8.72687 13.1442 8.72686 13.1435 8.72685 13.1428H3.63674Z" fill="#FFA42D"/>
<g filter="url(#filter10_i_763_5351)">
<ellipse cx="12.001" cy="9.95813" rx="7.09088" ry="7.32386" fill="url(#paint10_linear_763_5351)"/>
</g>
<ellipse cx="12.0008" cy="9.95737" rx="5.45395" ry="5.63315" fill="url(#paint11_diamond_763_5351)"/>
<ellipse cx="12.0023" cy="9.90236" rx="4.90856" ry="5.06984" fill="#FFA632"/>
<path d="M10.9028 11.8235H10.1307L8.78438 8.18003H9.5756L10.3285 10.5218C10.3753 10.6749 10.4391 10.9046 10.52 11.2109L10.5774 10.9876L10.705 10.5218L11.4516 8.18003H12.2428L10.9028 11.8235ZM15.0746 10.6111C15.0746 10.9982 14.9533 11.3066 14.7109 11.5363C14.4684 11.7618 14.1387 11.8745 13.7218 11.8745C13.356 11.8745 13.0625 11.7937 12.8413 11.6321C12.6243 11.4662 12.4903 11.2258 12.4393 10.911L13.1603 10.8536C13.1986 11.0067 13.2667 11.1195 13.3645 11.1918C13.4623 11.2641 13.5836 11.3003 13.7282 11.3003C13.9111 11.3003 14.0558 11.2428 14.1621 11.128C14.2685 11.0089 14.3216 10.8408 14.3216 10.6239C14.3216 10.4325 14.2706 10.2793 14.1685 10.1645C14.0706 10.0496 13.9303 9.99219 13.7474 9.99219C13.5474 9.99219 13.3815 10.0709 13.2496 10.2283H12.5414L12.669 8.18003H14.8576V8.7224H13.3262L13.2688 9.64124C13.4432 9.4881 13.6623 9.4094 13.926 9.40515C14.2706 9.40515 14.5471 9.51362 14.7555 9.73057C14.9682 9.94752 15.0746 10.241 15.0746 10.6111Z" fill="#F6F9FF"/>
<path fill-rule="evenodd" clip-rule="evenodd" d="M9.09324 2.86816C6.41715 4.0383 4.54688 6.77405 4.54688 9.94921C4.54688 13.1244 6.41715 15.8601 9.09324 17.0303V16.2266C6.83755 15.1059 5.27436 12.7215 5.27436 9.94921C5.27436 7.17692 6.83755 4.79256 9.09324 3.67183V2.86816Z" fill="url(#paint12_linear_763_5351)"/>
<path fill-rule="evenodd" clip-rule="evenodd" d="M15.0904 2.86816C17.7664 4.0383 19.6367 6.77405 19.6367 9.94921C19.6367 13.1244 17.7664 15.8601 15.0904 17.0303V16.2266C17.346 15.1059 18.9092 12.7215 18.9092 9.94921C18.9092 7.17692 17.346 4.79256 15.0904 3.67183V2.86816Z" fill="url(#paint13_linear_763_5351)"/>
<defs>
<filter id="filter0_i_763_5351" x="0" y="5.09037" width="9.27218" height="4.48873" filterUnits="userSpaceOnUse" color-interpolation-filters="sRGB">
<feFlood flood-opacity="0" result="BackgroundImageFix"/>
<feBlend mode="normal" in="SourceGraphic" in2="BackgroundImageFix" result="shape"/>
<feColorMatrix in="SourceAlpha" type="matrix" values="0 0 0 0 0 0 0 0 0 0 0 0 0 0 0 0 0 0 127 0" result="hardAlpha"/>
<feOffset dx="0.545614" dy="-0.545614"/>
<feGaussianBlur stdDeviation="0.545614"/>
<feComposite in2="hardAlpha" operator="arithmetic" k2="-1" k3="1"/>
<feColorMatrix type="matrix" values="0 0 0 0 0.552941 0 0 0 0 0.603922 0 0 0 0 0.803922 0 0 0 0.6 0"/>
<feBlend mode="normal" in2="shape" result="effect1_innerShadow_763_5351"/>
</filter>
<filter id="filter1_i_763_5351" x="1.08984" y="9.22196" width="8.18233" height="3.55001" filterUnits="userSpaceOnUse" color-interpolation-filters="sRGB">
<feFlood flood-opacity="0" result="BackgroundImageFix"/>
<feBlend mode="normal" in="SourceGraphic" in2="BackgroundImageFix" result="shape"/>
<feColorMatrix in="SourceAlpha" type="matrix" values="0 0 0 0 0 0 0 0 0 0 0 0 0 0 0 0 0 0 127 0" result="hardAlpha"/>
<feOffset dx="0.545614" dy="-0.545614"/>
<feGaussianBlur stdDeviation="0.545614"/>
<feComposite in2="hardAlpha" operator="arithmetic" k2="-1" k3="1"/>
<feColorMatrix type="matrix" values="0 0 0 0 0.552941 0 0 0 0 0.603922 0 0 0 0 0.803922 0 0 0 0.6 0"/>
<feBlend mode="normal" in2="shape" result="effect1_innerShadow_763_5351"/>
</filter>
<filter id="filter2_i_763_5351" x="3.63672" y="12.872" width="7.18296" height="2.15049" filterUnits="userSpaceOnUse" color-interpolation-filters="sRGB">
<feFlood flood-opacity="0" result="BackgroundImageFix"/>
<feBlend mode="normal" in="SourceGraphic" in2="BackgroundImageFix" result="shape"/>
<feColorMatrix in="SourceAlpha" type="matrix" values="0 0 0 0 0 0 0 0 0 0 0 0 0 0 0 0 0 0 127 0" result="hardAlpha"/>
<feOffset dx="0.272807" dy="-0.272807"/>
<feGaussianBlur stdDeviation="0.545614"/>
<feComposite in2="hardAlpha" operator="arithmetic" k2="-1" k3="1"/>
<feColorMatrix type="matrix" values="0 0 0 0 0.552941 0 0 0 0 0.603922 0 0 0 0 0.803922 0 0 0 0.6 0"/>
<feBlend mode="normal" in2="shape" result="effect1_innerShadow_763_5351"/>
</filter>
<filter id="filter3_i_763_5351" x="13.2734" y="13.059" width="7.36265" height="1.96275" filterUnits="userSpaceOnUse" color-interpolation-filters="sRGB">
<feFlood flood-opacity="0" result="BackgroundImageFix"/>
<feBlend mode="normal" in="SourceGraphic" in2="BackgroundImageFix" result="shape"/>
<feColorMatrix in="SourceAlpha" type="matrix" values="0 0 0 0 0 0 0 0 0 0 0 0 0 0 0 0 0 0 127 0" result="hardAlpha"/>
<feOffset dx="0.272807" dy="-0.272807"/>
<feGaussianBlur stdDeviation="0.545614"/>
<feComposite in2="hardAlpha" operator="arithmetic" k2="-1" k3="1"/>
<feColorMatrix type="matrix" values="0 0 0 0 0.552941 0 0 0 0 0.603922 0 0 0 0 0.803922 0 0 0 0.6 0"/>
<feBlend mode="normal" in2="shape" result="effect1_innerShadow_763_5351"/>
</filter>
<filter id="filter4_i_763_5351" x="15.2734" y="5.09037" width="9.27218" height="4.48873" filterUnits="userSpaceOnUse" color-interpolation-filters="sRGB">
<feFlood flood-opacity="0" result="BackgroundImageFix"/>
<feBlend mode="normal" in="SourceGraphic" in2="BackgroundImageFix" result="shape"/>
<feColorMatrix in="SourceAlpha" type="matrix" values="0 0 0 0 0 0 0 0 0 0 0 0 0 0 0 0 0 0 127 0" result="hardAlpha"/>
<feOffset dx="0.545614" dy="-0.545614"/>
<feGaussianBlur stdDeviation="0.545614"/>
<feComposite in2="hardAlpha" operator="arithmetic" k2="-1" k3="1"/>
<feColorMatrix type="matrix" values="0 0 0 0 1 0 0 0 0 0.65098 0 0 0 0 0.196078 0 0 0 0.6 0"/>
<feBlend mode="normal" in2="shape" result="effect1_innerShadow_763_5351"/>
</filter>
<filter id="filter5_i_763_5351" x="15.2734" y="9.21781" width="8.18233" height="3.73775" filterUnits="userSpaceOnUse" color-interpolation-filters="sRGB">
<feFlood flood-opacity="0" result="BackgroundImageFix"/>
<feBlend mode="normal" in="SourceGraphic" in2="BackgroundImageFix" result="shape"/>
<feColorMatrix in="SourceAlpha" type="matrix" values="0 0 0 0 0 0 0 0 0 0 0 0 0 0 0 0 0 0 127 0" result="hardAlpha"/>
<feOffset dx="0.545614" dy="-0.545614"/>
<feGaussianBlur stdDeviation="0.545614"/>
<feComposite in2="hardAlpha" operator="arithmetic" k2="-1" k3="1"/>
<feColorMatrix type="matrix" values="0 0 0 0 1 0 0 0 0 0.65098 0 0 0 0 0.196078 0 0 0 0.6 0"/>
<feBlend mode="normal" in2="shape" result="effect1_innerShadow_763_5351"/>
</filter>
<filter id="filter6_i_763_5351" x="15.2734" y="12.5989" width="5.81905" height="2.4233" filterUnits="userSpaceOnUse" color-interpolation-filters="sRGB">
<feFlood flood-opacity="0" result="BackgroundImageFix"/>
<feBlend mode="normal" in="SourceGraphic" in2="BackgroundImageFix" result="shape"/>
<feColorMatrix in="SourceAlpha" type="matrix" values="0 0 0 0 0 0 0 0 0 0 0 0 0 0 0 0 0 0 127 0" result="hardAlpha"/>
<feOffset dx="0.545614" dy="-0.545614"/>
<feGaussianBlur stdDeviation="0.545614"/>
<feComposite in2="hardAlpha" operator="arithmetic" k2="-1" k3="1"/>
<feColorMatrix type="matrix" values="0 0 0 0 1 0 0 0 0 0.65098 0 0 0 0 0.196078 0 0 0 0.6 0"/>
<feBlend mode="normal" in2="shape" result="effect1_innerShadow_763_5351"/>
</filter>
<filter id="filter7_i_763_5351" x="0" y="5.09037" width="9.27218" height="4.48873" filterUnits="userSpaceOnUse" color-interpolation-filters="sRGB">
<feFlood flood-opacity="0" result="BackgroundImageFix"/>
<feBlend mode="normal" in="SourceGraphic" in2="BackgroundImageFix" result="shape"/>
<feColorMatrix in="SourceAlpha" type="matrix" values="0 0 0 0 0 0 0 0 0 0 0 0 0 0 0 0 0 0 127 0" result="hardAlpha"/>
<feOffset dx="0.545614" dy="-0.545614"/>
<feGaussianBlur stdDeviation="0.545614"/>
<feComposite in2="hardAlpha" operator="arithmetic" k2="-1" k3="1"/>
<feColorMatrix type="matrix" values="0 0 0 0 1 0 0 0 0 0.65098 0 0 0 0 0.196078 0 0 0 0.6 0"/>
<feBlend mode="normal" in2="shape" result="effect1_innerShadow_763_5351"/>
</filter>
<filter id="filter8_i_763_5351" x="1.08984" y="9.21781" width="8.18233" height="3.73775" filterUnits="userSpaceOnUse" color-interpolation-filters="sRGB">
<feFlood flood-opacity="0" result="BackgroundImageFix"/>
<feBlend mode="normal" in="SourceGraphic" in2="BackgroundImageFix" result="shape"/>
<feColorMatrix in="SourceAlpha" type="matrix" values="0 0 0 0 0 0 0 0 0 0 0 0 0 0 0 0 0 0 127 0" result="hardAlpha"/>
<feOffset dx="0.545614" dy="-0.545614"/>
<feGaussianBlur stdDeviation="0.545614"/>
<feComposite in2="hardAlpha" operator="arithmetic" k2="-1" k3="1"/>
<feColorMatrix type="matrix" values="0 0 0 0 1 0 0 0 0 0.65098 0 0 0 0 0.196078 0 0 0 0.6 0"/>
<feBlend mode="normal" in2="shape" result="effect1_innerShadow_763_5351"/>
</filter>
<filter id="filter9_i_763_5351" x="3.63672" y="12.5989" width="5.63546" height="2.4233" filterUnits="userSpaceOnUse" color-interpolation-filters="sRGB">
<feFlood flood-opacity="0" result="BackgroundImageFix"/>
<feBlend mode="normal" in="SourceGraphic" in2="BackgroundImageFix" result="shape"/>
<feColorMatrix in="SourceAlpha" type="matrix" values="0 0 0 0 0 0 0 0 0 0 0 0 0 0 0 0 0 0 127 0" result="hardAlpha"/>
<feOffset dx="0.545614" dy="-0.545614"/>
<feGaussianBlur stdDeviation="0.545614"/>
<feComposite in2="hardAlpha" operator="arithmetic" k2="-1" k3="1"/>
<feColorMatrix type="matrix" values="0 0 0 0 1 0 0 0 0 0.65098 0 0 0 0 0.196078 0 0 0 0.6 0"/>
<feBlend mode="normal" in2="shape" result="effect1_innerShadow_763_5351"/>
</filter>
<filter id="filter10_i_763_5351" x="3.81893" y="1.54305" width="15.2748" height="15.7389" filterUnits="userSpaceOnUse" color-interpolation-filters="sRGB">
<feFlood flood-opacity="0" result="BackgroundImageFix"/>
<feBlend mode="normal" in="SourceGraphic" in2="BackgroundImageFix" result="shape"/>
<feColorMatrix in="SourceAlpha" type="matrix" values="0 0 0 0 0 0 0 0 0 0 0 0 0 0 0 0 0 0 127 0" result="hardAlpha"/>
<feOffset dx="-1.09123" dy="-1.09123"/>
<feGaussianBlur stdDeviation="1.09123"/>
<feComposite in2="hardAlpha" operator="arithmetic" k2="-1" k3="1"/>
<feColorMatrix type="matrix" values="0 0 0 0 1 0 0 0 0 0.65098 0 0 0 0 0.196078 0 0 0 0.6 0"/>
<feBlend mode="normal" in2="shape" result="effect1_innerShadow_763_5351"/>
</filter>
<linearGradient id="paint0_linear_763_5351" x1="4.36316" y1="5.63599" x2="4.36316" y2="9.57919" gradientUnits="userSpaceOnUse">
<stop stop-color="#CAD2F9"/>
<stop offset="1" stop-color="#C1C9F7"/>
</linearGradient>
<linearGradient id="paint1_linear_763_5351" x1="4.90777" y1="9.76758" x2="4.90777" y2="12.772" gradientUnits="userSpaceOnUse">
<stop stop-color="#CAD2F9"/>
<stop offset="1" stop-color="#C1C9F7"/>
</linearGradient>
<linearGradient id="paint2_linear_763_5351" x1="7.09103" y1="13.1448" x2="7.09103" y2="15.0226" gradientUnits="userSpaceOnUse">
<stop stop-color="#CAD2F9"/>
<stop offset="1" stop-color="#C1C9F7"/>
</linearGradient>
<linearGradient id="paint3_linear_763_5351" x1="16.8181" y1="13.3318" x2="16.8181" y2="15.0218" gradientUnits="userSpaceOnUse">
<stop stop-color="#CAD2F9"/>
<stop offset="1" stop-color="#C1C9F7"/>
</linearGradient>
<linearGradient id="paint4_linear_763_5351" x1="19.6368" y1="8.07702" x2="23.6365" y2="7.98901" gradientUnits="userSpaceOnUse">
<stop stop-color="#FCCB60"/>
<stop offset="1" stop-color="#FFA632"/>
</linearGradient>
<linearGradient id="paint5_linear_763_5351" x1="19.0922" y1="11.7396" x2="22.5918" y2="11.6563" gradientUnits="userSpaceOnUse">
<stop stop-color="#FCCB60"/>
<stop offset="1" stop-color="#FFA632"/>
</linearGradient>
<linearGradient id="paint6_linear_763_5351" x1="17.9109" y1="14.3069" x2="20.3266" y2="14.2394" gradientUnits="userSpaceOnUse">
<stop stop-color="#FCCB60"/>
<stop offset="1" stop-color="#FFA632"/>
</linearGradient>
<linearGradient id="paint7_linear_763_5351" x1="4.36316" y1="8.07702" x2="0.363468" y2="7.98901" gradientUnits="userSpaceOnUse">
<stop stop-color="#FCCB60"/>
<stop offset="1" stop-color="#FFA632"/>
</linearGradient>
<linearGradient id="paint8_linear_763_5351" x1="4.90777" y1="11.7396" x2="1.40818" y2="11.6563" gradientUnits="userSpaceOnUse">
<stop stop-color="#FCCB60"/>
<stop offset="1" stop-color="#FFA632"/>
</linearGradient>
<linearGradient id="paint9_linear_763_5351" x1="6.18179" y1="14.3069" x2="3.8493" y2="14.244" gradientUnits="userSpaceOnUse">
<stop stop-color="#FCCB60"/>
<stop offset="1" stop-color="#FFA632"/>
</linearGradient>
<linearGradient id="paint10_linear_763_5351" x1="12.001" y1="2.63428" x2="12.001" y2="17.282" gradientUnits="userSpaceOnUse">
<stop stop-color="#FCD77A"/>
<stop offset="1" stop-color="#FCC555"/>
</linearGradient>
<radialGradient id="paint11_diamond_763_5351" cx="0" cy="0" r="1" gradientUnits="userSpaceOnUse" gradientTransform="translate(9.54655 6.57748) rotate(50.4858) scale(9.85753 9.80202)">
<stop stop-color="#FCE192"/>
<stop offset="0.737455" stop-color="#FCE8A0"/>
<stop offset="1" stop-color="#FFDC90"/>
</radialGradient>
<linearGradient id="paint12_linear_763_5351" x1="6.82006" y1="2.86816" x2="6.82006" y2="17.0303" gradientUnits="userSpaceOnUse">
<stop stop-color="#FEBD4F"/>
<stop offset="1" stop-color="#FFA632"/>
</linearGradient>
<linearGradient id="paint13_linear_763_5351" x1="17.3635" y1="2.86816" x2="17.3635" y2="17.0303" gradientUnits="userSpaceOnUse">
<stop stop-color="#FEBD4F"/>
<stop offset="1" stop-color="#FFA632"/>
</linearGradient>
</defs>
</svg>
