<svg width="24" height="20" viewBox="0 0 24 20" fill="none" xmlns="http://www.w3.org/2000/svg">
<path fill-rule="evenodd" clip-rule="evenodd" d="M11.9982 0L5.81641 8.16898H11.9982V0Z" fill="#EE9E40"/>
<path fill-rule="evenodd" clip-rule="evenodd" d="M11.9982 20L5.81641 11.831H11.9982V20Z" fill="#EE9E40"/>
<path fill-rule="evenodd" clip-rule="evenodd" d="M12.0018 0L18.1836 8.16898H12.0018V0Z" fill="#E86912"/>
<path fill-rule="evenodd" clip-rule="evenodd" d="M12.0018 20L18.1836 11.831H12.0018V20Z" fill="#E86912"/>
<g filter="url(#filter0_i_763_5348)">
<path d="M0 5.63379H8.72727V9.57745H2.72728C1.22104 9.57745 0 8.35641 0 6.85018V5.63379Z" fill="url(#paint0_linear_763_5348)"/>
</g>
<path fill-rule="evenodd" clip-rule="evenodd" d="M0 5.63379C0 5.63379 0 5.63379 0 5.6338C0 6.25609 1.95367 6.76056 4.36364 6.76056C6.77361 6.76056 8.72727 6.25609 8.72727 5.6338C8.72727 5.63379 8.72727 5.63379 8.72727 5.63379H0Z" fill="#A8B7E7"/>
<g filter="url(#filter1_i_763_5348)">
<path d="M1.08984 9.76489H8.72621V12.7696H3.81712C2.31088 12.7696 1.08984 11.5485 1.08984 10.0423V9.76489Z" fill="url(#paint1_linear_763_5348)"/>
</g>
<path fill-rule="evenodd" clip-rule="evenodd" d="M1.08984 9.76465C1.09005 10.2387 2.79943 10.623 4.90803 10.623C7.01662 10.623 8.726 10.2387 8.72621 9.76465H1.08984Z" fill="#A8B7E7"/>
<g filter="url(#filter2_i_763_5348)">
<path d="M3.63672 13.1458H10.5458V15.0237H5.51465C4.4775 15.0237 3.63672 14.1829 3.63672 13.1458Z" fill="url(#paint2_linear_763_5348)"/>
</g>
<path fill-rule="evenodd" clip-rule="evenodd" d="M3.63672 13.1458C3.63672 13.1458 3.63672 13.1458 3.63672 13.1458C3.63672 13.4421 5.18337 13.6823 7.09126 13.6823C8.99916 13.6823 10.5458 13.4421 10.5458 13.1458C10.5458 13.1458 10.5458 13.1458 10.5458 13.1458H3.63672Z" fill="#A8B7E7"/>
<g filter="url(#filter3_i_763_5348)">
<path d="M20.3633 13.3335H13.2724V15.0236H18.6731C19.6066 15.0236 20.3633 14.2669 20.3633 13.3335Z" fill="url(#paint3_linear_763_5348)"/>
</g>
<path fill-rule="evenodd" clip-rule="evenodd" d="M13.2724 13.3337H20.3633C20.3627 13.6004 18.7756 13.8165 16.8178 13.8165C14.8601 13.8165 13.273 13.6004 13.2724 13.3337Z" fill="#A8B7E7"/>
<g filter="url(#filter4_i_763_5348)">
<path d="M24 5.63379H15.2727V9.57745H21.2727C22.779 9.57745 24 8.35641 24 6.85018V5.63379Z" fill="url(#paint4_linear_763_5348)"/>
</g>
<path fill-rule="evenodd" clip-rule="evenodd" d="M24 5.63379C24 5.63379 24 5.63379 24 5.6338C24 6.25609 22.0463 6.76056 19.6364 6.76056C17.2264 6.76056 15.2727 6.25609 15.2727 5.6338C15.2727 5.63379 15.2727 5.63379 15.2727 5.63379H24Z" fill="#70BEF5"/>
<g filter="url(#filter5_i_763_5348)">
<path d="M22.9102 9.76489H15.2738V12.9574H20.1829C21.6891 12.9574 22.9102 11.7363 22.9102 10.2301V9.76489Z" fill="url(#paint5_linear_763_5348)"/>
</g>
<path fill-rule="evenodd" clip-rule="evenodd" d="M22.9102 9.7644C22.9102 9.76443 22.9102 9.76445 22.9102 9.76448C22.9102 10.2682 21.2007 10.6766 19.092 10.6766C16.9833 10.6766 15.2738 10.2682 15.2738 9.76448C15.2738 9.76445 15.2738 9.76443 15.2738 9.7644H22.9102Z" fill="#70BEF5"/>
<g filter="url(#filter6_i_763_5348)">
<path d="M20.5469 13.1458H15.2741V15.0237H18.6689C19.7061 15.0237 20.5469 14.1829 20.5469 13.1458Z" fill="url(#paint6_linear_763_5348)"/>
</g>
<path fill-rule="evenodd" clip-rule="evenodd" d="M20.5469 13.1458C20.5469 13.1458 20.5469 13.1458 20.5469 13.1458C20.5469 13.4421 19.3665 13.6823 17.9105 13.6823C16.4545 13.6823 15.2741 13.4421 15.2741 13.1458C15.2741 13.1458 15.2741 13.1458 15.2741 13.1458H20.5469Z" fill="#70BEF5"/>
<g filter="url(#filter7_i_763_5348)">
<path d="M3.63672 13.1458H8.72763V15.0237H5.51465C4.4775 15.0237 3.63672 14.1829 3.63672 13.1458Z" fill="url(#paint7_linear_763_5348)"/>
</g>
<path fill-rule="evenodd" clip-rule="evenodd" d="M3.63672 13.1458C3.63672 13.1458 3.63672 13.1458 3.63672 13.1458C3.63672 13.4421 4.77636 13.6823 6.18217 13.6823C7.58799 13.6823 8.72763 13.4421 8.72763 13.1458C8.72763 13.1458 8.72763 13.1458 8.72763 13.1458H3.63672Z" fill="#70BEF5"/>
<g filter="url(#filter8_i_763_5348)">
<path d="M1.08984 9.76489H8.72621V12.9574H3.81712C2.31088 12.9574 1.08984 11.7363 1.08984 10.2301V9.76489Z" fill="url(#paint8_linear_763_5348)"/>
</g>
<path fill-rule="evenodd" clip-rule="evenodd" d="M1.08984 9.7644C1.08984 9.76443 1.08984 9.76445 1.08984 9.76448C1.08984 10.2682 2.7993 10.6766 4.90803 10.6766C7.01675 10.6766 8.72621 10.2682 8.72621 9.76448C8.72621 9.76445 8.72621 9.76443 8.72621 9.7644H1.08984Z" fill="#70BEF5"/>
<g filter="url(#filter9_i_763_5348)">
<path d="M0 5.63379H8.72727V9.57745H2.72728C1.22104 9.57745 0 8.35641 0 6.85018V5.63379Z" fill="url(#paint9_linear_763_5348)"/>
</g>
<path fill-rule="evenodd" clip-rule="evenodd" d="M0 5.63379C0 5.63379 0 5.63379 0 5.6338C0 6.25609 1.95367 6.76056 4.36364 6.76056C6.77361 6.76056 8.72727 6.25609 8.72727 5.6338C8.72727 5.63379 8.72727 5.63379 8.72727 5.63379H0Z" fill="#AF80F4"/>
<g filter="url(#filter10_i_763_5348)">
<path d="M0 5.63379H8.72727V9.57745H2.72728C1.22104 9.57745 0 8.35641 0 6.85018V5.63379Z" fill="url(#paint10_linear_763_5348)"/>
</g>
<path fill-rule="evenodd" clip-rule="evenodd" d="M0 5.63379C0 5.63379 0 5.63379 0 5.6338C0 6.25609 1.95367 6.76056 4.36364 6.76056C6.77361 6.76056 8.72727 6.25609 8.72727 5.6338C8.72727 5.63379 8.72727 5.63379 8.72727 5.63379H0Z" fill="#FFC663"/>
<g filter="url(#filter11_i_763_5348)">
<path d="M1.08984 9.76489H8.72621V12.9574H3.81712C2.31088 12.9574 1.08984 11.7363 1.08984 10.2301V9.76489Z" fill="url(#paint11_linear_763_5348)"/>
</g>
<path fill-rule="evenodd" clip-rule="evenodd" d="M1.08984 9.7644C1.08984 9.76443 1.08984 9.76445 1.08984 9.76448C1.08984 10.2682 2.7993 10.6766 4.90803 10.6766C7.01675 10.6766 8.72621 10.2682 8.72621 9.76448C8.72621 9.76445 8.72621 9.76443 8.72621 9.7644H1.08984Z" fill="#FFC663"/>
<g filter="url(#filter12_i_763_5348)">
<path d="M3.63672 13.1458H8.72763V15.0237H5.51465C4.4775 15.0237 3.63672 14.1829 3.63672 13.1458Z" fill="url(#paint12_linear_763_5348)"/>
</g>
<path fill-rule="evenodd" clip-rule="evenodd" d="M3.63672 13.1458C3.63672 13.1458 3.63672 13.1458 3.63672 13.1458C3.63672 13.4421 4.77636 13.6823 6.18217 13.6823C7.58799 13.6823 8.72763 13.4421 8.72763 13.1458C8.72763 13.1458 8.72763 13.1458 8.72763 13.1458H3.63672Z" fill="#FFC663"/>
<g filter="url(#filter13_i_763_5348)">
<path d="M24 5.63379H15.2727V9.57745H21.2727C22.779 9.57745 24 8.35641 24 6.85018V5.63379Z" fill="url(#paint13_linear_763_5348)"/>
</g>
<path fill-rule="evenodd" clip-rule="evenodd" d="M24 5.63379C24 5.63379 24 5.63379 24 5.6338C24 6.25609 22.0463 6.76056 19.6364 6.76056C17.2264 6.76056 15.2727 6.25609 15.2727 5.6338C15.2727 5.63379 15.2727 5.63379 15.2727 5.63379H24Z" fill="#FBAC52"/>
<g filter="url(#filter14_i_763_5348)">
<path d="M22.9102 9.76489H15.2738V12.9574H20.1829C21.6891 12.9574 22.9102 11.7363 22.9102 10.2301V9.76489Z" fill="url(#paint14_linear_763_5348)"/>
</g>
<path fill-rule="evenodd" clip-rule="evenodd" d="M22.9102 9.7644C22.9102 9.76443 22.9102 9.76445 22.9102 9.76448C22.9102 10.2682 21.2007 10.6766 19.092 10.6766C16.9833 10.6766 15.2738 10.2682 15.2738 9.76448C15.2738 9.76445 15.2738 9.76443 15.2738 9.7644H22.9102Z" fill="#FBAC52"/>
<g filter="url(#filter15_i_763_5348)">
<path d="M20.5469 13.1458H15.2741V15.0237H18.6689C19.7061 15.0237 20.5469 14.1829 20.5469 13.1458Z" fill="url(#paint15_linear_763_5348)"/>
</g>
<path fill-rule="evenodd" clip-rule="evenodd" d="M20.5469 13.1458C20.5469 13.1458 20.5469 13.1458 20.5469 13.1458C20.5469 13.4421 19.3665 13.6823 17.9105 13.6823C16.4545 13.6823 15.2741 13.4421 15.2741 13.1458C15.2741 13.1458 15.2741 13.1458 15.2741 13.1458H20.5469Z" fill="#FBAC52"/>
<g filter="url(#filter16_i_763_5348)">
<path d="M0 5.63379H8.72727V9.57745H2.72728C1.22104 9.57745 0 8.35641 0 6.85018V5.63379Z" fill="url(#paint16_linear_763_5348)"/>
</g>
<path fill-rule="evenodd" clip-rule="evenodd" d="M0 5.63379C0 5.63379 0 5.63379 0 5.6338C0 6.25609 1.95367 6.76056 4.36364 6.76056C6.77361 6.76056 8.72727 6.25609 8.72727 5.6338C8.72727 5.63379 8.72727 5.63379 8.72727 5.63379H0Z" fill="#FBAC52"/>
<g filter="url(#filter17_i_763_5348)">
<path d="M1.08984 9.76489H8.72621V12.9574H3.81712C2.31088 12.9574 1.08984 11.7363 1.08984 10.2301V9.76489Z" fill="url(#paint17_linear_763_5348)"/>
</g>
<path fill-rule="evenodd" clip-rule="evenodd" d="M1.08984 9.7644C1.08984 9.76443 1.08984 9.76445 1.08984 9.76448C1.08984 10.2682 2.7993 10.6766 4.90803 10.6766C7.01675 10.6766 8.72621 10.2682 8.72621 9.76448C8.72621 9.76445 8.72621 9.76443 8.72621 9.7644H1.08984Z" fill="#FBAC52"/>
<g filter="url(#filter18_i_763_5348)">
<path d="M3.63672 13.1458H8.72763V15.0237H5.51465C4.4775 15.0237 3.63672 14.1829 3.63672 13.1458Z" fill="url(#paint18_linear_763_5348)"/>
</g>
<path fill-rule="evenodd" clip-rule="evenodd" d="M3.63672 13.1458C3.63672 13.1458 3.63672 13.1458 3.63672 13.1458C3.63672 13.4421 4.77636 13.6823 6.18217 13.6823C7.58799 13.6823 8.72763 13.4421 8.72763 13.1458C8.72763 13.1458 8.72763 13.1458 8.72763 13.1458H3.63672Z" fill="#FBAC52"/>
<ellipse cx="12.0011" cy="9.95309" rx="7.09091" ry="7.32394" fill="url(#paint19_linear_763_5348)"/>
<ellipse cx="12.0014" cy="9.95314" rx="5.45455" ry="5.6338" fill="url(#paint20_diamond_763_5348)"/>
<ellipse cx="12.0028" cy="9.89684" rx="4.90909" ry="5.07042" fill="#DD630F"/>
<path d="M10.9022 11.8264H10.1303L8.78437 8.18402H9.57536L10.3281 10.5251C10.3749 10.6782 10.4386 10.9078 10.5194 11.214L10.5769 10.9908L10.7044 10.5251L11.4508 8.18402H12.2418L10.9022 11.8264ZM15.0281 10.6335C15.0281 11.0205 14.9175 11.3246 14.6964 11.5457C14.4795 11.7669 14.1818 11.8774 13.8033 11.8774C13.3738 11.8774 13.0421 11.7286 12.8082 11.4309C12.5785 11.129 12.4637 10.6825 12.4637 10.0913C12.4637 9.44068 12.5807 8.95163 12.8146 8.62417C13.0485 8.29247 13.3823 8.12661 13.8161 8.12661C14.1265 8.12661 14.371 8.19466 14.5496 8.33074C14.7282 8.46683 14.8537 8.67946 14.926 8.96864L14.2434 9.06432C14.1797 8.82617 14.0329 8.70497 13.8033 8.70072C13.6077 8.70072 13.4546 8.79853 13.344 8.99415C13.2334 9.18977 13.1782 9.48533 13.1782 9.88083C13.2547 9.75325 13.361 9.65544 13.4971 9.5874C13.6374 9.5151 13.7948 9.47895 13.9691 9.47895C14.2966 9.47895 14.5539 9.58314 14.741 9.79152C14.9324 9.9999 15.0281 10.2806 15.0281 10.6335ZM14.2945 10.6527C14.2945 10.4443 14.2456 10.287 14.1478 10.1806C14.0542 10.0701 13.9245 10.0148 13.7586 10.0148C13.597 10.0148 13.4673 10.0679 13.3695 10.1743C13.276 10.2763 13.2292 10.4103 13.2292 10.5761C13.2292 10.7888 13.2781 10.9653 13.3759 11.1056C13.478 11.2417 13.6119 11.3097 13.7778 11.3097C13.9436 11.3097 14.0712 11.2523 14.1605 11.1375C14.2498 11.0184 14.2945 10.8568 14.2945 10.6527Z" fill="#F6F9FF"/>
<path fill-rule="evenodd" clip-rule="evenodd" d="M9.09233 2.87183C6.41673 4.04217 4.54688 6.77767 4.54688 9.95248C4.54688 13.1273 6.41673 15.8628 9.09233 17.0331V16.2297C6.83701 15.1087 5.27415 12.7245 5.27415 9.95248C5.27415 7.18043 6.83701 4.79623 9.09233 3.6753V2.87183Z" fill="url(#paint21_linear_763_5348)"/>
<path fill-rule="evenodd" clip-rule="evenodd" d="M15.0913 2.87183C17.7669 4.04217 19.6367 6.77767 19.6367 9.95248C19.6367 13.1273 17.7669 15.8628 15.0913 17.0331V16.2297C17.3466 15.1087 18.9094 12.7245 18.9094 9.95248C18.9094 7.18043 17.3466 4.79623 15.0913 3.6753V2.87183Z" fill="url(#paint22_linear_763_5348)"/>
<defs>
<filter id="filter0_i_763_5348" x="0" y="5.08833" width="9.27202" height="4.48906" filterUnits="userSpaceOnUse" color-interpolation-filters="sRGB">
<feFlood flood-opacity="0" result="BackgroundImageFix"/>
<feBlend mode="normal" in="SourceGraphic" in2="BackgroundImageFix" result="shape"/>
<feColorMatrix in="SourceAlpha" type="matrix" values="0 0 0 0 0 0 0 0 0 0 0 0 0 0 0 0 0 0 127 0" result="hardAlpha"/>
<feOffset dx="0.545455" dy="-0.545455"/>
<feGaussianBlur stdDeviation="0.545455"/>
<feComposite in2="hardAlpha" operator="arithmetic" k2="-1" k3="1"/>
<feColorMatrix type="matrix" values="0 0 0 0 0.552941 0 0 0 0 0.603922 0 0 0 0 0.803922 0 0 0 0.6 0"/>
<feBlend mode="normal" in2="shape" result="effect1_innerShadow_763_5348"/>
</filter>
<filter id="filter1_i_763_5348" x="1.08984" y="9.21944" width="8.18217" height="3.55009" filterUnits="userSpaceOnUse" color-interpolation-filters="sRGB">
<feFlood flood-opacity="0" result="BackgroundImageFix"/>
<feBlend mode="normal" in="SourceGraphic" in2="BackgroundImageFix" result="shape"/>
<feColorMatrix in="SourceAlpha" type="matrix" values="0 0 0 0 0 0 0 0 0 0 0 0 0 0 0 0 0 0 127 0" result="hardAlpha"/>
<feOffset dx="0.545455" dy="-0.545455"/>
<feGaussianBlur stdDeviation="0.545455"/>
<feComposite in2="hardAlpha" operator="arithmetic" k2="-1" k3="1"/>
<feColorMatrix type="matrix" values="0 0 0 0 0.552941 0 0 0 0 0.603922 0 0 0 0 0.803922 0 0 0 0.6 0"/>
<feBlend mode="normal" in2="shape" result="effect1_innerShadow_763_5348"/>
</filter>
<filter id="filter2_i_763_5348" x="3.63672" y="12.873" width="7.18288" height="2.15066" filterUnits="userSpaceOnUse" color-interpolation-filters="sRGB">
<feFlood flood-opacity="0" result="BackgroundImageFix"/>
<feBlend mode="normal" in="SourceGraphic" in2="BackgroundImageFix" result="shape"/>
<feColorMatrix in="SourceAlpha" type="matrix" values="0 0 0 0 0 0 0 0 0 0 0 0 0 0 0 0 0 0 127 0" result="hardAlpha"/>
<feOffset dx="0.272727" dy="-0.272727"/>
<feGaussianBlur stdDeviation="0.545455"/>
<feComposite in2="hardAlpha" operator="arithmetic" k2="-1" k3="1"/>
<feColorMatrix type="matrix" values="0 0 0 0 0.552941 0 0 0 0 0.603922 0 0 0 0 0.803922 0 0 0 0.6 0"/>
<feBlend mode="normal" in2="shape" result="effect1_innerShadow_763_5348"/>
</filter>
<filter id="filter3_i_763_5348" x="13.2734" y="13.0608" width="7.36257" height="1.96291" filterUnits="userSpaceOnUse" color-interpolation-filters="sRGB">
<feFlood flood-opacity="0" result="BackgroundImageFix"/>
<feBlend mode="normal" in="SourceGraphic" in2="BackgroundImageFix" result="shape"/>
<feColorMatrix in="SourceAlpha" type="matrix" values="0 0 0 0 0 0 0 0 0 0 0 0 0 0 0 0 0 0 127 0" result="hardAlpha"/>
<feOffset dx="0.272727" dy="-0.272727"/>
<feGaussianBlur stdDeviation="0.545455"/>
<feComposite in2="hardAlpha" operator="arithmetic" k2="-1" k3="1"/>
<feColorMatrix type="matrix" values="0 0 0 0 0.552941 0 0 0 0 0.603922 0 0 0 0 0.803922 0 0 0 0.6 0"/>
<feBlend mode="normal" in2="shape" result="effect1_innerShadow_763_5348"/>
</filter>
<filter id="filter4_i_763_5348" x="15.2734" y="5.08833" width="9.27202" height="4.48906" filterUnits="userSpaceOnUse" color-interpolation-filters="sRGB">
<feFlood flood-opacity="0" result="BackgroundImageFix"/>
<feBlend mode="normal" in="SourceGraphic" in2="BackgroundImageFix" result="shape"/>
<feColorMatrix in="SourceAlpha" type="matrix" values="0 0 0 0 0 0 0 0 0 0 0 0 0 0 0 0 0 0 127 0" result="hardAlpha"/>
<feOffset dx="0.545455" dy="-0.545455"/>
<feGaussianBlur stdDeviation="0.545455"/>
<feComposite in2="hardAlpha" operator="arithmetic" k2="-1" k3="1"/>
<feColorMatrix type="matrix" values="0 0 0 0 0.352941 0 0 0 0 0.576471 0 0 0 0 0.776471 0 0 0 0.6 0"/>
<feBlend mode="normal" in2="shape" result="effect1_innerShadow_763_5348"/>
</filter>
<filter id="filter5_i_763_5348" x="15.2734" y="9.21944" width="8.18217" height="3.73784" filterUnits="userSpaceOnUse" color-interpolation-filters="sRGB">
<feFlood flood-opacity="0" result="BackgroundImageFix"/>
<feBlend mode="normal" in="SourceGraphic" in2="BackgroundImageFix" result="shape"/>
<feColorMatrix in="SourceAlpha" type="matrix" values="0 0 0 0 0 0 0 0 0 0 0 0 0 0 0 0 0 0 127 0" result="hardAlpha"/>
<feOffset dx="0.545455" dy="-0.545455"/>
<feGaussianBlur stdDeviation="0.545455"/>
<feComposite in2="hardAlpha" operator="arithmetic" k2="-1" k3="1"/>
<feColorMatrix type="matrix" values="0 0 0 0 0.352941 0 0 0 0 0.576471 0 0 0 0 0.776471 0 0 0 0.6 0"/>
<feBlend mode="normal" in2="shape" result="effect1_innerShadow_763_5348"/>
</filter>
<filter id="filter6_i_763_5348" x="15.2734" y="12.6003" width="5.81889" height="2.42338" filterUnits="userSpaceOnUse" color-interpolation-filters="sRGB">
<feFlood flood-opacity="0" result="BackgroundImageFix"/>
<feBlend mode="normal" in="SourceGraphic" in2="BackgroundImageFix" result="shape"/>
<feColorMatrix in="SourceAlpha" type="matrix" values="0 0 0 0 0 0 0 0 0 0 0 0 0 0 0 0 0 0 127 0" result="hardAlpha"/>
<feOffset dx="0.545455" dy="-0.545455"/>
<feGaussianBlur stdDeviation="0.545455"/>
<feComposite in2="hardAlpha" operator="arithmetic" k2="-1" k3="1"/>
<feColorMatrix type="matrix" values="0 0 0 0 0.352941 0 0 0 0 0.576471 0 0 0 0 0.776471 0 0 0 0.6 0"/>
<feBlend mode="normal" in2="shape" result="effect1_innerShadow_763_5348"/>
</filter>
<filter id="filter7_i_763_5348" x="3.63672" y="12.6003" width="5.6353" height="2.42338" filterUnits="userSpaceOnUse" color-interpolation-filters="sRGB">
<feFlood flood-opacity="0" result="BackgroundImageFix"/>
<feBlend mode="normal" in="SourceGraphic" in2="BackgroundImageFix" result="shape"/>
<feColorMatrix in="SourceAlpha" type="matrix" values="0 0 0 0 0 0 0 0 0 0 0 0 0 0 0 0 0 0 127 0" result="hardAlpha"/>
<feOffset dx="0.545455" dy="-0.545455"/>
<feGaussianBlur stdDeviation="0.545455"/>
<feComposite in2="hardAlpha" operator="arithmetic" k2="-1" k3="1"/>
<feColorMatrix type="matrix" values="0 0 0 0 0.352941 0 0 0 0 0.576471 0 0 0 0 0.776471 0 0 0 0.6 0"/>
<feBlend mode="normal" in2="shape" result="effect1_innerShadow_763_5348"/>
</filter>
<filter id="filter8_i_763_5348" x="1.08984" y="9.21944" width="8.18217" height="3.73784" filterUnits="userSpaceOnUse" color-interpolation-filters="sRGB">
<feFlood flood-opacity="0" result="BackgroundImageFix"/>
<feBlend mode="normal" in="SourceGraphic" in2="BackgroundImageFix" result="shape"/>
<feColorMatrix in="SourceAlpha" type="matrix" values="0 0 0 0 0 0 0 0 0 0 0 0 0 0 0 0 0 0 127 0" result="hardAlpha"/>
<feOffset dx="0.545455" dy="-0.545455"/>
<feGaussianBlur stdDeviation="0.545455"/>
<feComposite in2="hardAlpha" operator="arithmetic" k2="-1" k3="1"/>
<feColorMatrix type="matrix" values="0 0 0 0 0.352941 0 0 0 0 0.576471 0 0 0 0 0.776471 0 0 0 0.6 0"/>
<feBlend mode="normal" in2="shape" result="effect1_innerShadow_763_5348"/>
</filter>
<filter id="filter9_i_763_5348" x="0" y="5.08833" width="9.27202" height="4.48906" filterUnits="userSpaceOnUse" color-interpolation-filters="sRGB">
<feFlood flood-opacity="0" result="BackgroundImageFix"/>
<feBlend mode="normal" in="SourceGraphic" in2="BackgroundImageFix" result="shape"/>
<feColorMatrix in="SourceAlpha" type="matrix" values="0 0 0 0 0 0 0 0 0 0 0 0 0 0 0 0 0 0 127 0" result="hardAlpha"/>
<feOffset dx="0.545455" dy="-0.545455"/>
<feGaussianBlur stdDeviation="0.545455"/>
<feComposite in2="hardAlpha" operator="arithmetic" k2="-1" k3="1"/>
<feColorMatrix type="matrix" values="0 0 0 0 0.835294 0 0 0 0 0.713726 0 0 0 0 0.968627 0 0 0 0.6 0"/>
<feBlend mode="normal" in2="shape" result="effect1_innerShadow_763_5348"/>
</filter>
<filter id="filter10_i_763_5348" x="0" y="5.08833" width="9.27202" height="4.48906" filterUnits="userSpaceOnUse" color-interpolation-filters="sRGB">
<feFlood flood-opacity="0" result="BackgroundImageFix"/>
<feBlend mode="normal" in="SourceGraphic" in2="BackgroundImageFix" result="shape"/>
<feColorMatrix in="SourceAlpha" type="matrix" values="0 0 0 0 0 0 0 0 0 0 0 0 0 0 0 0 0 0 127 0" result="hardAlpha"/>
<feOffset dx="0.545455" dy="-0.545455"/>
<feGaussianBlur stdDeviation="0.545455"/>
<feComposite in2="hardAlpha" operator="arithmetic" k2="-1" k3="1"/>
<feColorMatrix type="matrix" values="0 0 0 0 0.835294 0 0 0 0 0.713726 0 0 0 0 0.968627 0 0 0 0.6 0"/>
<feBlend mode="normal" in2="shape" result="effect1_innerShadow_763_5348"/>
</filter>
<filter id="filter11_i_763_5348" x="1.08984" y="9.21944" width="8.18217" height="3.73784" filterUnits="userSpaceOnUse" color-interpolation-filters="sRGB">
<feFlood flood-opacity="0" result="BackgroundImageFix"/>
<feBlend mode="normal" in="SourceGraphic" in2="BackgroundImageFix" result="shape"/>
<feColorMatrix in="SourceAlpha" type="matrix" values="0 0 0 0 0 0 0 0 0 0 0 0 0 0 0 0 0 0 127 0" result="hardAlpha"/>
<feOffset dx="0.545455" dy="-0.545455"/>
<feGaussianBlur stdDeviation="0.545455"/>
<feComposite in2="hardAlpha" operator="arithmetic" k2="-1" k3="1"/>
<feColorMatrix type="matrix" values="0 0 0 0 0.835294 0 0 0 0 0.713726 0 0 0 0 0.968627 0 0 0 0.6 0"/>
<feBlend mode="normal" in2="shape" result="effect1_innerShadow_763_5348"/>
</filter>
<filter id="filter12_i_763_5348" x="3.63672" y="12.6003" width="5.6353" height="2.42338" filterUnits="userSpaceOnUse" color-interpolation-filters="sRGB">
<feFlood flood-opacity="0" result="BackgroundImageFix"/>
<feBlend mode="normal" in="SourceGraphic" in2="BackgroundImageFix" result="shape"/>
<feColorMatrix in="SourceAlpha" type="matrix" values="0 0 0 0 0 0 0 0 0 0 0 0 0 0 0 0 0 0 127 0" result="hardAlpha"/>
<feOffset dx="0.545455" dy="-0.545455"/>
<feGaussianBlur stdDeviation="0.545455"/>
<feComposite in2="hardAlpha" operator="arithmetic" k2="-1" k3="1"/>
<feColorMatrix type="matrix" values="0 0 0 0 0.835294 0 0 0 0 0.713726 0 0 0 0 0.968627 0 0 0 0.6 0"/>
<feBlend mode="normal" in2="shape" result="effect1_innerShadow_763_5348"/>
</filter>
<filter id="filter13_i_763_5348" x="15.2734" y="5.08833" width="9.27202" height="4.48906" filterUnits="userSpaceOnUse" color-interpolation-filters="sRGB">
<feFlood flood-opacity="0" result="BackgroundImageFix"/>
<feBlend mode="normal" in="SourceGraphic" in2="BackgroundImageFix" result="shape"/>
<feColorMatrix in="SourceAlpha" type="matrix" values="0 0 0 0 0 0 0 0 0 0 0 0 0 0 0 0 0 0 127 0" result="hardAlpha"/>
<feOffset dx="0.545455" dy="-0.545455"/>
<feGaussianBlur stdDeviation="0.545455"/>
<feComposite in2="hardAlpha" operator="arithmetic" k2="-1" k3="1"/>
<feColorMatrix type="matrix" values="0 0 0 0 0.970459 0 0 0 0 0.573259 0 0 0 0 0.299778 0 0 0 1 0"/>
<feBlend mode="normal" in2="shape" result="effect1_innerShadow_763_5348"/>
</filter>
<filter id="filter14_i_763_5348" x="15.2734" y="9.21944" width="8.18217" height="3.73784" filterUnits="userSpaceOnUse" color-interpolation-filters="sRGB">
<feFlood flood-opacity="0" result="BackgroundImageFix"/>
<feBlend mode="normal" in="SourceGraphic" in2="BackgroundImageFix" result="shape"/>
<feColorMatrix in="SourceAlpha" type="matrix" values="0 0 0 0 0 0 0 0 0 0 0 0 0 0 0 0 0 0 127 0" result="hardAlpha"/>
<feOffset dx="0.545455" dy="-0.545455"/>
<feGaussianBlur stdDeviation="0.545455"/>
<feComposite in2="hardAlpha" operator="arithmetic" k2="-1" k3="1"/>
<feColorMatrix type="matrix" values="0 0 0 0 0.970459 0 0 0 0 0.573259 0 0 0 0 0.299778 0 0 0 1 0"/>
<feBlend mode="normal" in2="shape" result="effect1_innerShadow_763_5348"/>
</filter>
<filter id="filter15_i_763_5348" x="15.2734" y="12.6003" width="5.81889" height="2.42338" filterUnits="userSpaceOnUse" color-interpolation-filters="sRGB">
<feFlood flood-opacity="0" result="BackgroundImageFix"/>
<feBlend mode="normal" in="SourceGraphic" in2="BackgroundImageFix" result="shape"/>
<feColorMatrix in="SourceAlpha" type="matrix" values="0 0 0 0 0 0 0 0 0 0 0 0 0 0 0 0 0 0 127 0" result="hardAlpha"/>
<feOffset dx="0.545455" dy="-0.545455"/>
<feGaussianBlur stdDeviation="0.545455"/>
<feComposite in2="hardAlpha" operator="arithmetic" k2="-1" k3="1"/>
<feColorMatrix type="matrix" values="0 0 0 0 0.970459 0 0 0 0 0.573259 0 0 0 0 0.299778 0 0 0 1 0"/>
<feBlend mode="normal" in2="shape" result="effect1_innerShadow_763_5348"/>
</filter>
<filter id="filter16_i_763_5348" x="0" y="5.08833" width="9.27202" height="4.48906" filterUnits="userSpaceOnUse" color-interpolation-filters="sRGB">
<feFlood flood-opacity="0" result="BackgroundImageFix"/>
<feBlend mode="normal" in="SourceGraphic" in2="BackgroundImageFix" result="shape"/>
<feColorMatrix in="SourceAlpha" type="matrix" values="0 0 0 0 0 0 0 0 0 0 0 0 0 0 0 0 0 0 127 0" result="hardAlpha"/>
<feOffset dx="0.545455" dy="-0.545455"/>
<feGaussianBlur stdDeviation="0.545455"/>
<feComposite in2="hardAlpha" operator="arithmetic" k2="-1" k3="1"/>
<feColorMatrix type="matrix" values="0 0 0 0 0.970459 0 0 0 0 0.573259 0 0 0 0 0.299778 0 0 0 1 0"/>
<feBlend mode="normal" in2="shape" result="effect1_innerShadow_763_5348"/>
</filter>
<filter id="filter17_i_763_5348" x="1.08984" y="9.21944" width="8.18217" height="3.73784" filterUnits="userSpaceOnUse" color-interpolation-filters="sRGB">
<feFlood flood-opacity="0" result="BackgroundImageFix"/>
<feBlend mode="normal" in="SourceGraphic" in2="BackgroundImageFix" result="shape"/>
<feColorMatrix in="SourceAlpha" type="matrix" values="0 0 0 0 0 0 0 0 0 0 0 0 0 0 0 0 0 0 127 0" result="hardAlpha"/>
<feOffset dx="0.545455" dy="-0.545455"/>
<feGaussianBlur stdDeviation="0.545455"/>
<feComposite in2="hardAlpha" operator="arithmetic" k2="-1" k3="1"/>
<feColorMatrix type="matrix" values="0 0 0 0 0.970459 0 0 0 0 0.573259 0 0 0 0 0.299778 0 0 0 1 0"/>
<feBlend mode="normal" in2="shape" result="effect1_innerShadow_763_5348"/>
</filter>
<filter id="filter18_i_763_5348" x="3.63672" y="12.6003" width="5.6353" height="2.42338" filterUnits="userSpaceOnUse" color-interpolation-filters="sRGB">
<feFlood flood-opacity="0" result="BackgroundImageFix"/>
<feBlend mode="normal" in="SourceGraphic" in2="BackgroundImageFix" result="shape"/>
<feColorMatrix in="SourceAlpha" type="matrix" values="0 0 0 0 0 0 0 0 0 0 0 0 0 0 0 0 0 0 127 0" result="hardAlpha"/>
<feOffset dx="0.545455" dy="-0.545455"/>
<feGaussianBlur stdDeviation="0.545455"/>
<feComposite in2="hardAlpha" operator="arithmetic" k2="-1" k3="1"/>
<feColorMatrix type="matrix" values="0 0 0 0 0.970459 0 0 0 0 0.573259 0 0 0 0 0.299778 0 0 0 1 0"/>
<feBlend mode="normal" in2="shape" result="effect1_innerShadow_763_5348"/>
</filter>
<linearGradient id="paint0_linear_763_5348" x1="4.36364" y1="5.63379" x2="4.36364" y2="9.57745" gradientUnits="userSpaceOnUse">
<stop stop-color="#CAD2F9"/>
<stop offset="1" stop-color="#C1C9F7"/>
</linearGradient>
<linearGradient id="paint1_linear_763_5348" x1="4.90803" y1="9.76489" x2="4.90803" y2="12.7696" gradientUnits="userSpaceOnUse">
<stop stop-color="#CAD2F9"/>
<stop offset="1" stop-color="#C1C9F7"/>
</linearGradient>
<linearGradient id="paint2_linear_763_5348" x1="7.09126" y1="13.1458" x2="7.09126" y2="15.0237" gradientUnits="userSpaceOnUse">
<stop stop-color="#CAD2F9"/>
<stop offset="1" stop-color="#C1C9F7"/>
</linearGradient>
<linearGradient id="paint3_linear_763_5348" x1="16.8178" y1="13.3335" x2="16.8178" y2="15.0236" gradientUnits="userSpaceOnUse">
<stop stop-color="#CAD2F9"/>
<stop offset="1" stop-color="#C1C9F7"/>
</linearGradient>
<linearGradient id="paint4_linear_763_5348" x1="19.6364" y1="8.0751" x2="23.6365" y2="7.98709" gradientUnits="userSpaceOnUse">
<stop stop-color="#47A0DB"/>
<stop offset="1" stop-color="#A2DFFF"/>
</linearGradient>
<linearGradient id="paint5_linear_763_5348" x1="19.092" y1="11.7412" x2="22.5918" y2="11.658" gradientUnits="userSpaceOnUse">
<stop stop-color="#47A0DB"/>
<stop offset="1" stop-color="#A2DFFF"/>
</linearGradient>
<linearGradient id="paint6_linear_763_5348" x1="17.9105" y1="14.3083" x2="20.3265" y2="14.2408" gradientUnits="userSpaceOnUse">
<stop stop-color="#47A0DB"/>
<stop offset="1" stop-color="#A2DFFF"/>
</linearGradient>
<linearGradient id="paint7_linear_763_5348" x1="6.18217" y1="14.3083" x2="3.84933" y2="14.2454" gradientUnits="userSpaceOnUse">
<stop stop-color="#47A0DB"/>
<stop offset="1" stop-color="#A2DFFF"/>
</linearGradient>
<linearGradient id="paint8_linear_763_5348" x1="4.90803" y1="11.7412" x2="1.4082" y2="11.658" gradientUnits="userSpaceOnUse">
<stop stop-color="#47A0DB"/>
<stop offset="1" stop-color="#A2DFFF"/>
</linearGradient>
<linearGradient id="paint9_linear_763_5348" x1="4.36364" y1="8.0751" x2="0.363507" y2="7.98709" gradientUnits="userSpaceOnUse">
<stop stop-color="#894EDC"/>
<stop offset="1" stop-color="#AF80F4"/>
</linearGradient>
<linearGradient id="paint10_linear_763_5348" x1="4.36364" y1="8.0751" x2="0.363507" y2="7.98709" gradientUnits="userSpaceOnUse">
<stop stop-color="#894EDC"/>
<stop offset="1" stop-color="#AF80F4"/>
</linearGradient>
<linearGradient id="paint11_linear_763_5348" x1="4.90803" y1="11.7412" x2="1.4082" y2="11.658" gradientUnits="userSpaceOnUse">
<stop stop-color="#894EDC"/>
<stop offset="1" stop-color="#AF80F4"/>
</linearGradient>
<linearGradient id="paint12_linear_763_5348" x1="6.18217" y1="14.3083" x2="3.84933" y2="14.2454" gradientUnits="userSpaceOnUse">
<stop stop-color="#894EDC"/>
<stop offset="1" stop-color="#AF80F4"/>
</linearGradient>
<linearGradient id="paint13_linear_763_5348" x1="19.6364" y1="8.0751" x2="23.6365" y2="7.98709" gradientUnits="userSpaceOnUse">
<stop stop-color="#E76811"/>
<stop offset="1" stop-color="#FFBB4F"/>
</linearGradient>
<linearGradient id="paint14_linear_763_5348" x1="19.092" y1="11.7412" x2="22.5918" y2="11.658" gradientUnits="userSpaceOnUse">
<stop stop-color="#E76811"/>
<stop offset="1" stop-color="#FFBB4F"/>
</linearGradient>
<linearGradient id="paint15_linear_763_5348" x1="17.9105" y1="14.3083" x2="20.3265" y2="14.2408" gradientUnits="userSpaceOnUse">
<stop stop-color="#E76811"/>
<stop offset="1" stop-color="#FFBB4F"/>
</linearGradient>
<linearGradient id="paint16_linear_763_5348" x1="4.36364" y1="8.0751" x2="0.363507" y2="7.98709" gradientUnits="userSpaceOnUse">
<stop stop-color="#E76811"/>
<stop offset="1" stop-color="#FFBB4F"/>
</linearGradient>
<linearGradient id="paint17_linear_763_5348" x1="4.90803" y1="11.7412" x2="1.4082" y2="11.658" gradientUnits="userSpaceOnUse">
<stop stop-color="#E76811"/>
<stop offset="1" stop-color="#FFBB4F"/>
</linearGradient>
<linearGradient id="paint18_linear_763_5348" x1="6.18217" y1="14.3083" x2="3.84933" y2="14.2454" gradientUnits="userSpaceOnUse">
<stop stop-color="#E76811"/>
<stop offset="1" stop-color="#FFBB4F"/>
</linearGradient>
<linearGradient id="paint19_linear_763_5348" x1="12.0011" y1="2.62915" x2="12.0011" y2="17.277" gradientUnits="userSpaceOnUse">
<stop stop-color="#FDFED0"/>
<stop offset="1" stop-color="#FFB747"/>
</linearGradient>
<radialGradient id="paint20_diamond_763_5348" cx="0" cy="0" r="1" gradientUnits="userSpaceOnUse" gradientTransform="translate(11.9105 4.22544) rotate(90) scale(11.3615 11)">
<stop stop-color="#EC993B"/>
<stop offset="1" stop-color="#FDE583"/>
</radialGradient>
<linearGradient id="paint21_linear_763_5348" x1="6.8196" y1="2.87183" x2="6.8196" y2="17.0331" gradientUnits="userSpaceOnUse">
<stop stop-color="#FFBB38"/>
<stop offset="0.541667" stop-color="#FFC941"/>
<stop offset="1" stop-color="#FFA524"/>
</linearGradient>
<linearGradient id="paint22_linear_763_5348" x1="17.364" y1="2.87183" x2="17.364" y2="17.0331" gradientUnits="userSpaceOnUse">
<stop stop-color="#FFBB38"/>
<stop offset="0.541667" stop-color="#FFC941"/>
<stop offset="1" stop-color="#FFA524"/>
</linearGradient>
</defs>
</svg>
