<svg width="24" height="22" viewBox="0 0 24 22" fill="none" xmlns="http://www.w3.org/2000/svg">
<path fill-rule="evenodd" clip-rule="evenodd" d="M11.9981 0L5.81641 7.90897H11.9981V0Z" fill="#8F9EFE"/>
<path fill-rule="evenodd" clip-rule="evenodd" d="M9.304 19.2161L9.30396 19.2161L6.79595 9.4961L12.4632 11.9654L9.304 19.2161Z" fill="#8F9EFE"/>
<path fill-rule="evenodd" clip-rule="evenodd" d="M15.0085 19.2161L15.0085 19.2161L17.5166 9.4961L11.8493 11.9654L15.0085 19.2161Z" fill="#8F9EFE"/>
<path fill-rule="evenodd" clip-rule="evenodd" d="M9.30563 19.2164L18.1318 14.4351L12.4647 11.9659L9.30563 19.2164Z" fill="#8D7DFD"/>
<path fill-rule="evenodd" clip-rule="evenodd" d="M12.0019 0L18.1836 7.90897H12.0019V0Z" fill="#8D7DFD"/>
<path fill-rule="evenodd" clip-rule="evenodd" d="M15.0069 19.2161L6.18074 14.4349L11.8478 11.9657L15.0069 19.2161Z" fill="#8D7DFD"/>
<g filter="url(#filter0_i_763_5347)">
<path d="M0 5.45508H8.72727V9.27326H2.64105C1.18244 9.27326 0 8.09082 0 6.63221V5.45508Z" fill="url(#paint0_linear_763_5347)"/>
</g>
<path fill-rule="evenodd" clip-rule="evenodd" d="M0 5.45557C0.000106685 6.05804 1.95373 6.54643 4.36364 6.54643C6.77354 6.54643 8.72717 6.05804 8.72727 5.45557H0Z" fill="#A8B7E7"/>
<g filter="url(#filter1_i_763_5347)">
<path d="M1.08984 9.45483H8.72621V12.3639H3.7309C2.27228 12.3639 1.08984 11.1815 1.08984 9.72287V9.45483Z" fill="url(#paint1_linear_763_5347)"/>
</g>
<path fill-rule="evenodd" clip-rule="evenodd" d="M1.08984 9.45532C1.08984 9.45532 1.08984 9.45532 1.08984 9.45533C1.08984 9.91437 2.7993 10.2865 4.90803 10.2865C7.01675 10.2865 8.72621 9.91437 8.72621 9.45533C8.72621 9.45532 8.72621 9.45532 8.72621 9.45532H1.08984Z" fill="#A8B7E7"/>
<g filter="url(#filter2_i_763_5347)">
<path d="M3.63672 12.7271H10.5458V14.5452H5.4549C4.45075 14.5452 3.63672 13.7312 3.63672 12.7271Z" fill="url(#paint2_linear_763_5347)"/>
</g>
<path fill-rule="evenodd" clip-rule="evenodd" d="M3.63672 12.7268C3.63672 12.7268 3.63672 12.7269 3.63672 12.7269C3.63672 13.0138 5.18337 13.2464 7.09126 13.2464C8.99916 13.2464 10.5458 13.0138 10.5458 12.7269C10.5458 12.7269 10.5458 12.7268 10.5458 12.7268H3.63672Z" fill="#A8B7E7"/>
<g filter="url(#filter3_i_763_5347)">
<path d="M20.3633 12.9089H13.2724V14.5453H18.7269C19.6307 14.5453 20.3633 13.8127 20.3633 12.9089Z" fill="url(#paint3_linear_763_5347)"/>
</g>
<path fill-rule="evenodd" clip-rule="evenodd" d="M20.3633 12.9087C20.3633 12.9087 20.3633 12.9087 20.3633 12.9088C20.3633 13.167 18.7759 13.3763 16.8178 13.3763C14.8597 13.3763 13.2724 13.167 13.2724 12.9088C13.2724 12.9087 13.2724 12.9087 13.2724 12.9087H20.3633Z" fill="#A8B7E7"/>
<g filter="url(#filter4_i_763_5347)">
<path d="M24 5.45508H15.2727V9.27326H21.3589C22.8176 9.27326 24 8.09082 24 6.63221V5.45508Z" fill="url(#paint4_linear_763_5347)"/>
</g>
<path fill-rule="evenodd" clip-rule="evenodd" d="M24 5.45557C23.9999 6.05804 22.0463 6.54643 19.6364 6.54643C17.2265 6.54643 15.2728 6.05804 15.2727 5.45557H24Z" fill="#70BEF5"/>
<g filter="url(#filter5_i_763_5347)">
<path d="M22.9102 9.45483H15.2738V12.5457H20.2691C21.7277 12.5457 22.9102 11.3633 22.9102 9.90469V9.45483Z" fill="url(#paint5_linear_763_5347)"/>
</g>
<path fill-rule="evenodd" clip-rule="evenodd" d="M22.9102 9.45532C22.9101 9.94305 21.2007 10.3384 19.092 10.3384C16.9833 10.3384 15.2738 9.94305 15.2738 9.45532H22.9102Z" fill="#70BEF5"/>
<g filter="url(#filter6_i_763_5347)">
<path d="M20.5469 12.7271H15.2741V14.5452H18.7287C19.7328 14.5452 20.5469 13.7312 20.5469 12.7271Z" fill="url(#paint6_linear_763_5347)"/>
</g>
<path fill-rule="evenodd" clip-rule="evenodd" d="M20.5469 12.7268C20.5469 12.7268 20.5469 12.7269 20.5469 12.7269C20.5469 13.0138 19.3665 13.2464 17.9105 13.2464C16.4545 13.2464 15.2741 13.0138 15.2741 12.7269C15.2741 12.7269 15.2741 12.7268 15.2741 12.7268H20.5469Z" fill="#70BEF5"/>
<g filter="url(#filter7_i_763_5347)">
<path d="M3.63672 12.7271H8.72763V14.5452H5.4549C4.45075 14.5452 3.63672 13.7312 3.63672 12.7271Z" fill="url(#paint7_linear_763_5347)"/>
</g>
<path fill-rule="evenodd" clip-rule="evenodd" d="M3.63672 12.7268C3.63672 12.7268 3.63672 12.7269 3.63672 12.7269C3.63672 13.0138 4.77636 13.2464 6.18217 13.2464C7.58799 13.2464 8.72763 13.0138 8.72763 12.7269C8.72763 12.7269 8.72763 12.7268 8.72763 12.7268H3.63672Z" fill="#70BEF5"/>
<g filter="url(#filter8_i_763_5347)">
<path d="M1.08984 9.45483H8.72621V12.5457H3.7309C2.27228 12.5457 1.08984 11.3633 1.08984 9.90469V9.45483Z" fill="url(#paint8_linear_763_5347)"/>
</g>
<path fill-rule="evenodd" clip-rule="evenodd" d="M1.08984 9.45532C1.08986 9.94305 2.79931 10.3384 4.90803 10.3384C7.01674 10.3384 8.72619 9.94305 8.72621 9.45532H1.08984Z" fill="#70BEF5"/>
<g filter="url(#filter9_i_763_5347)">
<path d="M0 5.45508H8.72727V9.27326H2.64105C1.18244 9.27326 0 8.09082 0 6.63221V5.45508Z" fill="url(#paint9_linear_763_5347)"/>
</g>
<path fill-rule="evenodd" clip-rule="evenodd" d="M0 5.45557C0.000106685 6.05804 1.95373 6.54643 4.36364 6.54643C6.77354 6.54643 8.72717 6.05804 8.72727 5.45557H0Z" fill="#AF80F4"/>
<g filter="url(#filter10_i_763_5347)">
<path d="M0 5.45508H8.72727V9.27326H2.64105C1.18244 9.27326 0 8.09082 0 6.63221V5.45508Z" fill="url(#paint10_linear_763_5347)"/>
</g>
<path fill-rule="evenodd" clip-rule="evenodd" d="M0 5.45557C0.000106685 6.05804 1.95373 6.54643 4.36364 6.54643C6.77354 6.54643 8.72717 6.05804 8.72727 5.45557H0Z" fill="#AF80F4"/>
<g filter="url(#filter11_i_763_5347)">
<path d="M1.08984 9.45483H8.72621V12.5457H3.7309C2.27228 12.5457 1.08984 11.3633 1.08984 9.90469V9.45483Z" fill="url(#paint11_linear_763_5347)"/>
</g>
<path fill-rule="evenodd" clip-rule="evenodd" d="M1.08984 9.45532C1.08986 9.94305 2.79931 10.3384 4.90803 10.3384C7.01674 10.3384 8.72619 9.94305 8.72621 9.45532H1.08984Z" fill="#AF80F4"/>
<g filter="url(#filter12_i_763_5347)">
<path d="M3.63672 12.7271H8.72763V14.5452H5.4549C4.45075 14.5452 3.63672 13.7312 3.63672 12.7271Z" fill="url(#paint12_linear_763_5347)"/>
</g>
<path fill-rule="evenodd" clip-rule="evenodd" d="M3.63672 12.7268C3.63672 12.7268 3.63672 12.7269 3.63672 12.7269C3.63672 13.0138 4.77636 13.2464 6.18217 13.2464C7.58799 13.2464 8.72763 13.0138 8.72763 12.7269C8.72763 12.7269 8.72763 12.7268 8.72763 12.7268H3.63672Z" fill="#AF80F4"/>
<g filter="url(#filter13_i_763_5347)">
<path d="M24 5.45508H15.2727V9.27326H21.3589C22.8176 9.27326 24 8.09082 24 6.63221V5.45508Z" fill="url(#paint13_linear_763_5347)"/>
</g>
<path fill-rule="evenodd" clip-rule="evenodd" d="M24 5.45557C23.9999 6.05804 22.0463 6.54643 19.6364 6.54643C17.2265 6.54643 15.2728 6.05804 15.2727 5.45557H24Z" fill="#AF80F4"/>
<g filter="url(#filter14_i_763_5347)">
<path d="M22.9102 9.45483H15.2738V12.5457H20.2691C21.7277 12.5457 22.9102 11.3633 22.9102 9.90469V9.45483Z" fill="url(#paint14_linear_763_5347)"/>
</g>
<path fill-rule="evenodd" clip-rule="evenodd" d="M22.9102 9.45532C22.9101 9.94305 21.2007 10.3384 19.092 10.3384C16.9833 10.3384 15.2738 9.94305 15.2738 9.45532H22.9102Z" fill="#AF80F4"/>
<g filter="url(#filter15_i_763_5347)">
<path d="M20.5469 12.7271H15.2741V14.5452H18.7287C19.7328 14.5452 20.5469 13.7312 20.5469 12.7271Z" fill="url(#paint15_linear_763_5347)"/>
</g>
<path fill-rule="evenodd" clip-rule="evenodd" d="M20.5469 12.7268C20.5469 12.7268 20.5469 12.7269 20.5469 12.7269C20.5469 13.0138 19.3665 13.2464 17.9105 13.2464C16.4545 13.2464 15.2741 13.0138 15.2741 12.7269C15.2741 12.7269 15.2741 12.7268 15.2741 12.7268H20.5469Z" fill="#AF80F4"/>
<g filter="url(#filter16_i_763_5347)">
<circle cx="12.0011" cy="9.63583" r="7.09091" fill="url(#paint16_linear_763_5347)"/>
</g>
<circle cx="12.0014" cy="9.63594" r="5.45455" fill="url(#paint17_diamond_763_5347)"/>
<ellipse cx="12.0028" cy="9.6359" rx="4.90909" ry="4.90909" fill="#6F2DCB"/>
<path d="M10.9541 11.0908H10.2867L9.12294 7.9415H9.80685L10.4577 9.96567C10.4981 10.098 10.5533 10.2966 10.6231 10.5613L10.6728 10.3683L10.7831 9.96567L11.4284 7.9415H12.1123L10.9541 11.0908ZM14.4828 8.43789C14.3394 8.66218 14.2052 8.87912 14.0802 9.08871C13.9552 9.2983 13.8449 9.50972 13.7493 9.72299C13.6573 9.93625 13.5838 10.155 13.5286 10.3793C13.4735 10.6036 13.4459 10.8408 13.4459 11.0908H12.7951C12.7951 10.8298 12.8282 10.576 12.8944 10.3297C12.9642 10.0833 13.0635 9.8333 13.1922 9.57959C13.3246 9.32588 13.5599 8.95266 13.8982 8.45995H12.3373V7.9415H14.4828V8.43789Z" fill="#F6F9FF"/>
<path fill-rule="evenodd" clip-rule="evenodd" d="M9.09275 2.78345C6.42757 3.91614 4.55859 6.55811 4.55859 9.63661C4.55859 12.7151 6.42757 15.3571 9.09275 16.4898V15.7169C6.8273 14.6312 5.26287 12.3166 5.26287 9.63661C5.26287 6.95664 6.8273 4.64206 9.09275 3.55629V2.78345Z" fill="url(#paint18_linear_763_5347)"/>
<path fill-rule="evenodd" clip-rule="evenodd" d="M15.0908 2.78345C17.756 3.91614 19.625 6.55811 19.625 9.63661C19.625 12.7151 17.756 15.3571 15.0908 16.4898V15.7169C17.3563 14.6312 18.9207 12.3166 18.9207 9.63661C18.9207 6.95664 17.3563 4.64206 15.0908 3.55629V2.78345Z" fill="url(#paint19_linear_763_5347)"/>
<defs>
<filter id="filter0_i_763_5347" x="0" y="4.92687" width="9.25477" height="4.34633" filterUnits="userSpaceOnUse" color-interpolation-filters="sRGB">
<feFlood flood-opacity="0" result="BackgroundImageFix"/>
<feBlend mode="normal" in="SourceGraphic" in2="BackgroundImageFix" result="shape"/>
<feColorMatrix in="SourceAlpha" type="matrix" values="0 0 0 0 0 0 0 0 0 0 0 0 0 0 0 0 0 0 127 0" result="hardAlpha"/>
<feOffset dx="0.528211" dy="-0.528211"/>
<feGaussianBlur stdDeviation="0.528211"/>
<feComposite in2="hardAlpha" operator="arithmetic" k2="-1" k3="1"/>
<feColorMatrix type="matrix" values="0 0 0 0 0.552941 0 0 0 0 0.603922 0 0 0 0 0.803922 0 0 0 0.6 0"/>
<feBlend mode="normal" in2="shape" result="effect1_innerShadow_763_5347"/>
</filter>
<filter id="filter1_i_763_5347" x="1.08984" y="8.92662" width="8.16493" height="3.43739" filterUnits="userSpaceOnUse" color-interpolation-filters="sRGB">
<feFlood flood-opacity="0" result="BackgroundImageFix"/>
<feBlend mode="normal" in="SourceGraphic" in2="BackgroundImageFix" result="shape"/>
<feColorMatrix in="SourceAlpha" type="matrix" values="0 0 0 0 0 0 0 0 0 0 0 0 0 0 0 0 0 0 127 0" result="hardAlpha"/>
<feOffset dx="0.528211" dy="-0.528211"/>
<feGaussianBlur stdDeviation="0.528211"/>
<feComposite in2="hardAlpha" operator="arithmetic" k2="-1" k3="1"/>
<feColorMatrix type="matrix" values="0 0 0 0 0.552941 0 0 0 0 0.603922 0 0 0 0 0.803922 0 0 0 0.6 0"/>
<feBlend mode="normal" in2="shape" result="effect1_innerShadow_763_5347"/>
</filter>
<filter id="filter2_i_763_5347" x="3.63672" y="12.4629" width="7.17426" height="2.08222" filterUnits="userSpaceOnUse" color-interpolation-filters="sRGB">
<feFlood flood-opacity="0" result="BackgroundImageFix"/>
<feBlend mode="normal" in="SourceGraphic" in2="BackgroundImageFix" result="shape"/>
<feColorMatrix in="SourceAlpha" type="matrix" values="0 0 0 0 0 0 0 0 0 0 0 0 0 0 0 0 0 0 127 0" result="hardAlpha"/>
<feOffset dx="0.264105" dy="-0.264105"/>
<feGaussianBlur stdDeviation="0.528211"/>
<feComposite in2="hardAlpha" operator="arithmetic" k2="-1" k3="1"/>
<feColorMatrix type="matrix" values="0 0 0 0 0.552941 0 0 0 0 0.603922 0 0 0 0 0.803922 0 0 0 0.6 0"/>
<feBlend mode="normal" in2="shape" result="effect1_innerShadow_763_5347"/>
</filter>
<filter id="filter3_i_763_5347" x="13.2734" y="12.6448" width="7.35395" height="1.90058" filterUnits="userSpaceOnUse" color-interpolation-filters="sRGB">
<feFlood flood-opacity="0" result="BackgroundImageFix"/>
<feBlend mode="normal" in="SourceGraphic" in2="BackgroundImageFix" result="shape"/>
<feColorMatrix in="SourceAlpha" type="matrix" values="0 0 0 0 0 0 0 0 0 0 0 0 0 0 0 0 0 0 127 0" result="hardAlpha"/>
<feOffset dx="0.264105" dy="-0.264105"/>
<feGaussianBlur stdDeviation="0.528211"/>
<feComposite in2="hardAlpha" operator="arithmetic" k2="-1" k3="1"/>
<feColorMatrix type="matrix" values="0 0 0 0 0.552941 0 0 0 0 0.603922 0 0 0 0 0.803922 0 0 0 0.6 0"/>
<feBlend mode="normal" in2="shape" result="effect1_innerShadow_763_5347"/>
</filter>
<filter id="filter4_i_763_5347" x="15.2734" y="4.92687" width="9.25477" height="4.34633" filterUnits="userSpaceOnUse" color-interpolation-filters="sRGB">
<feFlood flood-opacity="0" result="BackgroundImageFix"/>
<feBlend mode="normal" in="SourceGraphic" in2="BackgroundImageFix" result="shape"/>
<feColorMatrix in="SourceAlpha" type="matrix" values="0 0 0 0 0 0 0 0 0 0 0 0 0 0 0 0 0 0 127 0" result="hardAlpha"/>
<feOffset dx="0.528211" dy="-0.528211"/>
<feGaussianBlur stdDeviation="0.528211"/>
<feComposite in2="hardAlpha" operator="arithmetic" k2="-1" k3="1"/>
<feColorMatrix type="matrix" values="0 0 0 0 0.352941 0 0 0 0 0.576471 0 0 0 0 0.776471 0 0 0 0.6 0"/>
<feBlend mode="normal" in2="shape" result="effect1_innerShadow_763_5347"/>
</filter>
<filter id="filter5_i_763_5347" x="15.2734" y="8.92662" width="8.16493" height="3.61903" filterUnits="userSpaceOnUse" color-interpolation-filters="sRGB">
<feFlood flood-opacity="0" result="BackgroundImageFix"/>
<feBlend mode="normal" in="SourceGraphic" in2="BackgroundImageFix" result="shape"/>
<feColorMatrix in="SourceAlpha" type="matrix" values="0 0 0 0 0 0 0 0 0 0 0 0 0 0 0 0 0 0 127 0" result="hardAlpha"/>
<feOffset dx="0.528211" dy="-0.528211"/>
<feGaussianBlur stdDeviation="0.528211"/>
<feComposite in2="hardAlpha" operator="arithmetic" k2="-1" k3="1"/>
<feColorMatrix type="matrix" values="0 0 0 0 0.352941 0 0 0 0 0.576471 0 0 0 0 0.776471 0 0 0 0.6 0"/>
<feBlend mode="normal" in2="shape" result="effect1_innerShadow_763_5347"/>
</filter>
<filter id="filter6_i_763_5347" x="15.2734" y="12.1988" width="5.80165" height="2.34633" filterUnits="userSpaceOnUse" color-interpolation-filters="sRGB">
<feFlood flood-opacity="0" result="BackgroundImageFix"/>
<feBlend mode="normal" in="SourceGraphic" in2="BackgroundImageFix" result="shape"/>
<feColorMatrix in="SourceAlpha" type="matrix" values="0 0 0 0 0 0 0 0 0 0 0 0 0 0 0 0 0 0 127 0" result="hardAlpha"/>
<feOffset dx="0.528211" dy="-0.528211"/>
<feGaussianBlur stdDeviation="0.528211"/>
<feComposite in2="hardAlpha" operator="arithmetic" k2="-1" k3="1"/>
<feColorMatrix type="matrix" values="0 0 0 0 0.352941 0 0 0 0 0.576471 0 0 0 0 0.776471 0 0 0 0.6 0"/>
<feBlend mode="normal" in2="shape" result="effect1_innerShadow_763_5347"/>
</filter>
<filter id="filter7_i_763_5347" x="3.63672" y="12.1988" width="5.61805" height="2.34633" filterUnits="userSpaceOnUse" color-interpolation-filters="sRGB">
<feFlood flood-opacity="0" result="BackgroundImageFix"/>
<feBlend mode="normal" in="SourceGraphic" in2="BackgroundImageFix" result="shape"/>
<feColorMatrix in="SourceAlpha" type="matrix" values="0 0 0 0 0 0 0 0 0 0 0 0 0 0 0 0 0 0 127 0" result="hardAlpha"/>
<feOffset dx="0.528211" dy="-0.528211"/>
<feGaussianBlur stdDeviation="0.528211"/>
<feComposite in2="hardAlpha" operator="arithmetic" k2="-1" k3="1"/>
<feColorMatrix type="matrix" values="0 0 0 0 0.352941 0 0 0 0 0.576471 0 0 0 0 0.776471 0 0 0 0.6 0"/>
<feBlend mode="normal" in2="shape" result="effect1_innerShadow_763_5347"/>
</filter>
<filter id="filter8_i_763_5347" x="1.08984" y="8.92662" width="8.16493" height="3.61903" filterUnits="userSpaceOnUse" color-interpolation-filters="sRGB">
<feFlood flood-opacity="0" result="BackgroundImageFix"/>
<feBlend mode="normal" in="SourceGraphic" in2="BackgroundImageFix" result="shape"/>
<feColorMatrix in="SourceAlpha" type="matrix" values="0 0 0 0 0 0 0 0 0 0 0 0 0 0 0 0 0 0 127 0" result="hardAlpha"/>
<feOffset dx="0.528211" dy="-0.528211"/>
<feGaussianBlur stdDeviation="0.528211"/>
<feComposite in2="hardAlpha" operator="arithmetic" k2="-1" k3="1"/>
<feColorMatrix type="matrix" values="0 0 0 0 0.352941 0 0 0 0 0.576471 0 0 0 0 0.776471 0 0 0 0.6 0"/>
<feBlend mode="normal" in2="shape" result="effect1_innerShadow_763_5347"/>
</filter>
<filter id="filter9_i_763_5347" x="0" y="4.92687" width="9.25477" height="4.34633" filterUnits="userSpaceOnUse" color-interpolation-filters="sRGB">
<feFlood flood-opacity="0" result="BackgroundImageFix"/>
<feBlend mode="normal" in="SourceGraphic" in2="BackgroundImageFix" result="shape"/>
<feColorMatrix in="SourceAlpha" type="matrix" values="0 0 0 0 0 0 0 0 0 0 0 0 0 0 0 0 0 0 127 0" result="hardAlpha"/>
<feOffset dx="0.528211" dy="-0.528211"/>
<feGaussianBlur stdDeviation="0.528211"/>
<feComposite in2="hardAlpha" operator="arithmetic" k2="-1" k3="1"/>
<feColorMatrix type="matrix" values="0 0 0 0 0.835294 0 0 0 0 0.713726 0 0 0 0 0.968627 0 0 0 0.6 0"/>
<feBlend mode="normal" in2="shape" result="effect1_innerShadow_763_5347"/>
</filter>
<filter id="filter10_i_763_5347" x="0" y="4.92687" width="9.25477" height="4.34633" filterUnits="userSpaceOnUse" color-interpolation-filters="sRGB">
<feFlood flood-opacity="0" result="BackgroundImageFix"/>
<feBlend mode="normal" in="SourceGraphic" in2="BackgroundImageFix" result="shape"/>
<feColorMatrix in="SourceAlpha" type="matrix" values="0 0 0 0 0 0 0 0 0 0 0 0 0 0 0 0 0 0 127 0" result="hardAlpha"/>
<feOffset dx="0.528211" dy="-0.528211"/>
<feGaussianBlur stdDeviation="0.528211"/>
<feComposite in2="hardAlpha" operator="arithmetic" k2="-1" k3="1"/>
<feColorMatrix type="matrix" values="0 0 0 0 0.835294 0 0 0 0 0.713726 0 0 0 0 0.968627 0 0 0 0.6 0"/>
<feBlend mode="normal" in2="shape" result="effect1_innerShadow_763_5347"/>
</filter>
<filter id="filter11_i_763_5347" x="1.08984" y="8.92662" width="8.16493" height="3.61903" filterUnits="userSpaceOnUse" color-interpolation-filters="sRGB">
<feFlood flood-opacity="0" result="BackgroundImageFix"/>
<feBlend mode="normal" in="SourceGraphic" in2="BackgroundImageFix" result="shape"/>
<feColorMatrix in="SourceAlpha" type="matrix" values="0 0 0 0 0 0 0 0 0 0 0 0 0 0 0 0 0 0 127 0" result="hardAlpha"/>
<feOffset dx="0.528211" dy="-0.528211"/>
<feGaussianBlur stdDeviation="0.528211"/>
<feComposite in2="hardAlpha" operator="arithmetic" k2="-1" k3="1"/>
<feColorMatrix type="matrix" values="0 0 0 0 0.835294 0 0 0 0 0.713726 0 0 0 0 0.968627 0 0 0 0.6 0"/>
<feBlend mode="normal" in2="shape" result="effect1_innerShadow_763_5347"/>
</filter>
<filter id="filter12_i_763_5347" x="3.63672" y="12.1988" width="5.61805" height="2.34633" filterUnits="userSpaceOnUse" color-interpolation-filters="sRGB">
<feFlood flood-opacity="0" result="BackgroundImageFix"/>
<feBlend mode="normal" in="SourceGraphic" in2="BackgroundImageFix" result="shape"/>
<feColorMatrix in="SourceAlpha" type="matrix" values="0 0 0 0 0 0 0 0 0 0 0 0 0 0 0 0 0 0 127 0" result="hardAlpha"/>
<feOffset dx="0.528211" dy="-0.528211"/>
<feGaussianBlur stdDeviation="0.528211"/>
<feComposite in2="hardAlpha" operator="arithmetic" k2="-1" k3="1"/>
<feColorMatrix type="matrix" values="0 0 0 0 0.835294 0 0 0 0 0.713726 0 0 0 0 0.968627 0 0 0 0.6 0"/>
<feBlend mode="normal" in2="shape" result="effect1_innerShadow_763_5347"/>
</filter>
<filter id="filter13_i_763_5347" x="15.2734" y="4.92687" width="9.25477" height="4.34633" filterUnits="userSpaceOnUse" color-interpolation-filters="sRGB">
<feFlood flood-opacity="0" result="BackgroundImageFix"/>
<feBlend mode="normal" in="SourceGraphic" in2="BackgroundImageFix" result="shape"/>
<feColorMatrix in="SourceAlpha" type="matrix" values="0 0 0 0 0 0 0 0 0 0 0 0 0 0 0 0 0 0 127 0" result="hardAlpha"/>
<feOffset dx="0.528211" dy="-0.528211"/>
<feGaussianBlur stdDeviation="0.528211"/>
<feComposite in2="hardAlpha" operator="arithmetic" k2="-1" k3="1"/>
<feColorMatrix type="matrix" values="0 0 0 0 0.835294 0 0 0 0 0.713726 0 0 0 0 0.968627 0 0 0 0.6 0"/>
<feBlend mode="normal" in2="shape" result="effect1_innerShadow_763_5347"/>
</filter>
<filter id="filter14_i_763_5347" x="15.2734" y="8.92662" width="8.16493" height="3.61903" filterUnits="userSpaceOnUse" color-interpolation-filters="sRGB">
<feFlood flood-opacity="0" result="BackgroundImageFix"/>
<feBlend mode="normal" in="SourceGraphic" in2="BackgroundImageFix" result="shape"/>
<feColorMatrix in="SourceAlpha" type="matrix" values="0 0 0 0 0 0 0 0 0 0 0 0 0 0 0 0 0 0 127 0" result="hardAlpha"/>
<feOffset dx="0.528211" dy="-0.528211"/>
<feGaussianBlur stdDeviation="0.528211"/>
<feComposite in2="hardAlpha" operator="arithmetic" k2="-1" k3="1"/>
<feColorMatrix type="matrix" values="0 0 0 0 0.835294 0 0 0 0 0.713726 0 0 0 0 0.968627 0 0 0 0.6 0"/>
<feBlend mode="normal" in2="shape" result="effect1_innerShadow_763_5347"/>
</filter>
<filter id="filter15_i_763_5347" x="15.2734" y="12.1988" width="5.80165" height="2.34633" filterUnits="userSpaceOnUse" color-interpolation-filters="sRGB">
<feFlood flood-opacity="0" result="BackgroundImageFix"/>
<feBlend mode="normal" in="SourceGraphic" in2="BackgroundImageFix" result="shape"/>
<feColorMatrix in="SourceAlpha" type="matrix" values="0 0 0 0 0 0 0 0 0 0 0 0 0 0 0 0 0 0 127 0" result="hardAlpha"/>
<feOffset dx="0.528211" dy="-0.528211"/>
<feGaussianBlur stdDeviation="0.528211"/>
<feComposite in2="hardAlpha" operator="arithmetic" k2="-1" k3="1"/>
<feColorMatrix type="matrix" values="0 0 0 0 0.835294 0 0 0 0 0.713726 0 0 0 0 0.968627 0 0 0 0.6 0"/>
<feBlend mode="normal" in2="shape" result="effect1_innerShadow_763_5347"/>
</filter>
<filter id="filter16_i_763_5347" x="3.85373" y="1.4885" width="15.24" height="15.2383" filterUnits="userSpaceOnUse" color-interpolation-filters="sRGB">
<feFlood flood-opacity="0" result="BackgroundImageFix"/>
<feBlend mode="normal" in="SourceGraphic" in2="BackgroundImageFix" result="shape"/>
<feColorMatrix in="SourceAlpha" type="matrix" values="0 0 0 0 0 0 0 0 0 0 0 0 0 0 0 0 0 0 127 0" result="hardAlpha"/>
<feOffset dx="-1.05642" dy="-1.05642"/>
<feGaussianBlur stdDeviation="1.05642"/>
<feComposite in2="hardAlpha" operator="arithmetic" k2="-1" k3="1"/>
<feColorMatrix type="matrix" values="0 0 0 0 0.761316 0 0 0 0 0.616103 0 0 0 0 0.922038 0 0 0 1 0"/>
<feBlend mode="normal" in2="shape" result="effect1_innerShadow_763_5347"/>
</filter>
<linearGradient id="paint0_linear_763_5347" x1="4.36364" y1="5.45508" x2="4.36364" y2="9.27326" gradientUnits="userSpaceOnUse">
<stop stop-color="#CAD2F9"/>
<stop offset="1" stop-color="#C1C9F7"/>
</linearGradient>
<linearGradient id="paint1_linear_763_5347" x1="4.90803" y1="9.45483" x2="4.90803" y2="12.3639" gradientUnits="userSpaceOnUse">
<stop stop-color="#CAD2F9"/>
<stop offset="1" stop-color="#C1C9F7"/>
</linearGradient>
<linearGradient id="paint2_linear_763_5347" x1="7.09126" y1="12.7271" x2="7.09126" y2="14.5452" gradientUnits="userSpaceOnUse">
<stop stop-color="#CAD2F9"/>
<stop offset="1" stop-color="#C1C9F7"/>
</linearGradient>
<linearGradient id="paint3_linear_763_5347" x1="16.8178" y1="12.9089" x2="16.8178" y2="14.5453" gradientUnits="userSpaceOnUse">
<stop stop-color="#CAD2F9"/>
<stop offset="1" stop-color="#C1C9F7"/>
</linearGradient>
<linearGradient id="paint4_linear_763_5347" x1="19.6364" y1="7.81872" x2="23.6364" y2="7.72781" gradientUnits="userSpaceOnUse">
<stop stop-color="#47A0DB"/>
<stop offset="1" stop-color="#A2DFFF"/>
</linearGradient>
<linearGradient id="paint5_linear_763_5347" x1="19.092" y1="11.3683" x2="22.5917" y2="11.2823" gradientUnits="userSpaceOnUse">
<stop stop-color="#47A0DB"/>
<stop offset="1" stop-color="#A2DFFF"/>
</linearGradient>
<linearGradient id="paint6_linear_763_5347" x1="17.9105" y1="13.8526" x2="20.3264" y2="13.7829" gradientUnits="userSpaceOnUse">
<stop stop-color="#47A0DB"/>
<stop offset="1" stop-color="#A2DFFF"/>
</linearGradient>
<linearGradient id="paint7_linear_763_5347" x1="6.18217" y1="13.8526" x2="3.84944" y2="13.7876" gradientUnits="userSpaceOnUse">
<stop stop-color="#47A0DB"/>
<stop offset="1" stop-color="#A2DFFF"/>
</linearGradient>
<linearGradient id="paint8_linear_763_5347" x1="4.90803" y1="11.3683" x2="1.40833" y2="11.2823" gradientUnits="userSpaceOnUse">
<stop stop-color="#47A0DB"/>
<stop offset="1" stop-color="#A2DFFF"/>
</linearGradient>
<linearGradient id="paint9_linear_763_5347" x1="4.36364" y1="7.81872" x2="0.363637" y2="7.72781" gradientUnits="userSpaceOnUse">
<stop stop-color="#894EDC"/>
<stop offset="1" stop-color="#AF80F4"/>
</linearGradient>
<linearGradient id="paint10_linear_763_5347" x1="4.36364" y1="7.81872" x2="0.363637" y2="7.72781" gradientUnits="userSpaceOnUse">
<stop stop-color="#894EDC"/>
<stop offset="1" stop-color="#AF80F4"/>
</linearGradient>
<linearGradient id="paint11_linear_763_5347" x1="4.90803" y1="11.3683" x2="1.40833" y2="11.2823" gradientUnits="userSpaceOnUse">
<stop stop-color="#894EDC"/>
<stop offset="1" stop-color="#AF80F4"/>
</linearGradient>
<linearGradient id="paint12_linear_763_5347" x1="6.18217" y1="13.8526" x2="3.84944" y2="13.7876" gradientUnits="userSpaceOnUse">
<stop stop-color="#894EDC"/>
<stop offset="1" stop-color="#AF80F4"/>
</linearGradient>
<linearGradient id="paint13_linear_763_5347" x1="19.6364" y1="7.81872" x2="23.6364" y2="7.72781" gradientUnits="userSpaceOnUse">
<stop stop-color="#894EDC"/>
<stop offset="1" stop-color="#AF80F4"/>
</linearGradient>
<linearGradient id="paint14_linear_763_5347" x1="19.092" y1="11.3683" x2="22.5917" y2="11.2823" gradientUnits="userSpaceOnUse">
<stop stop-color="#894EDC"/>
<stop offset="1" stop-color="#AF80F4"/>
</linearGradient>
<linearGradient id="paint15_linear_763_5347" x1="17.9105" y1="13.8526" x2="20.3264" y2="13.7829" gradientUnits="userSpaceOnUse">
<stop stop-color="#894EDC"/>
<stop offset="1" stop-color="#AF80F4"/>
</linearGradient>
<linearGradient id="paint16_linear_763_5347" x1="12.0011" y1="2.54492" x2="12.0011" y2="16.7267" gradientUnits="userSpaceOnUse">
<stop stop-color="#E6D0FE"/>
<stop offset="1" stop-color="#D9ADFE"/>
</linearGradient>
<radialGradient id="paint17_diamond_763_5347" cx="0" cy="0" r="1" gradientUnits="userSpaceOnUse" gradientTransform="translate(11.9105 4.09049) rotate(90) scale(11)">
<stop stop-color="#D5AAF2"/>
<stop offset="0.737455" stop-color="#CC99F6"/>
<stop offset="1" stop-color="#AE7FF3"/>
</radialGradient>
<linearGradient id="paint18_linear_763_5347" x1="6.82567" y1="2.78345" x2="6.82567" y2="16.4898" gradientUnits="userSpaceOnUse">
<stop stop-color="#B082F3"/>
<stop offset="0.541667" stop-color="#C780FF"/>
<stop offset="1" stop-color="#8F51F3"/>
</linearGradient>
<linearGradient id="paint19_linear_763_5347" x1="17.3579" y1="2.78345" x2="17.3579" y2="16.4898" gradientUnits="userSpaceOnUse">
<stop stop-color="#B082F3"/>
<stop offset="0.541667" stop-color="#C780FF"/>
<stop offset="1" stop-color="#8F51F3"/>
</linearGradient>
</defs>
</svg>
