<svg width="24" height="20" viewBox="0 0 24 20" fill="none" xmlns="http://www.w3.org/2000/svg">
<path fill-rule="evenodd" clip-rule="evenodd" d="M11.9982 0L5.81641 7.65356H11.9982V0Z" fill="#EE9E40"/>
<path fill-rule="evenodd" clip-rule="evenodd" d="M11.9982 18.738L5.81641 11.0845H11.9982V18.738Z" fill="#EE9E40"/>
<path fill-rule="evenodd" clip-rule="evenodd" d="M16.8044 16.975L16.7954 17.0407L7.46791 13.3283L12.8327 10.3439L16.8044 16.975Z" fill="#EE9E40"/>
<path fill-rule="evenodd" clip-rule="evenodd" d="M7.31277 16.975L7.32181 17.0407L16.6493 13.3283L11.2845 10.3439L7.31277 16.975Z" fill="#EE9E40"/>
<path fill-rule="evenodd" clip-rule="evenodd" d="M12.0018 0L18.1836 7.65356H12.0018V0Z" fill="#E86912"/>
<path fill-rule="evenodd" clip-rule="evenodd" d="M12.0018 18.738L18.1836 11.0845H12.0018V18.738Z" fill="#E86912"/>
<path fill-rule="evenodd" clip-rule="evenodd" d="M16.7391 17.0197L16.7929 17.0411L18.12 7.4017L12.7632 10.3817L16.7391 17.0197Z" fill="#E86912"/>
<path fill-rule="evenodd" clip-rule="evenodd" d="M7.37812 17.0197L7.32425 17.0411L5.99719 7.4017L11.354 10.3817L7.37812 17.0197Z" fill="#E86912"/>
<g filter="url(#filter0_i_763_5350)">
<path d="M0 5.27832H8.72727V8.97316H2.72728C1.22104 8.97316 0 7.75211 0 6.24588V5.27832Z" fill="url(#paint0_linear_763_5350)"/>
</g>
<path fill-rule="evenodd" clip-rule="evenodd" d="M0 5.27832C0.000301163 5.86129 1.95385 6.33385 4.36364 6.33385C6.77342 6.33385 8.72697 5.86129 8.72727 5.27832H0Z" fill="#A8B7E7"/>
<g filter="url(#filter1_i_763_5350)">
<path d="M1.08984 9.14893H8.72621V11.964H3.81712C2.31088 11.964 1.08984 10.743 1.08984 9.23676V9.14893Z" fill="url(#paint1_linear_763_5350)"/>
</g>
<path fill-rule="evenodd" clip-rule="evenodd" d="M1.08984 9.14868C1.08984 9.14868 1.08984 9.14869 1.08984 9.14869C1.08984 9.5929 2.7993 9.95301 4.90803 9.95301C7.01675 9.95301 8.72621 9.5929 8.72621 9.14869C8.72621 9.14869 8.72621 9.14868 8.72621 9.14868H1.08984Z" fill="#A8B7E7"/>
<g filter="url(#filter2_i_763_5350)">
<path d="M3.63672 12.3157H10.5458V14.0751H5.39616C4.42445 14.0751 3.63672 13.2874 3.63672 12.3157Z" fill="url(#paint2_linear_763_5350)"/>
</g>
<path fill-rule="evenodd" clip-rule="evenodd" d="M3.63672 12.3152C3.63672 12.3152 3.63672 12.3152 3.63672 12.3153C3.63672 12.5929 5.18337 12.818 7.09126 12.818C8.99916 12.818 10.5458 12.5929 10.5458 12.3153C10.5458 12.3152 10.5458 12.3152 10.5458 12.3152H3.63672Z" fill="#A8B7E7"/>
<g filter="url(#filter3_i_763_5350)">
<path d="M20.3633 12.4919H13.2724V14.0754H18.7798C19.6543 14.0754 20.3633 13.3665 20.3633 12.4919Z" fill="url(#paint3_linear_763_5350)"/>
</g>
<path fill-rule="evenodd" clip-rule="evenodd" d="M20.3633 12.4917C20.3633 12.7416 18.7759 12.9441 16.8178 12.9441C14.8597 12.9441 13.2724 12.7416 13.2724 12.4917H20.3633Z" fill="#A8B7E7"/>
<g filter="url(#filter4_i_763_5350)">
<path d="M24 5.27832H15.2727V8.97316H21.2727C22.779 8.97316 24 7.75211 24 6.24588V5.27832Z" fill="url(#paint4_linear_763_5350)"/>
</g>
<path fill-rule="evenodd" clip-rule="evenodd" d="M24 5.27832C23.9997 5.86129 22.0461 6.33385 19.6364 6.33385C17.2266 6.33385 15.273 5.86129 15.2727 5.27832H24Z" fill="#70BEF5"/>
<g filter="url(#filter5_i_763_5350)">
<path d="M22.9102 9.14868H15.2738V12.1397H20.1829C21.6891 12.1397 22.9102 10.9187 22.9102 9.41247V9.14868Z" fill="url(#paint5_linear_763_5350)"/>
</g>
<path fill-rule="evenodd" clip-rule="evenodd" d="M22.9102 9.14844C22.9102 9.14847 22.9102 9.14849 22.9102 9.14852C22.9102 9.6205 21.2007 10.0031 19.092 10.0031C16.9833 10.0031 15.2738 9.6205 15.2738 9.14852C15.2738 9.14849 15.2738 9.14847 15.2738 9.14844H22.9102Z" fill="#70BEF5"/>
<g filter="url(#filter6_i_763_5350)">
<path d="M20.5469 12.3157H15.2741V14.0751H18.7874C19.7591 14.0751 20.5469 13.2874 20.5469 12.3157Z" fill="url(#paint6_linear_763_5350)"/>
</g>
<path fill-rule="evenodd" clip-rule="evenodd" d="M20.5469 12.3152C20.5469 12.3152 20.5469 12.3152 20.5469 12.3153C20.5469 12.5929 19.3665 12.818 17.9105 12.818C16.4545 12.818 15.2741 12.5929 15.2741 12.3153C15.2741 12.3152 15.2741 12.3152 15.2741 12.3152H20.5469Z" fill="#70BEF5"/>
<g filter="url(#filter7_i_763_5350)">
<path d="M3.63672 12.3157H8.72763V14.0751H5.39616C4.42445 14.0751 3.63672 13.2874 3.63672 12.3157Z" fill="url(#paint7_linear_763_5350)"/>
</g>
<path fill-rule="evenodd" clip-rule="evenodd" d="M3.63672 12.3152C3.63672 12.3152 3.63672 12.3152 3.63672 12.3153C3.63672 12.5929 4.77636 12.818 6.18217 12.818C7.58799 12.818 8.72763 12.5929 8.72763 12.3153C8.72763 12.3152 8.72763 12.3152 8.72763 12.3152H3.63672Z" fill="#70BEF5"/>
<g filter="url(#filter8_i_763_5350)">
<path d="M1.08984 9.14868H8.72621V12.1397H3.81712C2.31088 12.1397 1.08984 10.9187 1.08984 9.41247V9.14868Z" fill="url(#paint8_linear_763_5350)"/>
</g>
<path fill-rule="evenodd" clip-rule="evenodd" d="M1.08984 9.14844C1.08984 9.14847 1.08984 9.14849 1.08984 9.14852C1.08984 9.6205 2.7993 10.0031 4.90803 10.0031C7.01675 10.0031 8.72621 9.6205 8.72621 9.14852C8.72621 9.14849 8.72621 9.14847 8.72621 9.14844H1.08984Z" fill="#70BEF5"/>
<g filter="url(#filter9_i_763_5350)">
<path d="M0 5.27832H8.72727V8.97316H2.72728C1.22104 8.97316 0 7.75211 0 6.24588V5.27832Z" fill="url(#paint9_linear_763_5350)"/>
</g>
<path fill-rule="evenodd" clip-rule="evenodd" d="M0 5.27832C0.000301163 5.86129 1.95385 6.33385 4.36364 6.33385C6.77342 6.33385 8.72697 5.86129 8.72727 5.27832H0Z" fill="#AF80F4"/>
<g filter="url(#filter10_i_763_5350)">
<path d="M0 5.27832H8.72727V8.97316H2.72728C1.22104 8.97316 0 7.75211 0 6.24588V5.27832Z" fill="url(#paint10_linear_763_5350)"/>
</g>
<path fill-rule="evenodd" clip-rule="evenodd" d="M0 5.27832C0.000301163 5.86129 1.95385 6.33385 4.36364 6.33385C6.77342 6.33385 8.72697 5.86129 8.72727 5.27832H0Z" fill="#FFC663"/>
<g filter="url(#filter11_i_763_5350)">
<path d="M1.08984 9.14868H8.72621V12.1397H3.81712C2.31088 12.1397 1.08984 10.9187 1.08984 9.41247V9.14868Z" fill="url(#paint11_linear_763_5350)"/>
</g>
<path fill-rule="evenodd" clip-rule="evenodd" d="M1.08984 9.14844C1.08984 9.14847 1.08984 9.14849 1.08984 9.14852C1.08984 9.6205 2.7993 10.0031 4.90803 10.0031C7.01675 10.0031 8.72621 9.6205 8.72621 9.14852C8.72621 9.14849 8.72621 9.14847 8.72621 9.14844H1.08984Z" fill="#FFC663"/>
<g filter="url(#filter12_i_763_5350)">
<path d="M3.63672 12.3157H8.72763V14.0751H5.39616C4.42445 14.0751 3.63672 13.2874 3.63672 12.3157Z" fill="url(#paint12_linear_763_5350)"/>
</g>
<path fill-rule="evenodd" clip-rule="evenodd" d="M3.63672 12.3152C3.63672 12.3152 3.63672 12.3152 3.63672 12.3153C3.63672 12.5929 4.77636 12.818 6.18217 12.818C7.58799 12.818 8.72763 12.5929 8.72763 12.3153C8.72763 12.3152 8.72763 12.3152 8.72763 12.3152H3.63672Z" fill="#FFC663"/>
<g filter="url(#filter13_i_763_5350)">
<path d="M24 5.27832H15.2727V8.97316H21.2727C22.779 8.97316 24 7.75211 24 6.24588V5.27832Z" fill="url(#paint13_linear_763_5350)"/>
</g>
<path fill-rule="evenodd" clip-rule="evenodd" d="M24 5.27832C23.9997 5.86129 22.0461 6.33385 19.6364 6.33385C17.2266 6.33385 15.273 5.86129 15.2727 5.27832H24Z" fill="#FBAC52"/>
<g filter="url(#filter14_i_763_5350)">
<path d="M22.9102 9.14868H15.2738V12.1397H20.1829C21.6891 12.1397 22.9102 10.9187 22.9102 9.41247V9.14868Z" fill="url(#paint14_linear_763_5350)"/>
</g>
<path fill-rule="evenodd" clip-rule="evenodd" d="M22.9102 9.14844C22.9102 9.14847 22.9102 9.14849 22.9102 9.14852C22.9102 9.6205 21.2007 10.0031 19.092 10.0031C16.9833 10.0031 15.2738 9.6205 15.2738 9.14852C15.2738 9.14849 15.2738 9.14847 15.2738 9.14844H22.9102Z" fill="#FBAC52"/>
<g filter="url(#filter15_i_763_5350)">
<path d="M20.5469 12.3157H15.2741V14.0751H18.7874C19.7591 14.0751 20.5469 13.2874 20.5469 12.3157Z" fill="url(#paint15_linear_763_5350)"/>
</g>
<path fill-rule="evenodd" clip-rule="evenodd" d="M20.5469 12.3152C20.5469 12.3152 20.5469 12.3152 20.5469 12.3153C20.5469 12.5929 19.3665 12.818 17.9105 12.818C16.4545 12.818 15.2741 12.5929 15.2741 12.3153C15.2741 12.3152 15.2741 12.3152 15.2741 12.3152H20.5469Z" fill="#FBAC52"/>
<g filter="url(#filter16_i_763_5350)">
<path d="M0 5.27832H8.72727V8.97316H2.72728C1.22104 8.97316 0 7.75211 0 6.24588V5.27832Z" fill="url(#paint16_linear_763_5350)"/>
</g>
<path fill-rule="evenodd" clip-rule="evenodd" d="M0 5.27832C0.000301163 5.86129 1.95385 6.33385 4.36364 6.33385C6.77342 6.33385 8.72697 5.86129 8.72727 5.27832H0Z" fill="#FBAC52"/>
<g filter="url(#filter17_i_763_5350)">
<path d="M1.08984 9.14868H8.72621V12.1397H3.81712C2.31088 12.1397 1.08984 10.9187 1.08984 9.41247V9.14868Z" fill="url(#paint17_linear_763_5350)"/>
</g>
<path fill-rule="evenodd" clip-rule="evenodd" d="M1.08984 9.14844C1.08984 9.14847 1.08984 9.14849 1.08984 9.14852C1.08984 9.6205 2.7993 10.0031 4.90803 10.0031C7.01675 10.0031 8.72621 9.6205 8.72621 9.14852C8.72621 9.14849 8.72621 9.14847 8.72621 9.14844H1.08984Z" fill="#FBAC52"/>
<g filter="url(#filter18_i_763_5350)">
<path d="M3.63672 12.3157H8.72763V14.0751H5.39616C4.42445 14.0751 3.63672 13.2874 3.63672 12.3157Z" fill="url(#paint18_linear_763_5350)"/>
</g>
<path fill-rule="evenodd" clip-rule="evenodd" d="M3.63672 12.3152C3.63672 12.3152 3.63672 12.3152 3.63672 12.3153C3.63672 12.5929 4.77636 12.818 6.18217 12.818C7.58799 12.818 8.72763 12.5929 8.72763 12.3153C8.72763 12.3152 8.72763 12.3152 8.72763 12.3152H3.63672Z" fill="#FBAC52"/>
<ellipse cx="12.0011" cy="9.32546" rx="7.09091" ry="6.86184" fill="url(#paint19_linear_763_5350)"/>
<ellipse cx="12.0014" cy="9.32545" rx="5.45455" ry="5.27834" fill="url(#paint20_diamond_763_5350)"/>
<ellipse cx="12.0028" cy="9.32545" rx="4.90909" ry="4.7505" fill="#DD630F"/>
<path d="M11.0149 10.9265H10.3258L9.12402 7.67438H9.83026L10.5023 9.76463C10.5441 9.90132 10.6011 10.1064 10.6732 10.3797L10.7245 10.1804L10.8384 9.76463L11.5047 7.67438H12.211L11.0149 10.9265ZM14.7215 10.0095C14.7215 10.3133 14.6209 10.5506 14.4197 10.7215C14.2184 10.8885 13.9298 10.9721 13.5539 10.9721C13.1818 10.9721 12.8933 10.8885 12.6882 10.7215C12.487 10.5544 12.3864 10.319 12.3864 10.0152C12.3864 9.8064 12.4471 9.63173 12.5686 9.49125C12.6901 9.34696 12.8515 9.25773 13.0527 9.22356V9.21786C12.8781 9.17989 12.7357 9.09256 12.6256 8.95587C12.5193 8.81918 12.4661 8.6635 12.4661 8.48884C12.4661 8.22305 12.5591 8.01231 12.7452 7.85663C12.935 7.70096 13.2027 7.62312 13.5482 7.62312C13.9014 7.62312 14.171 7.69906 14.357 7.85094C14.5469 7.99902 14.6418 8.21165 14.6418 8.48884C14.6418 8.6673 14.5886 8.82487 14.4823 8.96156C14.376 9.09446 14.2317 9.17799 14.0495 9.21217V9.22356C14.2583 9.25773 14.4216 9.34316 14.5393 9.47985C14.6608 9.61655 14.7215 9.79311 14.7215 10.0095ZM13.9754 8.5287C13.9754 8.37303 13.9393 8.25912 13.8672 8.18697C13.7951 8.11483 13.6887 8.07876 13.5482 8.07876C13.2673 8.07876 13.1268 8.22874 13.1268 8.5287C13.1268 8.84006 13.2692 8.99384 13.5539 8.99004C13.6944 8.99004 13.7989 8.95587 13.8672 8.88752C13.9393 8.81538 13.9754 8.69577 13.9754 8.5287ZM14.0495 9.95828C14.0495 9.61655 13.8805 9.44568 13.5426 9.44568C13.3869 9.44568 13.2654 9.49125 13.178 9.58237C13.0945 9.6697 13.0527 9.7969 13.0527 9.96397C13.0527 10.1538 13.0945 10.2943 13.178 10.3854C13.2616 10.4728 13.3888 10.5164 13.5596 10.5164C13.7267 10.5164 13.8501 10.4728 13.9298 10.3854C14.0096 10.2981 14.0495 10.1557 14.0495 9.95828Z" fill="#F6F9FF"/>
<path fill-rule="evenodd" clip-rule="evenodd" d="M4.36328 9.32438C4.36328 6.32769 6.24127 3.76724 8.90874 2.67017V3.4631C6.64633 4.51277 5.09055 6.7482 5.09055 9.32438C5.09055 11.1958 5.91155 12.8874 7.22804 14.0753H6.20094C5.05736 12.8067 4.36328 11.1462 4.36328 9.32438Z" fill="url(#paint21_linear_763_5350)"/>
<path fill-rule="evenodd" clip-rule="evenodd" d="M19.4556 9.32438C19.4556 6.32769 17.5776 3.76724 14.9102 2.67017V3.4631C17.1726 4.51277 18.7283 6.7482 18.7283 9.32438C18.7283 11.1958 17.9073 12.8874 16.5909 14.0753H17.6179C18.7615 12.8067 19.4556 11.1462 19.4556 9.32438Z" fill="url(#paint22_linear_763_5350)"/>
<defs>
<filter id="filter0_i_763_5350" x="0" y="4.73287" width="9.27202" height="4.24028" filterUnits="userSpaceOnUse" color-interpolation-filters="sRGB">
<feFlood flood-opacity="0" result="BackgroundImageFix"/>
<feBlend mode="normal" in="SourceGraphic" in2="BackgroundImageFix" result="shape"/>
<feColorMatrix in="SourceAlpha" type="matrix" values="0 0 0 0 0 0 0 0 0 0 0 0 0 0 0 0 0 0 127 0" result="hardAlpha"/>
<feOffset dx="0.545455" dy="-0.545455"/>
<feGaussianBlur stdDeviation="0.545455"/>
<feComposite in2="hardAlpha" operator="arithmetic" k2="-1" k3="1"/>
<feColorMatrix type="matrix" values="0 0 0 0 0.552941 0 0 0 0 0.603922 0 0 0 0 0.803922 0 0 0 0.6 0"/>
<feBlend mode="normal" in2="shape" result="effect1_innerShadow_763_5350"/>
</filter>
<filter id="filter1_i_763_5350" x="1.08984" y="8.60347" width="8.18217" height="3.36064" filterUnits="userSpaceOnUse" color-interpolation-filters="sRGB">
<feFlood flood-opacity="0" result="BackgroundImageFix"/>
<feBlend mode="normal" in="SourceGraphic" in2="BackgroundImageFix" result="shape"/>
<feColorMatrix in="SourceAlpha" type="matrix" values="0 0 0 0 0 0 0 0 0 0 0 0 0 0 0 0 0 0 127 0" result="hardAlpha"/>
<feOffset dx="0.545455" dy="-0.545455"/>
<feGaussianBlur stdDeviation="0.545455"/>
<feComposite in2="hardAlpha" operator="arithmetic" k2="-1" k3="1"/>
<feColorMatrix type="matrix" values="0 0 0 0 0.552941 0 0 0 0 0.603922 0 0 0 0 0.803922 0 0 0 0.6 0"/>
<feBlend mode="normal" in2="shape" result="effect1_innerShadow_763_5350"/>
</filter>
<filter id="filter2_i_763_5350" x="3.63672" y="12.0429" width="7.18288" height="2.03225" filterUnits="userSpaceOnUse" color-interpolation-filters="sRGB">
<feFlood flood-opacity="0" result="BackgroundImageFix"/>
<feBlend mode="normal" in="SourceGraphic" in2="BackgroundImageFix" result="shape"/>
<feColorMatrix in="SourceAlpha" type="matrix" values="0 0 0 0 0 0 0 0 0 0 0 0 0 0 0 0 0 0 127 0" result="hardAlpha"/>
<feOffset dx="0.272727" dy="-0.272727"/>
<feGaussianBlur stdDeviation="0.545455"/>
<feComposite in2="hardAlpha" operator="arithmetic" k2="-1" k3="1"/>
<feColorMatrix type="matrix" values="0 0 0 0 0.552941 0 0 0 0 0.603922 0 0 0 0 0.803922 0 0 0 0.6 0"/>
<feBlend mode="normal" in2="shape" result="effect1_innerShadow_763_5350"/>
</filter>
<filter id="filter3_i_763_5350" x="13.2734" y="12.2192" width="7.36257" height="1.85622" filterUnits="userSpaceOnUse" color-interpolation-filters="sRGB">
<feFlood flood-opacity="0" result="BackgroundImageFix"/>
<feBlend mode="normal" in="SourceGraphic" in2="BackgroundImageFix" result="shape"/>
<feColorMatrix in="SourceAlpha" type="matrix" values="0 0 0 0 0 0 0 0 0 0 0 0 0 0 0 0 0 0 127 0" result="hardAlpha"/>
<feOffset dx="0.272727" dy="-0.272727"/>
<feGaussianBlur stdDeviation="0.545455"/>
<feComposite in2="hardAlpha" operator="arithmetic" k2="-1" k3="1"/>
<feColorMatrix type="matrix" values="0 0 0 0 0.552941 0 0 0 0 0.603922 0 0 0 0 0.803922 0 0 0 0.6 0"/>
<feBlend mode="normal" in2="shape" result="effect1_innerShadow_763_5350"/>
</filter>
<filter id="filter4_i_763_5350" x="15.2734" y="4.73287" width="9.27202" height="4.24028" filterUnits="userSpaceOnUse" color-interpolation-filters="sRGB">
<feFlood flood-opacity="0" result="BackgroundImageFix"/>
<feBlend mode="normal" in="SourceGraphic" in2="BackgroundImageFix" result="shape"/>
<feColorMatrix in="SourceAlpha" type="matrix" values="0 0 0 0 0 0 0 0 0 0 0 0 0 0 0 0 0 0 127 0" result="hardAlpha"/>
<feOffset dx="0.545455" dy="-0.545455"/>
<feGaussianBlur stdDeviation="0.545455"/>
<feComposite in2="hardAlpha" operator="arithmetic" k2="-1" k3="1"/>
<feColorMatrix type="matrix" values="0 0 0 0 0.352941 0 0 0 0 0.576471 0 0 0 0 0.776471 0 0 0 0.6 0"/>
<feBlend mode="normal" in2="shape" result="effect1_innerShadow_763_5350"/>
</filter>
<filter id="filter5_i_763_5350" x="15.2734" y="8.60323" width="8.18217" height="3.53642" filterUnits="userSpaceOnUse" color-interpolation-filters="sRGB">
<feFlood flood-opacity="0" result="BackgroundImageFix"/>
<feBlend mode="normal" in="SourceGraphic" in2="BackgroundImageFix" result="shape"/>
<feColorMatrix in="SourceAlpha" type="matrix" values="0 0 0 0 0 0 0 0 0 0 0 0 0 0 0 0 0 0 127 0" result="hardAlpha"/>
<feOffset dx="0.545455" dy="-0.545455"/>
<feGaussianBlur stdDeviation="0.545455"/>
<feComposite in2="hardAlpha" operator="arithmetic" k2="-1" k3="1"/>
<feColorMatrix type="matrix" values="0 0 0 0 0.352941 0 0 0 0 0.576471 0 0 0 0 0.776471 0 0 0 0.6 0"/>
<feBlend mode="normal" in2="shape" result="effect1_innerShadow_763_5350"/>
</filter>
<filter id="filter6_i_763_5350" x="15.2734" y="11.7702" width="5.81889" height="2.30498" filterUnits="userSpaceOnUse" color-interpolation-filters="sRGB">
<feFlood flood-opacity="0" result="BackgroundImageFix"/>
<feBlend mode="normal" in="SourceGraphic" in2="BackgroundImageFix" result="shape"/>
<feColorMatrix in="SourceAlpha" type="matrix" values="0 0 0 0 0 0 0 0 0 0 0 0 0 0 0 0 0 0 127 0" result="hardAlpha"/>
<feOffset dx="0.545455" dy="-0.545455"/>
<feGaussianBlur stdDeviation="0.545455"/>
<feComposite in2="hardAlpha" operator="arithmetic" k2="-1" k3="1"/>
<feColorMatrix type="matrix" values="0 0 0 0 0.352941 0 0 0 0 0.576471 0 0 0 0 0.776471 0 0 0 0.6 0"/>
<feBlend mode="normal" in2="shape" result="effect1_innerShadow_763_5350"/>
</filter>
<filter id="filter7_i_763_5350" x="3.63672" y="11.7702" width="5.6353" height="2.30498" filterUnits="userSpaceOnUse" color-interpolation-filters="sRGB">
<feFlood flood-opacity="0" result="BackgroundImageFix"/>
<feBlend mode="normal" in="SourceGraphic" in2="BackgroundImageFix" result="shape"/>
<feColorMatrix in="SourceAlpha" type="matrix" values="0 0 0 0 0 0 0 0 0 0 0 0 0 0 0 0 0 0 127 0" result="hardAlpha"/>
<feOffset dx="0.545455" dy="-0.545455"/>
<feGaussianBlur stdDeviation="0.545455"/>
<feComposite in2="hardAlpha" operator="arithmetic" k2="-1" k3="1"/>
<feColorMatrix type="matrix" values="0 0 0 0 0.352941 0 0 0 0 0.576471 0 0 0 0 0.776471 0 0 0 0.6 0"/>
<feBlend mode="normal" in2="shape" result="effect1_innerShadow_763_5350"/>
</filter>
<filter id="filter8_i_763_5350" x="1.08984" y="8.60323" width="8.18217" height="3.53642" filterUnits="userSpaceOnUse" color-interpolation-filters="sRGB">
<feFlood flood-opacity="0" result="BackgroundImageFix"/>
<feBlend mode="normal" in="SourceGraphic" in2="BackgroundImageFix" result="shape"/>
<feColorMatrix in="SourceAlpha" type="matrix" values="0 0 0 0 0 0 0 0 0 0 0 0 0 0 0 0 0 0 127 0" result="hardAlpha"/>
<feOffset dx="0.545455" dy="-0.545455"/>
<feGaussianBlur stdDeviation="0.545455"/>
<feComposite in2="hardAlpha" operator="arithmetic" k2="-1" k3="1"/>
<feColorMatrix type="matrix" values="0 0 0 0 0.352941 0 0 0 0 0.576471 0 0 0 0 0.776471 0 0 0 0.6 0"/>
<feBlend mode="normal" in2="shape" result="effect1_innerShadow_763_5350"/>
</filter>
<filter id="filter9_i_763_5350" x="0" y="4.73287" width="9.27202" height="4.24028" filterUnits="userSpaceOnUse" color-interpolation-filters="sRGB">
<feFlood flood-opacity="0" result="BackgroundImageFix"/>
<feBlend mode="normal" in="SourceGraphic" in2="BackgroundImageFix" result="shape"/>
<feColorMatrix in="SourceAlpha" type="matrix" values="0 0 0 0 0 0 0 0 0 0 0 0 0 0 0 0 0 0 127 0" result="hardAlpha"/>
<feOffset dx="0.545455" dy="-0.545455"/>
<feGaussianBlur stdDeviation="0.545455"/>
<feComposite in2="hardAlpha" operator="arithmetic" k2="-1" k3="1"/>
<feColorMatrix type="matrix" values="0 0 0 0 0.835294 0 0 0 0 0.713726 0 0 0 0 0.968627 0 0 0 0.6 0"/>
<feBlend mode="normal" in2="shape" result="effect1_innerShadow_763_5350"/>
</filter>
<filter id="filter10_i_763_5350" x="0" y="4.73287" width="9.27202" height="4.24028" filterUnits="userSpaceOnUse" color-interpolation-filters="sRGB">
<feFlood flood-opacity="0" result="BackgroundImageFix"/>
<feBlend mode="normal" in="SourceGraphic" in2="BackgroundImageFix" result="shape"/>
<feColorMatrix in="SourceAlpha" type="matrix" values="0 0 0 0 0 0 0 0 0 0 0 0 0 0 0 0 0 0 127 0" result="hardAlpha"/>
<feOffset dx="0.545455" dy="-0.545455"/>
<feGaussianBlur stdDeviation="0.545455"/>
<feComposite in2="hardAlpha" operator="arithmetic" k2="-1" k3="1"/>
<feColorMatrix type="matrix" values="0 0 0 0 0.835294 0 0 0 0 0.713726 0 0 0 0 0.968627 0 0 0 0.6 0"/>
<feBlend mode="normal" in2="shape" result="effect1_innerShadow_763_5350"/>
</filter>
<filter id="filter11_i_763_5350" x="1.08984" y="8.60323" width="8.18217" height="3.53642" filterUnits="userSpaceOnUse" color-interpolation-filters="sRGB">
<feFlood flood-opacity="0" result="BackgroundImageFix"/>
<feBlend mode="normal" in="SourceGraphic" in2="BackgroundImageFix" result="shape"/>
<feColorMatrix in="SourceAlpha" type="matrix" values="0 0 0 0 0 0 0 0 0 0 0 0 0 0 0 0 0 0 127 0" result="hardAlpha"/>
<feOffset dx="0.545455" dy="-0.545455"/>
<feGaussianBlur stdDeviation="0.545455"/>
<feComposite in2="hardAlpha" operator="arithmetic" k2="-1" k3="1"/>
<feColorMatrix type="matrix" values="0 0 0 0 0.835294 0 0 0 0 0.713726 0 0 0 0 0.968627 0 0 0 0.6 0"/>
<feBlend mode="normal" in2="shape" result="effect1_innerShadow_763_5350"/>
</filter>
<filter id="filter12_i_763_5350" x="3.63672" y="11.7702" width="5.6353" height="2.30498" filterUnits="userSpaceOnUse" color-interpolation-filters="sRGB">
<feFlood flood-opacity="0" result="BackgroundImageFix"/>
<feBlend mode="normal" in="SourceGraphic" in2="BackgroundImageFix" result="shape"/>
<feColorMatrix in="SourceAlpha" type="matrix" values="0 0 0 0 0 0 0 0 0 0 0 0 0 0 0 0 0 0 127 0" result="hardAlpha"/>
<feOffset dx="0.545455" dy="-0.545455"/>
<feGaussianBlur stdDeviation="0.545455"/>
<feComposite in2="hardAlpha" operator="arithmetic" k2="-1" k3="1"/>
<feColorMatrix type="matrix" values="0 0 0 0 0.835294 0 0 0 0 0.713726 0 0 0 0 0.968627 0 0 0 0.6 0"/>
<feBlend mode="normal" in2="shape" result="effect1_innerShadow_763_5350"/>
</filter>
<filter id="filter13_i_763_5350" x="15.2734" y="4.73287" width="9.27202" height="4.24028" filterUnits="userSpaceOnUse" color-interpolation-filters="sRGB">
<feFlood flood-opacity="0" result="BackgroundImageFix"/>
<feBlend mode="normal" in="SourceGraphic" in2="BackgroundImageFix" result="shape"/>
<feColorMatrix in="SourceAlpha" type="matrix" values="0 0 0 0 0 0 0 0 0 0 0 0 0 0 0 0 0 0 127 0" result="hardAlpha"/>
<feOffset dx="0.545455" dy="-0.545455"/>
<feGaussianBlur stdDeviation="0.545455"/>
<feComposite in2="hardAlpha" operator="arithmetic" k2="-1" k3="1"/>
<feColorMatrix type="matrix" values="0 0 0 0 0.970459 0 0 0 0 0.573259 0 0 0 0 0.299778 0 0 0 1 0"/>
<feBlend mode="normal" in2="shape" result="effect1_innerShadow_763_5350"/>
</filter>
<filter id="filter14_i_763_5350" x="15.2734" y="8.60323" width="8.18217" height="3.53642" filterUnits="userSpaceOnUse" color-interpolation-filters="sRGB">
<feFlood flood-opacity="0" result="BackgroundImageFix"/>
<feBlend mode="normal" in="SourceGraphic" in2="BackgroundImageFix" result="shape"/>
<feColorMatrix in="SourceAlpha" type="matrix" values="0 0 0 0 0 0 0 0 0 0 0 0 0 0 0 0 0 0 127 0" result="hardAlpha"/>
<feOffset dx="0.545455" dy="-0.545455"/>
<feGaussianBlur stdDeviation="0.545455"/>
<feComposite in2="hardAlpha" operator="arithmetic" k2="-1" k3="1"/>
<feColorMatrix type="matrix" values="0 0 0 0 0.970459 0 0 0 0 0.573259 0 0 0 0 0.299778 0 0 0 1 0"/>
<feBlend mode="normal" in2="shape" result="effect1_innerShadow_763_5350"/>
</filter>
<filter id="filter15_i_763_5350" x="15.2734" y="11.7702" width="5.81889" height="2.30498" filterUnits="userSpaceOnUse" color-interpolation-filters="sRGB">
<feFlood flood-opacity="0" result="BackgroundImageFix"/>
<feBlend mode="normal" in="SourceGraphic" in2="BackgroundImageFix" result="shape"/>
<feColorMatrix in="SourceAlpha" type="matrix" values="0 0 0 0 0 0 0 0 0 0 0 0 0 0 0 0 0 0 127 0" result="hardAlpha"/>
<feOffset dx="0.545455" dy="-0.545455"/>
<feGaussianBlur stdDeviation="0.545455"/>
<feComposite in2="hardAlpha" operator="arithmetic" k2="-1" k3="1"/>
<feColorMatrix type="matrix" values="0 0 0 0 0.970459 0 0 0 0 0.573259 0 0 0 0 0.299778 0 0 0 1 0"/>
<feBlend mode="normal" in2="shape" result="effect1_innerShadow_763_5350"/>
</filter>
<filter id="filter16_i_763_5350" x="0" y="4.73287" width="9.27202" height="4.24028" filterUnits="userSpaceOnUse" color-interpolation-filters="sRGB">
<feFlood flood-opacity="0" result="BackgroundImageFix"/>
<feBlend mode="normal" in="SourceGraphic" in2="BackgroundImageFix" result="shape"/>
<feColorMatrix in="SourceAlpha" type="matrix" values="0 0 0 0 0 0 0 0 0 0 0 0 0 0 0 0 0 0 127 0" result="hardAlpha"/>
<feOffset dx="0.545455" dy="-0.545455"/>
<feGaussianBlur stdDeviation="0.545455"/>
<feComposite in2="hardAlpha" operator="arithmetic" k2="-1" k3="1"/>
<feColorMatrix type="matrix" values="0 0 0 0 0.970459 0 0 0 0 0.573259 0 0 0 0 0.299778 0 0 0 1 0"/>
<feBlend mode="normal" in2="shape" result="effect1_innerShadow_763_5350"/>
</filter>
<filter id="filter17_i_763_5350" x="1.08984" y="8.60323" width="8.18217" height="3.53642" filterUnits="userSpaceOnUse" color-interpolation-filters="sRGB">
<feFlood flood-opacity="0" result="BackgroundImageFix"/>
<feBlend mode="normal" in="SourceGraphic" in2="BackgroundImageFix" result="shape"/>
<feColorMatrix in="SourceAlpha" type="matrix" values="0 0 0 0 0 0 0 0 0 0 0 0 0 0 0 0 0 0 127 0" result="hardAlpha"/>
<feOffset dx="0.545455" dy="-0.545455"/>
<feGaussianBlur stdDeviation="0.545455"/>
<feComposite in2="hardAlpha" operator="arithmetic" k2="-1" k3="1"/>
<feColorMatrix type="matrix" values="0 0 0 0 0.970459 0 0 0 0 0.573259 0 0 0 0 0.299778 0 0 0 1 0"/>
<feBlend mode="normal" in2="shape" result="effect1_innerShadow_763_5350"/>
</filter>
<filter id="filter18_i_763_5350" x="3.63672" y="11.7702" width="5.6353" height="2.30498" filterUnits="userSpaceOnUse" color-interpolation-filters="sRGB">
<feFlood flood-opacity="0" result="BackgroundImageFix"/>
<feBlend mode="normal" in="SourceGraphic" in2="BackgroundImageFix" result="shape"/>
<feColorMatrix in="SourceAlpha" type="matrix" values="0 0 0 0 0 0 0 0 0 0 0 0 0 0 0 0 0 0 127 0" result="hardAlpha"/>
<feOffset dx="0.545455" dy="-0.545455"/>
<feGaussianBlur stdDeviation="0.545455"/>
<feComposite in2="hardAlpha" operator="arithmetic" k2="-1" k3="1"/>
<feColorMatrix type="matrix" values="0 0 0 0 0.970459 0 0 0 0 0.573259 0 0 0 0 0.299778 0 0 0 1 0"/>
<feBlend mode="normal" in2="shape" result="effect1_innerShadow_763_5350"/>
</filter>
<linearGradient id="paint0_linear_763_5350" x1="4.36364" y1="5.27832" x2="4.36364" y2="8.97316" gradientUnits="userSpaceOnUse">
<stop stop-color="#CAD2F9"/>
<stop offset="1" stop-color="#C1C9F7"/>
</linearGradient>
<linearGradient id="paint1_linear_763_5350" x1="4.90803" y1="9.14893" x2="4.90803" y2="11.964" gradientUnits="userSpaceOnUse">
<stop stop-color="#CAD2F9"/>
<stop offset="1" stop-color="#C1C9F7"/>
</linearGradient>
<linearGradient id="paint2_linear_763_5350" x1="7.09126" y1="12.3157" x2="7.09126" y2="14.0751" gradientUnits="userSpaceOnUse">
<stop stop-color="#CAD2F9"/>
<stop offset="1" stop-color="#C1C9F7"/>
</linearGradient>
<linearGradient id="paint3_linear_763_5350" x1="16.8178" y1="12.4919" x2="16.8178" y2="14.0754" gradientUnits="userSpaceOnUse">
<stop stop-color="#CAD2F9"/>
<stop offset="1" stop-color="#C1C9F7"/>
</linearGradient>
<linearGradient id="paint4_linear_763_5350" x1="19.6364" y1="7.5656" x2="23.6362" y2="7.47166" gradientUnits="userSpaceOnUse">
<stop stop-color="#47A0DB"/>
<stop offset="1" stop-color="#A2DFFF"/>
</linearGradient>
<linearGradient id="paint5_linear_763_5350" x1="19.092" y1="11.0003" x2="22.5915" y2="10.9115" gradientUnits="userSpaceOnUse">
<stop stop-color="#47A0DB"/>
<stop offset="1" stop-color="#A2DFFF"/>
</linearGradient>
<linearGradient id="paint6_linear_763_5350" x1="17.9105" y1="13.4049" x2="20.3263" y2="13.3329" gradientUnits="userSpaceOnUse">
<stop stop-color="#47A0DB"/>
<stop offset="1" stop-color="#A2DFFF"/>
</linearGradient>
<linearGradient id="paint7_linear_763_5350" x1="6.18217" y1="13.4049" x2="3.84957" y2="13.3377" gradientUnits="userSpaceOnUse">
<stop stop-color="#47A0DB"/>
<stop offset="1" stop-color="#A2DFFF"/>
</linearGradient>
<linearGradient id="paint8_linear_763_5350" x1="4.90803" y1="11.0003" x2="1.40847" y2="10.9115" gradientUnits="userSpaceOnUse">
<stop stop-color="#47A0DB"/>
<stop offset="1" stop-color="#A2DFFF"/>
</linearGradient>
<linearGradient id="paint9_linear_763_5350" x1="4.36364" y1="7.5656" x2="0.363777" y2="7.47166" gradientUnits="userSpaceOnUse">
<stop stop-color="#894EDC"/>
<stop offset="1" stop-color="#AF80F4"/>
</linearGradient>
<linearGradient id="paint10_linear_763_5350" x1="4.36364" y1="7.5656" x2="0.363777" y2="7.47166" gradientUnits="userSpaceOnUse">
<stop stop-color="#894EDC"/>
<stop offset="1" stop-color="#AF80F4"/>
</linearGradient>
<linearGradient id="paint11_linear_763_5350" x1="4.90803" y1="11.0003" x2="1.40847" y2="10.9115" gradientUnits="userSpaceOnUse">
<stop stop-color="#894EDC"/>
<stop offset="1" stop-color="#AF80F4"/>
</linearGradient>
<linearGradient id="paint12_linear_763_5350" x1="6.18217" y1="13.4049" x2="3.84957" y2="13.3377" gradientUnits="userSpaceOnUse">
<stop stop-color="#894EDC"/>
<stop offset="1" stop-color="#AF80F4"/>
</linearGradient>
<linearGradient id="paint13_linear_763_5350" x1="19.6364" y1="7.5656" x2="23.6362" y2="7.47166" gradientUnits="userSpaceOnUse">
<stop stop-color="#E76811"/>
<stop offset="1" stop-color="#FFBB4F"/>
</linearGradient>
<linearGradient id="paint14_linear_763_5350" x1="19.092" y1="11.0003" x2="22.5915" y2="10.9115" gradientUnits="userSpaceOnUse">
<stop stop-color="#E76811"/>
<stop offset="1" stop-color="#FFBB4F"/>
</linearGradient>
<linearGradient id="paint15_linear_763_5350" x1="17.9105" y1="13.4049" x2="20.3263" y2="13.3329" gradientUnits="userSpaceOnUse">
<stop stop-color="#E76811"/>
<stop offset="1" stop-color="#FFBB4F"/>
</linearGradient>
<linearGradient id="paint16_linear_763_5350" x1="4.36364" y1="7.5656" x2="0.363777" y2="7.47166" gradientUnits="userSpaceOnUse">
<stop stop-color="#E76811"/>
<stop offset="1" stop-color="#FFBB4F"/>
</linearGradient>
<linearGradient id="paint17_linear_763_5350" x1="4.90803" y1="11.0003" x2="1.40847" y2="10.9115" gradientUnits="userSpaceOnUse">
<stop stop-color="#E76811"/>
<stop offset="1" stop-color="#FFBB4F"/>
</linearGradient>
<linearGradient id="paint18_linear_763_5350" x1="6.18217" y1="13.4049" x2="3.84957" y2="13.3377" gradientUnits="userSpaceOnUse">
<stop stop-color="#E76811"/>
<stop offset="1" stop-color="#FFBB4F"/>
</linearGradient>
<linearGradient id="paint19_linear_763_5350" x1="12.0011" y1="2.46362" x2="12.0011" y2="16.1873" gradientUnits="userSpaceOnUse">
<stop stop-color="#FDFED0"/>
<stop offset="1" stop-color="#FFB747"/>
</linearGradient>
<radialGradient id="paint20_diamond_763_5350" cx="0" cy="0" r="1" gradientUnits="userSpaceOnUse" gradientTransform="translate(11.9105 3.95915) rotate(90) scale(10.6446 11)">
<stop stop-color="#EC993B"/>
<stop offset="1" stop-color="#FDE583"/>
</radialGradient>
<linearGradient id="paint21_linear_763_5350" x1="6.63601" y1="2.67017" x2="6.63601" y2="15.9704" gradientUnits="userSpaceOnUse">
<stop stop-color="#FFBB38"/>
<stop offset="0.541667" stop-color="#FFC941"/>
<stop offset="1" stop-color="#FFA524"/>
</linearGradient>
<linearGradient id="paint22_linear_763_5350" x1="17.1829" y1="2.67017" x2="17.1829" y2="15.9704" gradientUnits="userSpaceOnUse">
<stop stop-color="#FFBB38"/>
<stop offset="0.541667" stop-color="#FFC941"/>
<stop offset="1" stop-color="#FFA524"/>
</linearGradient>
</defs>
</svg>
