<svg width="24" height="21" viewBox="0 0 24 21" fill="none" xmlns="http://www.w3.org/2000/svg">
<path fill-rule="evenodd" clip-rule="evenodd" d="M11.9982 18.5569L5.81641 10.9773H11.9982V18.5569Z" fill="#E86912"/>
<path fill-rule="evenodd" clip-rule="evenodd" d="M11.9982 0L5.81641 7.57954H11.9982V0Z" fill="#EE9E40"/>
<path fill-rule="evenodd" clip-rule="evenodd" d="M11.9979 0L18.1797 7.57954H11.9979V0Z" fill="#E86912"/>
<path fill-rule="evenodd" clip-rule="evenodd" d="M16.4972 16.8796L16.4927 16.9493L6.9221 13.9027L12.054 10.5924L16.4972 16.8796Z" fill="#E86912"/>
<path fill-rule="evenodd" clip-rule="evenodd" d="M16.4309 16.9301L16.4929 16.9498L17.1102 7.33135L11.9842 10.6379L16.4309 16.9301Z" fill="#EC473C"/>
<path fill-rule="evenodd" clip-rule="evenodd" d="M6.90122 16.8796L6.90569 16.9493L16.4763 13.9027L11.3445 10.5924L6.90122 16.8796Z" fill="#E86912"/>
<path fill-rule="evenodd" clip-rule="evenodd" d="M6.96752 16.9301L6.90558 16.9498L6.2882 7.33135L11.4142 10.6379L6.96752 16.9301Z" fill="#EC473C"/>
<path fill-rule="evenodd" clip-rule="evenodd" d="M12.0018 18.5569L18.1836 10.9773H12.0018V18.5569Z" fill="#EC473C"/>
<g filter="url(#filter0_i_763_5349)">
<path d="M0 5.22705H8.72727V8.88614H2.61364C1.17016 8.88614 0 7.71598 0 6.2725V5.22705Z" fill="url(#paint0_linear_763_5349)"/>
</g>
<path fill-rule="evenodd" clip-rule="evenodd" d="M0 5.22681C0 5.8042 1.95367 6.27226 4.36364 6.27226C6.77361 6.27226 8.72727 5.8042 8.72727 5.22681H0Z" fill="#A8B7E7"/>
<g filter="url(#filter1_i_763_5349)">
<path d="M1.08984 9.06055H8.72621V11.8484H3.70348C2.26001 11.8484 1.08984 10.6783 1.08984 9.23479V9.06055Z" fill="url(#paint1_linear_763_5349)"/>
</g>
<path fill-rule="evenodd" clip-rule="evenodd" d="M1.08984 9.06055C1.08984 9.06057 1.08984 9.0606 1.08984 9.06062C1.08984 9.50054 2.7993 9.85716 4.90803 9.85716C7.01675 9.85716 8.72621 9.50054 8.72621 9.06062C8.72621 9.0606 8.72621 9.06057 8.72621 9.06055H1.08984Z" fill="#A8B7E7"/>
<g filter="url(#filter2_i_763_5349)">
<path d="M3.63672 12.1968H10.5458V13.9392H5.37914C4.41683 13.9392 3.63672 13.1591 3.63672 12.1968Z" fill="url(#paint2_linear_763_5349)"/>
</g>
<path fill-rule="evenodd" clip-rule="evenodd" d="M3.63672 12.1963C3.63672 12.1963 3.63672 12.1963 3.63672 12.1963C3.63672 12.4713 5.18337 12.6941 7.09126 12.6941C8.99916 12.6941 10.5458 12.4713 10.5458 12.1963C10.5458 12.1963 10.5458 12.1963 10.5458 12.1963H3.63672Z" fill="#A8B7E7"/>
<g filter="url(#filter3_i_763_5349)">
<path d="M20.3633 12.3713H13.2724V13.9395H18.7951C19.6612 13.9395 20.3633 13.2374 20.3633 12.3713Z" fill="url(#paint3_linear_763_5349)"/>
</g>
<path fill-rule="evenodd" clip-rule="evenodd" d="M20.3633 12.3713C20.3633 12.3714 20.3633 12.3714 20.3633 12.3714C20.3633 12.6189 18.7759 12.8195 16.8178 12.8195C14.8597 12.8195 13.2724 12.6189 13.2724 12.3714C13.2724 12.3714 13.2724 12.3714 13.2724 12.3713H20.3633Z" fill="#A8B7E7"/>
<g filter="url(#filter4_i_763_5349)">
<path d="M24 5.22705H15.2727V8.88614H21.3864C22.8298 8.88614 24 7.71598 24 6.2725V5.22705Z" fill="url(#paint4_linear_763_5349)"/>
</g>
<path fill-rule="evenodd" clip-rule="evenodd" d="M24 5.22681C24 5.8042 22.0463 6.27226 19.6364 6.27226C17.2264 6.27226 15.2727 5.8042 15.2727 5.22681H24Z" fill="#70BEF5"/>
<g filter="url(#filter5_i_763_5349)">
<path d="M22.9102 9.06055H15.2738V12.0227H20.2965C21.74 12.0227 22.9102 10.8525 22.9102 9.40903V9.06055Z" fill="url(#paint5_linear_763_5349)"/>
</g>
<path fill-rule="evenodd" clip-rule="evenodd" d="M22.9102 9.06055C22.9102 9.06055 22.9102 9.06056 22.9102 9.06057C22.9102 9.52798 21.2007 9.90689 19.092 9.90689C16.9833 9.90689 15.2738 9.52798 15.2738 9.06057C15.2738 9.06056 15.2738 9.06055 15.2738 9.06055H22.9102Z" fill="#70BEF5"/>
<g filter="url(#filter6_i_763_5349)">
<path d="M20.5469 12.1968H15.2741V13.9392H18.8044C19.7668 13.9392 20.5469 13.1591 20.5469 12.1968Z" fill="url(#paint6_linear_763_5349)"/>
</g>
<path fill-rule="evenodd" clip-rule="evenodd" d="M20.5469 12.1963C20.5469 12.1963 20.5469 12.1963 20.5469 12.1963C20.5469 12.4713 19.3665 12.6941 17.9105 12.6941C16.4545 12.6941 15.2741 12.4713 15.2741 12.1963C15.2741 12.1963 15.2741 12.1963 15.2741 12.1963H20.5469Z" fill="#70BEF5"/>
<g filter="url(#filter7_i_763_5349)">
<path d="M3.63672 12.1968H8.72763V13.9392H5.37914C4.41683 13.9392 3.63672 13.1591 3.63672 12.1968Z" fill="url(#paint7_linear_763_5349)"/>
</g>
<path fill-rule="evenodd" clip-rule="evenodd" d="M3.63672 12.1963C3.63672 12.1963 3.63672 12.1963 3.63672 12.1963C3.63672 12.4713 4.77636 12.6941 6.18217 12.6941C7.58799 12.6941 8.72763 12.4713 8.72763 12.1963C8.72763 12.1963 8.72763 12.1963 8.72763 12.1963H3.63672Z" fill="#70BEF5"/>
<g filter="url(#filter8_i_763_5349)">
<path d="M1.08984 9.06055H8.72621V12.0227H3.70348C2.26001 12.0227 1.08984 10.8525 1.08984 9.40903V9.06055Z" fill="url(#paint8_linear_763_5349)"/>
</g>
<path fill-rule="evenodd" clip-rule="evenodd" d="M1.08984 9.06055C1.08984 9.06055 1.08984 9.06056 1.08984 9.06057C1.08984 9.52798 2.7993 9.90689 4.90803 9.90689C7.01675 9.90689 8.72621 9.52798 8.72621 9.06057C8.72621 9.06056 8.72621 9.06055 8.72621 9.06055H1.08984Z" fill="#70BEF5"/>
<g filter="url(#filter9_i_763_5349)">
<path d="M0 5.22705H8.72727V8.88614H2.61364C1.17016 8.88614 0 7.71598 0 6.2725V5.22705Z" fill="url(#paint9_linear_763_5349)"/>
</g>
<path fill-rule="evenodd" clip-rule="evenodd" d="M0 5.22681C0 5.8042 1.95367 6.27226 4.36364 6.27226C6.77361 6.27226 8.72727 5.8042 8.72727 5.22681H0Z" fill="#AF80F4"/>
<g filter="url(#filter10_i_763_5349)">
<path d="M0 5.22705H8.72727V8.88614H2.61364C1.17016 8.88614 0 7.71598 0 6.2725V5.22705Z" fill="url(#paint10_linear_763_5349)"/>
</g>
<path fill-rule="evenodd" clip-rule="evenodd" d="M0 5.22681C0 5.8042 1.95367 6.27226 4.36364 6.27226C6.77361 6.27226 8.72727 5.8042 8.72727 5.22681H0Z" fill="#FFC663"/>
<g filter="url(#filter11_i_763_5349)">
<path d="M1.08984 9.06055H8.72621V12.0227H3.70348C2.26001 12.0227 1.08984 10.8525 1.08984 9.40903V9.06055Z" fill="url(#paint11_linear_763_5349)"/>
</g>
<path fill-rule="evenodd" clip-rule="evenodd" d="M1.08984 9.06055C1.08984 9.06055 1.08984 9.06056 1.08984 9.06057C1.08984 9.52798 2.7993 9.90689 4.90803 9.90689C7.01675 9.90689 8.72621 9.52798 8.72621 9.06057C8.72621 9.06056 8.72621 9.06055 8.72621 9.06055H1.08984Z" fill="#FFC663"/>
<g filter="url(#filter12_i_763_5349)">
<path d="M3.63672 12.1968H8.72763V13.9392H5.37914C4.41683 13.9392 3.63672 13.1591 3.63672 12.1968Z" fill="url(#paint12_linear_763_5349)"/>
</g>
<path fill-rule="evenodd" clip-rule="evenodd" d="M3.63672 12.1963C3.63672 12.1963 3.63672 12.1963 3.63672 12.1963C3.63672 12.4713 4.77636 12.6941 6.18217 12.6941C7.58799 12.6941 8.72763 12.4713 8.72763 12.1963C8.72763 12.1963 8.72763 12.1963 8.72763 12.1963H3.63672Z" fill="#FFC663"/>
<g filter="url(#filter13_i_763_5349)">
<path d="M24 5.22705H15.2727V8.88614H21.3864C22.8298 8.88614 24 7.71598 24 6.2725V5.22705Z" fill="url(#paint13_linear_763_5349)"/>
</g>
<path fill-rule="evenodd" clip-rule="evenodd" d="M24 5.22681C24 5.8042 22.0463 6.27226 19.6364 6.27226C17.2264 6.27226 15.2727 5.8042 15.2727 5.22681H24Z" fill="#FDAE51"/>
<g filter="url(#filter14_i_763_5349)">
<path d="M22.9102 9.06055H14.9763V12.0227H20.2965C21.74 12.0227 22.9102 10.8525 22.9102 9.40903V9.06055Z" fill="url(#paint14_linear_763_5349)"/>
</g>
<path fill-rule="evenodd" clip-rule="evenodd" d="M22.9102 9.06055C22.9102 9.06056 22.9102 9.06056 22.9102 9.06057C22.9102 9.52798 21.1341 9.90689 18.9432 9.90689C16.7523 9.90689 14.9763 9.52798 14.9763 9.06057C14.9763 9.06056 14.9763 9.06056 14.9763 9.06055H22.9102Z" fill="#FDAE51"/>
<g filter="url(#filter15_i_763_5349)">
<path d="M20.5469 12.1968H14.3981V13.9392H18.8045C19.7668 13.9392 20.5469 13.1591 20.5469 12.1968Z" fill="url(#paint15_linear_763_5349)"/>
</g>
<path fill-rule="evenodd" clip-rule="evenodd" d="M20.5469 12.1963C20.5469 12.1963 20.5469 12.1963 20.5469 12.1963C20.5469 12.4713 19.1704 12.6941 17.4725 12.6941C15.7746 12.6941 14.3981 12.4713 14.3981 12.1963C14.3981 12.1963 14.3981 12.1963 14.3981 12.1963H20.5469Z" fill="#FDAE51"/>
<g filter="url(#filter16_i_763_5349)">
<path d="M0 5.22705H8.72727V8.88614H2.61364C1.17016 8.88614 0 7.71598 0 6.2725V5.22705Z" fill="url(#paint16_linear_763_5349)"/>
</g>
<path fill-rule="evenodd" clip-rule="evenodd" d="M0 5.22681C0 5.8042 1.95367 6.27226 4.36364 6.27226C6.77361 6.27226 8.72727 5.8042 8.72727 5.22681H0Z" fill="#FDAE51"/>
<g filter="url(#filter17_i_763_5349)">
<path d="M1.08984 9.06055H9.02373V12.0227H3.70348C2.26001 12.0227 1.08984 10.8525 1.08984 9.40903V9.06055Z" fill="url(#paint17_linear_763_5349)"/>
</g>
<path fill-rule="evenodd" clip-rule="evenodd" d="M1.08984 9.06055C1.08984 9.06056 1.08984 9.06056 1.08984 9.06057C1.08984 9.52798 2.8659 9.90689 5.05679 9.90689C7.24767 9.90689 9.02373 9.52798 9.02373 9.06057C9.02373 9.06056 9.02373 9.06056 9.02373 9.06055H1.08984Z" fill="#FDAE51"/>
<g filter="url(#filter18_i_763_5349)">
<path d="M3.63672 12.1968H9.78548V13.9392H5.37914C4.41683 13.9392 3.63672 13.1591 3.63672 12.1968Z" fill="url(#paint18_linear_763_5349)"/>
</g>
<path fill-rule="evenodd" clip-rule="evenodd" d="M3.63672 12.1963C3.63672 12.1963 3.63672 12.1963 3.63672 12.1963C3.63672 12.4713 5.01317 12.6941 6.7111 12.6941C8.40903 12.6941 9.78548 12.4713 9.78548 12.1963C9.78548 12.1963 9.78548 12.1963 9.78548 12.1963H3.63672Z" fill="#FDAE51"/>
<ellipse cx="12.0011" cy="9.23491" rx="7.09091" ry="6.79545" fill="url(#paint19_linear_763_5349)"/>
<ellipse cx="12.0014" cy="9.23484" rx="5.45455" ry="5.22727" fill="url(#paint20_diamond_763_5349)"/>
<ellipse cx="12.0028" cy="9.23482" rx="4.90909" ry="4.70455" fill="#E53737"/>
<path d="M10.9347 10.8789H10.2743L9.12259 7.76228H9.79941L10.4435 9.76543C10.4835 9.89643 10.5381 10.0929 10.6072 10.3549L10.6563 10.1639L10.7655 9.76543L11.4041 7.76228H12.0809L10.9347 10.8789ZM14.4596 9.26874C14.4596 9.82184 14.3577 10.2367 14.1539 10.5132C13.9538 10.7861 13.6681 10.9226 13.297 10.9226C13.0241 10.9226 12.8094 10.8644 12.6529 10.7479C12.4964 10.6315 12.3855 10.4459 12.32 10.1912L12.904 10.1093C12.9622 10.3276 13.095 10.4368 13.3024 10.4368C13.4771 10.4368 13.6099 10.3531 13.7009 10.1857C13.7955 10.0183 13.8446 9.77089 13.8483 9.4434C13.7937 9.55256 13.7009 9.6399 13.5699 9.70539C13.4425 9.76725 13.3061 9.79818 13.1605 9.79818C12.8876 9.79818 12.6693 9.70539 12.5055 9.51982C12.3454 9.3306 12.2654 9.0777 12.2654 8.76113C12.2654 8.43363 12.36 8.1771 12.5492 7.99152C12.7384 7.80594 13.0059 7.71315 13.3516 7.71315C13.7264 7.71315 14.0047 7.84233 14.1867 8.10068C14.3686 8.35904 14.4596 8.74839 14.4596 9.26874ZM13.7991 8.83754C13.7991 8.64468 13.7573 8.49186 13.6736 8.37905C13.5899 8.26261 13.4771 8.20439 13.3352 8.20439C13.1969 8.20439 13.0878 8.25351 13.0077 8.35176C12.9313 8.45001 12.8931 8.58828 12.8931 8.76658C12.8931 8.93761 12.9313 9.07588 13.0077 9.18141C13.0878 9.28329 13.1987 9.33424 13.3406 9.33424C13.4716 9.33424 13.5808 9.29057 13.6681 9.20324C13.7555 9.11227 13.7991 8.99037 13.7991 8.83754Z" fill="#F6F9FF"/>
<path fill-rule="evenodd" clip-rule="evenodd" d="M4.5625 9.23507C4.5625 6.27275 6.43491 3.74409 9.0928 2.65845V3.41692C6.82087 4.45745 5.25947 6.67828 5.25947 9.23507C5.25947 11.0861 6.07787 12.7611 7.39178 13.9396H6.4029C5.25798 12.6848 4.5625 11.0405 4.5625 9.23507Z" fill="url(#paint21_linear_763_5349)"/>
<path fill-rule="evenodd" clip-rule="evenodd" d="M19.6201 9.36691C19.6201 6.40459 17.7477 3.87593 15.0898 2.79028V3.54875C17.3618 4.58929 18.9232 6.81011 18.9232 9.36691C18.9232 11.2181 18.1047 12.8932 16.7906 14.0717H17.7795C18.9246 12.8169 19.6201 11.1724 19.6201 9.36691Z" fill="url(#paint22_linear_763_5349)"/>
<defs>
<filter id="filter0_i_763_5349" x="0" y="4.70432" width="9.24929" height="4.18191" filterUnits="userSpaceOnUse" color-interpolation-filters="sRGB">
<feFlood flood-opacity="0" result="BackgroundImageFix"/>
<feBlend mode="normal" in="SourceGraphic" in2="BackgroundImageFix" result="shape"/>
<feColorMatrix in="SourceAlpha" type="matrix" values="0 0 0 0 0 0 0 0 0 0 0 0 0 0 0 0 0 0 127 0" result="hardAlpha"/>
<feOffset dx="0.522727" dy="-0.522727"/>
<feGaussianBlur stdDeviation="0.522727"/>
<feComposite in2="hardAlpha" operator="arithmetic" k2="-1" k3="1"/>
<feColorMatrix type="matrix" values="0 0 0 0 0.552941 0 0 0 0 0.603922 0 0 0 0 0.803922 0 0 0 0.6 0"/>
<feBlend mode="normal" in2="shape" result="effect1_innerShadow_763_5349"/>
</filter>
<filter id="filter1_i_763_5349" x="1.08984" y="8.53782" width="8.15945" height="3.31057" filterUnits="userSpaceOnUse" color-interpolation-filters="sRGB">
<feFlood flood-opacity="0" result="BackgroundImageFix"/>
<feBlend mode="normal" in="SourceGraphic" in2="BackgroundImageFix" result="shape"/>
<feColorMatrix in="SourceAlpha" type="matrix" values="0 0 0 0 0 0 0 0 0 0 0 0 0 0 0 0 0 0 127 0" result="hardAlpha"/>
<feOffset dx="0.522727" dy="-0.522727"/>
<feGaussianBlur stdDeviation="0.522727"/>
<feComposite in2="hardAlpha" operator="arithmetic" k2="-1" k3="1"/>
<feColorMatrix type="matrix" values="0 0 0 0 0.552941 0 0 0 0 0.603922 0 0 0 0 0.803922 0 0 0 0.6 0"/>
<feBlend mode="normal" in2="shape" result="effect1_innerShadow_763_5349"/>
</filter>
<filter id="filter2_i_763_5349" x="3.63672" y="11.9354" width="7.17152" height="2.0038" filterUnits="userSpaceOnUse" color-interpolation-filters="sRGB">
<feFlood flood-opacity="0" result="BackgroundImageFix"/>
<feBlend mode="normal" in="SourceGraphic" in2="BackgroundImageFix" result="shape"/>
<feColorMatrix in="SourceAlpha" type="matrix" values="0 0 0 0 0 0 0 0 0 0 0 0 0 0 0 0 0 0 127 0" result="hardAlpha"/>
<feOffset dx="0.261364" dy="-0.261364"/>
<feGaussianBlur stdDeviation="0.522727"/>
<feComposite in2="hardAlpha" operator="arithmetic" k2="-1" k3="1"/>
<feColorMatrix type="matrix" values="0 0 0 0 0.552941 0 0 0 0 0.603922 0 0 0 0 0.803922 0 0 0 0.6 0"/>
<feBlend mode="normal" in2="shape" result="effect1_innerShadow_763_5349"/>
</filter>
<filter id="filter3_i_763_5349" x="13.2734" y="12.11" width="7.35121" height="1.82948" filterUnits="userSpaceOnUse" color-interpolation-filters="sRGB">
<feFlood flood-opacity="0" result="BackgroundImageFix"/>
<feBlend mode="normal" in="SourceGraphic" in2="BackgroundImageFix" result="shape"/>
<feColorMatrix in="SourceAlpha" type="matrix" values="0 0 0 0 0 0 0 0 0 0 0 0 0 0 0 0 0 0 127 0" result="hardAlpha"/>
<feOffset dx="0.261364" dy="-0.261364"/>
<feGaussianBlur stdDeviation="0.522727"/>
<feComposite in2="hardAlpha" operator="arithmetic" k2="-1" k3="1"/>
<feColorMatrix type="matrix" values="0 0 0 0 0.552941 0 0 0 0 0.603922 0 0 0 0 0.803922 0 0 0 0.6 0"/>
<feBlend mode="normal" in2="shape" result="effect1_innerShadow_763_5349"/>
</filter>
<filter id="filter4_i_763_5349" x="15.2734" y="4.70432" width="9.24929" height="4.18191" filterUnits="userSpaceOnUse" color-interpolation-filters="sRGB">
<feFlood flood-opacity="0" result="BackgroundImageFix"/>
<feBlend mode="normal" in="SourceGraphic" in2="BackgroundImageFix" result="shape"/>
<feColorMatrix in="SourceAlpha" type="matrix" values="0 0 0 0 0 0 0 0 0 0 0 0 0 0 0 0 0 0 127 0" result="hardAlpha"/>
<feOffset dx="0.522727" dy="-0.522727"/>
<feGaussianBlur stdDeviation="0.522727"/>
<feComposite in2="hardAlpha" operator="arithmetic" k2="-1" k3="1"/>
<feColorMatrix type="matrix" values="0 0 0 0 0.352941 0 0 0 0 0.576471 0 0 0 0 0.776471 0 0 0 0.6 0"/>
<feBlend mode="normal" in2="shape" result="effect1_innerShadow_763_5349"/>
</filter>
<filter id="filter5_i_763_5349" x="15.2734" y="8.53782" width="8.15945" height="3.48489" filterUnits="userSpaceOnUse" color-interpolation-filters="sRGB">
<feFlood flood-opacity="0" result="BackgroundImageFix"/>
<feBlend mode="normal" in="SourceGraphic" in2="BackgroundImageFix" result="shape"/>
<feColorMatrix in="SourceAlpha" type="matrix" values="0 0 0 0 0 0 0 0 0 0 0 0 0 0 0 0 0 0 127 0" result="hardAlpha"/>
<feOffset dx="0.522727" dy="-0.522727"/>
<feGaussianBlur stdDeviation="0.522727"/>
<feComposite in2="hardAlpha" operator="arithmetic" k2="-1" k3="1"/>
<feColorMatrix type="matrix" values="0 0 0 0 0.352941 0 0 0 0 0.576471 0 0 0 0 0.776471 0 0 0 0.6 0"/>
<feBlend mode="normal" in2="shape" result="effect1_innerShadow_763_5349"/>
</filter>
<filter id="filter6_i_763_5349" x="15.2734" y="11.6741" width="5.79616" height="2.26516" filterUnits="userSpaceOnUse" color-interpolation-filters="sRGB">
<feFlood flood-opacity="0" result="BackgroundImageFix"/>
<feBlend mode="normal" in="SourceGraphic" in2="BackgroundImageFix" result="shape"/>
<feColorMatrix in="SourceAlpha" type="matrix" values="0 0 0 0 0 0 0 0 0 0 0 0 0 0 0 0 0 0 127 0" result="hardAlpha"/>
<feOffset dx="0.522727" dy="-0.522727"/>
<feGaussianBlur stdDeviation="0.522727"/>
<feComposite in2="hardAlpha" operator="arithmetic" k2="-1" k3="1"/>
<feColorMatrix type="matrix" values="0 0 0 0 0.352941 0 0 0 0 0.576471 0 0 0 0 0.776471 0 0 0 0.6 0"/>
<feBlend mode="normal" in2="shape" result="effect1_innerShadow_763_5349"/>
</filter>
<filter id="filter7_i_763_5349" x="3.63672" y="11.6741" width="5.61257" height="2.26516" filterUnits="userSpaceOnUse" color-interpolation-filters="sRGB">
<feFlood flood-opacity="0" result="BackgroundImageFix"/>
<feBlend mode="normal" in="SourceGraphic" in2="BackgroundImageFix" result="shape"/>
<feColorMatrix in="SourceAlpha" type="matrix" values="0 0 0 0 0 0 0 0 0 0 0 0 0 0 0 0 0 0 127 0" result="hardAlpha"/>
<feOffset dx="0.522727" dy="-0.522727"/>
<feGaussianBlur stdDeviation="0.522727"/>
<feComposite in2="hardAlpha" operator="arithmetic" k2="-1" k3="1"/>
<feColorMatrix type="matrix" values="0 0 0 0 0.352941 0 0 0 0 0.576471 0 0 0 0 0.776471 0 0 0 0.6 0"/>
<feBlend mode="normal" in2="shape" result="effect1_innerShadow_763_5349"/>
</filter>
<filter id="filter8_i_763_5349" x="1.08984" y="8.53782" width="8.15945" height="3.48489" filterUnits="userSpaceOnUse" color-interpolation-filters="sRGB">
<feFlood flood-opacity="0" result="BackgroundImageFix"/>
<feBlend mode="normal" in="SourceGraphic" in2="BackgroundImageFix" result="shape"/>
<feColorMatrix in="SourceAlpha" type="matrix" values="0 0 0 0 0 0 0 0 0 0 0 0 0 0 0 0 0 0 127 0" result="hardAlpha"/>
<feOffset dx="0.522727" dy="-0.522727"/>
<feGaussianBlur stdDeviation="0.522727"/>
<feComposite in2="hardAlpha" operator="arithmetic" k2="-1" k3="1"/>
<feColorMatrix type="matrix" values="0 0 0 0 0.352941 0 0 0 0 0.576471 0 0 0 0 0.776471 0 0 0 0.6 0"/>
<feBlend mode="normal" in2="shape" result="effect1_innerShadow_763_5349"/>
</filter>
<filter id="filter9_i_763_5349" x="0" y="4.70432" width="9.24929" height="4.18191" filterUnits="userSpaceOnUse" color-interpolation-filters="sRGB">
<feFlood flood-opacity="0" result="BackgroundImageFix"/>
<feBlend mode="normal" in="SourceGraphic" in2="BackgroundImageFix" result="shape"/>
<feColorMatrix in="SourceAlpha" type="matrix" values="0 0 0 0 0 0 0 0 0 0 0 0 0 0 0 0 0 0 127 0" result="hardAlpha"/>
<feOffset dx="0.522727" dy="-0.522727"/>
<feGaussianBlur stdDeviation="0.522727"/>
<feComposite in2="hardAlpha" operator="arithmetic" k2="-1" k3="1"/>
<feColorMatrix type="matrix" values="0 0 0 0 0.835294 0 0 0 0 0.713726 0 0 0 0 0.968627 0 0 0 0.6 0"/>
<feBlend mode="normal" in2="shape" result="effect1_innerShadow_763_5349"/>
</filter>
<filter id="filter10_i_763_5349" x="0" y="4.70432" width="9.24929" height="4.18191" filterUnits="userSpaceOnUse" color-interpolation-filters="sRGB">
<feFlood flood-opacity="0" result="BackgroundImageFix"/>
<feBlend mode="normal" in="SourceGraphic" in2="BackgroundImageFix" result="shape"/>
<feColorMatrix in="SourceAlpha" type="matrix" values="0 0 0 0 0 0 0 0 0 0 0 0 0 0 0 0 0 0 127 0" result="hardAlpha"/>
<feOffset dx="0.522727" dy="-0.522727"/>
<feGaussianBlur stdDeviation="0.522727"/>
<feComposite in2="hardAlpha" operator="arithmetic" k2="-1" k3="1"/>
<feColorMatrix type="matrix" values="0 0 0 0 0.835294 0 0 0 0 0.713726 0 0 0 0 0.968627 0 0 0 0.6 0"/>
<feBlend mode="normal" in2="shape" result="effect1_innerShadow_763_5349"/>
</filter>
<filter id="filter11_i_763_5349" x="1.08984" y="8.53782" width="8.15945" height="3.48489" filterUnits="userSpaceOnUse" color-interpolation-filters="sRGB">
<feFlood flood-opacity="0" result="BackgroundImageFix"/>
<feBlend mode="normal" in="SourceGraphic" in2="BackgroundImageFix" result="shape"/>
<feColorMatrix in="SourceAlpha" type="matrix" values="0 0 0 0 0 0 0 0 0 0 0 0 0 0 0 0 0 0 127 0" result="hardAlpha"/>
<feOffset dx="0.522727" dy="-0.522727"/>
<feGaussianBlur stdDeviation="0.522727"/>
<feComposite in2="hardAlpha" operator="arithmetic" k2="-1" k3="1"/>
<feColorMatrix type="matrix" values="0 0 0 0 0.835294 0 0 0 0 0.713726 0 0 0 0 0.968627 0 0 0 0.6 0"/>
<feBlend mode="normal" in2="shape" result="effect1_innerShadow_763_5349"/>
</filter>
<filter id="filter12_i_763_5349" x="3.63672" y="11.6741" width="5.61257" height="2.26516" filterUnits="userSpaceOnUse" color-interpolation-filters="sRGB">
<feFlood flood-opacity="0" result="BackgroundImageFix"/>
<feBlend mode="normal" in="SourceGraphic" in2="BackgroundImageFix" result="shape"/>
<feColorMatrix in="SourceAlpha" type="matrix" values="0 0 0 0 0 0 0 0 0 0 0 0 0 0 0 0 0 0 127 0" result="hardAlpha"/>
<feOffset dx="0.522727" dy="-0.522727"/>
<feGaussianBlur stdDeviation="0.522727"/>
<feComposite in2="hardAlpha" operator="arithmetic" k2="-1" k3="1"/>
<feColorMatrix type="matrix" values="0 0 0 0 0.835294 0 0 0 0 0.713726 0 0 0 0 0.968627 0 0 0 0.6 0"/>
<feBlend mode="normal" in2="shape" result="effect1_innerShadow_763_5349"/>
</filter>
<filter id="filter13_i_763_5349" x="15.2734" y="4.70432" width="9.24929" height="4.18191" filterUnits="userSpaceOnUse" color-interpolation-filters="sRGB">
<feFlood flood-opacity="0" result="BackgroundImageFix"/>
<feBlend mode="normal" in="SourceGraphic" in2="BackgroundImageFix" result="shape"/>
<feColorMatrix in="SourceAlpha" type="matrix" values="0 0 0 0 0 0 0 0 0 0 0 0 0 0 0 0 0 0 127 0" result="hardAlpha"/>
<feOffset dx="0.522727" dy="-0.522727"/>
<feGaussianBlur stdDeviation="0.522727"/>
<feComposite in2="hardAlpha" operator="arithmetic" k2="-1" k3="1"/>
<feColorMatrix type="matrix" values="0 0 0 0 0.970459 0 0 0 0 0.573259 0 0 0 0 0.299778 0 0 0 1 0"/>
<feBlend mode="normal" in2="shape" result="effect1_innerShadow_763_5349"/>
</filter>
<filter id="filter14_i_763_5349" x="14.9766" y="8.53782" width="8.45632" height="3.48489" filterUnits="userSpaceOnUse" color-interpolation-filters="sRGB">
<feFlood flood-opacity="0" result="BackgroundImageFix"/>
<feBlend mode="normal" in="SourceGraphic" in2="BackgroundImageFix" result="shape"/>
<feColorMatrix in="SourceAlpha" type="matrix" values="0 0 0 0 0 0 0 0 0 0 0 0 0 0 0 0 0 0 127 0" result="hardAlpha"/>
<feOffset dx="0.522727" dy="-0.522727"/>
<feGaussianBlur stdDeviation="0.522727"/>
<feComposite in2="hardAlpha" operator="arithmetic" k2="-1" k3="1"/>
<feColorMatrix type="matrix" values="0 0 0 0 0.970459 0 0 0 0 0.573259 0 0 0 0 0.299778 0 0 0 1 0"/>
<feBlend mode="normal" in2="shape" result="effect1_innerShadow_763_5349"/>
</filter>
<filter id="filter15_i_763_5349" x="14.3984" y="11.6741" width="6.67116" height="2.26516" filterUnits="userSpaceOnUse" color-interpolation-filters="sRGB">
<feFlood flood-opacity="0" result="BackgroundImageFix"/>
<feBlend mode="normal" in="SourceGraphic" in2="BackgroundImageFix" result="shape"/>
<feColorMatrix in="SourceAlpha" type="matrix" values="0 0 0 0 0 0 0 0 0 0 0 0 0 0 0 0 0 0 127 0" result="hardAlpha"/>
<feOffset dx="0.522727" dy="-0.522727"/>
<feGaussianBlur stdDeviation="0.522727"/>
<feComposite in2="hardAlpha" operator="arithmetic" k2="-1" k3="1"/>
<feColorMatrix type="matrix" values="0 0 0 0 0.970459 0 0 0 0 0.573259 0 0 0 0 0.299778 0 0 0 1 0"/>
<feBlend mode="normal" in2="shape" result="effect1_innerShadow_763_5349"/>
</filter>
<filter id="filter16_i_763_5349" x="0" y="4.70432" width="9.24929" height="4.18191" filterUnits="userSpaceOnUse" color-interpolation-filters="sRGB">
<feFlood flood-opacity="0" result="BackgroundImageFix"/>
<feBlend mode="normal" in="SourceGraphic" in2="BackgroundImageFix" result="shape"/>
<feColorMatrix in="SourceAlpha" type="matrix" values="0 0 0 0 0 0 0 0 0 0 0 0 0 0 0 0 0 0 127 0" result="hardAlpha"/>
<feOffset dx="0.522727" dy="-0.522727"/>
<feGaussianBlur stdDeviation="0.522727"/>
<feComposite in2="hardAlpha" operator="arithmetic" k2="-1" k3="1"/>
<feColorMatrix type="matrix" values="0 0 0 0 0.970459 0 0 0 0 0.573259 0 0 0 0 0.299778 0 0 0 1 0"/>
<feBlend mode="normal" in2="shape" result="effect1_innerShadow_763_5349"/>
</filter>
<filter id="filter17_i_763_5349" x="1.08984" y="8.53782" width="8.45632" height="3.48489" filterUnits="userSpaceOnUse" color-interpolation-filters="sRGB">
<feFlood flood-opacity="0" result="BackgroundImageFix"/>
<feBlend mode="normal" in="SourceGraphic" in2="BackgroundImageFix" result="shape"/>
<feColorMatrix in="SourceAlpha" type="matrix" values="0 0 0 0 0 0 0 0 0 0 0 0 0 0 0 0 0 0 127 0" result="hardAlpha"/>
<feOffset dx="0.522727" dy="-0.522727"/>
<feGaussianBlur stdDeviation="0.522727"/>
<feComposite in2="hardAlpha" operator="arithmetic" k2="-1" k3="1"/>
<feColorMatrix type="matrix" values="0 0 0 0 0.970459 0 0 0 0 0.573259 0 0 0 0 0.299778 0 0 0 1 0"/>
<feBlend mode="normal" in2="shape" result="effect1_innerShadow_763_5349"/>
</filter>
<filter id="filter18_i_763_5349" x="3.63672" y="11.6741" width="6.67116" height="2.26516" filterUnits="userSpaceOnUse" color-interpolation-filters="sRGB">
<feFlood flood-opacity="0" result="BackgroundImageFix"/>
<feBlend mode="normal" in="SourceGraphic" in2="BackgroundImageFix" result="shape"/>
<feColorMatrix in="SourceAlpha" type="matrix" values="0 0 0 0 0 0 0 0 0 0 0 0 0 0 0 0 0 0 127 0" result="hardAlpha"/>
<feOffset dx="0.522727" dy="-0.522727"/>
<feGaussianBlur stdDeviation="0.522727"/>
<feComposite in2="hardAlpha" operator="arithmetic" k2="-1" k3="1"/>
<feColorMatrix type="matrix" values="0 0 0 0 0.970459 0 0 0 0 0.573259 0 0 0 0 0.299778 0 0 0 1 0"/>
<feBlend mode="normal" in2="shape" result="effect1_innerShadow_763_5349"/>
</filter>
<linearGradient id="paint0_linear_763_5349" x1="4.36364" y1="5.22705" x2="4.36364" y2="8.88614" gradientUnits="userSpaceOnUse">
<stop stop-color="#CAD2F9"/>
<stop offset="1" stop-color="#C1C9F7"/>
</linearGradient>
<linearGradient id="paint1_linear_763_5349" x1="4.90803" y1="9.06055" x2="4.90803" y2="11.8484" gradientUnits="userSpaceOnUse">
<stop stop-color="#CAD2F9"/>
<stop offset="1" stop-color="#C1C9F7"/>
</linearGradient>
<linearGradient id="paint2_linear_763_5349" x1="7.09126" y1="12.1968" x2="7.09126" y2="13.9392" gradientUnits="userSpaceOnUse">
<stop stop-color="#CAD2F9"/>
<stop offset="1" stop-color="#C1C9F7"/>
</linearGradient>
<linearGradient id="paint3_linear_763_5349" x1="16.8178" y1="12.3713" x2="16.8178" y2="13.9395" gradientUnits="userSpaceOnUse">
<stop stop-color="#CAD2F9"/>
<stop offset="1" stop-color="#C1C9F7"/>
</linearGradient>
<linearGradient id="paint4_linear_763_5349" x1="19.6364" y1="7.4922" x2="23.6362" y2="7.39735" gradientUnits="userSpaceOnUse">
<stop stop-color="#47A0DB"/>
<stop offset="1" stop-color="#A2DFFF"/>
</linearGradient>
<linearGradient id="paint5_linear_763_5349" x1="19.092" y1="10.8942" x2="22.5915" y2="10.8045" gradientUnits="userSpaceOnUse">
<stop stop-color="#47A0DB"/>
<stop offset="1" stop-color="#A2DFFF"/>
</linearGradient>
<linearGradient id="paint6_linear_763_5349" x1="17.9105" y1="13.2754" x2="20.3262" y2="13.2027" gradientUnits="userSpaceOnUse">
<stop stop-color="#47A0DB"/>
<stop offset="1" stop-color="#A2DFFF"/>
</linearGradient>
<linearGradient id="paint7_linear_763_5349" x1="6.18217" y1="13.2754" x2="3.8496" y2="13.2077" gradientUnits="userSpaceOnUse">
<stop stop-color="#47A0DB"/>
<stop offset="1" stop-color="#A2DFFF"/>
</linearGradient>
<linearGradient id="paint8_linear_763_5349" x1="4.90803" y1="10.8942" x2="1.40852" y2="10.8045" gradientUnits="userSpaceOnUse">
<stop stop-color="#47A0DB"/>
<stop offset="1" stop-color="#A2DFFF"/>
</linearGradient>
<linearGradient id="paint9_linear_763_5349" x1="4.36364" y1="7.4922" x2="0.36382" y2="7.39735" gradientUnits="userSpaceOnUse">
<stop stop-color="#894EDC"/>
<stop offset="1" stop-color="#AF80F4"/>
</linearGradient>
<linearGradient id="paint10_linear_763_5349" x1="4.36364" y1="7.4922" x2="0.36382" y2="7.39735" gradientUnits="userSpaceOnUse">
<stop stop-color="#894EDC"/>
<stop offset="1" stop-color="#AF80F4"/>
</linearGradient>
<linearGradient id="paint11_linear_763_5349" x1="4.90803" y1="10.8942" x2="1.40852" y2="10.8045" gradientUnits="userSpaceOnUse">
<stop stop-color="#894EDC"/>
<stop offset="1" stop-color="#AF80F4"/>
</linearGradient>
<linearGradient id="paint12_linear_763_5349" x1="6.18217" y1="13.2754" x2="3.8496" y2="13.2077" gradientUnits="userSpaceOnUse">
<stop stop-color="#894EDC"/>
<stop offset="1" stop-color="#AF80F4"/>
</linearGradient>
<linearGradient id="paint13_linear_763_5349" x1="19.6364" y1="7.4922" x2="23.6362" y2="7.39735" gradientUnits="userSpaceOnUse">
<stop stop-color="#E53737"/>
<stop offset="1" stop-color="#FFBB4F"/>
</linearGradient>
<linearGradient id="paint14_linear_763_5349" x1="18.9432" y1="10.8942" x2="22.5789" y2="10.7974" gradientUnits="userSpaceOnUse">
<stop stop-color="#E53737"/>
<stop offset="1" stop-color="#FFBB4F"/>
</linearGradient>
<linearGradient id="paint15_linear_763_5349" x1="17.4725" y1="13.2754" x2="20.2887" y2="13.1766" gradientUnits="userSpaceOnUse">
<stop stop-color="#E53737"/>
<stop offset="1" stop-color="#FFBB4F"/>
</linearGradient>
<linearGradient id="paint16_linear_763_5349" x1="4.36364" y1="7.4922" x2="0.36382" y2="7.39735" gradientUnits="userSpaceOnUse">
<stop stop-color="#E53737"/>
<stop offset="1" stop-color="#FFBB4F"/>
</linearGradient>
<linearGradient id="paint17_linear_763_5349" x1="5.05679" y1="10.8942" x2="1.42112" y2="10.7974" gradientUnits="userSpaceOnUse">
<stop stop-color="#E53737"/>
<stop offset="1" stop-color="#FFBB4F"/>
</linearGradient>
<linearGradient id="paint18_linear_763_5349" x1="6.7111" y1="13.2754" x2="3.89493" y2="13.1766" gradientUnits="userSpaceOnUse">
<stop stop-color="#E53737"/>
<stop offset="1" stop-color="#FFBB4F"/>
</linearGradient>
<linearGradient id="paint19_linear_763_5349" x1="12.0011" y1="2.43945" x2="12.0011" y2="16.0304" gradientUnits="userSpaceOnUse">
<stop stop-color="#FEE49D"/>
<stop offset="1" stop-color="#FFBB4D"/>
</linearGradient>
<radialGradient id="paint20_diamond_763_5349" cx="0" cy="0" r="1" gradientUnits="userSpaceOnUse" gradientTransform="translate(11.9105 3.92045) rotate(90) scale(10.5417 11)">
<stop stop-color="#EDA054"/>
<stop offset="1" stop-color="#FAE37F"/>
</radialGradient>
<linearGradient id="paint21_linear_763_5349" x1="6.82765" y1="2.65845" x2="6.82765" y2="15.814" gradientUnits="userSpaceOnUse">
<stop stop-color="#FFBB38"/>
<stop offset="0.541667" stop-color="#FFC941"/>
<stop offset="1" stop-color="#FFA524"/>
</linearGradient>
<linearGradient id="paint22_linear_763_5349" x1="17.355" y1="2.79028" x2="17.355" y2="15.9462" gradientUnits="userSpaceOnUse">
<stop stop-color="#FFBB38"/>
<stop offset="0.541667" stop-color="#FFC941"/>
<stop offset="1" stop-color="#FFA524"/>
</linearGradient>
</defs>
</svg>
