<svg width="20" height="20" viewBox="0 0 20 20" fill="none" xmlns="http://www.w3.org/2000/svg">
<g opacity="0.7">
<path d="M19.8973 9.38883C19.8973 9.38883 19.814 9.13883 19.7306 9.0555L19.314 8.22217C18.8973 7.5555 18.314 6.72217 17.4806 5.8055C15.8973 4.0555 13.3973 2.22217 9.98063 2.22217C6.56397 2.22217 4.06396 4.0555 2.48063 5.8055C1.6473 6.72217 1.06396 7.5555 0.647298 8.22217C0.480632 8.5555 0.313965 8.8055 0.230632 9.0555C0.147298 9.13883 0.0639648 9.38883 0.0639648 9.38883C-0.0193685 9.63883 -0.0193685 9.88883 0.0639648 10.0555C0.0639648 10.0555 0.147298 10.3055 0.230632 10.3888L0.647298 11.2222C1.06396 11.8888 1.6473 12.7222 2.48063 13.6388C4.06396 15.3888 6.56397 17.2222 9.98063 17.2222C13.3973 17.2222 15.8973 15.3888 17.4806 13.6388C18.314 12.7222 18.8973 11.8888 19.314 11.2222C19.4806 10.8888 19.6473 10.6388 19.7306 10.3888C19.814 10.3055 19.8973 10.0555 19.8973 10.0555C19.9806 9.8055 19.9806 9.63883 19.8973 9.38883ZM17.8973 10.3055C17.564 10.8888 16.9806 11.7222 16.314 12.4722C14.814 14.0555 12.7306 15.5555 9.98063 15.5555C7.23063 15.5555 5.1473 14.0555 3.6473 12.4722C2.8973 11.7222 2.3973 10.8888 2.06396 10.3055C1.8973 10.0555 1.81396 9.88883 1.73063 9.72217C1.81396 9.5555 1.8973 9.38883 2.06396 9.13883C2.48063 8.5555 2.98063 7.72217 3.6473 6.97217C5.1473 5.38883 7.23063 3.88883 9.98063 3.88883C12.7306 3.88883 14.814 5.38883 16.314 6.97217C17.064 7.72217 17.564 8.5555 17.8973 9.13883C18.064 9.38883 18.1473 9.5555 18.2306 9.72217C18.1473 9.88883 17.9806 10.0555 17.8973 10.3055Z" fill="white"/>
<path d="M9.98047 6.72233C8.48047 6.72233 7.14714 8.05566 7.14714 9.72233C7.14714 11.389 8.48047 12.7223 9.98047 12.7223C11.4805 12.7223 12.8138 11.389 12.8138 9.72233C12.8138 8.05566 11.4805 6.72233 9.98047 6.72233ZM5.48047 9.72233C5.48047 7.22233 7.48047 5.05566 9.98047 5.05566C12.4805 5.05566 14.4805 7.22233 14.4805 9.72233C14.4805 12.2223 12.4805 14.389 9.98047 14.389C7.48047 14.389 5.48047 12.2223 5.48047 9.72233Z" fill="white"/>
</g>
</svg>
