<svg width="20" height="20" viewBox="0 0 20 20" fill="none" xmlns="http://www.w3.org/2000/svg">
<g opacity="0.7">
<path d="M18.8264 5.64922C19.1437 5.94013 19.1809 6.4524 18.9096 6.79285C18.2822 7.57997 17.5606 8.28707 16.7609 8.89831L18.4018 10.6583C18.6914 10.981 18.6832 11.4942 18.3827 11.8056C18.3154 11.8774 18.2341 11.9346 18.1438 11.9738C18.0535 12.0129 17.9562 12.0331 17.8577 12.0331C17.7593 12.0331 17.662 12.0129 17.5717 11.9738C17.4814 11.9346 17.4 11.8774 17.3327 11.8056L15.435 9.77104C14.5758 10.2583 13.6556 10.6293 12.6987 10.8742L13.5759 13.4565C13.7182 13.8779 13.5159 14.3429 13.1237 14.4965C12.7309 14.6497 12.2973 14.4329 12.1546 14.0115L11.1864 11.1533C10.3939 11.2423 9.5941 11.2455 8.80092 11.1629L7.8332 14.0115C7.69047 14.4324 7.25683 14.6497 6.86411 14.4965C6.47183 14.3433 6.26956 13.8779 6.41229 13.4565L7.2832 10.8974C6.31814 10.6572 5.38926 10.2899 4.52092 9.80513L2.65501 11.8051C2.58615 11.8786 2.50263 11.9369 2.40984 11.9761C2.31705 12.0153 2.21707 12.0347 2.11635 12.0328C2.01563 12.031 1.91642 12.008 1.82513 11.9654C1.73384 11.9228 1.65251 11.8616 1.58638 11.7856C1.44958 11.6297 1.37414 11.4294 1.37414 11.2219C1.37414 11.0145 1.44958 10.8142 1.58638 10.6583L3.18911 8.93922C2.40987 8.35107 1.7042 7.67134 1.08729 6.91467C0.818196 6.5724 0.85865 6.06058 1.17729 5.77194C1.48774 5.49104 1.9491 5.52285 2.22274 5.84422C4.17183 8.23422 6.98865 9.60331 9.94865 9.59922C12.9918 9.59922 15.8191 8.17194 17.7605 5.73876C18.0318 5.39785 18.5091 5.35831 18.8264 5.64922Z" fill="white"/>
</g>
</svg>
