<svg width="294" height="219" viewBox="0 0 294 219" fill="none" xmlns="http://www.w3.org/2000/svg">
<ellipse cx="147" cy="179.137" rx="147" ry="39.7727" fill="url(#paint0_linear_985_3842)"/>
<path d="M64.6065 31.362C51.3702 33.1438 47.4247 45.8923 47.1065 52.0438C44.6671 50.2408 38.7263 49.816 37.2429 54.271C35.7596 58.7255 39.5762 62.1194 42.0156 62.2255H99.6065C100.667 61.5891 102.534 59.68 101.516 57.1346C100.497 54.5891 96.2126 54.1649 94.1974 54.271C94.7277 52.9982 95.152 49.8801 92.6065 47.5893C90.0611 45.2985 85.3944 46.6348 83.3792 47.5893C82.6368 41.4378 77.8429 29.5802 64.6065 31.362Z" fill="url(#paint1_linear_985_3842)"/>
<path d="M217.753 0.00643495C209.353 0.26098 205.769 7.32462 205.026 10.8246C203.223 10.6124 199.426 11.0153 198.663 14.3244C197.899 17.6335 201.102 19.3092 202.799 19.7335H231.117C233.027 19.7335 236.527 17.8244 235.891 14.6426C235.389 12.1341 233.664 10.8246 231.117 10.8246C230.163 7.1125 226.153 -0.248111 217.753 0.00643495Z" fill="url(#paint2_linear_985_3842)"/>
<path d="M246.906 178.819L249.77 176.91L282.543 179.137L246.906 178.819Z" fill="url(#paint3_linear_985_3842)"/>
<rect x="246.906" y="159.728" width="3.81818" height="19.0909" fill="#FBBD9B"/>
<path d="M231 154.318L249.136 129.182V161.636L231 154.318Z" fill="#FEE8DB"/>
<path d="M249.137 161.636V129.182L260.273 153.363L249.137 161.636Z" fill="#F7C1A3"/>
<path d="M51.4414 198.074L54.0576 196.33L83.9981 198.364L51.4414 198.074Z" fill="url(#paint4_linear_985_3842)"/>
<rect x="51.4414" y="180.633" width="3.48822" height="17.4411" fill="#FBBD9B"/>
<path d="M36.9062 175.693L53.4753 152.729V182.378L36.9062 175.693Z" fill="#FEE8DB"/>
<path d="M53.4727 182.378V152.729L63.6466 174.821L53.4727 182.378Z" fill="#F7C1A3"/>
<path d="M13.8398 163.389L15.2995 162.416L32.0041 163.551L13.8398 163.389Z" fill="url(#paint5_linear_985_3842)"/>
<rect x="13.8398" y="153.658" width="1.94617" height="9.73084" fill="#FBBD9B"/>
<path d="M5.73047 150.902L14.9748 138.089V154.632L5.73047 150.902Z" fill="#FEE8DB"/>
<path d="M14.9727 154.632V138.089L20.649 150.415L14.9727 154.632Z" fill="#F7C1A3"/>
<path d="M219.18 178.994L220.144 178.351L231.185 179.101L219.18 178.994Z" fill="url(#paint6_linear_985_3842)"/>
<rect x="219.18" y="172.562" width="1.28628" height="6.43141" fill="#FBBD9B"/>
<path d="M213.82 170.74L219.93 162.271V173.205L213.82 170.74Z" fill="#FEE8DB"/>
<path d="M219.93 173.205V162.271L223.681 170.418L219.93 173.205Z" fill="#F7C1A3"/>
<path d="M114.836 136.311C122.314 127.617 135.012 120.974 147.511 120.974C160.01 120.974 172.586 127.617 180.063 136.311" stroke="#F7C0A1" stroke-width="20"/>
<path d="M114.836 134.337C122.314 125.643 135.012 119 147.511 119C160.01 119 172.586 125.643 180.063 134.337" stroke="url(#paint7_linear_985_3842)" stroke-width="20"/>
<circle cx="145.708" cy="160.889" r="12.2663" fill="#F7C0A1"/>
<circle cx="147.153" cy="159.447" r="12.2663" fill="url(#paint8_linear_985_3842)"/>
<path fill-rule="evenodd" clip-rule="evenodd" d="M175.845 99.5641C186.216 104.03 195.334 110.858 202.528 119.379L217.81 106.477C209.258 96.3466 198.552 88.0795 186.398 82.3827L175.845 99.5641ZM147.29 73.7051C155.326 73.7051 163.124 74.7337 170.556 76.6655L169.962 97.3315C162.832 94.9778 155.21 93.7051 147.29 93.7051C125.138 93.7051 105.321 103.661 92.0514 119.379L76.7695 106.477C93.6771 86.4506 119 73.7051 147.29 73.7051Z" fill="#F7C0A1"/>
<path fill-rule="evenodd" clip-rule="evenodd" d="M176.907 97.8349C186.79 102.303 195.491 108.933 202.411 117.129L217.693 104.227C209.413 94.4203 199.116 86.3594 187.44 80.6862L176.907 97.8349ZM147.173 71.4556C155.274 71.4556 163.132 72.5008 170.619 74.463L170.025 95.1416C162.843 92.7498 155.159 91.4556 147.173 91.4556C125.021 91.4556 105.204 101.412 91.9342 117.129L76.6523 104.227C93.5599 84.201 118.883 71.4556 147.173 71.4556Z" fill="url(#paint9_linear_985_3842)"/>
<path d="M165.75 68.2268L187.81 31.1821L186.885 65.7331L192.574 68.2268L171.608 103.728L172.533 71.5636L165.75 68.2268Z" fill="#F7C0A1"/>
<path d="M166.969 67.765L187.934 32.4014L187.009 64.6899L193.792 67.765L172.827 101.899L173.752 71.1477L166.969 67.765Z" fill="url(#paint10_linear_985_3842)"/>
<defs>
<linearGradient id="paint0_linear_985_3842" x1="147" y1="105" x2="144.136" y2="218.909" gradientUnits="userSpaceOnUse">
<stop stop-color="#F37D3B"/>
<stop offset="1" stop-color="white" stop-opacity="0"/>
</linearGradient>
<linearGradient id="paint1_linear_985_3842" x1="69.36" y1="31.1816" x2="69.3647" y2="65.8635" gradientUnits="userSpaceOnUse">
<stop stop-color="#F6C1A3"/>
<stop offset="1" stop-color="#FFEEE5" stop-opacity="0"/>
</linearGradient>
<linearGradient id="paint2_linear_985_3842" x1="217.257" y1="0" x2="217.001" y2="24.1818" gradientUnits="userSpaceOnUse">
<stop stop-color="#F6C2A4"/>
<stop offset="0.904289" stop-color="#FFEEE4" stop-opacity="0"/>
</linearGradient>
<linearGradient id="paint3_linear_985_3842" x1="246.906" y1="178.023" x2="282.543" y2="178.023" gradientUnits="userSpaceOnUse">
<stop stop-color="#FBBD9B"/>
<stop offset="1" stop-color="#FEE8DB"/>
</linearGradient>
<linearGradient id="paint4_linear_985_3842" x1="51.4414" y1="197.347" x2="83.9981" y2="197.347" gradientUnits="userSpaceOnUse">
<stop stop-color="#FBBD9B"/>
<stop offset="1" stop-color="#FEE8DB"/>
</linearGradient>
<linearGradient id="paint5_linear_985_3842" x1="13.8398" y1="162.983" x2="32.0041" y2="162.983" gradientUnits="userSpaceOnUse">
<stop stop-color="#FBBD9B"/>
<stop offset="1" stop-color="#FEE8DB"/>
</linearGradient>
<linearGradient id="paint6_linear_985_3842" x1="219.18" y1="178.726" x2="231.185" y2="178.726" gradientUnits="userSpaceOnUse">
<stop stop-color="#FBBD9B"/>
<stop offset="1" stop-color="#FEE8DB"/>
</linearGradient>
<linearGradient id="paint7_linear_985_3842" x1="132.184" y1="113.735" x2="131.494" y2="140.413" gradientUnits="userSpaceOnUse">
<stop stop-color="#FFE9DE"/>
<stop offset="0.811073" stop-color="#FAD5C0"/>
</linearGradient>
<linearGradient id="paint8_linear_985_3842" x1="147.153" y1="147.181" x2="147.153" y2="183.258" gradientUnits="userSpaceOnUse">
<stop stop-color="#FFEEE6"/>
<stop offset="1" stop-color="#FAD6C1"/>
</linearGradient>
<linearGradient id="paint9_linear_985_3842" x1="112.486" y1="54.5394" x2="109.345" y2="140.192" gradientUnits="userSpaceOnUse">
<stop stop-color="#FFE9DE"/>
<stop offset="0.811073" stop-color="#FAD5C0"/>
</linearGradient>
<linearGradient id="paint10_linear_985_3842" x1="166.969" y1="64.0749" x2="193.477" y2="70.2558" gradientUnits="userSpaceOnUse">
<stop stop-color="#FEE8DB"/>
<stop offset="1" stop-color="#FBBD9B"/>
</linearGradient>
</defs>
</svg>
