<svg width="33" height="32" viewBox="0 0 33 32" fill="none" xmlns="http://www.w3.org/2000/svg">
<g clip-path="url(#clip0_127_190)">
<rect x="0.799927" width="32" height="32" rx="16" fill="#FFD1D1"/>
<ellipse cx="16.9599" cy="28.96" rx="11.68" ry="8.48" fill="#00ACEA"/>
<ellipse cx="16.9599" cy="33.6" rx="10.08" ry="8" fill="#9DCAE2"/>
<path d="M21.7599 4L20.4799 6.24L21.7599 7.04C21.9732 6.88 22.4959 6.496 22.8799 6.24C23.3599 5.92 23.3599 4 22.8799 3.68C22.4959 3.424 21.9732 3.78667 21.7599 4Z" fill="#28B1E6"/>
<path fill-rule="evenodd" clip-rule="evenodd" d="M22.8427 3.65736C22.7037 3.75546 22.5942 3.91594 22.5942 4.16884C22.5942 4.41584 22.514 4.8509 22.4299 5.30697C22.3353 5.81968 22.2359 6.35894 22.24 6.68745C22.4495 6.53629 22.6829 6.37131 22.8799 6.24C23.3599 5.92001 23.3599 4 22.8799 3.68C22.8676 3.67184 22.8552 3.6643 22.8427 3.65736Z" fill="#387AAD"/>
<path d="M12.3599 4L13.6399 6.24L12.3599 7.04C12.1466 6.88 11.6239 6.496 11.2399 6.24C10.7599 5.92 10.7599 4 11.2399 3.68C11.6239 3.424 12.1466 3.78667 12.3599 4Z" fill="#28B1E6"/>
<path fill-rule="evenodd" clip-rule="evenodd" d="M11.277 3.65736C11.416 3.75546 11.5256 3.91594 11.5256 4.16884C11.5256 4.41584 11.6058 4.8509 11.6899 5.30697C11.7844 5.81968 11.8839 6.35894 11.8798 6.68745C11.6703 6.53629 11.4368 6.37131 11.2399 6.24C10.7599 5.92001 10.7599 4 11.2399 3.68C11.2521 3.67184 11.2645 3.6643 11.277 3.65736Z" fill="#387AAD"/>
<circle cx="16.8" cy="14.72" r="9.6" fill="#00ACEA"/>
<path fill-rule="evenodd" clip-rule="evenodd" d="M15.9027 23.3751C15.636 23.0018 15.0067 22.2871 14.6227 22.4151C14.2323 22.5453 14.1594 22.887 14.0597 23.3544C14.0369 23.4617 14.0126 23.5756 13.9827 23.6951C13.8227 24.3351 13.9827 25.2951 14.3027 25.6151C14.5587 25.8711 15.476 25.2951 15.9027 24.9751H17.4399C17.8666 25.2951 18.7839 25.8711 19.0399 25.6151C19.3599 25.2951 19.5199 24.3351 19.3599 23.6951C19.33 23.5756 19.3057 23.4617 19.2829 23.3544C19.1832 22.887 19.1103 22.5453 18.7199 22.4151C18.3359 22.2871 17.7066 23.0018 17.4399 23.3751H15.9027Z" fill="#C33F3C"/>
<path fill-rule="evenodd" clip-rule="evenodd" d="M16.7999 14.7022C16.3732 14.7555 15.3279 14.7342 14.5599 14.2222C13.5999 13.5822 10.3999 11.6622 7.35989 13.7422C4.92789 15.4062 4.63991 17.2622 4.63989 18.8622C4.63988 20.6222 5.40355 23.004 7.35989 23.9822C8.95988 24.7822 11.8399 24.6222 12.7999 24.3022C13.8099 23.9655 14.2894 23.7238 14.6823 23.5257C15.0661 23.3322 15.3674 23.0203 15.9999 22.8622C16.4799 22.7422 16.7999 22.8622 16.7999 22.8622C16.7999 22.8622 17.1199 22.7422 17.5999 22.8622C18.2324 23.0203 18.5336 23.3322 18.9174 23.5257C19.3104 23.7238 19.7899 23.9655 20.7999 24.3022C21.7599 24.6222 24.6399 24.7822 26.2399 23.9822C28.1962 23.004 28.9599 20.6222 28.9599 18.8622C28.9599 17.2622 28.6719 15.4062 26.2399 13.7422C23.1999 11.6622 19.9999 13.5822 19.0399 14.2222C18.2719 14.7342 17.2266 14.7555 16.7999 14.7022Z" fill="#83CCEE"/>
<path fill-rule="evenodd" clip-rule="evenodd" d="M28.8537 17.481C28.635 16.2471 27.9971 14.9446 26.2398 13.7422C23.1998 11.6622 19.9998 13.5822 19.0398 14.2222C18.2718 14.7342 17.2265 14.7555 16.7998 14.7022C16.3732 14.7555 15.3278 14.7342 14.5598 14.2222C13.5998 13.5822 10.3998 11.6622 7.35983 13.7422C5.60255 14.9446 4.96466 16.2472 4.74597 17.481C5.01542 19.0053 5.8165 20.6505 7.35983 21.4222C8.95982 22.2222 11.8398 22.0622 12.7998 21.7422C13.8098 21.4055 14.2893 21.1638 14.6823 20.9657C14.8044 20.9041 14.9182 20.8305 15.037 20.7538C15.2914 20.5893 15.5687 20.41 15.9998 20.3022C16.4798 20.1822 16.7998 20.3022 16.7998 20.3022C16.7998 20.3022 17.1198 20.1822 17.5998 20.3022C18.031 20.41 18.3082 20.5893 18.5627 20.7538C18.6814 20.8305 18.7952 20.9041 18.9174 20.9657C19.3103 21.1638 19.7898 21.4055 20.7998 21.7422C21.7598 22.0622 24.6398 22.2222 26.2398 21.4222C27.7832 20.6505 28.5842 19.0053 28.8537 17.481Z" fill="#A8D9F1"/>
<ellipse cx="14.3999" cy="8.96" rx="0.8" ry="0.32" fill="black"/>
<ellipse cx="19.1999" cy="8.96" rx="0.8" ry="0.32" fill="black"/>
<ellipse cx="9.91984" cy="15.0933" rx="0.373331" ry="0.373332" fill="#00ACEA"/>
<ellipse cx="8.85319" cy="16.4089" rx="0.373331" ry="0.373332" fill="#00ACEA"/>
<ellipse cx="10.6665" cy="16.4089" rx="0.373331" ry="0.373332" fill="#00ACEA"/>
<ellipse cx="23.3599" cy="15.0933" rx="0.373331" ry="0.373332" fill="#00ACEA"/>
<ellipse cx="22.2933" cy="16.4089" rx="0.373331" ry="0.373332" fill="#00ACEA"/>
<ellipse cx="24.1065" cy="16.4089" rx="0.373331" ry="0.373332" fill="#00ACEA"/>
<ellipse cx="14.5599" cy="11.52" rx="0.96" ry="1.28" fill="black"/>
<circle cx="14.5599" cy="11.2" r="0.32" fill="white"/>
<ellipse cx="19.0398" cy="11.52" rx="0.96" ry="1.28" fill="black"/>
<circle cx="19.0398" cy="11.2" r="0.32" fill="white"/>
</g>
<defs>
<clipPath id="clip0_127_190">
<rect x="0.799927" width="32" height="32" rx="16" fill="white"/>
</clipPath>
</defs>
</svg>
