<svg width="33" height="32" viewBox="0 0 33 32" fill="none" xmlns="http://www.w3.org/2000/svg">
<g clip-path="url(#clip0_127_309)">
<rect x="0.599976" width="32" height="32" rx="16" fill="#FFD1D1"/>
<ellipse cx="16.76" cy="27.84" rx="8.16" ry="5.76" fill="white"/>
<ellipse cx="16.4399" cy="26.08" rx="1.12" ry="0.8" fill="#D9D9D9"/>
<path fill-rule="evenodd" clip-rule="evenodd" d="M13.0937 5.95982C12.9066 5.65721 12.6053 5.32393 12.1201 4.95999C11.5923 4.56415 11.0001 3.67999 12.1201 3.67999C13.165 3.67999 15.881 3.67999 17.7997 5.49895C23.4212 6.0548 27.8 10.4725 27.8 15.84C27.8 21.5838 22.7856 26.24 16.6 26.24C10.4144 26.24 5.40002 21.5838 5.40002 15.84C5.40002 11.2334 8.62547 7.32631 13.0937 5.95982Z" fill="white"/>
<path fill-rule="evenodd" clip-rule="evenodd" d="M20.1691 10.3001C20.0397 10.2712 19.9093 10.2546 19.7998 10.2465C19.7117 10.2399 19.64 10.1684 19.64 10.08C19.64 9.99163 19.7117 9.91985 19.7999 9.9257C19.9284 9.93423 20.0837 9.95315 20.2389 9.98785C20.4095 10.026 20.5976 10.0869 20.7488 10.1866C20.8226 10.2352 20.8225 10.3375 20.76 10.4C20.6975 10.4625 20.5949 10.4624 20.517 10.4207C20.423 10.3705 20.3028 10.33 20.1691 10.3001Z" fill="black"/>
<path fill-rule="evenodd" clip-rule="evenodd" d="M13.144 10.3001C13.2734 10.2712 13.4039 10.2546 13.5133 10.2465C13.6014 10.2399 13.6731 10.1684 13.6731 10.08C13.6731 9.99163 13.6014 9.91985 13.5133 9.9257C13.3847 9.93423 13.2294 9.95315 13.0742 9.98785C12.9036 10.026 12.7155 10.0869 12.5643 10.1866C12.4905 10.2352 12.4906 10.3375 12.5531 10.4C12.6156 10.4625 12.7182 10.4624 12.7961 10.4207C12.8901 10.3705 13.0103 10.33 13.144 10.3001Z" fill="black"/>
<path d="M14.36 19.84H18.84V20.48C18.84 21.7171 17.8371 22.72 16.6 22.72C15.3629 22.72 14.36 21.7171 14.36 20.48V19.84Z" fill="#DD5874"/>
<path fill-rule="evenodd" clip-rule="evenodd" d="M18.6008 21.4881C18.2319 22.2188 17.4745 22.72 16.5999 22.72C15.8144 22.72 15.1232 22.3156 14.7234 21.7037C15.1474 21.161 15.901 20.8 16.7599 20.8C17.4993 20.8 18.1606 21.0675 18.6008 21.4881Z" fill="#EE8DA3"/>
<ellipse cx="11" cy="17.92" rx="2.4" ry="0.64" fill="#F6C1C9"/>
<ellipse cx="22.1999" cy="17.92" rx="2.4" ry="0.64" fill="#F6C1C9"/>
<path d="M24.6 11.2C26.776 11.2 26.8934 11.52 26.68 11.68C26.7334 11.8933 26.744 12.352 26.36 12.48C25.976 12.608 25.88 13.28 25.88 13.6C25.88 14.3467 25.7812 15.4902 25.56 16C25.3388 16.5098 24.92 17.6 22.36 17.76C19.8 17.92 18.52 16.96 18.2 16.32C17.88 15.68 17.88 14.08 17.08 13.6L16.28 13.12V12.48C16.92 12.48 18.04 11.9077 19.48 11.68C20.92 11.4523 22.424 11.2 24.6 11.2Z" fill="#56536E"/>
<path d="M19.4921 16.64C18.3721 16 18.3721 14.4 18.2121 13.44C18.109 12.8214 18.6909 12.5073 19.1721 12.3806C19.2431 12.3619 19.312 12.3473 19.3761 12.3364C20.2782 12.1474 22.1153 11.84 23.6521 11.84C25.7321 11.84 25.4121 13.44 25.4121 14.56C25.4121 15.68 24.6121 16.48 23.6521 16.96C22.6921 17.44 20.6121 17.28 19.4921 16.64Z" fill="#8CD8FE"/>
<path d="M8.19465 11.2C6.01865 11.2 5.90132 11.52 6.11465 11.68C6.06132 11.8933 6.05065 12.352 6.43465 12.48C6.81865 12.608 6.91465 13.28 6.91465 13.6C6.91465 14.3467 7.01345 15.4902 7.23465 16C7.45585 16.5098 7.87465 17.6 10.4346 17.76C12.9946 17.92 14.2746 16.96 14.5946 16.32C14.9146 15.68 14.9146 14.08 15.7146 13.6L16.5146 13.12V12.48C15.8746 12.48 14.7546 11.9077 13.3146 11.68C11.8746 11.4523 10.3706 11.2 8.19465 11.2Z" fill="#56536E"/>
<path d="M13.3026 16.64C14.4226 16 14.4226 14.4 14.5826 13.44C14.6857 12.8214 14.1038 12.5073 13.6226 12.3806C13.5516 12.3619 13.4827 12.3473 13.4186 12.3364C12.5165 12.1474 10.6794 11.84 9.14261 11.84C7.06261 11.84 7.38261 13.44 7.38261 14.56C7.38261 15.68 8.18261 16.48 9.14261 16.96C10.1026 17.44 12.1826 17.28 13.3026 16.64Z" fill="#8CD8FE"/>
<circle cx="13.5898" cy="14.08" r="0.32" fill="white"/>
<path fill-rule="evenodd" clip-rule="evenodd" d="M12.8644 15.3819C13.0415 15.2056 13.1741 15.0147 13.2632 14.8528C13.3271 14.7367 13.4656 14.6735 13.5897 14.72C13.7138 14.7665 13.777 14.9052 13.7163 15.0231C13.6056 15.2378 13.4351 15.4911 13.203 15.7221C12.9283 15.9956 12.5599 16.2449 12.0956 16.3555C11.9666 16.3862 11.8461 16.2915 11.8297 16.16C11.8133 16.0285 11.9073 15.9102 12.0352 15.8755C12.3728 15.7839 12.6484 15.5969 12.8644 15.3819Z" fill="white"/>
<circle cx="24.4698" cy="14.4" r="0.32" fill="white"/>
<path fill-rule="evenodd" clip-rule="evenodd" d="M23.7444 15.7019C23.9215 15.5256 24.0541 15.3347 24.1432 15.1728C24.2071 15.0567 24.3456 14.9935 24.4697 15.04C24.5938 15.0865 24.657 15.2253 24.5963 15.3431C24.4856 15.5579 24.3151 15.8111 24.083 16.0421C23.8083 16.3156 23.4399 16.5649 22.9756 16.6755C22.8466 16.7062 22.7261 16.6115 22.7097 16.48C22.6933 16.3485 22.7873 16.2302 22.9152 16.1955C23.2528 16.1039 23.5284 15.9169 23.7444 15.7019Z" fill="white"/>
<path d="M10.9082 33.2543C10.3118 32.1965 10.1615 28.564 10.1608 26.88C10.17 29.6163 10.977 32.2087 11.3794 33.1629C11.4708 33.6341 11.5045 34.3121 10.9082 33.2543Z" stroke="#D9D9D9" stroke-width="0.32"/>
<path d="M22.6322 33.2543C23.2286 32.1965 23.3789 28.564 23.3796 26.88C23.3704 29.6163 22.5634 32.2087 22.161 33.1629C22.0696 33.6341 22.0359 34.3121 22.6322 33.2543Z" stroke="#D9D9D9" stroke-width="0.32"/>
</g>
<defs>
<clipPath id="clip0_127_309">
<rect x="0.599976" width="32" height="32" rx="16" fill="white"/>
</clipPath>
</defs>
</svg>
