<svg width="103" height="37" xmlns="http://www.w3.org/2000/svg" xmlns:xlink="http://www.w3.org/1999/xlink" xml:space="preserve" overflow="hidden"><defs><linearGradient x1="6.67908" y1="14.5443" x2="45.2516" y2="49.8461" gradientUnits="userSpaceOnUse" spreadMethod="reflect" id="fill0"><stop offset="0" stop-color="#FFB800"/><stop offset="0.5" stop-color="#FFB000"/><stop offset="1" stop-color="#FFA800"/></linearGradient></defs><g transform="translate(-624 -25)"><path d="M16.4365 33.7927C15.5099 33.884 13.7725 34.2935 12.8212 35.1307 9.96741 37.607 11.6765 42.1341 17.442 42.1341 20.7912 42.1341 24.1416 39.9967 26.7697 36.5793 23.0388 34.7574 19.867 33.4529 16.4365 33.7927ZM37.9488 36.9221C43.2842 38.7036 44.4943 38.7967 44.4943 38.7967L44.4943 19.6422C44.4943 18.8643 44.3407 18.094 44.0428 17.3753 43.7449 16.6566 43.3082 16.0037 42.7577 15.4538 42.2078 14.9032 41.5547 14.4664 40.8355 14.1684 40.1163 13.8703 39.3456 13.7169 38.5671 13.7168L13.3634 13.7168C11.7914 13.7168 10.2839 14.3411 9.17235 15.4523 8.06087 16.5635 7.43638 18.0707 7.43638 19.6422L7.43638 44.7509C7.43656 45.5289 7.58999 46.2988 7.88796 47.0177 8.18586 47.7367 8.62249 48.3893 9.17288 48.9395 9.72327 49.4894 10.3766 49.9256 11.0956 50.2233 11.8146 50.5207 12.5852 50.6736 13.3634 50.6736L38.5598 50.6736C39.3378 50.6736 40.1084 50.5207 40.8274 50.2233 41.5461 49.9256 42.1997 49.4894 42.7497 48.9395 43.3001 48.3893 43.7368 47.7362 44.0345 47.0177 44.3321 46.2988 44.4858 45.5286 44.4858 44.7509L44.4858 44.5067C44.4858 44.5067 34.8482 40.5017 29.98 38.1688 26.7157 42.1712 22.504 44.6028 18.1271 44.6028 10.7338 44.6028 8.22257 38.1539 11.722 33.9062 12.486 32.9822 13.786 32.0978 15.8007 31.6026 18.9527 30.8301 23.9716 32.0856 28.6725 33.6318 29.5474 32.0163 30.2466 30.3117 30.7585 28.5474L16.2714 28.5474 16.2714 27.0817 23.735 27.0817 23.735 24.4478 14.7052 24.4478 14.7052 22.9991 23.7534 22.9991 23.7534 19.253C23.7524 19.169 23.7684 19.0858 23.8003 19.0083 23.8324 18.9307 23.8798 18.8604 23.9395 18.8015 23.9996 18.7428 24.0706 18.6967 24.1485 18.6661 24.2269 18.6354 24.3105 18.621 24.3941 18.6235L28.0464 18.6235 28.0464 22.9991 36.9937 22.9991 36.9937 24.4626 28.0464 24.4626 28.0464 27.0963 35.3512 27.0963C34.6931 29.8253 33.6517 32.4476 32.2582 34.8845 34.4764 35.6827 36.4637 36.4403 37.9488 36.9367L37.9488 36.9221Z" fill="url(#fill0)" fill-rule="evenodd" transform="matrix(1 0 0 1.00048 616.583 11.2954)"/><path d="M47.8492 45.0531C47.8492 37.7891 51.3956 31.901 55.7703 31.901L104.911 31.901C107.949 31.901 110.411 35.9897 110.411 41.033 110.411 46.076 107.949 50.165 104.911 50.165L47.8492 50.165 47.8492 45.0531Z" fill="#61350B" fill-rule="evenodd" transform="matrix(1 0 0 1.00048 616.583 11.2954)"/><path d="M102.803 37.3368C102.264 37.9967 101.549 38.5462 100.66 38.9836 99.8406 39.3867 98.9968 39.6301 98.128 39.7134L98.023 39.2962C99.7253 38.5182 101.073 37.441 102.068 36.0651L103.539 36.0651C104.527 37.441 105.875 38.5182 107.584 39.2962L107.479 39.7134C106.603 39.6301 105.756 39.3867 104.936 38.9836 104.061 38.5527 103.35 38.004 102.803 37.3368ZM98.7587 40.4432 98.7587 39.9011 106.848 39.9011 106.848 40.4432 98.7587 40.4432ZM98.9373 44.8208 100.229 42.2673 98.2017 42.2673 98.2017 41.7252 107.405 41.7252 107.405 42.2673 101.7 42.2673 100.408 44.8208 105.094 44.8208 104.232 42.9966 105.703 42.9966 106.911 45.5503 105.44 45.5503 105.356 45.3732 98.9373 45.3732 98.9373 44.8208Z" fill="#FFFFFF" fill-rule="evenodd" transform="matrix(1 0 0 1.00048 616.583 11.2954)"/><path d="M93.782 36.0651 93.782 37.1597 95.9797 37.1597 95.9797 43.7368C95.9797 44.5011 95.6765 45.0329 95.0688 45.3316 94.7696 45.4774 94.4656 45.5503 94.1586 45.5503L93.9702 45.1961C94.3329 44.9461 94.5145 44.4593 94.5145 43.7368L94.5145 37.7117 93.782 37.7117 93.782 38.254C93.782 40.2694 93.6357 41.8291 93.3423 42.9341 93.0358 44.0461 92.5121 44.9181 91.7722 45.5503L91.4379 45.3213C92.0239 43.591 92.3168 41.2351 92.3168 38.254L92.3168 37.7117 91.4066 37.7117 91.4066 37.1597 92.3168 37.1597 92.3168 36.0651 93.782 36.0651ZM87.1784 36.972 87.1784 36.4299 91.2179 36.4299 91.2179 36.972 87.1784 36.972ZM87.0001 44.8208 87.8901 39.9011 86.8225 39.9011 86.8225 39.3489 91.5842 39.3489 91.5842 39.9011 89.3552 39.9011 88.4652 44.8208 89.8365 44.8208 89.3865 41.5375 90.8516 41.5375 91.4066 45.5503 89.9304 45.5503 89.9097 45.3732 87.0001 45.3732 87.0001 44.8208Z" fill="#FFFFFF" fill-rule="evenodd" transform="matrix(1 0 0 1.00048 616.583 11.2954)"/><path d="M77.4574 37.5247 75.9985 37.5247 75.6229 36.0651 77.0825 36.0651 77.4574 37.5247ZM78.1872 36.972 78.1872 36.4299 84.3894 36.4299 84.3894 36.972 78.1872 36.972ZM77.0406 44.5082C77.3882 45.0849 77.9508 45.3732 78.7295 45.3732L84.7539 45.3732 84.7539 44.8208 78.7295 44.8208C77.9788 44.8208 77.5134 44.4699 77.3325 43.7681 77.4157 43.4204 77.4574 43.042 77.4574 42.6319L77.4574 38.254 75.2687 38.254 75.2687 38.7962 75.9985 38.7962 75.9985 42.6319C75.9985 43.848 75.8141 44.7027 75.4458 45.1961L75.6229 45.5503C76.2069 45.5016 76.6794 45.154 77.0406 44.5082ZM77.8226 39.1713 84.7539 39.1713 84.7539 39.7134 80.6258 39.7134 79.4586 43.5493 83.0859 43.5493 82.2625 40.8077 83.7221 40.8077 84.7539 44.2789 83.2943 44.2789 83.2423 44.0915 77.9997 44.0915 77.9997 43.5493 79.167 39.7134 77.8226 39.7134 77.8226 39.1713Z" fill="#FFFFFF" fill-rule="evenodd" transform="matrix(1 0 0 1.00048 616.583 11.2954)"/><path d="M65.5757 36.6075C65.5757 37.2046 65.5444 37.7541 65.4818 38.254L65.7527 38.254 65.7527 36.0651 67.2098 36.0651 67.2098 38.254 67.5847 38.254 67.5847 38.7962 67.2098 38.7962 67.2098 42.2673 67.5847 42.2673 67.5847 42.8195 67.2098 42.8195 67.2098 45.5503 65.7527 45.5503 65.7527 42.8195 64.1186 42.8195 64.1186 42.2673 65.7527 42.2673 65.7527 38.7962 65.3885 38.7962C65.1801 39.8801 64.8751 40.5507 64.4725 40.8077L64.1186 40.6306C64.3544 39.5535 64.4725 38.2124 64.4725 36.6075L65.5757 36.6075ZM70.3112 37.5247C70.235 40.2694 69.7872 42.427 68.9686 43.9971 68.566 44.7895 68.1639 45.3069 67.7613 45.5503L67.4803 45.2796C68.3894 43.5284 68.9232 40.9432 69.0834 37.5247L68.9583 37.5247C68.6462 38.7475 68.2466 39.4773 67.7613 39.7134L67.4803 39.4838C67.7855 38.4205 67.9729 37.2813 68.0421 36.0651L69.2184 36.0651C69.1702 36.4473 69.1245 36.7495 69.0834 36.972L73.2253 36.972 73.2253 43.7368C73.2253 44.5011 72.9549 45.0329 72.4133 45.3316 72.1358 45.4774 71.8621 45.5503 71.5917 45.5503L71.4143 45.1961C71.7753 44.9461 71.9552 44.4593 71.9552 43.7368L71.9552 37.5247 71.7683 37.5247C71.7683 40.2553 71.3863 42.4131 70.6232 43.9971 70.2557 44.7895 69.874 45.3069 69.4785 45.5503L69.2184 45.2796C70.0647 43.5284 70.5054 40.9432 70.54 37.5247L70.3112 37.5247Z" fill="#FFFFFF" fill-rule="evenodd" transform="matrix(1 0 0 1.00048 616.583 11.2954)"/><path d="M59.8775 36.0651 59.8775 37.1597 62.0752 37.1597 62.0752 43.7368C62.0752 44.5011 61.772 45.0329 61.165 45.3316 60.8651 45.4774 60.5611 45.5503 60.2541 45.5503L60.0657 45.1961C60.4284 44.9461 60.6101 44.4593 60.6101 43.7368L60.6101 37.7117 59.8775 37.7117 59.8775 38.254C59.8775 40.2694 59.7312 41.8291 59.4383 42.9341 59.1313 44.0461 58.6076 44.9181 57.8684 45.5503L57.5334 45.3213C58.1194 43.591 58.4123 41.2351 58.4123 38.254L58.4123 37.7117 57.5021 37.7117 57.5021 37.1597 58.4123 37.1597 58.4123 36.0651 59.8775 36.0651ZM53.2739 36.972 53.2739 36.4299 57.3135 36.4299 57.3135 36.972 53.2739 36.972ZM53.0956 44.8208 53.9856 39.9011 52.918 39.9011 52.918 39.3489 57.6797 39.3489 57.6797 39.9011 55.4507 39.9011 54.5607 44.8208 55.932 44.8208 55.482 41.5375 56.9472 41.5375 57.5021 45.5503 56.0259 45.5503 56.0052 45.3732 53.0956 45.3732 53.0956 44.8208Z" fill="#FFFFFF" fill-rule="evenodd" transform="matrix(1 0 0 1.00048 616.583 11.2954)"/><path d="M71.2945 25.1791C72.4259 25.6922 73.7503 26.3166 75.2677 27.0517L74.748 27.8544C73.5455 27.1978 72.2445 26.5736 70.8452 25.9826ZM66.7204 25.1275 67.308 25.8474C66.8102 26.1796 66.0646 26.5855 65.0704 27.0648 64.4528 27.4084 63.9052 27.6889 63.4279 27.9059 63.2886 27.6243 63.1251 27.3617 62.9367 27.118 64.6244 26.3196 65.8854 25.6559 66.7204 25.1275ZM63.0147 24.0607 75.3464 24.0607 75.3464 24.887 69.7484 24.887 69.7484 26.533C69.7827 27.4548 69.2913 27.9157 68.2736 27.9157 68.0014 27.95 67.4296 27.9672 66.5582 27.9672 66.5582 27.7109 66.5242 27.3837 66.4561 26.9856 66.4899 27.0199 66.4899 26.9858 66.4561 26.8832 66.9651 26.952 67.4893 26.9864 68.0289 26.9864 68.5549 26.9858 68.8006 26.7853 68.7663 26.385L68.7663 24.887 63.0147 24.887ZM60.9491 23.074 61.7021 23.6958C60.1895 25.6292 58.1553 27.1011 55.5991 28.1112 55.5047 28.036 55.4376 27.9586 55.3978 27.8789 55.2653 27.6798 55.1563 27.4863 55.0713 27.2989 57.4971 26.418 59.4562 25.0097 60.9491 23.074ZM64.3232 22.3328 74.0868 22.3328 74.0868 23.1591 64.3232 23.1591ZM52.3754 20.6777 53.3067 20.6777 53.3067 21.7045 55.9772 21.7045 55.9772 22.5831 53.3067 22.5831 53.3067 23.8095 53.4238 23.4495C53.6213 23.575 53.8221 23.7228 54.0262 23.8929 54.8526 24.4438 55.5547 24.9473 56.1318 25.4031L55.5312 26.1256C54.5943 25.384 53.8529 24.785 53.3067 24.329L53.3067 28.1276 52.3754 28.1276 52.3754 23.5584C51.9475 24.8216 51.0752 25.9682 49.7581 26.9985 49.6718 26.8885 49.5835 26.7881 49.493 26.6975 49.3898 26.5951 49.2894 26.475 49.1918 26.3375 50.4713 25.305 51.5154 24.0536 52.3247 22.5831L49.551 22.5831 49.551 21.7045 52.3754 21.7045ZM60.548 19.6861 61.2405 20.3153C60.0341 21.6946 58.5546 22.8387 56.8021 23.7473 56.6931 23.569 56.5097 23.3249 56.2522 23.0151 57.9878 22.1206 59.4196 21.011 60.548 19.6861ZM71.2675 19.3368 71.2675 20.6573 73.4804 20.6573 73.4804 19.3368ZM68.0723 19.3368 68.0723 20.6573 70.2852 20.6573 70.2852 19.3368ZM64.9296 19.3368 64.9296 20.6573 67.0903 20.6573 67.0903 19.3368ZM50.3204 18.1972C50.9549 19.3147 51.3595 20.0982 51.5341 20.5477L50.6789 20.8724C50.1948 19.8269 49.8103 19.0633 49.5248 18.5816ZM55.4003 17.838 56.2073 18.2724C56.0216 18.7229 55.7204 19.2782 55.3037 19.9381 55.1034 20.3058 54.9066 20.6172 54.7136 20.8724L53.9419 20.4707C54.4944 19.6558 54.9808 18.7783 55.4003 17.838ZM52.8141 17.6326C53.0562 18.2822 53.3314 19.0914 53.6397 20.06L52.7616 20.2564C52.4927 19.4344 52.2182 18.6635 51.9384 17.9435ZM68.0723 17.3995 68.0723 18.5105 70.2852 18.5105 70.2852 17.3995ZM63.0326 16.5208 75.4274 16.5208 75.4274 17.3995 71.2675 17.3995 71.2675 18.5105 74.4625 18.5105 74.4625 21.5359 63.9475 21.5359 63.9475 18.5105 67.0903 18.5105 67.0903 17.3995 63.0326 17.3995ZM60.2395 16.2975 60.9319 16.8702C59.7975 18.1814 58.3697 19.2932 56.6482 20.2056 56.5703 20.0895 56.4853 19.9697 56.3929 19.8465 56.2948 19.7483 56.1967 19.6237 56.0983 19.4726 57.7014 18.6447 59.0818 17.5863 60.2395 16.2975ZM56.0254 16.2459 56.2073 17.1614C53.6526 17.3763 51.4253 17.5181 49.5248 17.5868 49.5248 17.3048 49.4736 17.0141 49.3711 16.7147 51.279 16.6782 53.4972 16.5219 56.0254 16.2459Z" fill="#60340A" fill-rule="evenodd" transform="matrix(1 0 0 1.00048 616.583 11.2954)"/><path d="M101.175 23.9047 101.175 24.9645 106.587 24.9645 106.587 23.9047ZM83.432 22.2109 84.3697 22.5164C84.3255 22.7015 84.2519 22.8973 84.1484 23.1036 83.8079 23.9565 83.4585 24.7059 83.1003 25.3519L82.257 25.021C82.7073 24.191 83.099 23.2543 83.432 22.2109ZM101.175 22.0176 101.175 23.0774 106.587 23.0774 106.587 22.0176ZM84.9454 21.4926 85.9282 21.4926 85.9282 24.6575 86.3217 24.1579C86.6252 23.6717 86.8833 23.1425 87.0959 22.5704L87.9672 23.0013C86.9473 25.4004 85.2476 27.1092 82.8677 28.1276 82.6823 27.8758 82.5128 27.6246 82.3591 27.3741 83.513 26.917 84.4847 26.2883 85.2741 25.4876L85.7049 24.9407 84.9454 24.9407ZM90.8678 20.6187 91.8504 20.6187 91.8504 21.649C91.8504 23.3837 91.6622 24.5817 91.2855 25.2429L91.5181 24.8318C92.6077 25.5858 93.7118 26.3918 94.8306 27.2497L94.2287 27.9737C93.3655 27.2681 92.335 26.4801 91.1372 25.609 90.7265 26.5121 89.5631 27.3516 87.6461 28.1276 87.5217 28.0227 87.3878 27.8627 87.244 27.6475 87.1819 27.5547 87.1222 27.4475 87.0646 27.3256 88.7654 26.7132 89.8146 26.058 90.2127 25.36 90.6839 24.7556 90.9021 23.5186 90.8678 21.649ZM96.0824 20.2477 98.5548 20.2477 98.5548 25.578C99.1325 26.4445 100.142 26.8779 101.584 26.8779 104.445 26.8779 106.776 26.8431 108.575 26.7737 108.575 26.9785 108.538 27.1364 108.465 27.248 108.433 27.4346 108.387 27.6211 108.325 27.8072 106.331 27.8072 104.889 27.8072 103.999 27.8072 102.931 27.8072 102.09 27.7903 101.478 27.7565 99.8134 27.8249 98.6512 27.3279 97.9905 26.2659 97.6172 26.5454 97.1404 27.0936 96.5599 27.9107L95.9277 27.198C96.0778 27.0217 96.2721 26.7972 96.5107 26.5247 97.0082 26.0267 97.3619 25.6726 97.572 25.4624L97.572 21.1781 96.0824 21.1781ZM101.175 20.1306 101.175 21.1904 106.587 21.1904 106.587 20.1306ZM87.9443 16.4728 94.8263 16.4728 94.8263 17.3 91.7941 17.3 91.3615 18.9364 94.2613 18.9364 94.2613 25.5214 93.2787 25.5214 93.2787 19.8161 89.4919 19.8161 89.4919 25.5214 88.5094 25.5214 88.5094 18.9364 90.4445 18.9364 90.7876 17.3 87.9443 17.3ZM97.1994 16.0436C97.4719 16.3526 97.7784 16.7288 98.1192 17.1722 98.5117 17.6363 98.7957 18.015 98.9716 18.3082L98.1527 18.825C97.8122 18.3554 97.3745 17.7704 96.8399 17.0698 96.6974 16.8924 96.5839 16.719 96.4994 16.5498ZM85.3646 15.7791 86.3474 15.7791 86.3474 17.7832 88.0941 17.7832 88.0941 18.6104 86.3474 18.6104 86.3474 20.3517 88.2997 20.3517 88.2997 21.2313 82.1881 21.2313 82.1881 20.3517 83.2158 20.3517 83.2158 16.9085 84.1984 16.9085 84.1984 20.3517 85.3646 20.3517ZM101.893 15.6152C102.021 15.7916 102.182 15.9767 102.377 16.1705 102.482 16.2404 102.752 16.5667 103.187 17.1493L102.724 17.3639 104.683 17.3639 105.859 15.6152 106.693 16.1198 105.611 17.3639 108.495 17.3639 108.495 18.1911 104.181 18.1911 103.858 19.3034 107.57 19.3034 107.57 25.8441 100.193 25.8441 100.193 19.3034 102.894 19.3034 103.183 18.1911 99.576 18.1911 99.576 17.3639 102.306 17.3639C101.925 16.9969 101.547 16.5869 101.172 16.1337Z" fill="#60340A" fill-rule="evenodd" transform="matrix(1 0 0 1.00048 616.583 11.2954)"/><path d="M77.7482 22.9183C77.7482 22.3401 78.2225 21.8714 78.8077 21.8714 79.393 21.8714 79.8672 22.3401 79.8672 22.9183 79.8672 23.4965 79.393 23.9652 78.8077 23.9652 78.2225 23.9652 77.7482 23.4965 77.7482 22.9183Z" fill="#60340A" fill-rule="evenodd" transform="matrix(1 0 0 1.00048 616.583 11.2954)"/></g></svg>