<svg width="665" height="656" xmlns="http://www.w3.org/2000/svg" xmlns:xlink="http://www.w3.org/1999/xlink" xml:space="preserve" overflow="hidden"><defs><clipPath id="clip0"><rect x="2135" y="326" width="665" height="656"/></clipPath></defs><g clip-path="url(#clip0)" transform="translate(-2135 -326)"><path d="M2316.98 690.181 2208 856.618 2332.36 857.142 2377.78 971 2490.62 792.622M2490.61 792.613 2609.22 970.989 2654.64 857.134 2779 856.607 2664.91 689" fill="#FEDA93" fill-rule="evenodd"/><path d="M2378.21 982C2373.57 982.002 2369.41 979.183 2367.69 974.887L2325.08 868.353 2208.27 867.864C2202.02 867.839 2196.97 862.757 2197 856.514 2197.01 854.328 2197.65 852.19 2198.85 850.362L2307.9 684.282C2311.42 679.115 2318.46 677.77 2323.63 681.279 2328.69 684.707 2330.11 691.523 2326.84 696.679L2229.23 845.343 2332.81 845.775C2337.42 845.795 2341.56 848.609 2343.27 852.888L2380.5 945.953 2481.33 787.003C2484.47 781.607 2491.4 779.78 2496.81 782.921 2498.37 783.827 2499.69 785.092 2500.66 786.61L2607.27 946.513 2644.73 852.886C2646.44 848.605 2650.58 845.79 2655.19 845.772L2758.32 845.34 2656.15 695.673C2652.63 690.513 2653.97 683.481 2659.13 679.963 2664.3 676.448 2671.34 677.78 2674.87 682.939L2789.03 850.187C2792.55 855.345 2791.22 862.378 2786.05 865.895 2784.19 867.165 2781.98 867.849 2779.72 867.858L2662.92 868.347 2620.31 974.878C2617.99 980.676 2611.4 983.498 2605.59 981.182 2603.46 980.332 2601.64 978.857 2600.37 976.95L2491.35 813.447 2387.77 976.741C2385.69 980.015 2382.09 981.999 2378.21 982Z" fill="#6E6E96" fill-rule="evenodd"/><path d="M2286 710.5C2286 710.5 2325.98 814.39 2459.01 827L2479.6 799.679 2506.86 827C2506.86 827 2619.13 818.768 2681 717.597L2661.55 689 2301.11 695.36 2286 710.5Z" fill="#6E6E96" fill-rule="evenodd" fill-opacity="0.14902"/><path d="M2489.99 786C2366.28 786 2266 685.717 2266 562.001 2266 438.29 2366.28 338 2489.99 338 2613.72 338 2714 438.29 2714 562.001 2713.99 685.717 2613.71 786 2489.99 786Z" fill="#FFE587" fill-rule="evenodd"/><path d="M2486.49 753C2387.36 753 2307 672.634 2307 573.499 2307 474.363 2387.36 394 2486.49 394 2585.64 394 2666 474.363 2666 573.499 2666 672.643 2585.64 753 2486.49 753Z" fill="#FFFFFF" fill-rule="evenodd" fill-opacity="0.639216"/><path d="M2487.99 738C2388.58 738 2308 657.635 2308 558.496 2308 459.364 2388.58 379 2487.99 379 2587.41 379 2668 459.364 2668 558.496 2668 657.635 2587.4 738 2487.99 738Z" fill="#EDCD8C" fill-rule="evenodd"/><path d="M2486.99 344C2363.28 344 2263 444.29 2263 568.001 2263 691.721 2363.28 792 2486.99 792 2610.72 792 2711 691.721 2711 568.001 2711 444.287 2610.72 344 2486.99 344ZM2485.49 764.805C2370.96 764.805 2278.11 671.953 2278.11 557.42 2278.11 442.887 2370.96 350.04 2485.49 350.04 2600.03 350.04 2692.87 442.883 2692.87 557.42 2692.87 671.965 2600.02 764.805 2485.49 764.805Z" fill="#C29379" fill-rule="evenodd" fill-opacity="0.388235"/><path d="M2275.05 580.189C2275.05 461.136 2371.41 360.661 2490.28 360.661 2578.06 360.661 2653.51 417.281 2687 492.742 2661.11 402.8 2578.37 337 2480.22 337 2361.36 337 2265 433.508 2265 552.562 2264.98 582.686 2271.28 612.477 2283.51 640 2277.9 620.56 2275.05 600.425 2275.05 580.189Z" fill="#FFFFFF" fill-rule="evenodd" fill-opacity="0.709804"/><path d="M2487.9 376C2388.55 376 2308 456.481 2308 555.767 2308 570.317 2309.74 584.457 2313.01 598 2312.47 592.318 2312.19 586.613 2312.19 580.904 2312.19 481.62 2392.74 401.141 2492.09 401.141 2576.94 401.141 2648.02 459.831 2667 538.787 2658.44 447.468 2581.54 376 2487.9 376Z" fill="#D4AC88" fill-rule="evenodd" fill-opacity="0.611765"/><path d="M2483.49 797C2353.64 797 2248 691.358 2248 561.501 2248 431.646 2353.64 326 2483.49 326 2613.35 326 2719 431.646 2719 561.501 2719 691.358 2613.34 797 2483.49 797ZM2483.49 348.661C2366.14 348.661 2270.66 444.14 2270.66 561.501 2270.66 678.86 2366.14 774.34 2483.49 774.34 2600.85 774.34 2696.34 678.86 2696.34 561.501 2696.34 444.14 2600.85 348.661 2483.49 348.661Z" fill="#6E6E96" fill-rule="evenodd"/><path d="M2778.9 641 2800 662.105 2780.1 682 2759 660.895Z" fill="#80BBFF" fill-rule="evenodd"/><path d="M2170.13 669 2190 689.228 2154.88 725 2135 704.769Z" fill="#FF8080" fill-rule="evenodd"/><path d="M2720.08 904 2757 949.933 2734.92 968 2698 922.067Z" fill="#FFE380" fill-rule="evenodd"/><path d="M2246.82 907 2267 927.177 2234.18 960 2214 939.821Z" fill="#BFFFD4" fill-rule="evenodd"/><path d="M2604 532.295 2528.26 532.295 2490.92 451 2455.73 532.295 2380 532.295 2442.93 588.992 2424.8 666 2490.92 620.005 2562.39 663.864 2541.06 581.502Z" fill="#FFD28F" fill-rule="evenodd"/><path d="M2398 537.315 2487.74 571 2594 532.471 2530.06 532.471 2487.67 451 2454.18 537.315Z" fill="#FFFFFF" fill-rule="evenodd" fill-opacity="0.568627"/><path d="M2605 527.917 2529.26 527.917 2491.92 447 2456.73 527.917 2381 527.917 2443.93 584.35 2425.8 661 2491.92 615.219 2563.39 658.875 2542.06 576.895Z" stroke="#6E6E96" stroke-width="10.3125" stroke-miterlimit="8" fill="none" fill-rule="evenodd"/></g></svg>