<svg width="770" height="722" xmlns="http://www.w3.org/2000/svg" xmlns:xlink="http://www.w3.org/1999/xlink" xml:space="preserve" overflow="hidden"><defs><clipPath id="clip0"><rect x="1938" y="516" width="770" height="722"/></clipPath><linearGradient x1="2708" y1="877" x2="1938" y2="877" gradientUnits="userSpaceOnUse" spreadMethod="reflect" id="fill1"><stop offset="0" stop-color="#FF9900" stop-opacity="0.4"/><stop offset="0.5" stop-color="#FFA800" stop-opacity="0.4"/><stop offset="1" stop-color="#FFB800" stop-opacity="0.4"/></linearGradient></defs><g clip-path="url(#clip0)" transform="translate(-1938 -516)"><path d="M2491.51 529.371C2448.24 522.055 2391.68 516.009 2323 516.009 2266.56 515.77 2210.19 520.24 2154.49 529.371 2110.63 536.764 2088.73 540.461 2070.44 563.025 2052.11 585.551 2053.08 609.964 2055.04 658.713 2061.66 826.137 2097.78 1035.3 2294.12 1053.79L2294.12 1112.85 2239.07 1112.85C2230.17 1112.86 2221.55 1115.95 2214.67 1121.59 2207.8 1127.24 2203.08 1135.09 2201.34 1143.81L2194.03 1180.24 2092 1180.24C2084.34 1180.24 2077 1183.29 2071.58 1188.7 2066.17 1194.12 2063.12 1201.46 2063.12 1209.12 2063.12 1216.78 2066.17 1224.13 2071.58 1229.54 2077 1234.96 2084.34 1238 2092 1238L2554 1238C2561.66 1238 2569 1234.96 2574.42 1229.54 2579.83 1224.13 2582.88 1216.78 2582.88 1209.12 2582.88 1201.46 2579.83 1194.12 2574.42 1188.7 2569 1183.29 2561.66 1180.24 2554 1180.24L2451.98 1180.24 2444.66 1143.81C2442.92 1135.09 2438.2 1127.24 2431.33 1121.59 2424.45 1115.95 2415.83 1112.86 2406.93 1112.85L2351.88 1112.85 2351.88 1053.79C2548.26 1035.3 2584.38 826.175 2591 658.713 2591 658.616 2591.01 658.519 2591.01 658.421 2592.93 609.867 2593.89 585.544 2575.6 563.025 2557.27 540.461 2535.37 536.764 2491.51 529.371ZM2708 756.095 2708 753.284C2708 713.122 2708 693.022 2697.1 677.889 2688.33 665.721 2674.24 659.213 2649.17 650.511L2649.1 652.513C2648.97 655.35 2648.84 658.187 2648.71 661.023 2646.13 726.407 2639.09 802.879 2618.06 874.039L2648.59 857.096 2648.98 856.884C2677.67 840.892 2692.1 832.856 2700.03 819.36 2708 805.806 2708 789.209 2708 756.095ZM1938 756.095 1938 753.284C1938 713.16 1938 693.022 1948.9 677.889 1957.67 665.721 1971.76 659.213 1996.87 650.511 1996.88 651.178 1996.89 651.846 1996.91 652.513 1997.03 655.35 1997.16 658.187 1997.29 661.023 1999.87 726.407 2006.92 802.879 2027.97 874.039L1997.41 857.096 1997.02 856.884C1968.33 840.892 1953.9 832.856 1945.97 819.36 1938 805.806 1938 789.209 1938 756.095Z" fill="url(#fill1)" fill-rule="evenodd"/><path d="M2456.17 868.37 2455.96 868.781 2456.17 868.575ZM2156.31 868.37 2155.69 868.575 2155.69 870.014C2156.38 870.699 2157.13 870.699 2157.94 870.014L2157.53 869.192 2156.51 868.575ZM2477.02 868.164 2474.97 869.397 2475.18 869.397C2475.86 869.671 2476.74 869.808 2477.83 869.808 2478.92 869.808 2479.81 869.671 2480.49 869.397L2477.02 868.37ZM2171.03 867.548C2169.8 867.822 2169.05 868.164 2168.78 868.575 2169.73 869.123 2170.82 869.055 2172.05 868.37L2171.23 867.753ZM2207.82 867.137 2206.59 867.342C2206.18 868.164 2206.25 868.849 2206.8 869.397L2208.23 867.959 2208.02 867.342ZM2244.81 866.109 2244.41 866.315 2244.81 866.521 2245.02 866.315ZM2297.96 865.082 2296.73 865.288C2297.28 865.836 2297.82 865.973 2298.37 865.698L2298.16 865.288ZM2372.16 863.644 2371.34 864.671 2371.54 865.082 2372.16 864.877 2372.36 863.849ZM2247.47 862.822 2246.45 863.027 2247.27 864.671 2247.68 863.027ZM2478.04 861.589 2477.83 862.205 2478.24 862.822 2480.9 862.411 2481.1 861.795 2480.9 861.589ZM2311.65 860.151 2311.45 860.562 2312.27 861.589 2313.29 861.384 2313.08 860.356 2311.86 860.356ZM2377.88 857.274 2377.47 857.685 2377.68 858.507 2378.49 858.096 2378.08 857.685ZM2400.77 854.397 2400.57 854.603 2400.77 855.014 2401.18 854.603ZM2305.52 852.342 2304.5 852.753 2305.32 852.959 2305.73 852.548ZM2287.23 852.24C2287.3 852.171 2286.99 852.274 2286.31 852.548L2286.72 852.959 2287.74 853.781 2288.15 852.342C2287.47 852.342 2287.16 852.308 2287.23 852.24ZM2398.53 851.11 2398.12 851.315 2398.93 852.137 2399.14 851.931 2398.73 851.315ZM2315.74 848.438 2315.13 848.849 2315.74 849.055 2315.95 848.849ZM2172.66 848.438C2172.12 848.438 2171.81 848.472 2171.74 848.541 2171.67 848.61 2171.6 848.746 2171.54 848.952 2171.47 849.157 2171.03 849.397 2170.21 849.671L2170.41 849.877 2172.46 849.877C2173 849.877 2173.44 849.842 2173.78 849.774 2174.13 849.705 2174.43 849.603 2174.7 849.466L2176.34 848.438ZM2483.56 848.233 2480.7 857.068 2481.1 857.685 2483.76 848.438ZM2313.08 848.233 2312.47 848.438 2313.08 848.849 2313.29 848.438ZM2378.29 848.027 2377.68 848.233 2377.88 849.055 2378.49 848.233ZM2304.7 847.411 2304.09 847.822 2304.5 849.055C2304.64 848.918 2304.84 848.438 2305.11 847.616ZM2455.76 847.205 2455.55 847.411 2455.76 847.616ZM2467 846.384C2466.73 846.931 2466.25 847.411 2465.57 847.822 2464.89 848.233 2464.68 848.712 2464.96 849.26L2467.82 848.438 2467.2 846.589ZM2379.92 846.178 2379.52 846.589 2379.92 847 2380.13 846.384ZM2385.03 844.945 2384.83 845.151 2385.03 845.356 2385.24 845.151ZM2313.9 844.74 2312.88 844.945 2313.29 845.561 2313.9 845.151 2314.11 844.945ZM2300.41 844.74 2300.21 845.151 2300.41 845.561 2300.62 845.151ZM2286.92 842.479C2286.24 842.342 2285.49 842.411 2284.67 842.685L2284.88 843.918 2286.72 843.507ZM2247.27 841.863C2246.45 842.685 2246.31 843.575 2246.86 844.534L2247.47 844.329 2247.88 842.479ZM2235.82 836.726C2235.28 837.548 2235.21 838.37 2235.62 839.192 2235.75 838.918 2235.89 838.61 2236.03 838.267 2236.16 837.925 2236.37 837.479 2236.64 836.931ZM2298.37 835.287C2297.96 836.246 2297.96 837.137 2298.37 837.959 2298.5 837.548 2298.57 836.726 2298.57 835.493ZM2412.42 831.589C2412.02 832.548 2412.15 833.507 2412.83 834.466L2413.45 833.849 2413.24 832ZM2302.86 829.74 2301.84 830.356 2302.86 830.562 2303.07 829.945ZM2211.09 826.247 2212.31 826.247C2212.59 826.247 2212.79 826.315 2212.93 826.452 2213.06 826.589 2213.23 826.795 2213.44 827.068 2213.64 827.342 2214.09 827.753 2214.77 828.301 2214.9 829.123 2215.04 829.842 2215.18 830.459 2215.31 831.075 2215.52 831.658 2215.79 832.205 2215.93 832.753 2216.03 833.678 2216.1 834.979 2216.16 836.281 2216.13 837.959 2215.99 840.014 2215.86 842.068 2215.69 844.603 2215.48 847.616 2215.28 850.63 2214.9 854.123 2214.36 858.096 2214.09 860.836 2214.02 862.788 2214.15 863.952 2214.29 865.116 2214.32 866.075 2214.26 866.829 2214.19 867.582 2213.85 868.438 2213.23 869.397 2212.62 870.356 2211.29 871.931 2209.25 874.123L2207 874.534 2206.8 874.329C2197.39 874.603 2188.02 874.808 2178.69 874.945 2169.36 875.082 2159.99 875.151 2150.58 875.151L2149.97 874.329 2148.54 873.918C2147.86 873.096 2147.25 872 2146.7 870.63 2146.16 869.26 2145.75 867.822 2145.47 866.315 2145.2 864.808 2145.1 863.37 2145.17 862 2145.24 860.63 2145.54 859.603 2146.09 858.918L2146.29 857.89C2146.56 857.068 2146.8 856.144 2147.01 855.116 2147.21 854.089 2147.38 853.164 2147.52 852.342L2147.93 850.904C2151.06 849.945 2153.07 849.26 2153.96 848.849 2154.84 848.438 2155.49 848.096 2155.9 847.822 2156.31 847.548 2156.85 847.137 2157.53 846.589 2158.22 846.041 2159.92 845.151 2162.64 843.918 2163.73 843.37 2164.96 842.856 2166.32 842.377 2167.69 841.897 2169.25 841.521 2171.03 841.247 2174.3 840.698 2178.52 839.466 2183.7 837.548 2188.6 835.904 2193.99 833.644 2199.85 830.767 2201.89 829.808 2204.17 828.883 2206.69 827.993 2209.21 827.103 2210.61 826.589 2210.88 826.452ZM2295.92 824.192 2294.69 825.219 2295.92 825.63 2296.12 824.808ZM2296.12 823.781 2295.92 823.986 2296.12 824.603 2296.32 823.986ZM2296.32 823.37 2296.12 823.575 2296.32 823.781 2296.53 823.575ZM2171.23 820.699 2169.8 822.343 2170 822.548C2170.55 822.685 2171.43 822.616 2172.66 822.343 2171.98 822.069 2171.77 821.589 2172.05 820.904ZM2394.03 816.794 2393.82 817 2394.44 817.411 2394.64 817.206ZM2471.09 812.479C2470.82 812.479 2470.61 813.13 2470.47 814.431 2470.34 815.733 2470.17 817.171 2469.96 818.747 2469.76 820.322 2469.56 821.794 2469.35 823.164 2469.15 824.534 2468.98 825.219 2468.84 825.219L2469.86 826.452 2471.29 825.219ZM2482.33 810.63C2481.92 811.452 2481.92 812 2482.33 812.274L2482.94 811.657 2482.53 811.041ZM2391.78 805.082 2391.58 805.288 2391.78 805.904 2391.98 806.726 2392.19 805.904 2391.98 805.493 2391.78 805.904 2391.98 805.288ZM2296.94 804.877 2296.53 805.288 2296.94 805.904 2297.14 805.082ZM2362.55 802.411 2361.53 802.616 2362.55 802.822 2362.75 802.616ZM2296.53 802.411 2296.32 802.616 2296.53 803.027 2296.94 802.822ZM2238.07 798.507C2237.39 799.603 2237.39 800.493 2238.07 801.178L2238.68 799.945 2238.27 798.918ZM2508.7 796.041 2508.49 796.658 2508.49 796.863 2508.9 796.452ZM2307.36 794.397 2307.16 794.603 2305.32 795.836 2306.34 796.041 2307.16 795.014 2307.36 794.808 2307.77 794.603ZM2501.95 794.192 2501.54 795.014 2501.95 795.836 2502.16 795.219 2501.95 794.397ZM2428.78 791.932 2426.12 795.63C2426.39 796.041 2427.14 796.384 2428.37 796.658ZM2210.27 791.315 2209.86 791.726 2210.27 791.932 2210.68 791.726ZM2250.33 791.109 2249.92 791.521 2250.13 792.753 2250.54 792.548 2250.95 791.315ZM2295.51 790.904C2294.96 791.589 2294.89 792.274 2295.3 792.959L2296.32 791.315ZM2211.91 790.904 2210.68 791.315 2211.7 791.726 2212.11 791.109ZM2377.27 789.055 2376.65 789.26 2376.86 789.671 2377.47 789.26ZM2238.27 788.849 2237.66 789.055 2238.07 789.671 2238.48 789.055ZM2522.19 787.411 2521.78 788.233 2522.19 788.849 2523.62 788.233ZM2499.3 786.795 2498.68 787.411 2499.3 788.027 2500.11 787.205ZM2231.32 786.589 2230.3 788.644 2231.32 789.466C2231.46 789.055 2231.53 788.233 2231.53 787ZM2307.97 786.384 2307.77 786.589 2307.97 787 2308.18 786.589ZM2429.8 784.329 2429.59 786.178 2429.8 784.945 2430 786.178ZM2371.14 784.123 2370.73 784.534 2370.93 784.74 2371.34 784.329ZM2522.5 782.788C2521.88 782.856 2521.44 783.027 2521.17 783.302L2521.37 783.712 2521.98 784.329 2523.82 782.89C2523.55 782.753 2523.11 782.719 2522.5 782.788ZM2291.62 782.479 2291.01 782.89 2291.21 783.712C2291.9 784.123 2292.58 784.055 2293.26 783.507L2292.64 782.685ZM2509.52 782.274 2509.52 782.479 2509.72 783.096 2509.72 782.479ZM2309 782.274 2308.59 782.685 2309 783.918 2309.61 783.712 2309.2 782.479ZM2232.96 782.068 2232.55 782.274 2232.96 782.685 2233.16 782.479ZM2233.57 780.835 2232.96 781.452 2233.16 782.274 2233.98 781.452 2233.78 781.041ZM2513.2 780.219 2512.58 780.425 2512.99 781.247 2513.6 781.452 2514.22 780.63 2513.4 780.425ZM2502.57 780.219 2502.77 781.658 2503.38 781.041ZM2391.37 778.575C2390.55 779.397 2390.49 780.082 2391.17 780.63 2391.71 780.493 2391.92 779.877 2391.78 778.781ZM2159.17 778.575 2158.15 779.192 2158.76 779.603 2159.58 778.781ZM2382.38 777.342 2381.36 777.959 2381.56 778.781 2383.2 777.753 2382.99 777.548ZM2254.22 777.342 2255.03 778.781 2255.85 777.342ZM2155.69 777.342 2155.29 777.753 2155.69 777.959 2155.9 777.753ZM2385.24 776.932 2385.03 777.137 2385.24 777.342 2385.44 777.137ZM2386.26 776.315 2385.85 776.726 2386.26 776.932 2386.47 776.726ZM2243.18 774.671 2242.36 775.288 2242.77 775.493 2243.38 775.082ZM2393.01 774.055 2392.19 774.466 2391.98 775.288 2392.8 775.493 2393.21 774.26ZM2517.49 771.794 2513.2 772.205 2510.74 773.849 2515.03 773.644 2522.6 774.055ZM2156.92 770.767C2155.83 770.767 2154.6 770.904 2153.24 771.178L2153.45 771.384 2156.92 771.178 2157.13 770.973ZM2237.05 769.123 2236.84 769.329 2237.05 770.151 2237.25 769.329ZM2376.25 768.301 2375.84 768.712 2376.04 768.918 2376.45 768.507ZM2239.09 768.096 2238.48 768.507 2238.68 768.712 2239.7 768.507 2239.3 768.301ZM2387.69 767.479 2386.87 767.685 2387.69 767.891 2387.9 767.685ZM2380.54 764.397C2382.58 764.397 2384.11 764.432 2385.14 764.5 2386.16 764.568 2386.94 764.671 2387.49 764.808 2388.03 764.945 2388.58 765.014 2389.12 765.014L2391.58 765.014C2393.62 764.877 2395.02 764.74 2395.77 764.603 2396.52 764.466 2397.16 764.397 2397.71 764.397 2398.25 764.397 2399 764.5 2399.96 764.706 2400.91 764.911 2402.61 765.356 2405.07 766.041 2406.29 767.274 2406.91 768.233 2406.91 768.918 2406.91 769.603 2406.57 771.178 2405.88 773.644 2405.61 774.329 2405.37 775.527 2405.17 777.24 2404.96 778.952 2404.69 780.973 2404.35 783.302 2404.01 785.63 2403.7 788.164 2403.43 790.904 2403.16 793.644 2402.89 796.315 2402.61 798.918 2401.93 805.356 2401.25 812.274 2400.57 819.671L2400.77 819.877C2401.46 819.603 2402.55 819.226 2404.04 818.747 2405.54 818.267 2407.11 817.788 2408.75 817.308 2410.38 816.829 2411.95 816.418 2413.45 816.075 2414.95 815.733 2416.04 815.493 2416.72 815.356 2417.67 815.904 2418.28 816.658 2418.56 817.616 2418.83 818.164 2418.97 820.151 2418.97 823.575 2418.97 827 2418.86 830.733 2418.66 834.774 2418.45 838.815 2418.25 842.479 2418.05 845.767 2417.84 849.055 2417.74 850.904 2417.74 851.315 2417.47 852.685 2417.4 853.678 2417.53 854.294 2417.67 854.911 2417.77 855.425 2417.84 855.835 2417.91 856.247 2417.88 856.692 2417.74 857.171 2417.6 857.651 2417.13 858.507 2416.31 859.74 2413.99 860.972 2410.96 862.308 2407.21 863.747 2403.46 865.185 2399.82 866.452 2396.28 867.548 2394.1 868.233 2392.63 868.678 2391.88 868.884 2391.13 869.089 2390.55 869.26 2390.14 869.397 2389.74 869.534 2389.16 869.774 2388.41 870.117 2387.66 870.459 2386.26 871.041 2384.22 871.863L2374.2 874.123C2373.52 874.397 2372.94 874.637 2372.46 874.842 2371.99 875.048 2371.34 875.219 2370.52 875.356 2369.84 875.356 2368.89 875.39 2367.66 875.459 2366.43 875.527 2365.55 875.288 2365 874.74 2364.46 874.329 2364.08 873.472 2363.88 872.171 2363.67 870.87 2363.57 869.397 2363.57 867.753 2363.57 866.109 2363.64 864.431 2363.78 862.719 2363.91 861.007 2364.05 859.466 2364.19 858.096 2365.14 847.411 2365.96 839.089 2366.64 833.13 2367.32 827.171 2367.8 822.582 2368.07 819.363 2368.34 816.144 2368.55 813.781 2368.68 812.274 2368.82 810.767 2368.89 809.123 2368.89 807.343 2367.12 807.753 2365.24 807.959 2363.27 807.959 2361.29 807.959 2359.48 807.822 2357.85 807.548 2356.9 806.315 2356.49 805.63 2356.62 805.493 2356.35 804.808 2356.15 803.301 2356.01 800.973 2355.87 798.644 2355.94 796.726 2356.21 795.219 2356.21 794.534 2356.52 792.753 2357.13 789.877 2357.75 787 2358.36 783.952 2358.97 780.733 2359.59 777.514 2360.2 774.569 2360.81 771.897 2361.43 769.226 2361.73 767.753 2361.73 767.479 2362.28 767.342 2363.1 767 2364.19 766.452 2364.87 766.178 2366.37 765.973 2368.68 765.836L2370.52 765.836C2371.75 765.699 2373.08 765.527 2374.51 765.322 2375.94 765.116 2377.27 764.945 2378.49 764.808L2380.33 764.603ZM2161.83 760.699 2162.03 761.521 2164.28 761.521 2164.69 760.904 2163.67 760.699ZM2172.05 751.041 2171.23 751.863 2172.05 752.068 2172.25 751.452ZM2282.63 749.397C2281.68 749.26 2280.72 749.397 2279.77 749.808L2279.97 750.014 2282.63 749.808 2282.83 749.603ZM2231.94 744.26 2231.12 744.466 2230.3 745.699C2230.98 746.11 2231.66 746.11 2232.35 745.699L2232.14 744.466ZM2315.33 743.849 2314.72 744.055 2314.11 744.466 2315.33 744.877 2315.54 744.055ZM2278.54 743.644 2278.13 743.849 2278.54 744.055 2278.95 743.849ZM2248.9 743.027 2248.7 743.438 2248.9 743.644 2249.11 743.438ZM2387.49 742.822 2386.87 743.233 2387.28 744.055 2387.9 743.644 2387.69 743.027ZM2387.69 739.945 2387.28 740.973 2387.69 742C2387.96 741.452 2388.03 740.835 2387.9 740.151ZM2465.98 739.534C2465.84 740.082 2466.11 741.247 2466.8 743.027 2467.48 744.808 2467.89 745.973 2468.02 746.521 2468.16 745.973 2468.26 745.117 2468.33 743.952 2468.4 742.788 2468.57 741.932 2468.84 741.383L2467 742.411ZM2282.83 738.918 2281.81 739.123 2282.63 739.534 2283.04 739.123ZM2232.96 737.069 2232.35 737.479 2232.55 737.685 2233.16 737.274ZM2230.71 736.657 2230.51 736.863 2230.71 737.069 2231.12 736.863ZM2304.91 735.219 2306.34 736.041 2306.75 735.836 2306.54 735.219ZM2164.89 732.548C2164.21 733.233 2164.21 733.849 2164.89 734.397L2165.3 732.753ZM2260.76 730.904 2261.78 731.726 2262.39 730.904ZM2384.83 726.795 2384.22 727.411 2384.83 727.822 2385.65 727.411 2385.03 727.206ZM2282.63 726.795 2282.22 727.206 2282.83 728.027 2283.45 727.616ZM2275.07 725.767 2274.86 725.973 2275.07 726.383 2275.47 725.973ZM2272.61 725.767 2272.41 725.973 2272.61 726.383 2272.82 725.973ZM2395.46 721.76C2396.41 721.829 2397.71 721.931 2399.34 722.069 2402.89 722.479 2405.61 722.959 2407.52 723.507 2409.43 724.055 2410.99 724.877 2412.22 725.973 2412.9 726.932 2413.31 727.753 2413.45 728.438 2413.58 729.123 2413.58 729.877 2413.45 730.699 2413.31 731.52 2413.14 732.514 2412.94 733.678 2412.73 734.843 2412.63 736.315 2412.63 738.096L2412.63 741.589C2412.63 742.685 2412.56 743.781 2412.42 744.877 2412.29 746.11 2412.19 747.137 2412.12 747.959 2412.05 748.781 2412.08 749.397 2412.22 749.808 2412.49 750.904 2412.53 751.76 2412.32 752.377 2412.12 752.993 2411.74 753.644 2411.2 754.329 2409.15 755.425 2407.28 755.87 2405.58 755.664 2403.87 755.459 2402.34 755.63 2400.98 756.178 2399.48 756.041 2398.18 756.007 2397.09 756.075 2396 756.144 2394.85 756.315 2393.62 756.589L2388.1 757.411C2386.19 757.822 2384.15 757.925 2381.97 757.719 2379.79 757.514 2377.74 757.548 2375.84 757.822L2371.54 758.438 2368.07 759.055C2366.71 759.329 2365.21 759.294 2363.57 758.952 2361.94 758.61 2360.71 758.302 2359.89 758.027 2359.48 757.617 2359.31 756.692 2359.38 755.253 2359.45 753.815 2359.65 752.137 2360 750.219 2360.34 748.301 2360.78 746.246 2361.32 744.055 2361.87 741.863 2362.35 739.808 2362.75 737.89 2363.71 734.74 2364.53 731.966 2365.21 729.568 2365.89 727.171 2366.77 725.425 2367.86 724.329L2367.86 724.123 2368.27 723.301 2370.73 723.301C2371.41 723.301 2372.23 723.233 2373.18 723.096 2374.41 723.096 2375.5 723.028 2376.45 722.89 2377.4 722.753 2378.32 722.651 2379.21 722.582 2380.09 722.514 2381.08 722.445 2382.17 722.377 2383.26 722.308 2384.56 722.274 2386.06 722.274L2386.26 722.069 2389.74 722.069C2390.69 722.069 2391.64 722 2392.6 721.863 2393.55 721.726 2394.51 721.692 2395.46 721.76ZM2198.21 719.294C2198.76 719.226 2199.23 719.226 2199.64 719.294 2200.05 719.363 2200.53 719.5 2201.07 719.705 2201.62 719.911 2202.3 720.219 2203.12 720.63 2203.12 722.548 2203.08 723.986 2203.01 724.945 2202.95 725.904 2202.3 727.48 2201.07 729.671 2200.8 730.082 2200.25 731.144 2199.44 732.856 2198.62 734.569 2197.7 736.418 2196.68 738.404 2195.66 740.391 2194.67 742.342 2193.71 744.26L2191.67 748.37 2192.9 749.397C2195.08 749.26 2197.19 749.123 2199.23 748.986 2201.28 748.849 2203.39 748.644 2205.57 748.37 2205.98 749.466 2206.22 750.596 2206.28 751.76 2206.35 752.924 2206.25 754.466 2205.98 756.384 2205.84 757.205 2205.4 758.986 2204.65 761.726 2203.9 764.466 2203.08 767.445 2202.2 770.664 2201.31 773.884 2200.43 777 2199.54 780.014 2198.65 783.027 2198.01 785.219 2197.6 786.589L2198.01 787C2198.41 786.726 2198.89 786.384 2199.44 785.972 2200.53 785.151 2201.69 784.329 2202.91 783.507 2204.41 782.548 2205.98 781.384 2207.61 780.014 2208.57 779.192 2209.38 778.609 2210.07 778.267 2210.75 777.924 2211.36 777.753 2211.91 777.753 2212.45 777.753 2213.03 777.856 2213.64 778.062 2214.26 778.267 2215.04 778.507 2215.99 778.781 2215.99 780.288 2215.89 782.274 2215.69 784.74 2215.48 787.205 2215.31 789.671 2215.18 792.137 2215.18 793.781 2215.14 795.87 2215.07 798.404 2215.01 800.938 2214.9 803.541 2214.77 806.212 2214.63 808.884 2214.46 811.349 2214.26 813.61 2214.05 815.87 2213.75 817.411 2213.34 818.233 2212.93 818.644 2211.39 819.432 2208.74 820.596 2206.08 821.76 2203.05 822.993 2199.64 824.295 2196.23 825.596 2192.79 826.931 2189.32 828.301 2185.84 829.671 2183.08 830.767 2181.04 831.589 2178.72 832.548 2176.58 833.301 2174.6 833.849 2172.63 834.397 2170.82 834.808 2169.19 835.082 2166.05 835.63 2162.51 836.795 2158.56 838.575 2156.65 839.397 2155.18 840.014 2154.16 840.424 2153.14 840.836 2152.19 841.075 2151.3 841.144 2150.41 841.212 2149.53 841.109 2148.64 840.836 2147.76 840.562 2146.5 840.219 2144.86 839.808 2144.04 838.712 2143.36 837.651 2142.82 836.623 2142.27 835.596 2142.34 834.808 2143.02 834.26 2142.34 831.109 2142 829.055 2142 828.096 2142 827.137 2142.14 826.418 2142.41 825.938 2142.68 825.459 2143.09 824.808 2143.64 823.986 2144.18 823.164 2144.66 821.178 2145.07 818.027 2145.2 817.206 2145.85 815.082 2147.01 811.657 2148.17 808.233 2149.39 804.603 2150.69 800.767 2151.98 796.931 2153.21 793.404 2154.37 790.185 2155.52 786.966 2156.24 785.082 2156.51 784.534 2156.1 784.534 2155.18 784.329 2153.75 783.918 2152.32 783.507 2151.2 783.37 2150.38 783.507 2148.75 783.781 2147.45 783.849 2146.5 783.712 2145.54 783.575 2144.38 783.164 2143.02 782.479L2142 780.835C2142 780.699 2142.17 779.706 2142.51 777.856 2142.85 776.007 2143.26 773.918 2143.74 771.589 2144.21 769.26 2144.73 766.829 2145.27 764.295 2145.82 761.76 2146.36 759.671 2146.91 758.027 2147.59 756.109 2148.2 754.123 2148.75 752.068 2149.29 750.014 2149.84 747.822 2150.38 745.493 2151.2 740.835 2152.22 737.206 2153.45 734.603 2154.26 732.959 2154.71 731.863 2154.78 731.315 2154.84 730.767 2154.88 730.356 2154.88 730.082 2154.88 729.808 2154.98 729.363 2155.18 728.747 2155.39 728.13 2156.04 727 2157.13 725.356 2158.9 724.808 2160.26 724.26 2161.21 723.712 2162.17 723.164 2163.12 722.719 2164.08 722.377 2165.03 722.034 2166.09 721.76 2167.24 721.555 2168.4 721.349 2170 721.315 2172.05 721.452L2175.52 721.246C2177.97 721.11 2180.7 720.938 2183.7 720.733 2186.7 720.527 2189.42 720.356 2191.87 720.219L2195.76 719.808 2195.96 719.397C2196.92 719.397 2197.67 719.363 2198.21 719.294ZM2484.78 716.109C2486.69 715.836 2488.6 716.109 2490.51 716.932 2490.51 718.301 2490.78 719.466 2491.32 720.425L2493.57 766.452 2497.66 765.836 2528.32 760.493 2530.16 762.754 2530.98 762.959 2532 771.384C2532 772.479 2531.9 773.884 2531.69 775.596 2531.49 777.308 2531.28 779.123 2531.08 781.041 2530.88 782.959 2530.71 784.774 2530.57 786.486 2530.43 788.198 2530.3 789.534 2530.16 790.493 2530.02 791.178 2529.92 791.863 2529.85 792.548 2529.79 793.233 2529.75 793.849 2529.75 794.397L2529.96 794.192 2530.16 794.603 2530.36 794.808C2529.96 795.219 2529.68 795.425 2529.55 795.425 2529.27 796.658 2529.1 797.651 2529.04 798.404 2528.97 799.157 2528.87 799.671 2528.73 799.945 2528.05 800.493 2527.37 800.938 2526.69 801.281 2526 801.623 2525.32 801.726 2524.64 801.589 2522.6 802.548 2520.08 803.267 2517.08 803.747 2514.08 804.226 2511.42 804.397 2509.11 804.26 2507.88 804.397 2505.94 804.603 2503.28 804.877 2500.62 805.151 2497.93 805.288 2495.21 805.288 2495.21 808.575 2495.28 812.651 2495.41 817.514 2495.55 822.377 2495.68 827.103 2495.82 831.692 2495.96 836.281 2496.09 840.253 2496.23 843.609 2496.37 846.966 2496.43 848.781 2496.43 849.055 2496.43 849.877 2496.4 850.801 2496.33 851.829 2496.26 852.856 2496.16 853.986 2496.03 855.219 2496.03 855.63 2495.99 856.658 2495.92 858.301 2495.85 859.945 2495.82 861.726 2495.82 863.644L2495.82 871.452C2492.55 873.233 2490.03 873.849 2488.26 873.301L2474.56 873.918C2472.52 873.918 2469.9 874.123 2466.69 874.534 2463.49 874.945 2461 875.151 2459.23 875.151 2457.73 875.151 2456.47 875.116 2455.45 875.048 2454.43 874.979 2453.54 874.911 2452.79 874.842 2452.04 874.774 2451.36 874.671 2450.75 874.534 2450.14 874.397 2449.42 874.329 2448.6 874.329 2448.2 874.329 2447.96 872.822 2447.89 869.808 2447.82 866.794 2447.82 862.993 2447.89 858.404 2447.96 853.815 2448.06 848.849 2448.2 843.507 2448.33 838.164 2448.54 833.199 2448.81 828.609 2449.08 824.021 2449.32 820.185 2449.52 817.103 2449.73 814.021 2449.97 812.479 2450.24 812.479L2450.24 811.452C2450.24 810.767 2450.31 809.877 2450.44 808.781 2447.17 809.055 2444.35 809.26 2441.96 809.397 2439.58 809.534 2437.84 809.603 2436.75 809.603 2434.7 809.603 2432.69 809.637 2430.72 809.705 2428.74 809.774 2427.69 809.877 2427.55 810.014 2426.32 810.972 2424.59 811.315 2422.34 811.041 2420.09 810.767 2418.56 810.287 2417.74 809.603 2417.47 809.055 2417.3 807.822 2417.23 805.904 2417.16 803.986 2417.13 801.692 2417.13 799.021 2417.13 796.349 2417.16 793.541 2417.23 790.596 2417.3 787.651 2417.4 784.911 2417.53 782.377 2417.67 779.842 2417.81 777.719 2417.94 776.007 2418.08 774.295 2418.22 773.301 2418.35 773.028 2419.03 772.89 2419.95 772.822 2421.11 772.822 2422.27 772.822 2423.05 772.753 2423.46 772.616 2423.87 772.479 2424.48 772.445 2425.3 772.514 2426.12 772.582 2427.07 772.685 2428.16 772.822 2429.12 772.822 2431.91 772.479 2436.54 771.794 2441.18 771.11 2446.36 770.425 2452.08 769.74L2453.51 729.466C2453.24 728.644 2453.61 727.48 2454.63 725.973 2455.66 724.466 2456.51 723.37 2457.19 722.685 2459.1 722 2461.17 721.521 2463.42 721.246 2465.67 720.973 2467.75 720.63 2469.66 720.219L2481.92 716.726C2482.88 716.452 2483.83 716.247 2484.78 716.109ZM2288.05 712C2288.52 712 2289.17 712.034 2289.99 712.103 2290.81 712.171 2292.1 712.411 2293.87 712.822 2293.73 713.507 2293.63 714.397 2293.56 715.493 2293.5 716.589 2293.46 717.685 2293.46 718.781L2293.46 722.069C2293.46 723.028 2293.53 723.781 2293.67 724.329L2296.12 723.918C2297.89 723.507 2299.87 723.062 2302.05 722.582 2304.23 722.103 2306.14 721.726 2307.77 721.452L2310.43 720.836 2312.88 720.836C2314.11 720.836 2315.37 720.802 2316.66 720.733 2317.96 720.664 2319.15 720.664 2320.24 720.733 2321.33 720.802 2322.15 720.904 2322.69 721.041L2323.92 727.822 2321.87 757.822 2293.26 759.877C2290.94 760.425 2288.9 760.699 2287.13 760.699 2285.35 760.699 2283.65 760.63 2282.02 760.493 2281.33 760.493 2280.21 760.528 2278.64 760.596 2277.08 760.664 2275.47 760.767 2273.84 760.904 2272.2 761.041 2270.67 761.212 2269.24 761.418 2267.81 761.623 2266.82 761.795 2266.28 761.931 2265.73 764.534 2265.36 767.445 2265.15 770.664 2264.95 773.884 2264.85 777.48 2264.85 781.452 2265.53 781.726 2266.11 781.897 2266.58 781.966 2267.06 782.034 2267.84 781.863 2268.93 781.452 2269.48 781.315 2270.3 781.247 2271.39 781.247 2272.48 781.247 2273.67 781.212 2274.96 781.144 2276.26 781.075 2277.48 781.007 2278.64 780.938 2279.8 780.87 2280.72 780.699 2281.4 780.425 2281.27 778.644 2281.16 777.137 2281.1 775.904 2281.03 774.671 2280.99 773.575 2280.99 772.616 2280.99 771.658 2281.06 770.733 2281.2 769.843 2281.33 768.952 2281.54 767.959 2281.81 766.863 2281.95 766.863 2282.77 766.794 2284.26 766.658 2285.76 766.521 2287.4 766.349 2289.17 766.144 2290.94 765.938 2292.58 765.733 2294.08 765.527 2295.57 765.322 2296.39 765.219 2296.53 765.219 2298.3 765.082 2300.28 764.911 2302.46 764.706 2304.64 764.5 2306.71 764.363 2308.69 764.295 2310.67 764.226 2312.47 764.226 2314.11 764.295 2315.74 764.363 2316.9 764.466 2317.58 764.603 2317.85 765.424 2318.06 765.904 2318.19 766.041 2318.6 766.452 2318.88 767.137 2319.01 768.096 2319.15 769.055 2319.22 770.082 2319.22 771.178L2319.22 774.26C2319.22 775.356 2319.28 776.315 2319.42 777.137 2319.56 778.233 2319.69 779.603 2319.83 781.247 2319.97 782.89 2320.1 784.74 2320.24 786.795 2320.38 788.849 2320.55 791.041 2320.75 793.37 2320.95 795.699 2321.19 797.959 2321.47 800.151 2321.74 803.712 2321.91 806.829 2321.98 809.5 2322.04 812.171 2321.81 815.082 2321.26 818.233 2319.9 818.918 2318.6 819.192 2317.38 819.055 2316.15 818.918 2314.79 819.192 2313.29 819.877 2313.15 823.164 2313.08 826.075 2313.08 828.609 2313.08 831.144 2313.02 833.37 2312.88 835.287 2313.15 835.699 2314.04 835.596 2315.54 834.979 2317.04 834.363 2318.33 833.781 2319.42 833.233 2320.65 832.548 2321.7 832.068 2322.59 831.794 2323.48 831.52 2324.26 831.384 2324.94 831.384 2325.62 831.384 2326.37 831.52 2327.19 831.794L2330.05 832.411C2330.05 834.74 2330.08 836.657 2330.15 838.164 2330.22 839.671 2330.25 841.109 2330.25 842.479 2330.25 843.849 2330.19 845.322 2330.05 846.897 2329.91 848.472 2329.78 850.356 2329.64 852.548 2329.51 854.055 2329.37 855.87 2329.23 857.993 2329.1 860.116 2328.93 862.137 2328.72 864.055 2328.52 865.973 2328.31 867.719 2328.11 869.294 2327.9 870.87 2327.67 871.931 2327.39 872.479 2326.85 872.753 2326.3 873.062 2325.76 873.404 2325.21 873.746 2324.74 873.849 2324.33 873.712 2323.78 873.575 2322.52 873.541 2320.55 873.61 2318.57 873.678 2316.39 873.746 2314 873.815 2311.62 873.884 2309.34 873.986 2307.16 874.123 2304.98 874.26 2303.34 874.329 2302.25 874.329 2301.16 874.466 2300 874.534 2298.78 874.534L2294.69 874.534C2293.19 874.397 2291.79 874.295 2290.5 874.226 2289.2 874.157 2288.01 874.192 2286.92 874.329 2285.01 874.329 2283.07 874.466 2281.1 874.74 2279.12 875.014 2277.79 874.808 2277.11 874.123 2277.11 869.74 2277.14 866.794 2277.21 865.288 2277.28 863.781 2277.31 862.959 2277.31 862.822L2277.52 863.233C2277.66 863.507 2277.72 863.198 2277.72 862.308 2277.72 861.418 2277.76 859.466 2277.83 856.452 2277.89 853.438 2277.93 848.575 2277.93 841.863 2277.93 840.082 2277.96 839.089 2278.03 838.883 2278.1 838.678 2278.17 838.747 2278.23 839.089 2278.3 839.431 2278.37 839.74 2278.44 840.014 2278.51 840.288 2278.54 839.98 2278.54 839.089 2278.54 838.198 2278.51 836.418 2278.44 833.746 2278.37 831.075 2278.27 826.931 2278.13 821.315 2275.82 821.589 2274.11 821.692 2273.02 821.623 2271.93 821.555 2270.43 821.794 2268.53 822.343 2268.25 822.616 2268.01 823.336 2267.81 824.5 2267.61 825.664 2267.44 826.966 2267.3 828.404 2267.16 829.842 2267.06 831.315 2266.99 832.822 2266.92 834.329 2266.89 835.699 2266.89 836.931 2266.89 838.164 2266.79 840.767 2266.58 844.74 2266.38 848.712 2266.17 852.856 2265.97 857.171 2265.77 861.486 2265.49 865.39 2265.15 868.884 2264.81 872.377 2264.57 874.329 2264.44 874.74 2263.35 875.425 2262.29 875.664 2261.27 875.459 2260.25 875.254 2258.71 875.288 2256.67 875.562 2250.27 875.836 2244.61 876.11 2239.7 876.383 2235.34 876.657 2231.43 876.829 2227.95 876.897 2224.48 876.966 2222.67 877 2222.53 877L2221.31 875.972C2221.31 875.014 2221.41 873.37 2221.61 871.041 2221.82 868.712 2222.09 866.247 2222.43 863.644 2222.77 861.041 2223.11 858.541 2223.45 856.144 2223.79 853.747 2224.03 852 2224.17 850.904 2224.31 849.397 2224.58 847.034 2224.99 843.815 2225.4 840.596 2225.81 837.342 2226.21 834.055 2226.62 830.767 2227 827.822 2227.34 825.219 2227.68 822.616 2227.78 821.178 2227.64 820.904 2226.28 821.178 2224.92 821.384 2223.56 821.52 2222.19 821.658 2220.97 821.384 2219.88 820.699 2219.47 820.425 2219.06 819.637 2218.65 818.335 2218.24 817.034 2218.17 815.904 2218.45 814.945 2218.58 814.671 2218.62 814.055 2218.55 813.096 2218.48 812.137 2218.51 810.904 2218.65 809.397 2218.51 807.89 2218.55 806.52 2218.75 805.288 2218.96 804.055 2219.26 802 2219.67 799.123L2223.15 774.466 2224.99 762.137C2224.58 762.411 2223.62 762.719 2222.13 763.062 2220.63 763.404 2219.06 763.712 2217.42 763.986 2215.52 764.397 2213.47 764.74 2211.29 765.014 2210.88 763.37 2210.82 762.274 2211.09 761.726 2211.09 761.452 2211.26 760.356 2211.6 758.438 2211.94 756.52 2212.25 754.397 2212.52 752.068 2212.79 749.74 2213.1 747.514 2213.44 745.39 2213.78 743.267 2213.95 741.794 2213.95 740.973 2214.36 737.274 2214.97 734.055 2215.79 731.315 2216.33 731.315 2217.36 731.247 2218.86 731.109 2220.35 730.973 2221.96 730.801 2223.66 730.596 2225.36 730.391 2226.96 730.219 2228.46 730.082 2229.96 729.945 2231.05 729.74 2231.73 729.466L2233.16 729.26C2234.25 729.123 2235.48 729.021 2236.84 728.952 2238.21 728.883 2239.36 728.781 2240.32 728.644L2241.95 728.438C2241.95 724.877 2243.04 721.931 2245.22 719.603 2246.31 719.603 2246.99 719.534 2247.27 719.397 2247.54 719.26 2247.91 719.123 2248.39 718.986 2248.87 718.849 2249.52 718.712 2250.33 718.576 2256.19 717.342 2261.44 716.315 2266.07 715.493 2270.02 714.808 2273.77 714.157 2277.31 713.541 2280.86 712.925 2282.97 712.548 2283.65 712.411L2283.86 712.206C2285.08 712.206 2285.97 712.171 2286.51 712.103 2287.06 712.034 2287.57 712 2288.05 712Z" fill="#FFFFFF" fill-rule="evenodd"/></g></svg>