<svg width="26" height="26" viewBox="0 0 26 26" fill="none" xmlns="http://www.w3.org/2000/svg">
<g clip-path="url(#clip0_62_113)">
<path d="M13.5283 3.81836C13.7696 3.81858 13.9648 4.01451 13.9648 4.25586V5.12988C13.9648 5.37124 13.7696 5.56716 13.5283 5.56738H6.09473V20.4336H13.5283C13.7696 20.4338 13.9648 20.6297 13.9648 20.8711V21.7451C13.9648 21.9864 13.7696 22.1824 13.5283 22.1826H6.09473C5.16285 22.1826 4.39436 21.4522 4.34766 20.5215L4.3457 20.4336V5.56738C4.3457 4.63556 5.07624 3.8671 6.00684 3.82031L6.09473 3.81836H13.5283ZM16.8975 8.31934C17.0682 8.14865 17.3449 8.14865 17.5156 8.31934L21.2705 12.0732C21.7588 12.5618 21.7843 13.3457 21.3291 13.8652L21.2705 13.9277L17.5156 17.6826C17.3449 17.8529 17.068 17.8531 16.8975 17.6826L16.2793 17.0635C16.1089 16.8926 16.1087 16.6159 16.2793 16.4453L18.8496 13.875H10.0303C9.78878 13.875 9.59277 13.679 9.59277 13.4375V12.5635C9.59277 12.322 9.78878 12.126 10.0303 12.126H18.8496L16.2793 9.55566C16.1087 9.38499 16.1088 9.10824 16.2793 8.9375L16.8975 8.31934Z" fill="#8B8B8B"/>
</g>
<defs>
<clipPath id="clip0_62_113">
<rect width="26" height="26" fill="white"/>
</clipPath>
</defs>
</svg>
