<svg width="26" height="26" viewBox="0 0 26 26" fill="none" xmlns="http://www.w3.org/2000/svg">
<path d="M14.4197 22.9375L14.4092 22.927C14.0426 22.6442 13.8855 22.11 14.0531 21.6806C14.0635 21.6387 14.074 21.5863 14.0845 21.5339C14.1054 21.4606 14.1264 21.3559 14.1264 21.293V21.2616C14.1264 20.7379 13.6969 20.3189 13.1837 20.3189H13.1104C12.7228 20.3084 12.3562 19.9628 12.2619 19.5124C12.1153 19.2086 12.1153 18.3497 12.1153 18.3392C12.1153 17.9517 12.2096 17.5641 12.2515 17.3547C12.2619 17.3128 12.2724 17.2604 12.2724 17.2394V17.208C12.3667 16.7471 12.7542 16.391 13.1418 16.391H13.2465C13.7703 16.391 14.1892 15.972 14.1892 15.4483C14.1892 15.3226 14.1683 15.1864 14.1369 15.0712C13.9693 14.6313 14.1369 14.0867 14.5139 13.8143L14.5244 13.8038L15.9175 13.0916C16.0327 12.9973 16.1584 12.9868 16.2736 12.9868H16.3365C16.6298 12.9868 16.9021 13.1125 17.1221 13.3325C17.164 13.3639 17.2059 13.3953 17.2582 13.4268C17.4363 13.5629 17.7715 13.8038 17.9391 13.8038C18.1171 13.8038 18.4732 13.5524 18.6618 13.3744C18.9027 13.0392 19.3426 13.0183 19.4683 13.0183L19.9083 13.0287L21.2804 13.8143L21.2909 13.8248C21.6575 14.1076 21.8146 14.6418 21.647 15.0712C21.6365 15.1131 21.6261 15.1655 21.6156 15.2179C21.5946 15.2912 21.5737 15.3959 21.5737 15.4588V15.4902C21.5737 16.0139 22.0031 16.4329 22.5164 16.4329H22.5897C22.9877 16.4329 23.3648 16.81 23.4486 17.2709V17.3128C23.4486 17.3756 23.5114 17.9308 23.6371 18.2659L23.6476 18.3078V18.3497C23.6371 18.8839 23.4905 19.4705 23.48 19.5019C23.3858 19.9523 23.0087 20.3084 22.6106 20.3084H22.5059C21.9822 20.3084 21.5632 20.7274 21.5632 21.2511C21.5632 21.3768 21.5842 21.513 21.6156 21.6282C21.7832 22.0681 21.6156 22.6128 21.2385 22.8851L21.228 22.8956L19.8873 23.6184C19.7197 23.7021 19.6149 23.7126 19.4788 23.7126H19.416C19.1227 23.7126 18.8399 23.5869 18.6094 23.346L18.5989 23.3355L18.5885 23.3146C18.4628 23.126 18.0124 22.8118 17.8133 22.8118C17.6877 22.8118 17.4468 22.8956 17.0173 23.3146C16.7764 23.6498 16.3365 23.6707 16.2108 23.6707H16.1374C16.0537 23.6707 16.0118 23.6707 15.9175 23.7231L15.8128 23.7755L14.4197 22.9375ZM17.8553 21.4292C18.3057 21.4397 18.7142 21.5863 19.2065 21.9215L19.2274 21.932L19.4998 22.2043L20.1596 21.8586C20.1073 21.691 20.0654 21.4711 20.0758 21.293C20.0863 20.0989 20.8824 19.1562 22.0241 18.9468C22.0241 18.9258 22.0241 18.9049 22.0346 18.8734C22.0555 18.7163 22.066 18.5592 22.0346 18.4545L22.0241 18.423V18.3916C22.0241 18.2345 22.0031 18.0774 21.9822 17.9308C21.9822 17.8993 21.9717 17.8679 21.9717 17.8365C20.8719 17.5956 20.0654 16.59 20.0863 15.4378C20.0863 15.2598 20.1282 15.0398 20.191 14.8722L19.5312 14.5056C19.5207 14.5161 19.5102 14.5161 19.5102 14.5266C19.4474 14.5684 19.3636 14.6208 19.2903 14.6941L19.2798 14.7046L19.2588 14.7151C18.7665 15.0293 18.379 15.176 17.9915 15.176H17.9705C17.5725 15.1655 17.1849 15.0189 16.7031 14.6941C16.5879 14.6313 16.4936 14.5475 16.4098 14.4742L15.7499 14.8198C15.8023 14.9874 15.8442 15.1969 15.8337 15.3855C15.8232 16.5795 15.0272 17.5222 13.8855 17.7422L13.854 17.9622C13.8331 18.0774 13.8122 18.2031 13.8122 18.2974C13.8122 18.4545 13.8331 18.6116 13.854 18.7582C13.854 18.7896 13.8645 18.8211 13.8645 18.8525C14.9644 19.0934 15.7709 20.0989 15.7499 21.2511C15.7499 21.4292 15.6976 21.6492 15.6452 21.8167L16.2003 22.1519C16.2422 22.11 16.2946 22.0681 16.3365 22.0367C16.3784 21.9948 16.4307 21.9634 16.4726 21.9215L16.4831 21.911L16.5041 21.9005C16.9545 21.6073 17.4363 21.4397 17.8553 21.4397V21.4292ZM4.98225 23.2727C3.50534 23.2727 2.30078 22.0682 2.30078 20.5913V20.5284C2.35316 16.7891 4.65751 13.5211 8.17692 12.1803H8.16645L8.15598 12.1698C6.8362 11.0596 6.12396 9.5303 6.14488 7.86486C6.16587 6.44033 6.74194 5.08914 7.75795 4.07313C8.7635 3.05711 10.0728 2.50195 11.4449 2.50195H11.5078C12.9847 2.52289 14.3568 3.10948 15.3833 4.14643C16.4098 5.1834 16.9545 6.54506 16.944 7.99053C16.9231 9.63502 16.1479 11.1852 14.8282 12.2432L14.5349 12.4631C13.7598 13.123 12.3771 13.3011 11.6125 13.3534H11.5916L10.5651 13.343C6.96191 13.5001 3.87194 16.7995 3.83004 20.5494V20.5808C3.83004 21.1045 4.47947 21.7539 5.00321 21.7539L11.7068 21.8377C11.9477 21.8377 12.1572 21.911 12.2934 22.0577C12.4295 22.1938 12.4924 22.3929 12.4924 22.6338C12.4819 23.0842 12.1677 23.367 11.6859 23.367L4.98225 23.2727ZM11.6021 4.04168C9.47574 4.04168 7.71604 5.76996 7.6951 7.88578C7.67414 8.91228 8.07217 9.8969 8.80539 10.651C9.5386 11.4052 10.5127 11.8242 11.5392 11.8347H11.6021C13.7074 11.8347 15.4462 10.1064 15.4881 7.99053C15.509 6.96403 15.111 5.97944 14.3778 5.2253C13.6446 4.47116 12.6705 4.05217 11.644 4.04168H11.6021ZM17.9391 20.6436C17.782 20.6436 17.6144 20.6227 17.4572 20.5913C16.5774 20.4237 15.8546 19.68 15.708 18.7897C15.5823 18.1088 15.7604 17.4175 16.1898 16.9043C16.6088 16.4015 17.2163 16.1082 17.8553 16.1082C18.0124 16.1082 18.18 16.1292 18.3371 16.1606C19.2379 16.3387 19.9397 17.0928 20.0863 18.0355C20.212 18.664 20.0444 19.3238 19.6255 19.8371C19.196 20.3503 18.5885 20.6436 17.9391 20.6436ZM17.8867 17.5956C17.4991 17.5956 17.1535 17.9412 17.143 18.3288C17.143 18.7268 17.4782 19.0725 17.8762 19.0829H17.8867C18.2847 19.0829 18.6199 18.7478 18.6304 18.3497C18.6304 18.1612 18.557 17.9727 18.4104 17.826C18.2742 17.6794 18.0857 17.5956 17.8867 17.5956H17.8867Z" fill="#121212"/>
<path d="M14.4196 22.937L14.4091 22.9265C14.0425 22.6437 13.8854 22.1096 14.053 21.6801C14.0635 21.6382 14.0739 21.5858 14.0844 21.5334C14.1054 21.4601 14.1263 21.3554 14.1263 21.2925V21.2611C14.1263 20.7374 13.6969 20.3184 13.1836 20.3184H13.1103C12.7228 20.308 12.3562 19.9623 12.2619 19.5119C12.1152 19.2081 12.1152 18.3492 12.1152 18.3387C12.1152 17.9512 12.2095 17.5636 12.2514 17.3542C12.2619 17.3123 12.2724 17.2599 12.2724 17.2389V17.2075C12.3666 16.7466 12.7542 16.3905 13.1417 16.3905H13.2465C13.7702 16.3905 14.1892 15.9715 14.1892 15.4478C14.1892 15.3221 14.1682 15.186 14.1368 15.0708C13.9692 14.6308 14.1368 14.0862 14.5139 13.8138L14.5243 13.8034L15.9175 13.0911C16.0327 12.9968 16.1583 12.9863 16.2736 12.9863H16.3364C16.6297 12.9863 16.902 13.112 17.122 13.332C17.1639 13.3634 17.2058 13.3948 17.2582 13.4263C17.4362 13.5624 17.7714 13.8033 17.939 13.8033C18.1171 13.8033 18.4732 13.552 18.6617 13.3739C18.9027 13.0387 19.3426 13.0178 19.4683 13.0178L19.9082 13.0282L21.2803 13.8138L21.2908 13.8243C21.6574 14.1071 21.8146 14.6413 21.6469 15.0707C21.6365 15.1126 21.626 15.165 21.6155 15.2174C21.5945 15.2907 21.5736 15.3954 21.5736 15.4583V15.4897C21.5736 16.0134 22.0031 16.4324 22.5163 16.4324H22.5897C22.9877 16.4324 23.3648 16.8095 23.4485 17.2704V17.3123C23.4485 17.3751 23.5114 17.9303 23.6371 18.2654L23.6476 18.3073V18.3492C23.6371 18.8834 23.4904 19.47 23.48 19.5014C23.3857 19.9518 23.0086 20.308 22.6106 20.308H22.5058C21.9821 20.308 21.5632 20.7269 21.5632 21.2506C21.5632 21.3763 21.5841 21.5125 21.6155 21.6277C21.7831 22.0676 21.6155 22.6123 21.2384 22.8846L21.228 22.8951L19.8872 23.6179C19.7197 23.7017 19.6149 23.7121 19.4787 23.7121H19.4159C19.1226 23.7121 18.8398 23.5864 18.6094 23.3455L18.5989 23.335L18.5884 23.3141C18.4627 23.1256 18.0123 22.8113 17.8133 22.8113C17.6876 22.8113 17.4467 22.8951 17.0172 23.3141C16.7763 23.6493 16.3364 23.6702 16.2107 23.6702H16.1374C16.0536 23.6702 16.0117 23.6702 15.9175 23.7226L15.8127 23.775L14.4196 22.937ZM17.8552 21.4287C18.3056 21.4392 18.7141 21.5858 19.2064 21.921L19.2273 21.9315L19.4997 22.2038L20.1596 21.8581C20.1072 21.6906 20.0653 21.4706 20.0758 21.2925C20.0863 20.0985 20.8823 19.1557 22.024 18.9463C22.024 18.9253 22.024 18.9044 22.0345 18.8729C22.0554 18.7158 22.0659 18.5587 22.0345 18.454L22.024 18.4226V18.3911C22.024 18.234 22.0031 18.0769 21.9821 17.9303C21.9821 17.8988 21.9717 17.8674 21.9717 17.836C20.8718 17.5951 20.0653 16.5895 20.0863 15.4374C20.0863 15.2593 20.1282 15.0393 20.191 14.8717L19.5311 14.5051C19.5206 14.5156 19.5101 14.5156 19.5101 14.5261C19.4473 14.568 19.3635 14.6203 19.2902 14.6936L19.2797 14.7041L19.2588 14.7146C18.7665 15.0288 18.3789 15.1755 17.9914 15.1755H17.9704C17.5724 15.165 17.1848 15.0184 16.703 14.6936C16.5878 14.6308 16.4935 14.547 16.4097 14.4737L15.7499 14.8194C15.8022 14.987 15.8441 15.1964 15.8336 15.385C15.8232 16.5791 15.0271 17.5217 13.8854 17.7417L13.854 17.9617C13.833 18.0769 13.8121 18.2026 13.8121 18.2969C13.8121 18.454 13.833 18.6111 13.854 18.7577C13.854 18.7891 13.8645 18.8206 13.8645 18.852C14.9643 19.0929 15.7708 20.0985 15.7499 21.2506C15.7499 21.4287 15.6975 21.6487 15.6451 21.8162L16.2002 22.1514C16.2421 22.1096 16.2945 22.0676 16.3364 22.0362C16.3783 21.9943 16.4307 21.9629 16.4726 21.921L16.4831 21.9105L16.504 21.9001C16.9544 21.6068 17.4362 21.4392 17.8552 21.4392V21.4287ZM17.939 20.6431C17.7819 20.6431 17.6143 20.6222 17.4572 20.5908C16.5774 20.4232 15.8546 19.6795 15.708 18.7892C15.5823 18.1083 15.7603 17.417 16.1898 16.9038C16.6087 16.401 17.2163 16.1077 17.8552 16.1077C18.0123 16.1077 18.1799 16.1287 18.337 16.1601C19.2378 16.3382 19.9396 17.0923 20.0863 18.035C20.212 18.6635 20.0444 19.3234 19.6254 19.8366C19.1959 20.3499 18.5884 20.6431 17.939 20.6431ZM17.8866 17.5951C17.4991 17.5951 17.1534 17.9408 17.143 18.3283C17.143 18.7263 17.4781 19.072 17.8762 19.0825H17.8866C18.2847 19.0825 18.6198 18.7473 18.6303 18.3493C18.6303 18.1607 18.557 17.9722 18.4103 17.8255C18.2742 17.6789 18.0857 17.5951 17.8866 17.5951Z" fill="#F7911C"/>
</svg>
