<svg width="48" height="48" viewBox="0 0 48 48" fill="none" xmlns="http://www.w3.org/2000/svg">
<rect x="0.5" y="0.5" width="47" height="47" rx="3.5" stroke="#B8B8B8" stroke-dasharray="4 4"/>
<path d="M32.5071 23.4799H24.5199V15.4927C24.5199 15.2067 24.2859 14.9727 23.9999 14.9727C23.7139 14.9727 23.4799 15.2067 23.4799 15.4927V23.4799H15.4927C15.2067 23.4799 14.9727 23.7139 14.9727 23.9999C14.9727 24.2859 15.2067 24.5199 15.4927 24.5199H23.4799V32.5071C23.4799 32.7931 23.7139 33.0271 23.9999 33.0271C24.2859 33.0271 24.5199 32.7931 24.5199 32.5071V24.5199H32.5071C32.7931 24.5199 33.0271 24.2859 33.0271 23.9999C33.0271 23.7139 32.7931 23.4799 32.5071 23.4799Z" fill="#B8B8B8"/>
</svg>
