<svg width="16" height="16" viewBox="0 0 16 16" fill="none" xmlns="http://www.w3.org/2000/svg">
<path d="M10.0654 10C10.0654 10 9.56537 12.3333 8.8987 13.6333C8.66537 12.6667 8.26537 11.7333 8.26537 11.7333C8.26537 11.7333 8.7987 11.5333 8.7987 11.1333C8.7987 10.7 8.7987 10.4333 8.13203 10.4333C7.46537 10.4333 7.3987 10.5667 7.3987 11.1333C7.3987 11.4667 7.93203 11.7333 7.93203 11.7333C7.93203 11.7333 7.53203 12.6 7.2987 13.5333C6.66537 12.2333 6.16536 10 6.16536 10C4.56536 10.6 3.16536 11.1333 2.36536 12.7C2.36536 12.7333 2.33203 12.7333 2.33203 12.7667C3.86536 13.9667 5.8987 14.6667 8.13203 14.6667C10.3987 14.6667 12.4654 13.9 13.9987 12.6667C13.3654 11.2333 11.732 10.6 10.0654 10Z" fill="#FF62A6"/>
<path d="M6.45009 8.30691C6.5817 8.4316 6.88039 8.90056 7.3028 9.04786C7.81393 9.22607 8.95893 9.30055 9.50653 8.33891C9.60511 8.55959 9.92648 9.24648 10.9211 9.29614L11 9.3V5.21729C10.9381 4.77713 10.8187 4.34957 10.6456 3.94834C10.2666 3.06117 9.67806 2.45373 8.94512 2.19166C7.18451 1.56271 6.38207 2.64242 6.21203 3.12297C6.02374 3.20407 5.18631 3.6482 5 5.16432V9.28069L5.06555 9.29007C5.06999 9.29007 6.00649 9.19407 6.45009 8.30691Z" fill="#FF62A6"/>
</svg>
