<svg width="16" height="16" viewBox="0 0 16 16" fill="none" xmlns="http://www.w3.org/2000/svg">
<path d="M5.8987 6.60006C5.93203 6.60006 6.06536 6.83339 6.16536 7.10006C6.26536 7.36672 6.4987 7.76672 6.6987 8.00006C7.03203 8.40006 7.03203 8.43339 6.9987 8.93339C6.9987 9.06672 6.96537 9.20006 6.93203 9.30006C7.33203 9.26672 7.73203 9.26672 8.16537 9.26672C8.63203 9.26672 9.06537 9.30006 9.4987 9.30006C9.46537 9.16672 9.43203 9.03339 9.3987 8.86672C9.33203 8.36672 9.36537 8.36672 9.63203 8.00006C9.93203 7.60006 10.2654 7.03339 10.2654 6.80006C10.2654 6.73339 10.332 6.56672 10.432 6.56672C11.0987 6.56672 11.3654 5.26672 10.7654 5.13339C10.732 5.13339 10.6987 4.76672 10.732 4.33339C10.7654 3.73339 10.732 3.46672 10.632 3.16672C10.5654 2.96672 10.4987 2.56672 10.4987 2.33339C10.4987 1.80006 10.2654 1.30006 10.0987 1.36672C9.83203 1.50006 9.2987 1.50006 8.6987 1.36672C7.33203 1.10006 6.63203 1.30006 6.26537 2.10006C6.16537 2.26672 6.03203 2.53339 5.8987 2.70006C5.63203 3.06672 5.46536 3.96672 5.56537 4.60006C5.5987 4.86672 5.63203 5.10006 5.56537 5.13339C4.9987 5.53339 5.36537 6.66672 5.8987 6.60006ZM10.0654 10.0001C10.0654 10.0001 9.56537 12.3334 8.8987 13.6334C8.66537 12.6667 8.26537 11.7334 8.26537 11.7334C8.26537 11.7334 8.7987 11.5334 8.7987 11.1334C8.7987 10.7001 8.7987 10.4334 8.13203 10.4334C7.46537 10.4334 7.3987 10.5667 7.3987 11.1334C7.3987 11.4667 7.93203 11.7334 7.93203 11.7334C7.93203 11.7334 7.53203 12.6001 7.2987 13.5334C6.66537 12.2334 6.16536 10.0001 6.16536 10.0001C4.56536 10.6001 3.16536 11.1334 2.36536 12.7001C2.36536 12.7334 2.33203 12.7334 2.33203 12.7667C3.86536 13.9667 5.8987 14.6667 8.13203 14.6667C10.3987 14.6667 12.4654 13.9001 13.9987 12.6667C13.3654 11.2334 11.732 10.6001 10.0654 10.0001Z" fill="#09B0F9"/>
</svg>
