<svg width="18" height="18" viewBox="0 0 18 18" fill="none" xmlns="http://www.w3.org/2000/svg">
<path d="M3.25 5.22727C2.97882 5.22749 2.71881 5.33531 2.52706 5.52706C2.33531 5.71881 2.22749 5.97882 2.22727 6.25V12.7955C2.22727 13.3596 2.68586 13.8182 3.25 13.8182H12.25C12.8141 13.8182 13.2727 13.3596 13.2727 12.7955V6.25C13.2727 5.68586 12.8141 5.22727 12.25 5.22727H3.25ZM14.5 8.04182L16.3761 6.16532C16.4903 6.05055 16.6361 5.97237 16.795 5.94075C16.9538 5.90914 17.1184 5.9255 17.2679 5.98777C17.4175 6.04952 17.5454 6.15436 17.6353 6.28898C17.7252 6.4236 17.773 6.5819 17.7727 6.74377V12.3017C17.7731 12.4093 17.7521 12.5159 17.711 12.6154C17.67 12.7149 17.6097 12.8053 17.5335 12.8814C17.4574 12.9575 17.367 13.0177 17.2675 13.0587C17.168 13.0997 17.0614 13.1207 16.9537 13.1203C16.741 13.1203 16.5332 13.0372 16.3761 12.8801L14.5 11.004V12.7955C14.5 14.0358 13.4904 15.0455 12.25 15.0455H3.25C2.6535 15.0447 2.08164 14.8074 1.65985 14.3856C1.23805 13.9638 1.00076 13.392 1 12.7955V6.25C1 5.00964 2.00964 4 3.25 4H12.25C13.4904 4 14.5 5.00964 14.5 6.25V8.04182ZM14.754 9.52273L16.5459 11.3141V7.73132L14.7536 9.52273H14.754Z" fill="#5B698C"/>
</svg>
