<svg width="26" height="26" viewBox="0 0 26 26" fill="none" xmlns="http://www.w3.org/2000/svg">
<g clip-path="url(#clip0_6432_5000)">
<path d="M13.2595 25.9478C6.23953 25.9478 0.519531 20.2278 0.519531 13.2078C0.519531 6.18777 6.23953 0.467773 13.2595 0.467773C20.2795 0.467773 25.9995 6.18777 25.9995 13.2078C25.9995 20.2278 20.2795 25.9478 13.2595 25.9478ZM13.2595 2.02777C7.07153 2.02777 2.07953 7.07177 2.07953 13.2078C2.07953 19.3958 7.07153 24.3878 13.2595 24.3878C19.4475 24.3878 24.4395 19.3958 24.4395 13.2078C24.4395 7.07177 19.4475 2.02777 13.2595 2.02777Z" fill="#666666"/>
<path d="M19.1875 12.6875H14.3125V7.8125C14.3125 7.364 13.9485 7 13.5 7C13.0515 7 12.6875 7.364 12.6875 7.8125V12.6875H7.8125C7.364 12.6875 7 13.0515 7 13.5001C7 13.9486 7.364 14.3126 7.8125 14.3126H12.6875V19.1876C12.6875 19.6369 13.0515 20.0001 13.5001 20.0001C13.9486 20.0001 14.3126 19.6369 14.3126 19.1876V14.3125H19.1876C19.6369 14.3125 20.0001 13.9485 20.0001 13.5C20.0001 13.0514 19.6368 12.6875 19.1875 12.6875L19.1875 12.6875Z" fill="#666666"/>
</g>
<defs>
<clipPath id="clip0_6432_5000">
<rect width="26" height="26" fill="white"/>
</clipPath>
</defs>
</svg>
