<svg width="26" height="26" viewBox="0 0 26 26" fill="none" xmlns="http://www.w3.org/2000/svg">
<path d="M2.70579 23.2923H2.70364C1.96874 23.2923 1.37257 23.109 0.880263 22.7318C0.331407 22.3111 0.028508 21.7304 0.00425271 21.0527C0.00425271 21.0527 -0.0313789 20.1499 0.103635 19.7079C0.379121 18.8101 0.983877 18.1497 1.90107 17.7435C3.22177 17.1586 4.54857 16.5869 5.87504 16.0156L6.01192 15.9566C6.18217 15.8832 6.35597 15.8175 6.52977 15.7523C6.71247 15.683 6.89514 15.6149 7.07231 15.5344C7.26384 15.4468 7.31171 15.4101 7.32333 15.3982C7.32039 15.3982 7.34866 15.3189 7.33814 15.0068C7.33326 14.869 7.28074 14.722 7.1778 14.5569L6.95674 14.2032C6.58298 13.6059 6.19652 12.9884 5.84042 12.3606C5.46454 11.6981 5.18246 10.977 5.00255 10.2167C4.86144 9.62193 4.8281 8.97388 4.90069 8.23546C4.98418 7.38723 5.1958 6.57736 5.5297 5.82781C6.23954 4.23619 7.24823 3.15394 8.61367 2.5187C10.3533 1.70966 12.1326 1.84875 13.7807 2.92399C14.6694 3.50394 15.3694 4.30135 15.9205 5.36218C16.5474 6.57034 16.8449 7.87261 16.8048 9.23265C16.7782 10.1486 16.4567 10.9601 16.1796 11.5652C15.845 12.2958 15.4182 12.9645 15.0101 13.5869C14.9383 13.6959 14.8648 13.804 14.7911 13.9118C14.6228 14.159 14.4635 14.3922 14.3346 14.632C14.1878 14.9053 14.1346 15.1736 14.1768 15.4312C14.438 15.6429 14.7792 15.7836 15.1072 15.9091C15.6809 16.1299 16.2555 16.3483 16.8301 16.5662C17.7849 16.9291 18.7398 17.2919 19.6905 17.6646C20.7429 18.0769 21.424 18.8471 21.6607 19.8915C21.7789 20.4107 21.7789 20.9555 21.6598 21.4662C21.5101 22.1047 21.0612 22.9257 19.7711 23.215C19.5458 23.2654 19.2986 23.2885 18.9919 23.2889C17.2854 23.291 15.5784 23.2918 13.8716 23.2918L6.41126 23.291L2.70579 23.2923ZM10.8583 3.44448C10.3294 3.44448 9.78427 3.57609 9.23812 3.83612C8.20998 4.32457 7.44004 5.182 6.88355 6.45698C6.61563 7.07139 6.4453 7.73885 6.3779 8.44075C6.32058 9.03735 6.34328 9.52783 6.4494 9.98469C6.59601 10.6177 6.82485 11.2171 7.12944 11.7656C7.45828 12.3585 7.82242 12.9531 8.17435 13.5278L8.3874 13.8761C8.60083 14.2257 8.7106 14.5683 8.72274 14.9239C8.75353 15.8441 8.51699 16.2544 7.7487 16.612C7.5531 16.7028 7.35176 16.7805 7.15026 16.8583C7.00185 16.9158 6.85319 16.9725 6.7076 17.0365L6.57617 17.0944C5.30686 17.6538 4.0367 18.2127 2.77263 18.785C2.22669 19.0316 1.88445 19.4083 1.72589 19.9356C1.65563 20.1709 1.66655 20.4533 1.67833 20.7529L1.68216 20.8542C1.69271 21.1535 1.80871 21.3799 2.04731 21.5667C2.29559 21.761 2.60784 21.8518 3.03027 21.8518H3.0315L6.58957 21.8505L13.7517 21.8513C15.3898 21.8513 17.0277 21.8505 18.6658 21.8485C18.8653 21.8481 19.0155 21.8351 19.1382 21.8072C19.7915 21.6577 19.9503 21.3115 20.0155 21.0267C20.0888 20.7055 20.0886 20.3601 20.0147 20.0287C19.8766 19.4058 19.504 18.9805 18.875 18.7286C17.9665 18.3645 17.054 18.0101 16.1415 17.6562C15.5885 17.4415 15.0352 17.2268 14.483 17.0098C14.0813 16.8522 13.6195 16.6557 13.2203 16.3148C13.0221 16.1454 12.8763 15.8976 12.8289 15.6521C12.7248 15.1126 12.8168 14.5476 13.095 14.0191C13.2491 13.7263 13.4273 13.4594 13.5996 13.2009C13.6661 13.1013 13.7329 13.0017 13.7975 12.9004C14.164 12.3294 14.5458 11.7186 14.8321 11.0799C15.0508 10.5918 15.3044 9.94421 15.3238 9.26461C15.3564 8.13988 15.116 7.06376 14.6094 6.06619C14.1796 5.22094 13.6448 4.59275 12.9739 4.14521C12.2767 3.68022 11.5651 3.44448 10.8583 3.44448Z" fill="#868686"/>
<path d="M22.3325 9.38629C23.2636 9.38629 24.1949 9.3843 25.1261 9.38791C25.2529 9.38834 25.384 9.39724 25.5056 9.43045C25.8247 9.51753 25.992 9.76824 25.9819 10.1162C25.9717 10.4474 25.7706 10.6917 25.4343 10.765C25.3185 10.7897 25.1978 10.7998 25.0791 10.7998C23.2292 10.8018 21.3797 10.8027 19.5299 10.7986C19.3868 10.7982 19.2373 10.784 19.1024 10.7403C18.7732 10.6342 18.6257 10.3806 18.6513 10.0128C18.6713 9.71354 18.8822 9.47822 19.1952 9.41747C19.3074 9.39561 19.4238 9.38788 19.5382 9.38749C20.4696 9.38512 21.4011 9.38629 22.3325 9.38629Z" fill="#868686"/>
<path d="M22.9238 14.0731C22.1983 14.0731 21.4723 14.0803 20.7469 14.0682C20.5681 14.0653 20.3779 14.0293 20.2155 13.958C19.938 13.8349 19.8254 13.5352 19.8878 13.1966C19.9391 12.9195 20.1699 12.7154 20.4913 12.6701C20.584 12.6571 20.6782 12.6506 20.7718 12.6506C22.2238 12.6494 23.6749 12.6482 25.1269 12.6519C25.2659 12.6523 25.4104 12.6669 25.5429 12.7061C25.8272 12.7899 25.9892 13.05 25.9803 13.3699C25.9718 13.7028 25.8068 13.9394 25.506 14.022C25.3803 14.0569 25.2454 14.0702 25.1142 14.0714C24.3841 14.0755 23.6539 14.0731 22.9238 14.0731Z" fill="#868686"/>
<path d="M23.9556 17.1503C23.7593 17.1503 22.9733 17.152 22.1873 17.1496C21.9608 17.1487 21.7401 17.1131 21.5659 16.9547C21.3391 16.7477 21.2998 16.4853 21.3857 16.2034C21.4748 15.9089 21.7067 15.7875 21.9904 15.7449C22.0787 15.732 22.1694 15.7291 22.2585 15.7291C23.2067 15.7279 24.1548 15.7255 25.1029 15.7311C25.2583 15.7319 25.4203 15.753 25.5673 15.8008C25.8407 15.8907 25.9784 16.1179 25.9816 16.4265C25.9849 16.7311 25.848 16.9704 25.5831 17.0648C25.4377 17.1163 25.2761 17.143 25.1212 17.1462C24.6344 17.1568 24.4425 17.1503 23.9556 17.1503Z" fill="#868686"/>
</svg>
