<svg width="24" height="24" viewBox="0 0 24 24" fill="none" xmlns="http://www.w3.org/2000/svg">
<path fill-rule="evenodd" clip-rule="evenodd" d="M12 2C17.5228 2 22 6.47715 22 12C22 17.5228 17.5228 22 12 22C6.47715 22 2 17.5228 2 12C2 6.47715 6.47715 2 12 2ZM12 3.2C7.13989 3.2 3.2 7.13989 3.2 12C3.2 16.8601 7.13989 20.8 12 20.8C16.8601 20.8 20.8 16.8601 20.8 12C20.8 7.13989 16.8601 3.2 12 3.2ZM8.5 10.5C9.32843 10.5 10 9.82843 10 9C10 8.17157 9.32843 7.5 8.5 7.5C7.67157 7.5 7 8.17157 7 9C7 9.82843 7.67157 10.5 8.5 10.5ZM15.5 10.5C16.3284 10.5 17 9.82843 17 9C17 8.17157 16.3284 7.5 15.5 7.5C14.6716 7.5 14 8.17157 14 9C14 9.82843 14.6716 10.5 15.5 10.5ZM12 18.5C15.3137 18.5 18 15.8137 18 12.5H6L6.00414 12.7249C6.12243 15.9344 8.7616 18.5 12 18.5ZM7.352 13.7H16.648L16.5762 13.953C15.9605 15.8937 14.1445 17.3 12 17.3L11.7797 17.295C9.66195 17.1992 7.89451 15.7286 7.3633 13.7469L7.352 13.7Z" fill="black"/>
</svg>
