<svg width="26" height="26" viewBox="0 0 26 26" fill="none" xmlns="http://www.w3.org/2000/svg">
<g clip-path="url(#clip0_6432_5041)">
<path d="M13.2595 25.584C6.23953 25.584 0.519531 19.864 0.519531 12.844C0.519531 5.824 6.23953 0.104004 13.2595 0.104004C20.2795 0.104004 25.9995 5.824 25.9995 12.844C25.9995 19.864 20.2795 25.584 13.2595 25.584ZM13.2595 1.664C7.07153 1.664 2.07953 6.656 2.07953 12.844C2.07953 19.032 7.07153 24.024 13.2595 24.024C19.4475 24.024 24.4395 19.032 24.4395 12.844C24.4395 6.656 19.4475 1.664 13.2595 1.664Z" fill="#666666"/>
<path fill-rule="evenodd" clip-rule="evenodd" d="M16.125 12.6366C16.1249 14.8525 15.2735 16.9837 13.7467 18.5896C13.6288 18.7105 13.6303 18.9038 13.75 19.0229L14.9167 20.1789C14.9774 20.2392 15.0597 20.2729 15.1452 20.2724C15.2308 20.2719 15.3127 20.2373 15.3727 20.1763C19.4122 15.9612 19.4122 9.31137 15.3727 5.09627C15.3127 5.03521 15.2309 5.00057 15.1453 5.00001C15.0597 4.99944 14.9774 5.03301 14.9167 5.09327L13.75 6.24961C13.6301 6.36863 13.6286 6.56208 13.7467 6.68294C15.2736 8.28909 16.125 10.4205 16.125 12.6366ZM12.3304 12.6364C12.3305 13.8539 11.878 15.0279 11.0608 15.9304C10.9448 16.0525 10.9473 16.2448 11.0664 16.3637L12.2331 17.5184C12.2943 17.5792 12.3773 17.613 12.4636 17.6121C12.5498 17.6112 12.6321 17.5758 12.6921 17.5137C15.2485 14.7655 15.2485 10.5096 12.6921 7.76141C12.6321 7.69933 12.5498 7.66391 12.4635 7.6631C12.3772 7.66229 12.2942 7.69614 12.2331 7.75708L11.0664 8.91141C10.9473 9.0304 10.9448 9.22268 11.0608 9.34474C11.8774 10.2466 12.3299 11.4197 12.3304 12.6364ZM9.77685 14.9495C9.69035 14.9512 9.60694 14.9172 9.54634 14.8555L7.53067 12.8581C7.47143 12.7996 7.43809 12.7198 7.43809 12.6365C7.43809 12.5532 7.47143 12.4734 7.53067 12.4148L9.54634 10.4171C9.60699 10.3554 9.69042 10.3215 9.77692 10.3233C9.86343 10.3251 9.94535 10.3626 10.0033 10.4268C11.0822 11.7024 11.0822 13.5706 10.0033 14.8461C9.9453 14.9103 9.86336 14.9477 9.77685 14.9495Z" fill="#666666"/>
</g>
<defs>
<clipPath id="clip0_6432_5041">
<rect width="26" height="26" fill="white"/>
</clipPath>
</defs>
</svg>
