<svg width="26" height="26" viewBox="0 0 26 26" fill="none" xmlns="http://www.w3.org/2000/svg">
<g clip-path="url(#clip0_5629_4103)">
<path d="M22.3325 9.38629C23.2636 9.38629 24.1949 9.3843 25.1261 9.38791C25.2529 9.38834 25.384 9.39724 25.5056 9.43045C25.8247 9.51753 25.992 9.76824 25.9819 10.1162C25.9717 10.4474 25.7706 10.6917 25.4343 10.765C25.3185 10.7897 25.1978 10.7998 25.0791 10.7998C23.2292 10.8018 21.3797 10.8027 19.5299 10.7986C19.3868 10.7982 19.2373 10.784 19.1024 10.7403C18.7732 10.6342 18.6257 10.3806 18.6513 10.0128C18.6713 9.71354 18.8822 9.47822 19.1952 9.41747C19.3074 9.39561 19.4238 9.38788 19.5382 9.38749C20.4696 9.38512 21.4011 9.38629 22.3325 9.38629Z" fill="#07C261"/>
<path d="M22.9238 14.0731C22.1983 14.0731 21.4723 14.0803 20.7469 14.0682C20.5681 14.0653 20.3779 14.0293 20.2155 13.958C19.938 13.8349 19.8254 13.5352 19.8878 13.1966C19.9391 12.9195 20.1699 12.7154 20.4913 12.6701C20.584 12.6571 20.6782 12.6506 20.7718 12.6506C22.2238 12.6494 23.6749 12.6482 25.1269 12.6519C25.2659 12.6523 25.4104 12.6669 25.5429 12.7061C25.8272 12.7899 25.9892 13.05 25.9803 13.3699C25.9718 13.7028 25.8068 13.9394 25.506 14.022C25.3803 14.0569 25.2454 14.0702 25.1142 14.0714C24.3841 14.0755 23.6539 14.0731 22.9238 14.0731Z" fill="#07C261"/>
<path d="M23.9556 17.1503C23.7593 17.1503 22.9733 17.152 22.1873 17.1496C21.9608 17.1487 21.7401 17.1131 21.5659 16.9547C21.3391 16.7477 21.2998 16.4853 21.3857 16.2034C21.4748 15.9089 21.7067 15.7875 21.9904 15.7449C22.0787 15.732 22.1694 15.7291 22.2585 15.7291C23.2067 15.7279 24.1548 15.7255 25.1029 15.7311C25.2583 15.7319 25.4203 15.753 25.5673 15.8008C25.8407 15.8907 25.9784 16.1179 25.9816 16.4265C25.9849 16.7311 25.848 16.9704 25.5831 17.0648C25.4377 17.1163 25.2761 17.143 25.1212 17.1462C24.6344 17.1568 24.4425 17.1503 23.9556 17.1503Z" fill="#07C261"/>
<path fill-rule="evenodd" clip-rule="evenodd" d="M2.65848 23.5736L13.8265 23.573C15.5332 23.573 17.2402 23.5722 18.9467 23.5701C19.2534 23.5697 19.5006 23.5466 19.726 23.4963C21.0161 23.2069 21.465 22.386 21.6147 21.7474C21.7337 21.2368 21.7337 20.692 21.6155 20.1727C21.3789 19.1284 20.6977 18.3582 19.6453 17.9459C18.702 17.5761 17.7546 17.216 16.8073 16.856L16.7849 16.8475C16.2103 16.6295 15.6357 16.4112 15.062 16.1904C14.7341 16.0649 14.3928 15.9242 14.1317 15.7124C14.0895 15.4548 14.1427 15.1865 14.2894 14.9133C14.4164 14.6771 14.5729 14.4472 14.7385 14.204L14.7459 14.193C14.8196 14.0852 14.8932 13.9771 14.9649 13.8682C15.3731 13.2457 15.7998 12.577 16.1344 11.8464C16.4115 11.2413 16.7331 10.4298 16.7597 9.5139C16.7998 8.15386 16.5023 6.85159 15.8754 5.64343C15.3242 4.5826 14.6243 3.78519 13.7356 3.20524C12.0874 2.13 10.3082 1.99091 8.56852 2.79995C7.20308 3.43519 6.19439 4.51744 5.48454 6.10906C5.15064 6.85861 4.93903 7.66848 4.85553 8.51671C4.78295 9.25513 4.81628 9.90318 4.9574 10.498C5.1373 11.2583 5.41938 11.9794 5.79526 12.6419C6.15052 13.2682 6.53598 13.8842 6.90891 14.4802L7.13264 14.8382C7.23558 15.0033 7.28811 15.1503 7.29299 15.2881C7.30168 15.546 7.28388 15.6449 7.2791 15.6715C7.26748 15.6834 7.21869 15.7281 7.02716 15.8156C6.86334 15.8901 6.69482 15.9539 6.52593 16.0179C6.51216 16.0231 6.49839 16.0283 6.48462 16.0336C6.31082 16.0988 6.13701 16.1644 5.96677 16.2379L5.82988 16.2969C4.50342 16.8682 3.17662 17.4399 1.85591 18.0248C0.938723 18.431 0.333967 19.0914 0.0584809 19.9891C-0.0764962 20.4311 -0.0597075 20.8578 -0.0448997 21.2341L-0.0409013 21.3339C-0.016646 22.0117 0.286253 22.5924 0.835109 23.013C1.32742 23.3902 1.92359 23.5736 2.65848 23.5736Z" fill="#07C261"/>
</g>
<defs>
<clipPath id="clip0_5629_4103">
<rect width="26" height="26" fill="white"/>
</clipPath>
</defs>
</svg>
