<svg width="26" height="26" viewBox="0 0 26 26" fill="none" xmlns="http://www.w3.org/2000/svg">
<g clip-path="url(#clip0_6432_5048)">
<path d="M13.24 25.9478C6.22 25.9478 0.5 20.2278 0.5 13.2078C0.5 6.18777 6.22 0.467773 13.24 0.467773C20.26 0.467773 25.98 6.18777 25.98 13.2078C25.98 20.2278 20.26 25.9478 13.24 25.9478ZM13.24 2.02777C7.052 2.02777 2.06 7.07177 2.06 13.2078C2.06 19.3958 7.052 24.3878 13.24 24.3878C19.428 24.3878 24.42 19.3958 24.42 13.2078C24.42 7.07177 19.428 2.02777 13.24 2.02777Z" fill="#666666"/>
<path d="M6.86328 9.41179C6.86328 9.94965 7.07695 10.4655 7.45727 10.8458C7.83759 11.2261 8.35342 11.4398 8.89128 11.4398C9.42914 11.4398 9.94497 11.2261 10.3253 10.8458C10.7056 10.4655 10.9193 9.94965 10.9193 9.41179C10.9193 8.87393 10.7056 8.3581 10.3253 7.97778C9.94497 7.59745 9.42914 7.38379 8.89128 7.38379C8.35342 7.38379 7.83759 7.59745 7.45727 7.97778C7.07695 8.3581 6.86328 8.87393 6.86328 9.41179Z" fill="#666666"/>
<path d="M15.6523 9.41179C15.6523 9.94965 15.866 10.4655 16.2463 10.8458C16.6267 11.2261 17.1425 11.4398 17.6803 11.4398C18.2182 11.4398 18.734 11.2261 19.1144 10.8458C19.4947 10.4655 19.7083 9.94965 19.7083 9.41179C19.7083 8.87393 19.4947 8.3581 19.1144 7.97778C18.734 7.59745 18.2182 7.38379 17.6803 7.38379C17.1425 7.38379 16.6267 7.59745 16.2463 7.97778C15.866 8.3581 15.6523 8.87393 15.6523 9.41179Z" fill="#666666"/>
<path d="M13.5 21.7998C9.0811 21.7998 5.5 18.5304 5.5 14.2638V13.502H21.4995V14.2638C21.5503 18.5304 17.9189 21.7998 13.5 21.7998ZM7.5 15.2998C7.90634 18.3473 10.1985 19.7998 13.5 19.7998C16.8015 19.7998 19.0937 18.3473 19.5 15.2998H7.5Z" fill="#666666"/>
</g>
<defs>
<clipPath id="clip0_6432_5048">
<rect width="26" height="26" fill="white"/>
</clipPath>
</defs>
</svg>
