<svg xmlns="http://www.w3.org/2000/svg" width="40" height="30"
    viewBox="0 0 40 30" fill="none">
    <path fill-rule="evenodd" clip-rule="evenodd" fill-opacity="0.6"
      d="M7.22189 9.85691C6.82375 8.82659 7.33624 7.66859 8.36655 7.27045L19.7931 2.85495C20.8234 2.45681 21.9814 2.96929 22.3796 3.99961L28.6178 20.143C29.0159 21.1733 28.5034 22.3313 27.4731 22.7295L16.0466 27.145C15.0162 27.5431 13.8582 27.0306 13.4601 26.0003L7.22189 9.85691ZM19.8449 17.9708C22.7944 18.3522 24.1131 16.8437 23.1882 14.4505C22.1928 11.8747 16.3269 10.5668 16.3269 10.5668C16.3269 10.5668 12.8651 15.4795 13.8606 18.0553C14.7744 20.4199 17.0515 20.5475 18.7127 18.4619L18.977 19.742C19.0937 20.3072 18.7848 20.8738 18.2465 21.0819L18.4267 21.5482L22.1578 20.1063L21.9776 19.6399C21.4393 19.8479 20.8295 19.6363 20.5359 19.1396L19.8449 17.9708ZM10.6879 9.00327C10.8966 9.54337 10.599 9.88383 9.93333 9.79775L10.0893 10.0615C10.1556 10.1736 10.2932 10.2214 10.4146 10.1744L10.4553 10.2797L9.61329 10.6051L9.57261 10.4999C9.69409 10.4529 9.76382 10.325 9.73748 10.1975L9.67782 9.90859C9.30292 10.3793 8.78902 10.3505 8.58278 9.81682C8.35813 9.23552 9.1394 8.1268 9.1394 8.1268C9.1394 8.1268 10.4632 8.42196 10.6879 9.00327ZM26.9333 20.7978C27.599 20.8838 27.8966 20.5434 27.6879 20.0033C27.4632 19.422 26.1394 19.1268 26.1394 19.1268C26.1394 19.1268 25.3581 20.2355 25.5828 20.8168C25.789 21.3505 26.3029 21.3793 26.6778 20.9086L26.7375 21.1975C26.7638 21.325 26.6941 21.4529 26.5726 21.4999L26.6133 21.6051L27.4553 21.2797L27.4146 21.1744C27.2932 21.2214 27.1556 21.1736 27.0893 21.0615L26.9333 20.7978Z"
      fill="#98A7B5"></path>
    <path fill-opacity="0.6"
      d="M30.9129 24.0712H26.6604L28.6721 23.2938C29.8214 22.8497 30.3931 21.5579 29.949 20.4086L27.8296 14.9238C28.8218 13.8681 29.6629 12.6391 29.6629 11.5065C29.6629 9.06038 28.0505 8.09943 25.6351 9.24495L23.1309 2.7644H30.9129C32.0174 2.7644 32.9129 3.65983 32.9129 4.7644V22.0712C32.9129 23.1758 32.0174 24.0712 30.9129 24.0712Z"
      fill="#98A7B5"></path>
  </svg>