<svg width="22" height="22" viewBox="0 0 22 22" fill="none" xmlns="http://www.w3.org/2000/svg">
<g id="Group 37">
<g id="Frame">
<path id="Vector" d="M4.82943 5.89286H3.97824C3.80892 5.89286 3.64655 5.8256 3.52682 5.70588C3.4071 5.58616 3.33984 5.42378 3.33984 5.25447C3.33984 5.08515 3.4071 4.92278 3.52682 4.80306C3.64655 4.68333 3.80892 4.61607 3.97824 4.61607H18.0229C18.1922 4.61607 18.3546 4.68333 18.4743 4.80306C18.594 4.92278 18.6613 5.08515 18.6613 5.25447C18.6613 5.42378 18.594 5.58616 18.4743 5.70588C18.3546 5.8256 18.1922 5.89286 18.0229 5.89286H6.10621V17.1711C6.10621 17.3109 6.13373 17.4492 6.1872 17.5783C6.24067 17.7074 6.31905 17.8247 6.41785 17.9235C6.51665 18.0223 6.63394 18.1007 6.76303 18.1541C6.89212 18.2076 7.03048 18.2351 7.1702 18.2351H14.8309C14.9706 18.2351 15.109 18.2076 15.2381 18.1541C15.3672 18.1007 15.4845 18.0223 15.5833 17.9235C15.6821 17.8247 15.7604 17.7074 15.8139 17.5783C15.8674 17.4492 15.8949 17.3109 15.8949 17.1711V7.80804C15.8949 7.63873 15.9622 7.47635 16.0819 7.35663C16.2016 7.2369 16.364 7.16965 16.5333 7.16965C16.7026 7.16965 16.865 7.2369 16.9847 7.35663C17.1044 7.47635 17.1717 7.63873 17.1717 7.80804V17.1711C17.1717 18.4639 16.1237 19.5119 14.8309 19.5119H7.1702C5.87746 19.5119 4.82943 18.4639 4.82943 17.1711V5.89286ZM9.29818 3.76488C9.12886 3.76488 8.96649 3.69762 8.84677 3.5779C8.72704 3.45818 8.65978 3.2958 8.65978 3.12649C8.65978 2.95718 8.72704 2.7948 8.84677 2.67508C8.96649 2.55536 9.12886 2.4881 9.29818 2.4881H12.7029C12.8723 2.4881 13.0346 2.55536 13.1544 2.67508C13.2741 2.7948 13.3413 2.95718 13.3413 3.12649C13.3413 3.2958 13.2741 3.45818 13.1544 3.5779C13.0346 3.69762 12.8723 3.76488 12.7029 3.76488H9.29818ZM8.65978 9.51042C8.65978 9.34111 8.72704 9.17873 8.84677 9.05901C8.96649 8.93929 9.12886 8.87203 9.29818 8.87203C9.46749 8.87203 9.62987 8.93929 9.74959 9.05901C9.86931 9.17873 9.93657 9.34111 9.93657 9.51042V14.6176C9.93657 14.7869 9.86931 14.9493 9.74959 15.069C9.62987 15.1887 9.46749 15.256 9.29818 15.256C9.12886 15.256 8.96649 15.1887 8.84677 15.069C8.72704 14.9493 8.65978 14.7869 8.65978 14.6176V9.51042ZM12.0645 9.51042C12.0645 9.34111 12.1318 9.17873 12.2515 9.05901C12.3712 8.93929 12.5336 8.87203 12.7029 8.87203C12.8723 8.87203 13.0346 8.93929 13.1544 9.05901C13.2741 9.17873 13.3413 9.34111 13.3413 9.51042V14.6176C13.3413 14.7869 13.2741 14.9493 13.1544 15.069C13.0346 15.1887 12.8723 15.256 12.7029 15.256C12.5336 15.256 12.3712 15.1887 12.2515 15.069C12.1318 14.9493 12.0645 14.7869 12.0645 14.6176V9.51042Z" fill="#CDCDCD"/>
</g>
</g>
</svg>
