<svg width="20" height="20" viewBox="0 0 20 20" fill="none" xmlns="http://www.w3.org/2000/svg">
<g id="Group 25">
<g id="Group 6">
<path id="Vector" d="M16.713 13.2408V16.6204C16.713 16.7986 16.5672 16.9445 16.389 16.9445H3.61119C3.43295 16.9445 3.28712 16.7986 3.28712 16.6204V13.2408C3.28712 13.1134 3.18295 13.0093 3.05564 13.0093H1.89823C1.77091 13.0093 1.66675 13.1134 1.66675 13.2408V17.1759C1.66675 17.9421 2.28943 18.5648 3.05564 18.5648H16.9445C17.7107 18.5648 18.3334 17.9421 18.3334 17.1759V13.2408C18.3334 13.1134 18.2292 13.0093 18.1019 13.0093H16.9445C16.8172 13.0093 16.713 13.1134 16.713 13.2408Z" fill="#C9C9C9"/>
<path id="Vector_2" d="M10.8102 1.64356V12.0487L14.8287 8.03013C15.1458 7.713 15.6574 7.713 15.9745 8.03013C16.2916 8.34726 16.2916 8.85884 15.9745 9.17597L10.5741 14.5764C10.5648 14.5857 10.5555 14.5949 10.544 14.6042C10.5393 14.6088 10.5347 14.6135 10.5301 14.6158C10.5254 14.6204 10.5208 14.625 10.5139 14.6297C10.5069 14.6343 10.5023 14.6389 10.4954 14.6436C10.4907 14.6459 10.4861 14.6505 10.4838 14.6528L10.4629 14.6667C10.4583 14.669 10.456 14.6713 10.4514 14.6737C10.4444 14.6783 10.4375 14.6829 10.4282 14.6875C10.4236 14.6899 10.4213 14.6922 10.4166 14.6945C10.4097 14.6991 10.4028 14.7037 10.3935 14.7061C10.3889 14.7084 10.3842 14.7107 10.3819 14.713C10.375 14.7176 10.368 14.7199 10.3611 14.7246L10.3472 14.7315C10.3403 14.7338 10.3333 14.7385 10.3287 14.7408C10.3241 14.7431 10.3171 14.7454 10.3125 14.7477C10.3055 14.75 10.3009 14.7524 10.294 14.7547L10.2731 14.7616C10.2685 14.7639 10.2639 14.7662 10.2569 14.7662C10.25 14.7686 10.243 14.7709 10.2338 14.7732C10.2291 14.7755 10.2245 14.7755 10.2199 14.7778C10.2106 14.7801 10.2037 14.7824 10.1944 14.7848C10.1898 14.7848 10.1852 14.7871 10.1805 14.7871C10.1713 14.7894 10.1643 14.7917 10.1551 14.7917C10.1504 14.7917 10.1458 14.794 10.1412 14.794C10.1319 14.7963 10.125 14.7963 10.1157 14.7987C10.1111 14.7987 10.1065 14.801 10.0995 14.801C10.0926 14.801 10.0833 14.8033 10.0764 14.8033C10.0694 14.8033 10.0625 14.8033 10.0555 14.8056C10.0486 14.8056 10.044 14.8056 10.037 14.8079C10.0092 14.8102 9.98378 14.8102 9.956 14.8079C9.94906 14.8079 9.94443 14.8079 9.93748 14.8056C9.93054 14.8056 9.92359 14.8056 9.91665 14.8033C9.9097 14.8033 9.90044 14.801 9.8935 14.801C9.88887 14.801 9.88424 14.7987 9.8773 14.7987C9.86804 14.7963 9.86109 14.7963 9.85183 14.794C9.8472 14.794 9.84257 14.7917 9.83794 14.7917C9.82869 14.7894 9.82174 14.7871 9.81248 14.7871C9.80785 14.7871 9.80322 14.7848 9.79859 14.7848C9.78933 14.7824 9.78239 14.7801 9.77313 14.7778C9.7685 14.7755 9.76387 14.7755 9.75924 14.7732C9.7523 14.7709 9.74535 14.7686 9.73609 14.7662C9.73146 14.7639 9.72452 14.7639 9.71989 14.7616L9.69906 14.7547C9.69211 14.7524 9.68748 14.75 9.68054 14.7477C9.67591 14.7454 9.66896 14.7431 9.66433 14.7408C9.65739 14.7385 9.65044 14.7338 9.64582 14.7315L9.63193 14.7246C9.62498 14.7199 9.61804 14.7176 9.61109 14.713C9.60646 14.7107 9.60183 14.7084 9.59952 14.7061C9.59257 14.7014 9.58563 14.6968 9.57637 14.6922C9.57174 14.6899 9.56943 14.6875 9.5648 14.6852C9.55785 14.6806 9.55091 14.676 9.54165 14.6713C9.53702 14.669 9.5347 14.6667 9.53007 14.6644C9.52313 14.6598 9.51619 14.6551 9.50924 14.6482C9.50461 14.6459 9.5023 14.6412 9.49767 14.6389C9.49072 14.6343 9.48609 14.6297 9.47915 14.625C9.47452 14.6204 9.46989 14.6158 9.46294 14.6112C9.45831 14.6065 9.45369 14.6019 9.44906 14.5996L9.42128 14.5718L4.02544 9.17597C3.70832 8.85884 3.70832 8.34726 4.02544 8.03013C4.34257 7.713 4.85415 7.713 5.17128 8.03013L9.1898 12.0487V1.64356C9.1898 1.1968 9.55322 0.833374 9.99998 0.833374C10.4467 0.833374 10.8102 1.1968 10.8102 1.64356Z" fill="#C9C9C9"/>
</g>
</g>
</svg>
