<svg width="28" height="28" viewBox="0 0 28 28" fill="none" xmlns="http://www.w3.org/2000/svg">
<g id="Frame">
<path id="Vector" d="M18.6667 1.51535C18.6958 1.54032 18.7246 1.56621 18.7522 1.59374L24.0729 6.91446C24.1004 6.94199 24.1263 6.97079 24.1513 6.99996H18.9583C18.881 6.99996 18.8068 6.96923 18.7521 6.91453C18.6974 6.85983 18.6667 6.78565 18.6667 6.70829V1.51535ZM17.5 6.70829V1.16663H4.95833C4.57169 1.16706 4.20101 1.32085 3.92762 1.59424C3.65422 1.86764 3.50043 2.23832 3.5 2.62496V25.375C3.50043 25.7616 3.65422 26.1323 3.92762 26.4057C4.20101 26.6791 4.57169 26.8329 4.95833 26.8333H23.0417C23.4283 26.8329 23.799 26.6791 24.0724 26.4057C24.3458 26.1323 24.4996 25.7616 24.5 25.375V8.16663H18.9583C18.5717 8.16619 18.201 8.01241 17.9276 7.73901C17.6542 7.46561 17.5004 7.09493 17.5 6.70829Z" fill="#4872FF"/>
</g>
</svg>
