<svg
            xmlns="http://www.w3.org/2000/svg"
            width="80"
            height="60"
            viewBox="0 0 40 30"
        >
            <path
                fill-rule="evenodd"
                clip-rule="evenodd"
                d="M20.5324 16.8161L19.2312 17.8216L20.9464 19.5368H18.6989C18.5215 20.3845 18.6398 22.1155 20.5324 22.2575C21.7745 21.8434 25.6189 21.7252 26.7427 22.5532C25.8555 22.5926 23.7263 23.0737 22.3068 24.6824C20.8873 26.2912 20.5324 28.2311 20.5324 29C20.0198 28.0931 19.1129 25.7115 19.5861 23.4404C18.7186 23.0461 17.0547 21.7133 17.3386 19.5368C17.6935 16.8161 19.4087 14.746 22.6617 13.9771C23.6376 13.7465 24.4804 13.569 25.1917 13.4193L25.1917 13.4193C26.8515 13.0699 27.7955 12.8711 28.0439 12.4985C27.827 11.6311 26.9201 9.93162 25.0275 10.0736C26.0527 9.40325 28.5762 8.59493 30.4688 10.7242C31.7109 10.0538 34.1713 8.42933 34.0767 7.29374C33.9821 6.15816 27.6102 6.584 24.436 6.93887C23.6108 7.2729 21.9044 8.36278 21.6587 10.0563C21.6658 9.98829 21.6496 9.88645 21.6268 9.74265C21.5616 9.33183 21.4421 8.5786 21.6562 7.29374C21.0253 7.84576 19.7872 9.37565 19.8819 11.079C19.665 10.3299 19.3614 8.64225 19.8819 7.88519C19.389 8.4175 18.3914 9.89613 18.3441 11.5522C18.0681 11.0199 17.5989 9.81332 17.9301 9.24553C17.1612 9.79755 15.5288 11.4339 15.1503 13.5631C14.9595 14.6361 15.0011 15.9946 15.1296 17.2523C15.544 19.1677 16.704 21.9682 18.6875 23.625C17.6438 22.8795 15.5563 21.1268 14.7341 19.5485C14.248 19.3055 13.6166 19.2054 12.9027 19.5368C12.9816 19.0636 13.2694 18.0582 13.7899 17.8216L13.3759 14.3912L4.74072 16.1655C6.37707 14.1928 10.4778 10.2717 13.7899 10.3693C14.2236 9.10752 15.8126 6.28828 18.6989 5.10537L16.8655 1.08351C18.4032 0.827212 22.4606 1.01253 26.3878 3.80418C28.5762 4.08019 33.4143 5.09354 35.2596 6.93887C34.7076 8.08234 33.0949 10.6887 31.0603 11.9662C29.0257 13.2437 26.6638 14.1151 25.7372 14.3912C26.8018 15.6529 28.931 19.1464 28.931 23.0263C27.5313 21.4689 23.8918 18.0463 20.5324 16.8161ZM21.6587 10.0563L21.6578 10.064L21.6562 10.0736L21.6587 10.0563ZM27.7405 5.47922L25.3174 4.5V4.64234C25.3174 5.31902 25.9341 5.82803 26.5985 5.69973L27.7405 5.47922Z"
                fill="#98A7B5"
                fill-opacity="0.6"
            >
            </path>
        </svg>