<svg width="28" height="28" viewBox="0 0 28 28" fill="none" xmlns="http://www.w3.org/2000/svg">
<g id="Frame">
<path id="Vector" d="M2.21922 11.2676L0 19.4046V3.79165C0.000434231 3.40501 0.154219 3.03433 0.427616 2.76093C0.701012 2.48754 1.07169 2.33375 1.45833 2.33332H8.3876C8.5792 2.33279 8.76899 2.37027 8.946 2.44358C9.12301 2.5169 9.28372 2.62459 9.41883 2.76043L12.4062 5.74782C12.4332 5.77503 12.4653 5.79659 12.5007 5.81127C12.5361 5.82595 12.5741 5.83344 12.6124 5.83332H23.0417C23.4283 5.83375 23.799 5.98754 24.0724 6.26093C24.3458 6.53433 24.4996 6.90501 24.5 7.29165V9.33332H4.75161C4.17601 9.33426 3.61661 9.52396 3.15918 9.87336C2.70175 10.2228 2.37155 10.7125 2.21922 11.2676ZM27.4302 11.0731C27.2946 10.8943 27.1194 10.7494 26.9182 10.6499C26.7171 10.5505 26.4955 10.4991 26.2711 10.5H4.75161C4.43172 10.5006 4.12086 10.6061 3.86672 10.8004C3.61258 10.9947 3.42919 11.267 3.34469 11.5755L0.321927 22.6588C0.263091 22.8751 0.254899 23.102 0.297987 23.322C0.341075 23.542 0.434284 23.749 0.570375 23.9271C0.706466 24.1052 0.881776 24.2495 1.08269 24.3489C1.2836 24.4482 1.50472 24.4999 1.72885 24.5H23.2484C23.5683 24.4994 23.8791 24.3938 24.1333 24.1996C24.3874 24.0053 24.5708 23.733 24.6553 23.4245L27.6781 12.3411C27.7377 12.125 27.7464 11.898 27.7033 11.6779C27.6603 11.4579 27.5667 11.2508 27.43 11.0731H27.4302Z" fill="#4872FF"/>
</g>
</svg>
