<svg width="20" height="20" viewBox="0 0 20 20" fill="none" xmlns="http://www.w3.org/2000/svg">
<g id="Frame">
<path id="Vector" d="M17.3175 2.67883C17.3753 2.73467 17.4213 2.80158 17.4527 2.87556C17.4841 2.94954 17.5002 3.02909 17.5002 3.10946C17.5002 3.18983 17.4841 3.26937 17.4527 3.34335C17.4213 3.41734 17.3753 3.48424 17.3175 3.54008L3.175 17.3213C3.05624 17.4355 2.89788 17.4993 2.73313 17.4993C2.56837 17.4993 2.41001 17.4355 2.29125 17.3213C2.23345 17.2655 2.18748 17.1986 2.15608 17.1246C2.12469 17.0506 2.10851 16.9711 2.10851 16.8907C2.10851 16.8103 2.12469 16.7308 2.15608 16.6568C2.18748 16.5828 2.23345 16.5159 2.29125 16.4601L4.57 14.2426C3.3975 13.4151 1.875 11.9376 0 9.80883C2.985 5.75008 6.3175 3.71883 10 3.71883C11.5 3.71883 12.9425 4.05633 14.3275 4.73008L16.4325 2.67883C16.5513 2.56426 16.7099 2.50024 16.875 2.50024C17.0401 2.50024 17.1987 2.56426 17.3175 2.67883ZM16.2775 6.00758C16.9525 6.57258 18.1925 7.84008 20 9.80883C17.015 13.8701 13.6825 15.9001 10 15.9001C8.7675 15.9001 7.575 15.6726 6.42125 15.2176L7.425 14.2801C8.2572 14.5471 9.12601 14.6825 10 14.6813C13.0025 14.6813 15.7863 13.1176 18.385 9.88133C16.9813 8.37133 15.9975 7.38008 15.4625 6.93133L16.2775 6.00633V6.00758ZM13.5325 8.58133C13.6737 8.96508 13.75 9.37758 13.75 9.80883C13.75 11.8276 12.0712 13.4638 10 13.4638C9.56 13.4638 9.1375 13.3888 8.745 13.2538L9.7875 12.2363C9.8575 12.2426 9.92875 12.2451 10 12.2451C11.3813 12.2451 12.5 11.1551 12.5 9.80883C12.5 9.73758 12.4975 9.66758 12.4913 9.59758L13.5325 8.58133ZM10 4.93633C6.99375 4.93633 4.20625 6.50508 1.605 9.75008C3.22 11.5276 4.52 12.7388 5.4675 13.3688L6.9425 11.9263C6.49201 11.3123 6.2494 10.5704 6.25 9.80883C6.25 7.79008 7.92875 6.15508 10 6.15508C10.81 6.15508 11.56 6.40508 12.1725 6.83008L13.3875 5.64383C12.3193 5.17681 11.1658 4.93633 10 4.93758V4.93633ZM10 7.37383C8.61875 7.37383 7.5 8.46383 7.5 9.80883C7.5 10.2538 7.6225 10.6788 7.84625 11.0463L11.2688 7.70883C10.8826 7.48747 10.4451 7.37151 10 7.37258V7.37383Z" fill="#CCCCCC"/>
</g>
</svg>
