<svg width="36" height="36" viewBox="0 0 36 36" fill="none" xmlns="http://www.w3.org/2000/svg">
<path fill-rule="evenodd" clip-rule="evenodd" d="M21.52 17.6C18.512 17.6 16.08 20.032 16.08 23.04C16.08 24.704 16.784 26.176 17.936 27.136L11.92 27.2C10.832 27.2 10 26.368 10 25.28V9.92C10 8.832 10.832 8 11.92 8H22.16C23.952 8 25.36 9.408 25.36 11.2V19.2C24.4 18.176 22.992 17.6 21.52 17.6ZM17.04 11.84H13.456C13.136 11.84 12.88 12.096 12.88 12.48C12.88 12.864 13.136 13.12 13.456 13.12H17.04C17.36 13.12 17.616 12.864 17.616 12.48C17.616 12.096 17.36 11.84 17.04 11.84ZM13.52 15.68C13.136 15.68 12.88 15.936 12.88 16.32C12.88 16.704 13.136 16.96 13.52 16.96H20.88C21.264 16.96 21.52 16.704 21.52 16.32C21.52 15.936 21.264 15.68 20.88 15.68H13.52ZM17.04 23.0405C17.04 20.5445 19.024 18.5605 21.52 18.5605C24.016 18.5605 26 20.5445 26 23.0405C26 25.5365 24.016 27.5205 21.52 27.5205C19.024 27.5205 17.04 25.5365 17.04 23.0405ZM21.2 24.0005H23.12C23.504 24.0005 23.76 23.7445 23.76 23.3605C23.76 22.9765 23.504 22.7205 23.12 22.7205H21.84V22.0805C21.84 21.6965 21.584 21.4405 21.2 21.4405C20.816 21.4405 20.56 21.6965 20.56 22.0805V23.3605C20.56 23.7445 20.816 24.0005 21.2 24.0005Z" fill="url(#paint0_linear_7332_2284)"/>
<defs>
<linearGradient id="paint0_linear_7332_2284" x1="22.4445" y1="26.9105" x2="9.44794" y2="11.5705" gradientUnits="userSpaceOnUse">
<stop stop-color="#F7BE64"/>
<stop offset="1" stop-color="#F66204"/>
</linearGradient>
</defs>
</svg>
