<svg width="20" height="20" viewBox="0 0 20 20" fill="none" xmlns="http://www.w3.org/2000/svg">
<g id="Frame" clip-path="url(#clip0_203_2662)">
<path id="Vector" d="M10.0001 4.87214C13.6945 4.87214 17.0589 8.46103 18.3439 9.99992C17.0589 11.5388 13.6945 15.1277 10.0001 15.1277C6.30561 15.1277 2.94117 11.5388 1.65617 9.99992C2.94117 8.46103 6.30561 4.87214 10.0001 4.87214ZM10.0001 3.33325C5.41561 3.33325 1.53117 7.7077 0.221169 9.36936C0.0779989 9.54834 0 9.77072 0 9.99992C0 10.2291 0.0779989 10.4515 0.221169 10.6305C1.53117 12.2921 5.41561 16.6666 10.0001 16.6666C14.5845 16.6666 18.4689 12.2921 19.7789 10.6305C19.9221 10.4515 20.0001 10.2291 20.0001 9.99992C20.0001 9.77072 19.9221 9.54834 19.7789 9.36936C18.4689 7.7077 14.5845 3.33325 10.0001 3.33325ZM10.0001 8.46103C10.8284 8.46103 11.5001 9.14992 11.5001 9.99992C11.5001 10.8499 10.8284 11.5388 10.0001 11.5388C9.17173 11.5388 8.50006 10.8499 8.50006 9.99992C8.50006 9.14992 9.17173 8.46103 10.0001 8.46103ZM10.0001 6.92325C8.78673 6.92325 7.69284 7.6727 7.22895 8.8227C6.7645 9.9727 7.02117 11.2955 7.87895 12.1755C8.29245 12.6042 8.82624 12.8974 9.40986 13.0164C9.99348 13.1355 10.5995 13.0747 11.1478 12.8421C12.2689 12.3666 13.0001 11.2444 13.0001 9.99992C13.0001 8.30047 11.6573 6.92325 10.0006 6.92325H10.0001Z" fill="#CCCCCC"/>
</g>
<defs>
<clipPath id="clip0_203_2662">
<rect width="20" height="20" fill="white"/>
</clipPath>
</defs>
</svg>
