<svg width="28" height="28" viewBox="0 0 28 28" fill="none" xmlns="http://www.w3.org/2000/svg">
<g clip-path="url(#clip0_6459_4106)">
<path fill-rule="evenodd" clip-rule="evenodd" d="M25.8539 23.9273H1.79621C1.35627 23.9273 1 23.5707 1 23.1311V9.11342C1 8.67348 1.3566 8.31721 1.79621 8.31721H6.10988C6.39908 8.31721 6.6677 8.16846 6.82076 7.92309L9.25555 4.02703C9.3478 3.87953 9.47604 3.7579 9.62821 3.67357C9.78038 3.58923 9.95149 3.54497 10.1255 3.54492H17.5246C17.8782 3.54492 18.2069 3.72721 18.3945 4.02703L20.8293 7.92309C20.9047 8.04366 21.0095 8.14309 21.1338 8.21203C21.2582 8.28097 21.398 8.31717 21.5402 8.31721H25.8539C26.2938 8.31721 26.6501 8.67381 26.6501 9.11342V23.1311C26.6501 23.5711 26.2935 23.9273 25.8539 23.9273ZM14 20C16.7614 20 19 17.7614 19 15C19 12.2386 16.7614 10 14 10C11.2386 10 9 12.2386 9 15C9 17.7614 11.2386 20 14 20Z" fill="#4C4C4C"/>
</g>
<defs>
<clipPath id="clip0_6459_4106">
<rect width="28" height="28" fill="white"/>
</clipPath>
</defs>
</svg>
