<svg width="28" height="28" viewBox="0 0 28 28" fill="none" xmlns="http://www.w3.org/2000/svg">
<g clip-path="url(#clip0_6459_4108)">
<g clip-path="url(#clip1_6459_4108)">
<path d="M21.2128 2.29583H24.2984C25.9322 2.29583 27.2566 3.68603 27.2566 5.40103V24.0238C27.2566 25.7388 25.9322 27.129 24.2984 27.129H3.59241C1.95721 27.129 0.632812 25.7388 0.632812 24.0238V5.40103C0.632812 3.68603 1.95721 2.29583 3.59101 2.29583H6.67801C6.55959 2.64704 6.52325 3.02072 6.57179 3.38816C6.62033 3.7556 6.75245 4.10703 6.95801 4.41543C7.37241 5.03283 8.05001 5.40103 8.76961 5.40103H19.1226C19.8436 5.40103 20.5184 5.03283 20.9342 4.41543C21.14 4.10686 21.2722 3.75519 21.3208 3.38748C21.3693 3.01978 21.3329 2.64584 21.2142 2.29443L21.2128 2.29583ZM18.2406 17.5838H6.23421C5.71201 17.5838 5.21781 17.8862 4.95601 18.3622C4.83281 18.5932 4.76421 18.8662 4.76421 19.1406C4.76421 20.0072 5.42361 20.6988 6.24821 20.6988H18.2672C18.7894 20.6988 19.2836 20.3964 19.5454 19.9204C19.8058 19.4304 19.8058 18.8382 19.5174 18.3622C19.3933 18.1303 19.2095 17.9358 18.985 17.7987C18.7606 17.6616 18.5036 17.587 18.2406 17.5824V17.5838ZM22.9348 7.35263C22.7386 7.33042 22.5399 7.34879 22.3511 7.40659C22.1623 7.46439 21.9874 7.56039 21.8372 7.68863L16.366 12.3478C16.1354 12.5439 15.9667 12.8026 15.8802 13.0926L15.1998 15.3564L17.4496 15.138C17.7408 15.0946 18.0334 14.977 18.2546 14.788L23.7258 10.1288C24.031 9.87963 24.2256 9.48483 24.2676 9.07603C24.3096 8.65323 24.1836 8.24443 23.9344 7.92243C23.8154 7.76441 23.6653 7.63237 23.4934 7.53439C23.3215 7.43641 23.1314 7.37456 22.9348 7.35263ZM11.9532 11.351H6.19641C5.68961 11.351 5.20801 11.6534 4.95461 12.1294C4.70121 12.6194 4.70121 13.2116 4.95461 13.6876C5.20801 14.1636 5.67561 14.4674 6.19641 14.4674H11.9532C12.46 14.4674 12.9416 14.1636 13.195 13.6876C13.4484 13.1976 13.4484 12.6054 13.195 12.1294C13.0787 11.8988 12.9015 11.7044 12.6826 11.5672C12.4637 11.43 12.2115 11.3552 11.9532 11.351Z" fill="#4C4C4C"/>
<path d="M10.7805 3.67198H17.1715C17.9751 3.60338 18.5785 2.88938 18.5323 2.05638C18.5508 1.65212 18.4124 1.25632 18.1459 0.951784C18.0145 0.805061 17.8552 0.685933 17.6774 0.60133C17.4995 0.516728 17.3066 0.468341 17.1099 0.458984H10.7623C9.94467 0.509384 9.32447 1.22338 9.35667 2.07178C9.32447 2.90618 9.95867 3.63698 10.7791 3.67058L10.7805 3.67198Z" fill="#4C4C4C"/>
</g>
</g>
<defs>
<clipPath id="clip0_6459_4108">
<rect width="28" height="28" fill="white"/>
</clipPath>
<clipPath id="clip1_6459_4108">
<rect width="28" height="28" fill="white"/>
</clipPath>
</defs>
</svg>
