<svg width="28" height="28" viewBox="0 0 28 28" fill="none" xmlns="http://www.w3.org/2000/svg">
<path d="M24.2863 2.85714C24.2934 5.0151 23.4863 7.09632 22.0261 8.68523C20.5659 10.2741 18.5601 11.2538 16.4092 11.4286C16.2257 10.9379 15.8967 10.5149 15.4663 10.2163C15.0359 9.91772 14.5245 9.75771 14.0006 9.75771C13.4767 9.75771 12.9654 9.91772 12.5349 10.2163C12.1045 10.5149 11.7755 10.9379 11.592 11.4286C9.44116 11.2538 7.43535 10.2741 5.97515 8.68523C4.51494 7.09632 3.7078 5.0151 3.71489 2.85714C3.71489 2.62981 3.8052 2.4118 3.96594 2.25105C4.12669 2.09031 4.3447 2 4.57203 2H23.4292C23.6565 2 23.8745 2.09031 24.0353 2.25105C24.196 2.4118 24.2863 2.62981 24.2863 2.85714Z" fill="#4C4C4C"/>
<path d="M24.2863 8.85693V25.1426C24.2863 25.37 24.196 25.588 24.0352 25.7487C23.8745 25.9095 23.6565 25.9998 23.4291 25.9998H4.57199C4.34466 25.9998 4.12664 25.9095 3.96589 25.7487C3.80515 25.588 3.71484 25.37 3.71484 25.1426V8.85693C5.89138 10.7854 8.56311 12.0678 11.4291 12.5598C11.4291 13.2418 11.7 13.8958 12.1823 14.3781C12.6645 14.8603 13.3186 15.1312 14.0006 15.1312C14.6825 15.1312 15.3366 14.8603 15.8188 14.3781C16.3011 13.8958 16.572 13.2418 16.572 12.5598C19.438 12.0678 22.1097 10.7854 24.2863 8.85693Z" fill="#4C4C4C"/>
<path d="M14 9.28564C13.4067 9.28564 12.8266 9.46159 12.3333 9.79124C11.8399 10.1209 11.4554 10.5894 11.2284 11.1376C11.0013 11.6858 10.9419 12.289 11.0576 12.8709C11.1734 13.4529 11.4591 13.9874 11.8787 14.407C12.2982 14.8265 12.8328 15.1122 13.4147 15.228C13.9967 15.3438 14.5999 15.2843 15.1481 15.0573C15.6962 14.8302 16.1648 14.4457 16.4944 13.9524C16.8241 13.459 17 12.879 17 12.2856C17 11.49 16.6839 10.7269 16.1213 10.1643C15.5587 9.60171 14.7957 9.28564 14 9.28564ZM14 14.4285C13.5762 14.4285 13.1619 14.3028 12.8095 14.0674C12.4571 13.8319 12.1824 13.4972 12.0203 13.1057C11.8581 12.7141 11.8156 12.2833 11.8983 11.8676C11.981 11.4519 12.1851 11.0701 12.4848 10.7704C12.7845 10.4707 13.1663 10.2666 13.582 10.184C13.9976 10.1013 14.4285 10.1437 14.82 10.3059C15.2116 10.4681 15.5463 10.7427 15.7817 11.0951C16.0172 11.4475 16.1429 11.8618 16.1429 12.2856C16.1429 12.567 16.0874 12.8457 15.9797 13.1057C15.8721 13.3657 15.7142 13.6019 15.5152 13.8009C15.3162 13.9999 15.08 14.1577 14.82 14.2654C14.5601 14.3731 14.2814 14.4285 14 14.4285Z" fill="#4C4C4C"/>
</svg>
