<svg width="28" height="28" viewBox="0 0 28 28" fill="none" xmlns="http://www.w3.org/2000/svg">
<g clip-path="url(#clip0_6459_4105)">
<path d="M3.87031 6.41963V21.5583H24.1348V6.42056H3.87031V6.41963ZM1.07031 6.04443C1.07031 5.40133 1.32578 4.78457 1.78052 4.32984C2.23526 3.8751 2.85202 3.61963 3.49511 3.61963H24.51C25.1531 3.61963 25.7699 3.8751 26.2246 4.32984C26.6794 4.78457 26.9348 5.40133 26.9348 6.04443V21.9335C26.935 22.252 26.8723 22.5674 26.7505 22.8617C26.6287 23.156 26.4501 23.4234 26.225 23.6487C25.9998 23.874 25.7324 24.0526 25.4382 24.1746C25.1439 24.2965 24.8286 24.3592 24.51 24.3592H3.49511C3.1766 24.3592 2.86122 24.2965 2.56697 24.1746C2.27272 24.0526 2.00537 23.874 1.78019 23.6487C1.55501 23.4234 1.37642 23.156 1.25462 22.8617C1.13282 22.5674 1.07019 22.252 1.07031 21.9335V6.04443Z" fill="#4C4C4C"/>
<path d="M10.8556 10.8082L17.8034 16.7572C18.0311 16.9523 18.1618 17.237 18.1618 17.5356V22.1379L10.2723 22.7838C10.2163 22.7884 10.1603 22.7884 10.1043 22.7838L2.21484 22.1379V17.5366C2.21484 17.237 2.34551 16.9523 2.57324 16.7572L9.52191 10.8082C9.70764 10.649 9.94417 10.5615 10.1888 10.5615C10.4334 10.5615 10.6699 10.649 10.8556 10.8082Z" fill="#4C4C4C"/>
<path d="M21.2791 14.6169L25.3288 18.0833C25.5556 18.2793 25.6863 18.563 25.6863 18.8626V23.3333H15.5391V18.8626C15.5391 18.563 15.6697 18.2783 15.8975 18.0833L19.9463 14.6169C20.1319 14.4579 20.3683 14.3706 20.6127 14.3706C20.8571 14.3706 21.0934 14.4579 21.2791 14.6169Z" fill="#4C4C4C"/>
</g>
<defs>
<clipPath id="clip0_6459_4105">
<rect width="28" height="28" fill="white"/>
</clipPath>
</defs>
</svg>
