<svg width="22" height="20" viewBox="0 0 22 20" fill="none" xmlns="http://www.w3.org/2000/svg">
<g id="Group 22">
<g id="Group 21">
<path id="Vector" d="M14.0951 12.0987H14.0949C13.9021 12.0985 13.7173 12.0219 13.5807 11.8858L13.5803 11.8854L10.9895 9.27143L8.37673 11.8623L8.37668 11.8623C8.30899 11.9293 8.22877 11.9824 8.14058 12.0184C8.0524 12.0544 7.95799 12.0727 7.86273 12.0722C7.67036 12.0713 7.48624 11.9939 7.35089 11.8572C7.21553 11.7205 7.14002 11.5357 7.14098 11.3433C7.14193 11.1509 7.21926 10.9668 7.35596 10.8314M14.0951 12.0987L10.9191 9.20041L8.30632 11.7912C8.24797 11.849 8.1788 11.8947 8.10277 11.9258C8.02675 11.9568 7.94535 11.9726 7.86323 11.9722C7.69738 11.9714 7.53864 11.9047 7.42195 11.7869C7.30525 11.669 7.24015 11.5096 7.24097 11.3438C7.24179 11.1779 7.30847 11.0192 7.42632 10.9025L10.5538 7.80249M14.0951 12.0987C14.2859 12.0988 14.4691 12.0238 14.6052 11.8901L14.6057 11.8896C14.7418 11.7538 14.8187 11.5697 14.8195 11.3774C14.8203 11.1852 14.745 11.0004 14.61 10.8635L14.6098 10.8633L11.5087 7.73597C11.5087 7.73592 11.5086 7.73588 11.5086 7.73583M14.0951 12.0987L11.5086 7.73583M7.35596 10.8314L7.42632 10.9025L7.35592 10.8315L7.35596 10.8314ZM7.35596 10.8314L10.4833 7.73162L10.5538 7.80249M10.5538 7.80249L10.4834 7.73147L10.4834 7.73153M10.5538 7.80249C10.612 7.74457 10.6811 7.69871 10.757 7.66754C10.833 7.63637 10.9144 7.62051 10.9965 7.62086C11.0786 7.6212 11.1598 7.63776 11.2355 7.66957C11.3112 7.70139 11.3799 7.74783 11.4376 7.80624L10.4834 7.73153M10.4834 7.73153C10.5509 7.66437 10.631 7.61118 10.7191 7.57503C10.8072 7.53886 10.9016 7.52045 10.9969 7.52086C11.0922 7.52126 11.1864 7.54047 11.2743 7.57738C11.362 7.61427 11.4417 7.66812 11.5086 7.73583M10.4834 7.73153L11.5086 7.73583" fill="#CCCCCC" stroke="#C9C9C9" stroke-width="0.2"/>
<path id="Vector_2" d="M10.4673 18.7101C10.6033 18.8461 10.7877 18.9225 10.98 18.9225C11.1723 18.9225 11.3567 18.8461 11.4926 18.7101C11.6286 18.5742 11.705 18.3898 11.705 18.1975V9.31372C11.705 9.12144 11.6286 8.93703 11.4926 8.80107C11.3567 8.6651 11.1723 8.58872 10.98 8.58872C10.7877 8.58872 10.6033 8.6651 10.4673 8.80107C10.3314 8.93703 10.255 9.12144 10.255 9.31372V18.1975C10.255 18.3898 10.3314 18.5742 10.4673 18.7101Z" fill="#CCCCCC" stroke="#C9C9C9" stroke-width="0.2"/>
<path id="Vector_3" d="M16.7788 14.845H16.7788C17.9241 14.844 19.0223 14.3887 19.8323 13.5791C20.6424 12.7695 21.0983 11.6717 21.1 10.5264V10.5262C21.099 9.3801 20.6433 8.28127 19.8329 7.47088C19.0225 6.66049 17.9237 6.20477 16.7776 6.20375H16.7775H16.5504C16.4903 4.79577 15.8957 3.46212 14.8856 2.47593C13.8522 1.46701 12.4656 0.901538 11.0214 0.9L11.0211 0.9C9.57697 0.901861 8.19061 1.46744 7.15727 2.47629C6.14722 3.4624 5.55247 4.79588 5.4921 6.20375H5.22H5.21988C4.07415 6.20511 2.97577 6.66102 2.16586 7.47142C1.35594 8.28181 0.900677 9.38046 0.9 10.5262L0.9 10.5264C0.901355 11.6715 1.35696 12.7694 2.16685 13.5791C2.97673 14.3887 4.07473 14.844 5.21991 14.845H5.22H7.48375C7.67603 14.845 7.86044 14.7686 7.9964 14.6327C8.13237 14.4967 8.20875 14.3123 8.20875 14.12C8.20875 13.9277 8.13237 13.7433 7.9964 13.6073C7.86044 13.4714 7.67603 13.395 7.48375 13.395H5.22008C4.4593 13.3944 3.72983 13.0919 3.19176 12.5541C2.65372 12.0163 2.351 11.287 2.35 10.5263C2.35066 9.76505 2.65317 9.03516 3.19121 8.49667C3.72927 7.95816 4.45893 7.65503 5.22017 7.65375H6.95625H7.06764L7.05567 7.54301L6.96192 6.67551L6.96196 6.6755L6.96158 6.67274C6.95979 6.6596 6.95799 6.64676 6.95622 6.63415C6.94634 6.56377 6.93751 6.50089 6.9375 6.43512C6.93879 5.35208 7.3696 4.31376 8.13543 3.54793C8.90122 2.78214 9.93948 2.35133 11.0225 2.35C12.1053 2.35165 13.1432 2.7826 13.9088 3.54836C14.6743 4.31415 15.105 5.35229 15.1062 6.43512C15.1062 6.5009 15.0974 6.56379 15.0875 6.63418C15.0858 6.64677 15.084 6.65961 15.0822 6.67274L15.0821 6.67273L15.0818 6.67551L14.9881 7.54301L14.9761 7.65375H15.0875H16.7786C17.5401 7.65471 18.27 7.9577 18.8084 8.49624C19.3466 9.03476 19.6493 9.7648 19.65 10.5262C19.649 11.2872 19.3461 12.0167 18.8078 12.5545C18.2695 13.0924 17.5397 13.3947 16.7788 13.395C16.7787 13.395 16.7787 13.395 16.7787 13.395H14.515C14.3227 13.395 14.1383 13.4714 14.0023 13.6073C13.8664 13.7433 13.79 13.9277 13.79 14.12C13.79 14.3123 13.8664 14.4967 14.0023 14.6327C14.1383 14.7686 14.3227 14.845 14.515 14.845H16.7788Z" fill="#CCCCCC" stroke="#C9C9C9" stroke-width="0.2"/>
</g>
</g>
</svg>
