<svg xmlns="http://www.w3.org/2000/svg" viewBox="0 0 1024 1024" version="1.1"><path d="M155.9747 818.4412l111.7123-36.0776 21.9075 12.6915C354.7546 832.8038 431.486 853.333 512 853.333c221.4963 0 398.2223-154.6342 398.2223-341.333 0-186.6977-176.726-341.333-398.2223-341.333S113.7777 325.3012 113.7777 512c0 65.8995 21.8481 129.0691 62.6422 183.6401l19.2952 25.8109-39.7414 96.9902zM512 910.2223c-92.7334 0-178.988-24.2688-250.923-65.9425l-145.9036 47.1194a28.4447 28.4447 0 0 1-19.5267-0.7475c-14.5357-5.9556-21.4917-22.569-15.5361-37.1046l50.7443-123.8456C84.0827 667.1329 56.8893 592.3451 56.8893 512c0-219.9316 203.7596-398.2223 455.1107-398.2223S967.1107 292.0684 967.1107 512c0 219.9316-203.7596 398.2223-455.1107 398.2223z" fill="#323233" p-id="1186"></path><path d="M512 512m-56.8893 0a56.8893 56.8893 0 1 0 113.7787 0 56.8893 56.8893 0 1 0-113.7787 0Z" fill="#323233" p-id="1187"></path><path d="M284.4447 512m-56.8893 0a56.8893 56.8893 0 1 0 113.7787 0 56.8893 56.8893 0 1 0-113.7787 0Z" fill="#323233" p-id="1188"></path><path d="M739.5553 512m-56.8893 0a56.8893 56.8893 0 1 0 113.7787 0 56.8893 56.8893 0 1 0-113.7787 0Z" fill="#323233" p-id="1189"></path></svg>