<?xml version="1.0" standalone="no"?><!DOCTYPE svg PUBLIC "-//W3C//DTD SVG 1.1//EN" "http://www.w3.org/Graphics/SVG/1.1/DTD/svg11.dtd"><svg t="1595213422626" class="icon" viewBox="0 0 1024 1024" version="1.1" xmlns="http://www.w3.org/2000/svg" p-id="2434" xmlns:xlink="http://www.w3.org/1999/xlink" width="200" height="200"><defs><style type="text/css"></style></defs><path d="M513.488911 67.427692c-245.531066 0-444.574355 199.044312-444.574355 444.575378s199.043289 444.569238 444.574355 444.569238 444.570261-199.038172 444.570261-444.569238S759.019976 67.427692 513.488911 67.427692zM513.488911 902.830313c-215.85314 0-390.83236-174.975127-390.83236-390.828266 0-215.854163 174.97922-390.833383 390.83236-390.833383 215.854163 0 390.82929 174.97922 390.82929 390.833383C904.3182 727.855186 729.343073 902.830313 513.488911 902.830313z" p-id="2435"></path><path d="M425.145863 423.658999l35.335786 0c9.754155 0 17.671475-7.916297 17.671475-17.670451l0-70.673619c0-9.750061-7.91732-17.665335-17.671475-17.665335l-35.335786 0c-9.754155 0-17.671475 7.916297-17.671475 17.665335l0 70.673619C407.475412 415.742702 415.391708 423.658999 425.145863 423.658999z" p-id="2436"></path><path d="M425.145863 582.675666l35.335786 0c9.754155 0 17.671475-7.916297 17.671475-17.670451L478.153124 494.331595c0-9.754155-7.91732-17.665335-17.671475-17.665335l-35.335786 0c-9.754155 0-17.671475 7.91118-17.671475 17.665335l0 70.673619C407.475412 574.759369 415.391708 582.675666 425.145863 582.675666z" p-id="2437"></path><path d="M566.491055 423.658999l35.33681 0c9.754155 0 17.670451-7.916297 17.670451-17.670451l0-70.673619c0-9.750061-7.916297-17.665335-17.670451-17.665335l-35.33681 0c-9.750061 0-17.665335 7.916297-17.665335 17.665335l0 70.673619C548.82572 415.742702 556.742017 423.658999 566.491055 423.658999z" p-id="2438"></path><path d="M566.491055 582.675666l35.33681 0c9.754155 0 17.670451-7.916297 17.670451-17.670451L619.498316 494.331595c0-9.754155-7.916297-17.665335-17.670451-17.665335l-35.33681 0c-9.750061 0-17.665335 7.91118-17.665335 17.665335l0 70.673619C548.82572 574.759369 556.742017 582.675666 566.491055 582.675666z" p-id="2439"></path><path d="M283.799648 423.658999l35.335786 0c9.751085 0 17.666358-7.916297 17.666358-17.670451l0-70.673619c0-9.750061-7.916297-17.665335-17.666358-17.665335l-35.335786 0c-9.754155 0-17.671475 7.916297-17.671475 17.665335l0 70.673619C266.129196 415.742702 274.045493 423.658999 283.799648 423.658999z" p-id="2440"></path><path d="M743.179197 317.649594l-35.33681 0c-9.754155 0-17.670451 7.916297-17.670451 17.665335l0 70.673619c0 9.754155 7.916297 17.670451 17.670451 17.670451l35.33681 0c9.754155 0 17.665335-7.916297 17.665335-17.670451l0-70.673619C760.844531 325.564867 752.933351 317.649594 743.179197 317.649594z" p-id="2441"></path><path d="M336.802816 565.005214 336.802816 494.331595c0-9.754155-7.916297-17.665335-17.666358-17.665335l-35.335786 0c-9.754155 0-17.671475 7.91118-17.671475 17.665335l0 70.673619c0 9.754155 7.91732 17.670451 17.671475 17.670451l35.335786 0C328.886519 582.675666 336.802816 574.759369 336.802816 565.005214z" p-id="2442"></path><path d="M743.179197 476.66626l-35.33681 0c-9.754155 0-17.670451 7.91118-17.670451 17.665335l0 70.673619c0 9.754155 7.916297 17.670451 17.670451 17.670451l35.33681 0c9.754155 0 17.665335-7.916297 17.665335-17.670451L760.844531 494.331595C760.844531 484.57744 752.933351 476.66626 743.179197 476.66626z" p-id="2443"></path><path d="M707.842387 653.349285 319.135434 653.349285c-9.754155 0-17.670451 7.916297-17.670451 17.670451l0 17.665335c0 9.754155 7.916297 17.671475 17.670451 17.671475l388.706953 0c9.750061 0 17.666358-7.91732 17.666358-17.671475l0-17.665335C725.508745 661.264559 717.592448 653.349285 707.842387 653.349285z" p-id="2444"></path></svg>