<?xml version="1.0" encoding="UTF-8"?>
<svg width="8px" height="8px" viewBox="0 0 8 8" version="1.1" xmlns="http://www.w3.org/2000/svg" xmlns:xlink="http://www.w3.org/1999/xlink">
    <title>icon_X-专属手机APP</title>
    <defs>
        <path d="M368.942627,7.00008333 L371.804508,4.13814296 C372.065164,3.87748172 372.065164,3.45615716 371.804508,3.19549593 C371.543852,2.93483469 371.122537,2.93483469 370.861881,3.19549593 L368,6.0574363 L365.138119,3.19549593 C364.877463,2.93483469 364.456148,2.93483469 364.195492,3.19549593 C363.934836,3.45615716 363.934836,3.87748172 364.195492,4.13814296 L367.057373,7.00008333 L364.195492,9.86202371 C363.934836,10.1226849 363.934836,10.5440095 364.195492,10.8046707 C364.325486,10.934668 364.496146,11 364.666806,11 C364.837465,11 365.008125,10.934668 365.138119,10.8046707 L368,7.94273036 L370.861881,10.8046707 C370.991875,10.934668 371.162535,11 371.333194,11 C371.503854,11 371.674514,10.934668 371.804508,10.8046707 C372.065164,10.5440095 372.065164,10.1226849 371.804508,9.86202371 L368.942627,7.00008333 Z" id="path-1"></path>
    </defs>
    <g id="0613_" stroke="none" stroke-width="1" fill="none" fill-rule="evenodd">
        <g id="H5APP_01首页_01未登录_1" transform="translate(-364.000000, -55.000000)">
            <g id="header表头/顶部/专属手机APP" transform="translate(0.000000, 52.000000)">
                <mask id="mask-2" fill="white">
                    <use xlink:href="#path-1"></use>
                </mask>
                <use id="icon_X-专属手机APP" fill="#ADB5BD" fill-rule="nonzero" xlink:href="#path-1"></use>
            </g>
        </g>
    </g>
</svg>