<svg width="24" height="24" viewBox="0 0 24 24" fill="none" xmlns="http://www.w3.org/2000/svg">
<path d="M11.2367 6.13574H12.7611L12.6517 13.7324H11.3461L11.2367 6.13574Z" fill="black"/>
<path d="M11.9955 17.1025C11.4965 17.1025 11.1 16.7197 11.1 16.2207C11.1 15.7217 11.4965 15.3389 11.9955 15.3389C12.5082 15.3389 12.8978 15.7217 12.8978 16.2207C12.8978 16.7197 12.5082 17.1025 11.9955 17.1025Z" fill="black"/>
<path fill-rule="evenodd" clip-rule="evenodd" d="M12 2C17.5228 2 22 6.47715 22 12C22 17.5228 17.5228 22 12 22C6.47715 22 2 17.5228 2 12C2 6.47715 6.47715 2 12 2ZM12 3.5C7.30558 3.5 3.5 7.30558 3.5 12C3.5 16.6944 7.30558 20.5 12 20.5C16.6944 20.5 20.5 16.6944 20.5 12C20.5 7.30558 16.6944 3.5 12 3.5Z" fill="black"/>
</svg>
