<?xml version="1.0" encoding="UTF-8"?>
<svg width="72px" height="72px" viewBox="0 0 72 72" version="1.1" xmlns="http://www.w3.org/2000/svg" xmlns:xlink="http://www.w3.org/1999/xlink">
    <!-- Generator: Sketch 52.2 (67145) - http://www.bohemiancoding.com/sketch -->
    <title>icons_outlined_add-friends</title>
    <desc>Created with Sketch.</desc>
    <g id="icons_outlined_add-friends" stroke="none" stroke-width="1" fill="none" fill-rule="evenodd">
        <g id="icon13" fill="#000000" fill-rule="nonzero">
            <path d="M23.4957381,37.050414 C21.2889529,34.4348555 19.5,29.5484894 19.5,26.1278716 L19.5,20.9987411 C19.5,14.3720194 24.8860685,9 31.5,9 C38.127417,9 43.5,14.3789407 43.5,21.0006224 L43.5,26.1305571 C43.5,29.5478878 41.7027972,34.448581 39.5042615,37.0547191 L38.4196638,38.3403982 C36.6510972,40.436852 37.2035631,43.1051928 39.676647,44.3115311 L56.6577071,52.5946727 C58.5036045,53.4950776 60,55.8755104 60,57.94639 L60,60.0046856 C60,61.6589521 58.6472238,63 56.9957112,63 L6.00428883,63 C4.34506593,63 3,61.6672664 3,60.0046856 L3,57.94639 C3,55.8911231 4.49445272,53.4957236 6.34229282,52.5939981 L23.3233523,44.307429 C25.7861314,43.1056201 26.3587772,40.4437873 24.5803357,38.3359167 L23.4957381,37.050414 Z M6.6,59.4 L56.4,59.4 L56.4,57.94639 C56.4,57.2581781 55.6940369,56.1300598 55.0794285,55.8302618 L38.0983684,47.5471203 C33.5186229,45.3131796 32.3867183,39.9087391 35.6680098,36.0191054 L36.7526075,34.7334263 C38.406585,32.7728059 39.9,28.6931728 39.9,26.1305571 L39.9,21.0006224 C39.9,16.3647426 36.1367694,12.6 31.5,12.6 C26.8689265,12.6 23.1,16.3656081 23.1,20.9987411 L23.1,26.1278716 C23.1,28.6969917 24.5872402,32.7614514 26.2472353,34.7289353 L27.3318329,36.014438 C30.6199092,39.9115804 29.4756429,45.3109509 24.9021584,47.5427608 L7.9210989,55.8293298 C7.31105128,56.1270263 6.6,57.2660312 6.6,57.94639 L6.6,59.4 Z M56.6999817,32.6999817 L56.6999817,24 L60.2999818,24 L60.2999818,32.6999817 L69,32.6999817 L69,36.2999818 L60.2999818,36.2999818 L60.2999818,45 L56.6999817,45 L56.6999817,36.2999818 L48,36.2999818 L48,32.6999817 L56.6999817,32.6999817 Z" id="Combined-Shape"></path>
        </g>
    </g>
</svg>