<svg xmlns="http://www.w3.org/2000/svg" xmlns:xlink="http://www.w3.org/1999/xlink" width="36"
  height="36" viewBox="0 0 36 36">
  <defs>
    <style>.a{fill:url(#a);}.b{fill:#fff;opacity:0.91;}</style>
    <linearGradient id="a" x1="0.5" x2="0.5" y2="2.38" gradientUnits="objectBoundingBox">
      <stop offset="0" stop-color="#f7911c" />
      <stop offset="1" stop-color="#ff4848" />
    </linearGradient>
  </defs>
  <g transform="translate(-1325 -857)">
    <rect class="a" width="36" height="36" rx="18" transform="translate(1325 857)" />
    <path class="b"
      d="M107.84,9.971A4.247,4.247,0,0,1,109.865,6.4a4.383,4.383,0,0,0-3.431-1.86c-1.461-.148-2.851.86-3.593.86s-1.884-.839-3.1-.816a4.59,4.59,0,0,0-3.882,2.353c-1.655,2.872-.424,7.126,1.189,9.455.788,1.14,1.728,2.42,2.962,2.374,1.188-.047,1.638-.769,3.074-.769s1.84.769,3.1.745c1.278-.024,2.089-1.162,2.872-2.305a10.338,10.338,0,0,0,1.3-2.669,4.144,4.144,0,0,1-2.518-3.8ZM105.477,3a4.134,4.134,0,0,0,.976-3,4.21,4.21,0,0,0-2.764,1.421,3.933,3.933,0,0,0-1,2.9A3.482,3.482,0,0,0,105.477,3Z"
      transform="translate(1240.282 865.617)" />
  </g>
</svg>