<svg xmlns="http://www.w3.org/2000/svg" width="30" height="30" viewBox="0 0 30 30"><defs><style>.a{fill:none;}.b{fill:#a2a2a2;}</style></defs><g transform="translate(-1069 -569)"><rect class="a" width="30" height="30" transform="translate(1069 569)"/><g transform="translate(976.799 522.225)"><path class="b" d="M140.474,82.514l.4.263h0A26.408,26.408,0,0,0,145.2,85a19.729,19.729,0,0,0,4.994,1.047h.676a.6.6,0,0,1,.541.392V96.665c-.135,5.242-7.425,10.877-11.2,10.877-3.914,0-11.2-5.634-11.2-11.006V86.446c0-.263.269-.392.541-.392h.679a14.2,14.2,0,0,0,4.991-1.047,18.246,18.246,0,0,0,4.321-2.226l.4-.263c.135,0,.135-.132.269-.132h.02C140.354,82.383,140.474,82.392,140.474,82.514Zm7.015,7.416a1.872,1.872,0,0,0-2.648,0l-5.863,5.863-1.287-1.287a1.874,1.874,0,0,0-2.627-.02l-.023.02a1.872,1.872,0,0,0,0,2.648l2.46,2.46a1.617,1.617,0,0,0,.152.135l.006.006a1.872,1.872,0,0,0,2.648,0l7.182-7.176A1.872,1.872,0,0,0,147.489,89.931Z" transform="translate(-33.005 -33.185)"/><path class="b" d="M107.2,75.351a8.988,8.988,0,0,1-3.844-1.068,17.671,17.671,0,0,1-3.891-2.677,16.073,16.073,0,0,1-3.13-3.771A8.954,8.954,0,0,1,95,63.351V53.261a1.436,1.436,0,0,1,1.536-1.387h.676a13.357,13.357,0,0,0,4.6-.968l.018-.009a28.194,28.194,0,0,0,3.7-1.8v-.053l1.106-.717h.029a1.116,1.116,0,0,1,.535-.132h.023a1.426,1.426,0,0,1,.518.082,1.119,1.119,0,0,1,.483.345l.208.135a25.451,25.451,0,0,0,4.122,2.124,19.088,19.088,0,0,0,4.669.983h.644a1.612,1.612,0,0,1,1,.369,1.32,1.32,0,0,1,.538,1.018V63.506a9.018,9.018,0,0,1-1.419,4.4,16.592,16.592,0,0,1-3.148,3.721,17.979,17.979,0,0,1-3.859,2.656A8.783,8.783,0,0,1,107.2,75.351ZM96.989,53.864v9.487a7.04,7.04,0,0,0,1.065,3.487,13.95,13.95,0,0,0,2.738,3.291,15.674,15.674,0,0,0,3.446,2.373,7.154,7.154,0,0,0,2.961.86,6.973,6.973,0,0,0,2.882-.857,16.116,16.116,0,0,0,3.426-2.364,14.512,14.512,0,0,0,2.77-3.265,7.122,7.122,0,0,0,1.135-3.411v-9.6h-.275a20.671,20.671,0,0,1-5.278-1.106l-.041-.015a27.65,27.65,0,0,1-4.491-2.317l-.129-.082,0,0a2.67,2.67,0,0,1-.442.339c-.243.158-.57.348-.954.556a34.59,34.59,0,0,1-3.209,1.5,15.306,15.306,0,0,1-5.374,1.126h-.228Zm8.993,14.25a2.834,2.834,0,0,1-2-.81c-.064-.056-.129-.111-.187-.173l-2.46-2.46a2.871,2.871,0,0,1,0-4.055l.032-.032a2.864,2.864,0,0,1,4.02.032l.582.582,5.158-5.158a2.867,2.867,0,1,1,4.055,4.055l-7.176,7.179A2.848,2.848,0,0,1,105.982,68.114Zm-3.241-6.088a.877.877,0,0,0,0,1.237l2.46,2.46a.768.768,0,0,0,.073.064l.041.032.044.044a.876.876,0,0,0,1.24,0l7.179-7.173a.877.877,0,1,0-1.24-1.24l-6.568,6.565-1.989-1.989a.88.88,0,0,0-1.229-.012Z" transform="translate(0 0)"/></g></g></svg>