<svg xmlns="http://www.w3.org/2000/svg" width="26" height="26" viewBox="0 0 26 26">
  <defs>
    <style>
      .a{fill:none;}.b,.c{stroke-width:0.4px;}</style>
  </defs>
  <g transform="translate(-64 -338)">
    <rect class="a" width="26" height="26" transform="translate(64 338)" />
    <g transform="translate(67.019 340.434)">
      <path
        class="b"
        fill="#eab170"
        stroke="#eab170"
        d="M125.65,162.8a.8.8,0,1,0-.8-.8.789.789,0,0,0,.8.8Zm-.231-.8a.232.232,0,1,1,.233.233A.242.242,0,0,1,125.419,162Zm.233-12.79a.789.789,0,1,0,.566.231A.789.789,0,0,0,125.651,149.208Zm.231.8a.232.232,0,1,1-.231-.231A.242.242,0,0,1,125.882,150.006Zm-.231,5.1a.789.789,0,1,0,.566.231A.789.789,0,0,0,125.651,155.11Zm.231.8a.232.232,0,1,1-.231-.233A.242.242,0,0,1,125.882,155.907Z"
        transform="translate(-121.983 -145.317)" />
      <path
        class="c"
        fill="#ffffff"
        stroke="#ffffff"
        d="M17.914,1.17H2.05A1.468,1.468,0,0,0,.585,2.636V18.5A1.468,1.468,0,0,0,2.05,19.962H17.911A1.467,1.467,0,0,0,19.377,18.5V2.636A1.465,1.465,0,0,0,17.914,1.17ZM1.631,13.826h16.7v4.405a.746.746,0,0,1-.745.746H2.376a.746.746,0,0,1-.746-.746v-4.4Zm0-1.108V8.053h16.7v4.669H1.631v0Zm16.7-5.773H1.631V2.824A.667.667,0,0,1,2.3,2.157H17.589a.746.746,0,0,1,.745.746Z" />
    </g>
  </g>
</svg>