<svg xmlns="http://www.w3.org/2000/svg" width="20" height="20" viewBox="0 0 20 20"><defs><style>.a{fill:none;}.b{fill:#79d1ff;}.c{fill:#fff;}</style></defs><g transform="translate(-64 -338)"><rect class="a" width="20" height="20" transform="translate(64 338)"/><g transform="translate(67.604 341.604)"><path class="b" d="M125.365,158.328a.5.5,0,0,0,.365-.155.561.561,0,0,0,0-.761.506.506,0,0,0-.729,0,.542.542,0,0,0-.149.38.52.52,0,0,0,.514.536Zm-.149-.536a.149.149,0,1,1,.15.156A.159.159,0,0,1,125.217,157.792Zm.15-8.584a.5.5,0,0,0-.365.155.542.542,0,0,0-.149.38.519.519,0,0,0,.514.535.5.5,0,0,0,.364-.155.56.56,0,0,0,0-.76A.5.5,0,0,0,125.366,149.208Zm.149.535a.149.149,0,1,1-.149-.155A.159.159,0,0,1,125.515,149.743Zm-.149,3.426a.5.5,0,0,0-.365.155.542.542,0,0,0-.149.38.519.519,0,0,0,.514.535.5.5,0,0,0,.364-.155.56.56,0,0,0,0-.76A.5.5,0,0,0,125.366,153.169Zm.149.535a.149.149,0,1,1-.149-.156A.159.159,0,0,1,125.515,153.7Z" transform="translate(-122.569 -147.373)"/><path class="c" d="M12.381,1.17H1.583a1,1,0,0,0-1,1v10.8a1,1,0,0,0,1,1h10.8a1,1,0,0,0,1-1V2.168A1,1,0,0,0,12.381,1.17ZM1.3,9.785H12.666v3a.508.508,0,0,1-.507.508H1.8a.508.508,0,0,1-.508-.508v-3Zm0-.754V5.856H12.666V9.034H1.3v0ZM12.666,5.1H1.3V2.3a.454.454,0,0,1,.454-.454H12.159a.508.508,0,0,1,.507.508Z" transform="translate(-0.585 -1.17)"/></g></g></svg>