<svg xmlns="http://www.w3.org/2000/svg" width="12" height="12" viewBox="0 0 12 12">
  <defs>
    <style>.a{fill:#a2a2a2;isolation:isolate;}</style>
  </defs>
  <path
    fill="#a2a2a2"
    d="M11.143,10.286A1.714,1.714,0,0,1,9.429,12H2.571A1.714,1.714,0,0,1,.857,10.286V2.571H0V1.714H2.571V.857A.857.857,0,0,1,3.429,0H8.571a.857.857,0,0,1,.857.857v.857H12v.857h-.857ZM3.429.857v.857H8.571V.857ZM1.714,2.571v7.714a.857.857,0,0,0,.857.857H9.429a.857.857,0,0,0,.857-.857V2.571Zm6,1.714V9.429H6.857V4.286Zm-2.571,0V9.429H4.286V4.286Z" />
</svg>