<svg xmlns="http://www.w3.org/2000/svg" width="18" height="18" viewBox="0 0 18 18">
  <defs>
    <style>.a{fill:#229f74;}.b{fill:none;}</style>
  </defs>
  <g transform="translate(-616 -670)">
    <path
      fill="#229f74"
      d="M82.239,122.037a.832.832,0,0,0,.588-1.42l-3.808-3.808a.323.323,0,0,0-.456,0l-.72.72a.323.323,0,0,0,0,.456l2.388,2.388H68.179a.319.319,0,0,0-.319.319v1.026a.319.319,0,0,0,.319.319h14.06Zm.643,3H68.826a.832.832,0,0,0-.588,1.42l3.808,3.808a.322.322,0,0,0,.456,0l.72-.72a.323.323,0,0,0,0-.456L70.834,126.7H82.882a.323.323,0,0,0,.323-.323v-1.018A.323.323,0,0,0,82.882,125.04Z"
      transform="translate(549.468 555.462)" />
    <rect class="b" width="18" height="18" transform="translate(616 670)" />
  </g>
</svg>