<svg xmlns="http://www.w3.org/2000/svg" width="26" height="26" viewBox="0 0 26 26">
  <defs>
    <style>.a{fill:none;}</style>
  </defs>
  <g transform="translate(-64 -338)">
    <rect class="a" width="26" height="26" transform="translate(64 338)" />
    <path
      fill="#ffffff"
      d="M94.516,64a.437.437,0,0,1,.437.437v.874a.437.437,0,0,1-.437.437H87.082V80.615h7.433a.437.437,0,0,1,.437.437v.875a.437.437,0,0,1-.437.437H87.082A1.749,1.749,0,0,1,85.336,80.7l0-.087V65.749A1.749,1.749,0,0,1,86.995,64l.087,0ZM98.5,68.5l3.754,3.754a1.312,1.312,0,0,1,.059,1.792l-.059.063L98.5,77.864a.437.437,0,0,1-.618,0l-.618-.618a.437.437,0,0,1,0-.618l2.57-2.571H91.018a.437.437,0,0,1-.437-.437v-.874a.437.437,0,0,1,.437-.437h8.819l-2.57-2.571a.437.437,0,0,1,0-.618l.618-.618A.437.437,0,0,1,98.5,68.5Z"
      transform="translate(-16.988 277.818)" />
    <path
      fill="#eab170"
      d="M98.5,68.5l3.754,3.754a1.312,1.312,0,0,1,.059,1.792l-.059.063L98.5,77.864a.437.437,0,0,1-.618,0l-.618-.618a.437.437,0,0,1,0-.618l2.57-2.571H91.018a.437.437,0,0,1-.437-.437v-.874a.437.437,0,0,1,.437-.437h8.819l-2.57-2.571a.437.437,0,0,1,0-.618l.618-.618A.437.437,0,0,1,98.5,68.5Z"
      transform="translate(-16.988 277.818)" />
  </g>
</svg>