<svg xmlns="http://www.w3.org/2000/svg" width="20" height="20" viewBox="0 0 20 20"><defs><style>.a{fill:none;}.b{fill:#fff;}.c{fill:#79d1ff;}</style></defs><g transform="translate(-64 -338)"><rect class="a" width="20" height="20" transform="translate(64 338)"/><path class="b" d="M91.333,64a.29.29,0,0,1,.286.294v.589a.29.29,0,0,1-.286.294H86.476V75.187h4.857a.29.29,0,0,1,.286.294v.589a.29.29,0,0,1-.286.294H86.476a1.158,1.158,0,0,1-1.141-1.119V65.178A1.163,1.163,0,0,1,86.419,64h4.914Zm2.606,3.03,2.453,2.528a.9.9,0,0,1,.039,1.206l-.039.042-2.453,2.528a.28.28,0,0,1-.4,0l-.4-.416a.3.3,0,0,1,0-.416l1.679-1.731H89.047a.29.29,0,0,1-.286-.294v-.589a.29.29,0,0,1,.286-.294h5.762L93.13,67.863a.3.3,0,0,1,0-.416l.4-.416A.28.28,0,0,1,93.938,67.03Z" transform="translate(-16.988 277.818)"/><path class="c" d="M95.752,68.456l2.45,2.45a.856.856,0,0,1,.039,1.17l-.039.041-2.45,2.45a.285.285,0,0,1-.4,0l-.4-.4a.285.285,0,0,1,0-.4l1.677-1.678H90.866a.285.285,0,0,1-.285-.285v-.571a.285.285,0,0,1,.285-.285h5.756l-1.677-1.678a.285.285,0,0,1,0-.4l.4-.4A.285.285,0,0,1,95.752,68.456Z" transform="translate(-18.799 276.488)"/></g></svg>