<svg xmlns="http://www.w3.org/2000/svg" width="17.952" height="18" viewBox="0 0 17.952 18">
  <defs>
    <style>.a{fill:none;}.b{fill:#a2a2a2;}</style>
  </defs>
  <g transform="translate(-645.005 -436)">
    <rect class="a" width="17.952" height="18" transform="translate(645.005 436)" />
    <path
      fill="#a2a2a2"
      d="M17.272,7.155l0,0,0,0a11.479,11.479,0,0,0-2.6-3.511L13.655,4.6a10.007,10.007,0,0,1,2.272,3.038c-1.659,3.252-4.011,4.8-7.226,4.8a8.014,8.014,0,0,1-2.812-.474L4.8,12.991a9.279,9.279,0,0,0,3.9.8q5.743,0,8.569-5.669A1.084,1.084,0,0,0,17.272,7.155ZM16,.884l-.844-.8a.166.166,0,0,0-.226,0L12.6,2.288a9.206,9.206,0,0,0-3.9-.8q-5.742,0-8.568,5.669a1.09,1.09,0,0,0,0,.974,11.5,11.5,0,0,0,2.6,3.513l-2.005,1.9a.146.146,0,0,0,0,.213l.844.8a.166.166,0,0,0,.225,0L16,1.1a.144.144,0,0,0,0-.211ZM6.448,8.118a2.016,2.016,0,0,1-.058-.479A2.175,2.175,0,0,1,8.621,5.524a2.322,2.322,0,0,1,.507.055Zm3.674-3.483a3.67,3.67,0,0,0-1.5-.319A3.417,3.417,0,0,0,5.116,7.638a3.178,3.178,0,0,0,.336,1.423l-1.7,1.616A10,10,0,0,1,1.475,7.639c1.661-3.252,4.014-4.8,7.226-4.8a8,8,0,0,1,2.813.474l-1.39,1.317Zm-1.5,5.117a2.223,2.223,0,0,1-.374-.03l-1.017.965a3.651,3.651,0,0,0,1.391.271,3.417,3.417,0,0,0,3.505-3.321,3.165,3.165,0,0,0-.287-1.32l-1.017.966a2.106,2.106,0,0,1,.031.353A2.176,2.176,0,0,1,8.623,9.752Z"
      transform="translate(644.987 437.683)" />
  </g>
</svg>