<svg xmlns="http://www.w3.org/2000/svg" width="18" height="18" viewBox="0 0 18 18">
  <defs>
    <style>.a{fill:#a2a2a2;isolation:isolate;}.b{fill:none;}</style>
  </defs>
  <g transform="translate(-644.957 -436)">
    <path
      fill="#a2a2a2"
      d="M.174,6.737a.952.952,0,0,1,0-1.1C2.755,1.909,5.7,0,9,0s6.242,1.909,8.823,5.638a.952.952,0,0,1,0,1.1C15.239,10.466,12.3,12.375,9,12.375S2.755,10.466.174,6.737ZM1.4,6.188C3.737,9.516,6.266,11.137,9,11.137s5.26-1.621,7.594-4.95C14.258,2.859,11.728,1.238,9,1.238S3.737,2.859,1.4,6.188Zm4.417,0A3.043,3.043,0,0,1,9,3.3a3.043,3.043,0,0,1,3.177,2.888A3.043,3.043,0,0,1,9,9.075,3.043,3.043,0,0,1,5.82,6.188Zm4.993,0A1.739,1.739,0,0,0,9,4.537a1.739,1.739,0,0,0-1.816,1.65A1.739,1.739,0,0,0,9,7.838,1.739,1.739,0,0,0,10.813,6.188Z"
      transform="translate(644.957 438.813)" />
    <rect class="b" width="17.952" height="18" transform="translate(645.005 436)" />
  </g>
</svg>