<svg xmlns="http://www.w3.org/2000/svg" width="52" height="52" viewBox="0 0 52 52">
  <defs>
    <style>.a{fill:#f49d3a;}.b{fill:none;}</style>
  </defs>
  <g transform="translate(-223 -259)">
    <path
      fill="#f49d3a"
      d="M20.618,31.954c2.641-9.052,8.419-15.51,18.99-16.425.727-.066,1.745-.009,2.58-.164a16.16,16.16,0,0,0,2.415-1c3.349-1.379,10.745-3.794,14.483-.83,3.241,2.58,2.645,8.85.643,12.945a22.3,22.3,0,0,1,2.092,12.78c-9.39.385-20.331.052-29.454.169.3,4.864,3.353,8.592,7.884,9.118,4.427.516,7.485-1.989,9.5-4.812H61.009c-2.927,8.423-10.365,14.952-21.884,14.108A23.241,23.241,0,0,1,32.2,56.014c-3.776,2.068-12.124,5.14-15.449.83-2.523-3.274-.9-9.225.483-13.1,2.8-7.865,8.137-15.655,13.357-20.083.028-.136.159-.169.159-.333C26.631,25.435,23.849,28.924,20.618,31.954ZM60.207,19.671c-.155-5.652-7.424-5.093-11.266-2.819a22.762,22.762,0,0,1,9.976,8.128C59.475,23.207,60.263,21.734,60.207,19.671ZM32.362,33.446H50.226C49.71,21.9,32.925,22.837,32.362,33.446ZM19.169,53.693c.9,5.112,8.039,3.621,11.266,1.327-4.235-2.383-6.88-6.407-9.014-10.956C20.43,46.526,18.573,50.32,19.169,53.693Z"
      transform="translate(210.276 249.426)" />
    <rect class="b" width="52" height="52" transform="translate(223 259)" />
  </g>
</svg>