<svg xmlns="http://www.w3.org/2000/svg" width="20" height="20" viewBox="0 0 20 20"><defs><style>.a{fill:none;}.b{fill:#154afc;}.c{fill:#2b2b2b;}</style></defs><g transform="translate(-64 -338)"><rect class="a" width="20" height="20" transform="translate(64 338)"/><g transform="translate(66.15 340.622)"><path class="b" d="M279.662,314.662a.462.462,0,0,1-.462-.462v-5.158a1.622,1.622,0,0,1,.693-1.331l5.562-3.918a.462.462,0,0,1,.534.755l-5.565,3.918a.71.71,0,0,0-.3.579V314.2a.458.458,0,0,1-.459.459Zm0,0" transform="translate(-277.253 -302.19)"/><path class="c" d="M186.046,184.465a.81.81,0,0,1,.459.143l6.077,4.206a.769.769,0,0,1,.334.632v7.848h-3.673a.133.133,0,0,1-.137-.13v-.949a1.765,1.765,0,0,0-1.782-1.747h-2.555a1.766,1.766,0,0,0-1.782,1.747v.949a.133.133,0,0,1-.137.13h-3.673v-7.85a.772.772,0,0,1,.334-.632l6.077-4.206a.818.818,0,0,1,.457-.141m0-.965a1.79,1.79,0,0,0-1.024.319l-6.072,4.206a1.724,1.724,0,0,0-.749,1.418v8.031a.792.792,0,0,0,.8.782h3.854a1.105,1.105,0,0,0,1.116-1.094v-.949a.792.792,0,0,1,.8-.782h2.557a.792.792,0,0,1,.8.782v.949a1.107,1.107,0,0,0,1.116,1.094H193.1a.792.792,0,0,0,.8-.782v-8.031a1.721,1.721,0,0,0-.749-1.418l-6.08-4.206A1.8,1.8,0,0,0,186.046,183.5Zm0,0" transform="translate(-178.2 -183.5)"/></g></g></svg>