<svg xmlns="http://www.w3.org/2000/svg" width="52" height="52" viewBox="0 0 52 52">
  <defs>
    <style>.a{fill:#f49d3a;}.b{fill:none;}</style>
  </defs>
  <g transform="translate(-1543 -259)">
    <path
      fill="#f49d3a"
      d="M286.065,186.252h-2.184V184.58a3.686,3.686,0,0,0-3.918-3.762h-6.713a3.67,3.67,0,0,0-3.9,3.762v1.672h-2.626v4.592h19.34Zm4.835,1.922h-2.763v4.011H264.653v-4.011H261.89c-2.445,0-4.835,1.778-4.835,4.117v31.063c0,2.346,2.39,4.242,4.835,4.242h28.729a4.338,4.338,0,0,0,4.43-4.242V192.291A4,4,0,0,0,290.9,188.174Zm-24.181,26.851a1.213,1.213,0,0,1-1.224,1.2h-1a1.213,1.213,0,0,1-1.223-1.2V214.1a1.212,1.212,0,0,1,1.223-1.2h1a1.212,1.212,0,0,1,1.224,1.2v.929Zm0-7.349a1.212,1.212,0,0,1-1.224,1.2h-1a1.212,1.212,0,0,1-1.223-1.2v-.929a1.212,1.212,0,0,1,1.223-1.2h1a1.212,1.212,0,0,1,1.224,1.2v.929Zm0-7.349a1.213,1.213,0,0,1-1.224,1.2h-1a1.213,1.213,0,0,1-1.223-1.2v-.93a1.212,1.212,0,0,1,1.223-1.2h1a1.212,1.212,0,0,1,1.224,1.2v.93Zm22.122,14.7a1.212,1.212,0,0,1-1.223,1.2h-16.9a1.209,1.209,0,0,1-1.223-1.2V214.1a1.212,1.212,0,0,1,1.223-1.2h16.9a1.212,1.212,0,0,1,1.223,1.2v.929Zm0-7.349a1.212,1.212,0,0,1-1.223,1.2h-16.9a1.208,1.208,0,0,1-1.223-1.2v-.929a1.212,1.212,0,0,1,1.223-1.2h16.9a1.211,1.211,0,0,1,1.223,1.2v.929Zm0-7.349a1.212,1.212,0,0,1-1.223,1.2h-16.9a1.208,1.208,0,0,1-1.223-1.2v-.93a1.212,1.212,0,0,1,1.223-1.2h16.9a1.211,1.211,0,0,1,1.223,1.2v.93Z"
      transform="translate(1292.948 80.793)" />
    <rect class="b" width="52" height="52" transform="translate(1543 259)" />
  </g>
</svg>