<svg xmlns="http://www.w3.org/2000/svg" width="22" height="22" viewBox="0 0 22 22"><defs><style>.a{fill:#999;}</style></defs><path class="a" d="M7.883,0H2.2A2.366,2.366,0,0,0,0,2.2V7.883a2.4,2.4,0,0,0,2.2,2.383H7.883a2.229,2.229,0,0,0,2.2-2.2V2.2A2.229,2.229,0,0,0,7.883,0ZM8.25,8.067a.394.394,0,0,1-.367.367H2.2c-.183-.183-.367-.183-.367-.367V2.2A.394.394,0,0,1,2.2,1.833H7.883A.394.394,0,0,1,8.25,2.2Zm4.767-4.95h8.067A.866.866,0,0,0,22,2.2a.866.866,0,0,0-.917-.917H13.017A.866.866,0,0,0,12.1,2.2a.866.866,0,0,0,.917.917ZM21.083,7.15H13.017a.866.866,0,0,0-.917.917c0,.733.367,1.1.917,1.1h8.067A.866.866,0,0,0,22,8.25a1.027,1.027,0,0,0-.917-1.1Zm-13.2,4.583H2.2a2.366,2.366,0,0,0-2.2,2.2v5.683A2.4,2.4,0,0,0,2.2,22H7.883a2.229,2.229,0,0,0,2.2-2.2V13.933a2.229,2.229,0,0,0-2.2-2.2ZM8.25,19.8a.394.394,0,0,1-.367.367H2.2a.394.394,0,0,1-.367-.367V13.933a.394.394,0,0,1,.367-.367H7.883a.394.394,0,0,1,.367.367Zm12.833-6.967H13.017a.917.917,0,1,0,0,1.833h8.067a.917.917,0,0,0,0-1.833Zm0,6.05H13.017a.917.917,0,1,0,0,1.833h8.067A.866.866,0,0,0,22,19.8.982.982,0,0,0,21.083,18.883Z"/></svg>