<svg xmlns="http://www.w3.org/2000/svg" width="176" height="18" viewBox="0 0 176 18">
  <defs>
    <style>.a{fill:#fff;}</style>
  </defs>
  <path
    fill="#ffffff"
    d="M19.552-18.847a2.076,2.076,0,0,1,.78.144,1.775,1.775,0,0,1,.615.4,1.328,1.328,0,0,1,.345.606,1.492,1.492,0,0,1-.03.779L19.252-2.52H3.119a2.076,2.076,0,0,1-.78-.144,1.775,1.775,0,0,1-.615-.4,1.327,1.327,0,0,1-.345-.62,1.431,1.431,0,0,1,.03-.764L3.419-18.847ZM8.607-16.078,7.167-5.289h6.627L15.5-16.078Zm31.966,1.385L38.833-2.52H33.076l1.439-9.4H31.067l-1.439,9.4H23.87l1.739-11.365-.87-.808ZM58.235-7.51H49.029l-.3,2.221H56.8l1.439-1.1-.87,3.865H44.711a1.564,1.564,0,0,1-1.3-.548,2.159,2.159,0,0,1-.435-1.385l1.439-10.24H59.374Zm-8.366-4.413L49.6-10.28h3.448l.3-1.644Zm19.4-3.606H63.782l.3-3.317h5.757Zm0,.837L67.53-2.52H61.773l1.739-11.365-.87-.808Zm19.671,0L87.2-2.52H81.444l1.439-9.4H79.435L78-2.52H72.238l1.739-11.365-.87-.808Zm11.335,9.4.27-1.933H91.91l1.169-7.471h13.794l-.57,3.577h-4.978l.09-.808H97.967l-.3,1.933h8.366l-.6,5.538a2.409,2.409,0,0,1-.96,1.385,2.689,2.689,0,0,1-1.619.548H91.34l.57-3.865.87,1.1Zm11.875-11.077-.57-.837h6.327l-.39,2.51h3.568l-.6,2.769h-3.329l-.99,6.635h2.879l-.57,2.769h-6.327a1.89,1.89,0,0,1-1.409-.548,1.37,1.37,0,0,1-.33-1.385l1.169-7.471h-2.309l.3-2.769h2.339Zm20.691,4.442h-3.059l-.27,1.1h-5.757l.87-3.865h14.094L136.979-3.9l1.169,1.385H124.625a1.564,1.564,0,0,1-1.3-.548,2.159,2.159,0,0,1-.435-1.385l.87-5.279h8.636Zm-3.9,4.962-.3,1.673h2.879l.3-1.673Zm28.427-4.962h-9.206l-1.139,6.635h8.036l1.439-1.1-.57,3.865H140.968l2.009-12.173H157.67Zm11.035-8.6L167.266-12.5l3.748-2.481h6.327l-8.066,5.25L175.6-2.52h-6.327L166.4-6.126l-.57,3.606h-5.757l2.579-17.163-.84-.837Z"
    transform="translate(-1.341 20.52)" />
</svg>