<svg xmlns="http://www.w3.org/2000/svg" width="30" height="30" viewBox="0 0 30 30">
  <defs>
    <style>.a{fill:none;}.b{fill:#a2a2a2;}</style>
  </defs>
  <g transform="translate(-1069 -569)">
    <rect class="a" width="30" height="30" transform="translate(1069 569)" />
    <path
      fill="#a2a2a2"
      d="M213.543,106H212v-2.858a7.715,7.715,0,0,0-15.387,0V106h-1.541A2.982,2.982,0,0,0,192,108.857v14.285A2.982,2.982,0,0,0,195.077,126h18.465a2.982,2.982,0,0,0,3.079-2.857V108.857A2.982,2.982,0,0,0,213.543,106Zm-9.232,12.857A2.865,2.865,0,1,1,207.388,116,2.982,2.982,0,0,1,204.311,118.858ZM209.081,106h-9.54v-2.858a4.783,4.783,0,0,1,9.54,0Z"
      transform="translate(879.689 473)" />
  </g>
</svg>