<svg xmlns="http://www.w3.org/2000/svg" width="20" height="20" viewBox="0 0 20 20"><defs><style>.a{fill:none;}.b{fill:#79d1ff;}.c{fill:#fff;}</style></defs><g transform="translate(-64 -338)"><rect class="a" width="20" height="20" transform="translate(64 338)"/><g transform="translate(67.627 340.057)"><path class="b" d="M332.787,444.758h-7.669c-.471,0-.852-.229-.852-.512v-.512h9.373v.512C333.639,444.528,333.258,444.758,332.787,444.758Z" transform="translate(-322.58 -436.79)"/><path class="c" d="M142.44,71.506l-5.214,2.446a1.243,1.243,0,0,0-.692,1.132v3.834a7.555,7.555,0,0,0,2.717,5.892l2.988,2.251a1.1,1.1,0,0,0,1.336,0l2.965-2.233a7.568,7.568,0,0,0,2.74-5.91V75.085a1.243,1.243,0,0,0-.692-1.132l-5.214-2.446a1.092,1.092,0,0,0-.933,0Zm-4.748,3.578,5.214-2.446,5.214,2.446v3.833a6.287,6.287,0,0,1-2.272,4.918l-2.942,2.214-2.965-2.233a6.278,6.278,0,0,1-2.249-4.9Z" transform="translate(-136.533 -71.401)"/><path class="b" d="M478.46,290.133c.311,0,.569.344.592.788v7.733c0,.46-.251.838-.571.855s-.592-.333-.614-.791v-7.733C477.867,290.515,478.132,290.133,478.46,290.133Z" transform="translate(-472.18 -287.191)"/></g></g></svg>