<svg xmlns="http://www.w3.org/2000/svg" width="20" height="20" viewBox="0 0 20 20"><defs><style>.a{fill:none;}.b{fill:#2b2b2b;}.c{fill:#154afc;}</style></defs><g transform="translate(-64 -338)"><rect class="a" width="20" height="20" transform="translate(64 338)"/><g transform="translate(66.156 340.669)"><path class="b" d="M114.33,125.226a1.335,1.335,0,0,0-1.3-1.182H113a1.21,1.21,0,0,1-1.216-1.2,1.426,1.426,0,0,1,.106-.443,1.479,1.479,0,0,0-.526-1.809l-1.856-1.018-.076-.035a1.52,1.52,0,0,0-.6-.117,1.632,1.632,0,0,0-1.152.46,2.139,2.139,0,0,1-1,.607,2.135,2.135,0,0,1-1.006-.618,1.621,1.621,0,0,0-1.156-.471,1.54,1.54,0,0,0-.6.117l-1.937,1.041-.076.048a1.47,1.47,0,0,0-.512,1.794,1.38,1.38,0,0,1,.11.447,1.221,1.221,0,0,1-1.264,1.2h-.03a1.327,1.327,0,0,0-1.254,1.193,7.126,7.126,0,0,0,0,3.006,1.331,1.331,0,0,0,1.256,1.182h.074a1.209,1.209,0,0,1,1.216,1.2,1.349,1.349,0,0,1-.108.443,1.479,1.479,0,0,0,.514,1.8l1.829,1.013.074.035a1.483,1.483,0,0,0,.6.119,1.611,1.611,0,0,0,1.167-.484,2.231,2.231,0,0,1,1.023-.646,2.165,2.165,0,0,1,1.028.659,1.582,1.582,0,0,0,1.165.5,1.52,1.52,0,0,0,.6-.119l1.9-1.029.076-.048a1.47,1.47,0,0,0,.51-1.793,1.435,1.435,0,0,1-.108-.447,1.221,1.221,0,0,1,1.267-1.2,1.352,1.352,0,0,0,1.281-1.193,7.227,7.227,0,0,0,0-3.01Zm-1.1,2.807c-.027.141-.1.292-.194.292a2.314,2.314,0,0,0-2.372,2.3,2.449,2.449,0,0,0,.2.871.389.389,0,0,1-.12.467l0,0-1.812.981a.407.407,0,0,1-.121.017.454.454,0,0,1-.33-.132,3.12,3.12,0,0,0-1.861-1.022,3.241,3.241,0,0,0-1.848,1,.5.5,0,0,1-.343.13.378.378,0,0,1-.135-.022l-.019-.009-1.732-.959a.39.39,0,0,1-.106-.436,2.474,2.474,0,0,0,.2-.888,2.321,2.321,0,0,0-2.338-2.3h-.074c-.027-.006-.116-.089-.156-.287a8.418,8.418,0,0,1-.14-1.3,8.2,8.2,0,0,1,.14-1.3.45.45,0,0,1,.146-.29h.036a2.319,2.319,0,0,0,2.383-2.3,2.425,2.425,0,0,0-.2-.873.394.394,0,0,1,.11-.458l.019-.011,1.837-.988a.429.429,0,0,1,.123-.017.5.5,0,0,1,.342.128,2.2,2.2,0,0,0,3.626.019.519.519,0,0,1,.345-.127.381.381,0,0,1,.137.022l.015.007,1.763.966a.4.4,0,0,1,.116.443,2.441,2.441,0,0,0-.2.888,2.319,2.319,0,0,0,2.338,2.3c.159,0,.211.2.228.287a8.086,8.086,0,0,1,.142,1.3A7.585,7.585,0,0,1,113.228,128.033Z" transform="translate(-98.8 -119.4)"/><path class="c" d="M358.834,355.7a4.133,4.133,0,1,0,4.131,4.131A4.133,4.133,0,0,0,358.834,355.7Zm0,6.715a2.581,2.581,0,1,1,2.581-2.581A2.585,2.585,0,0,1,358.834,362.415Z" transform="translate(-350.988 -352.502)"/></g></g></svg>