<svg xmlns="http://www.w3.org/2000/svg" width="20" height="20" viewBox="0 0 20 20"><defs><style>.a{fill:none;}.b{fill:#fff;}.c{fill:#79d1ff;}</style></defs><g transform="translate(-64 -338)"><rect class="a" width="20" height="20" transform="translate(64 338)"/><g transform="translate(66.365 340.732)"><path class="b" d="M69.8,77.5H65.5a.567.567,0,0,1-.529-.6V65.637a.567.567,0,0,1,.529-.6h8.61a.567.567,0,0,1,.529.6V68.6a.485.485,0,1,0,.967,0v-2.96A1.572,1.572,0,0,0,74.106,64H65.5A1.572,1.572,0,0,0,64,65.637V76.9a1.572,1.572,0,0,0,1.5,1.637h4.3a.52.52,0,0,0,0-1.038Z" transform="translate(-64 -64)"/><path class="c" d="M483.8,448a3.8,3.8,0,1,0,3.8,3.8A3.8,3.8,0,0,0,483.8,448Zm0,6.657a2.853,2.853,0,1,1,2.853-2.853A2.853,2.853,0,0,1,483.8,454.657Z" transform="translate(-472.339 -441.072)"/><path class="b" d="M266.445,295.26H265V294.1a.581.581,0,1,0-1.162,0v1.742a.581.581,0,0,0,.581.581h2.023a.581.581,0,1,0,0-1.162Zm-3.475-6.679a.581.581,0,0,0-.581-.581h-5.808a.581.581,0,1,0,0,1.162h5.808A.581.581,0,0,0,262.97,288.581Zm-6.389,4.066a.581.581,0,0,0,0,1.162h1.457a.581.581,0,1,0,0-1.162Z" transform="translate(-253.636 -284.408)"/></g></g></svg>