<svg xmlns="http://www.w3.org/2000/svg" width="22" height="22" viewBox="0 0 22 22">
  <defs>
    <style>.a{fill:#8b8b8b;}.b{fill:none;}</style>
  </defs>
  <g transform="translate(-225 -670.935)">
    <path
      fill="#8b8b8b"
      d="M141.515,61.6H129.009A1.045,1.045,0,0,1,128,60.528V43.742a1.045,1.045,0,0,1,1.009-1.076h8.827a.971.971,0,0,1,.713.315l3.68,3.926a1.106,1.106,0,0,1,.3.761v12.86A1.045,1.045,0,0,1,141.515,61.6ZM129.009,43.527a.209.209,0,0,0-.2.215V60.528a.209.209,0,0,0,.2.215h12.507a.209.209,0,0,0,.2-.215v-12.7h-3.026a1.045,1.045,0,0,1-1.009-1.076V43.527Zm9.481.609v2.619a.209.209,0,0,0,.2.215h2.455Zm.4,13.164h-7.262a.431.431,0,0,1,0-.861h7.262a.431.431,0,0,1,0,.861Zm0-4.3h-7.262a.431.431,0,0,1,0-.861h7.262a.431.431,0,0,1,0,.861Zm-4.034-5.165h-3.228a.431.431,0,0,1,0-.861h3.228a.431.431,0,0,1,0,.861Z"
      transform="translate(100.738 629.799)" />
    <rect class="b" width="22" height="22" transform="translate(225 670.935)" />
  </g>
</svg>