<svg xmlns="http://www.w3.org/2000/svg" width="26" height="26" viewBox="0 0 26 26">
  <defs>
    <style>
      .a,.c{fill:none;}
      .b{fill:#fff;stroke:#fff;stroke-width:0.4px;}
      .c{stroke-width:1.4px;}
    </style>
  </defs>
  <g transform="translate(-64 -338)">
    <rect class="a" width="26" height="26" transform="translate(64 338)" />
    <path fill="#ffffff" stroke="#ffffff"
      d="M18.994,17.766c.032-.036.063-.074.093-.11l.074-.088c.027-.034.055-.067.082-.1l.074-.095.078-.1c.025-.032.048-.065.072-.1s.051-.067.076-.1l.069-.1.074-.105.067-.1c.023-.036.048-.072.072-.107s.044-.067.065-.1.046-.074.069-.112.042-.067.061-.1.046-.078.069-.118l.057-.1c.025-.044.051-.088.076-.135.015-.027.032-.055.046-.084l.114-.215c.015-.027.027-.055.042-.084.023-.046.046-.093.07-.141l.046-.1c.021-.042.04-.086.061-.128l.046-.1c.019-.042.038-.084.055-.126s.029-.072.044-.105.036-.084.053-.126.027-.072.042-.107.034-.086.048-.128.027-.072.04-.107.032-.088.046-.133.025-.072.036-.107l.044-.139c.011-.034.021-.067.034-.1l.044-.15c.008-.032.019-.061.027-.093.019-.065.036-.128.053-.194a.458.458,0,0,1,.015-.051c.021-.082.042-.164.061-.246.006-.027.013-.053.017-.08l.038-.171c.006-.034.013-.067.019-.1.011-.051.021-.1.029-.154l.019-.107.025-.147c.006-.036.011-.074.017-.11s.015-.1.021-.147.011-.074.015-.112.013-.1.017-.147l.013-.112.013-.152c0-.036.006-.074.008-.11,0-.053.006-.105.011-.158l.006-.1.006-.177c0-.029,0-.059,0-.086,0-.088,0-.177,0-.265a10.751,10.751,0,0,0-3.49-7.933l-.008-.008c-.057-.053-.116-.1-.173-.156-.006,0-.011-.011-.017-.015l-.171-.145-.025-.021c-.055-.046-.112-.093-.168-.137a.366.366,0,0,1-.029-.025c-.055-.044-.11-.086-.166-.128-.013-.008-.023-.019-.036-.027l-.164-.122-.042-.032-.162-.114c-.017-.011-.032-.023-.048-.034l-.16-.107c-.017-.013-.036-.023-.053-.036l-.16-.1-.057-.036-.158-.1-.063-.038c-.053-.029-.1-.061-.156-.091L16,1.348c-.051-.029-.1-.057-.156-.084l-.072-.038c-.051-.027-.1-.053-.154-.078l-.078-.038c-.051-.025-.1-.051-.152-.074L15.3,1,15.151.929,15.064.891l-.15-.063L14.824.79c-.048-.021-.1-.04-.147-.059L14.582.7,14.435.64,14.336.6,14.19.554l-.1-.034L13.944.474,13.837.442,13.693.4C13.655.39,13.62.379,13.582.371L13.441.333,13.325.3,13.186.27c-.04-.008-.08-.017-.12-.027L12.929.213C12.887.2,12.845.2,12.8.19L12.668.164c-.042-.008-.086-.015-.131-.021L12.4.122,12.27.1C12.225.1,12.183.091,12.139.086L12,.07,11.872.055,11.726.042c-.04,0-.082-.008-.122-.011L11.448.021,11.335.015,11.154.008c-.032,0-.061,0-.093,0-.091,0-.183,0-.274,0s-.183,0-.274,0c-.032,0-.061,0-.093,0L10.24.015l-.114.006L9.97.032c-.042,0-.082.006-.122.011L9.7.055c-.042,0-.084.008-.126.015L9.435.086C9.391.093,9.349.1,9.3.1L9.17.122,9.037.143,8.906.164,8.772.19,8.645.213C8.6.221,8.555.232,8.508.242s-.08.017-.12.027S8.3.291,8.249.3s-.078.019-.116.029L7.992.371,7.881.4c-.048.013-.095.027-.143.042L7.63.474c-.048.015-.1.029-.143.046l-.1.034L7.238.6c-.034.011-.065.023-.1.036S7.04.676,6.992.7L6.9.731C6.847.75,6.8.771,6.75.79L6.659.828,6.51.891,6.423.929,6.272,1l-.082.038c-.051.023-.1.048-.152.074l-.078.038-.154.078-.072.038c-.053.027-.1.057-.156.084l-.067.038c-.053.029-.105.059-.158.091-.021.013-.042.025-.063.036-.053.032-.105.063-.158.1l-.057.036-.16.1c-.017.011-.036.023-.053.036l-.16.107c-.017.011-.032.021-.048.034l-.162.114-.042.032c-.055.04-.11.08-.164.122-.013.008-.023.019-.036.027l-.166.128a.367.367,0,0,0-.029.025c-.057.044-.112.091-.168.137l-.025.021-.171.145c-.006,0-.011.011-.017.015-.059.051-.116.1-.173.156l-.008.008A10.745,10.745,0,0,0,0,10.787c0,.088,0,.177,0,.265,0,.029,0,.059,0,.086l.006.177.006.1c0,.053.006.105.011.158,0,.036.006.074.008.11l.013.152.013.112c.006.051.011.1.017.147s.008.074.015.112.013.1.021.147.011.074.017.11l.025.15.019.107c.008.051.019.1.029.154.006.034.013.067.019.1l.038.171c.006.027.011.053.017.08.019.082.04.164.061.246a.457.457,0,0,0,.015.051c.017.065.034.131.053.194.008.032.019.061.027.093.015.051.029.1.044.15s.021.067.032.1l.044.139c.013.036.025.072.036.105s.032.088.046.133.025.072.04.107.032.086.048.128.027.072.042.107.034.084.053.126.029.072.044.105S.9,15.1.92,15.14l.046.1.059.128c.015.034.032.065.046.1s.046.093.069.141c.015.027.027.055.042.084l.114.215c.015.027.032.055.046.084s.048.088.076.133l.057.1.069.118c.021.034.042.067.061.1l.069.112c.021.034.044.067.065.1s.046.072.072.107.044.067.067.1.048.069.074.105l.069.1.076.1.072.1.078.1.074.095.082.1c.025.029.048.059.074.091s.061.074.093.11q.351.411.741.788c.059.055.116.112.177.166,0,0,.006.006.011.008.057.053.114.1.173.156.006,0,.011.011.017.015l.168.145.025.021c.055.046.112.091.166.137a.366.366,0,0,1,.029.025c.055.044.11.086.164.128l.038.027.164.122.042.032.162.114c.017.011.032.023.048.034l.16.107c.017.013.036.023.053.036l.158.1a.549.549,0,0,0,.059.036l.158.095.063.038c.053.029.1.061.156.091l.067.038c.051.029.1.057.156.084l.074.038c.051.027.1.053.154.078l.078.038.152.074.082.038.152.069.086.038.15.063.091.038c.048.021.1.04.15.059l.095.036c.048.019.1.038.147.055l.1.036.145.051.1.034.143.046.107.032c.046.015.095.027.143.042s.074.021.112.029l.141.038.116.029.139.034c.04.008.08.017.12.027l.137.029c.042.008.084.017.124.023l.135.025c.042.008.086.015.131.021l.133.021.135.019c.044.006.086.013.131.017l.141.017.126.015.145.013c.04,0,.082.008.122.011l.156.011.114.006.181.006c.032,0,.061,0,.093,0,.091,0,.183,0,.274,0s.183,0,.274,0c.032,0,.061,0,.093,0l.181-.006.114-.006.156-.011c.042,0,.082-.006.122-.011l.145-.013c.042,0,.084-.008.126-.015l.141-.017c.044-.006.086-.013.131-.017l.135-.019.133-.021.131-.021.135-.025.124-.023c.046-.008.091-.019.137-.029s.08-.017.12-.027.093-.021.139-.034.078-.019.116-.029l.141-.038.112-.029c.048-.013.095-.027.143-.042l.107-.032c.048-.015.1-.029.143-.046l.1-.034.145-.051c.034-.011.065-.023.1-.036s.1-.036.147-.055l.095-.036.15-.059.091-.038.15-.063.086-.038.152-.069.082-.038c.051-.023.1-.048.152-.074l.078-.038.154-.078.074-.038c.053-.027.1-.055.156-.084l.067-.038c.053-.029.105-.059.156-.091l.063-.038.158-.095a.549.549,0,0,1,.059-.036l.158-.1c.017-.011.036-.023.053-.036l.16-.107c.017-.011.032-.023.048-.034l.162-.114.042-.032c.055-.04.11-.08.164-.122l.038-.027c.055-.042.112-.084.164-.128a.367.367,0,0,0,.029-.025c.057-.044.112-.091.166-.137l.025-.021c.057-.048.114-.1.168-.145.006,0,.011-.011.017-.015.059-.051.116-.1.173-.156,0,0,.006-.006.011-.008.059-.055.118-.11.177-.166a10.084,10.084,0,0,0,.741-.788ZM20.6,11.52c0,.034-.006.069-.008.1l-.013.139c0,.036-.008.072-.011.107s-.011.088-.015.133-.008.072-.015.107-.013.086-.019.128-.011.074-.017.11-.015.084-.021.126l-.019.11c-.008.042-.015.084-.023.124s-.015.074-.023.11-.017.082-.027.122-.017.072-.025.11-.019.082-.029.122-.017.072-.027.107-.021.08-.034.122-.019.072-.029.105-.023.08-.036.12l-.032.105c-.013.04-.025.08-.04.12s-.021.067-.034.1-.029.084-.044.124-.023.063-.034.095c-.025.072-.053.141-.08.213-.013.034-.027.069-.042.1s-.029.074-.046.112-.032.072-.046.107-.029.069-.046.1l-.051.11c-.015.034-.032.067-.046.1l-.053.11c-.017.032-.032.065-.048.1s-.038.072-.057.11l-.051.095c-.019.036-.04.072-.059.11s-.034.061-.053.093l-.063.107-.053.091c-.021.036-.042.072-.065.107s-.036.059-.055.088-.044.072-.067.107-.038.057-.057.084-.046.072-.072.105l-.057.082-.076.107c-.019.025-.038.051-.057.078s-.053.072-.08.107-.038.048-.055.072l-.084.11c-.017.021-.034.042-.051.061l-.095.116a.11.11,0,0,1-.021.023c-.088.105-.179.208-.27.312a13.707,13.707,0,0,0-2.5-.88,18.661,18.661,0,0,0,.828-5.208H20.61c0,.023,0,.048,0,.072a1.1,1.1,0,0,1,0,.143ZM16.13,19.049c-.055.036-.11.069-.164.1l-.029.019c-.051.032-.1.063-.156.093a.391.391,0,0,1-.04.023l-.15.086c-.017.008-.032.019-.048.027-.048.027-.1.055-.147.08-.017.011-.036.019-.053.027l-.145.076-.057.029-.145.072-.059.027c-.048.023-.1.046-.147.067l-.059.025c-.051.021-.1.044-.15.065l-.055.023-.158.063-.038.015c-.185.072-.373.137-.564.2l-.038.013c-.046.015-.093.027-.137.042-.019.006-.04.013-.059.017a8.92,8.92,0,0,0,1.725-2.831,13.658,13.658,0,0,1,2.1.7,9.67,9.67,0,0,1-1.215.931l-.013.008ZM7.843,20.184,7.8,20.172c-.192-.061-.379-.126-.564-.2a.182.182,0,0,1-.036-.015L7.047,19.9a.584.584,0,0,0-.055-.021c-.051-.021-.1-.042-.15-.065l-.059-.025c-.048-.021-.1-.044-.147-.067l-.059-.027c-.048-.023-.1-.046-.145-.072l-.057-.029-.145-.076-.053-.027c-.051-.027-.1-.053-.147-.08-.017-.008-.032-.017-.048-.027-.051-.027-.1-.057-.15-.086a.392.392,0,0,0-.04-.023l-.156-.093a.211.211,0,0,0-.029-.017l-.164-.1-.008-.006a9.852,9.852,0,0,1-1.213-.931,13.659,13.659,0,0,1,2.1-.7,8.882,8.882,0,0,0,1.725,2.831c-.019-.006-.04-.013-.059-.017-.055-.021-.1-.036-.145-.048ZM3.2,17.057,3.1,16.941c-.017-.021-.034-.04-.048-.061s-.057-.074-.084-.11-.036-.046-.055-.072l-.08-.107c-.019-.025-.038-.051-.057-.078L2.7,16.406l-.057-.082c-.023-.036-.048-.072-.072-.107s-.038-.057-.055-.084-.046-.072-.067-.107-.036-.059-.055-.088-.044-.072-.065-.107-.036-.061-.053-.091-.042-.072-.061-.107-.034-.061-.053-.093-.04-.072-.059-.107l-.051-.095c-.019-.036-.038-.072-.057-.11s-.032-.065-.048-.1-.036-.074-.053-.11-.032-.067-.046-.1-.034-.072-.051-.11-.029-.069-.046-.1-.032-.072-.046-.107-.032-.076-.046-.114-.027-.067-.042-.1c-.027-.069-.055-.141-.08-.213-.011-.032-.023-.063-.034-.095l-.044-.126c-.011-.034-.023-.067-.034-.1s-.027-.08-.04-.12l-.032-.105c-.013-.04-.025-.08-.036-.12s-.019-.072-.029-.107-.023-.08-.034-.122-.019-.072-.027-.107-.021-.082-.029-.122l-.025-.107c-.008-.042-.019-.082-.027-.124s-.015-.072-.023-.11-.017-.084-.023-.124l-.019-.11c-.006-.042-.015-.084-.021-.126s-.011-.074-.017-.11L1.028,12.1c0-.036-.011-.072-.015-.107S1,11.907,1,11.863s-.008-.072-.011-.107l-.013-.139c0-.034-.006-.069-.008-.1s-.006-.1-.008-.145c0-.023,0-.048,0-.072H5.166A18.572,18.572,0,0,0,5.994,16.5a13.764,13.764,0,0,0-2.5.88c-.093-.1-.183-.208-.274-.314a.022.022,0,0,1-.019-.015ZM5.436,2.525c.055-.036.11-.069.164-.1L5.629,2.4c.051-.032.1-.063.156-.093a.391.391,0,0,1,.04-.023c.051-.029.1-.057.15-.086.017-.008.032-.019.048-.027.048-.027.1-.055.147-.08.017-.011.036-.019.053-.027l.145-.076.057-.029.145-.072.059-.027c.048-.023.1-.046.147-.067l.059-.025c.051-.021.1-.044.15-.065l.055-.023c.053-.021.105-.044.158-.063L7.236,1.6c.185-.072.373-.137.562-.2l.038-.013.139-.042a.482.482,0,0,1,.059-.017A8.92,8.92,0,0,0,6.31,4.164a13.658,13.658,0,0,1-2.1-.7,9.8,9.8,0,0,1,1.213-.931ZM13.725,1.39l.038.013c.19.061.379.126.564.2l.038.015.158.063c.019.008.038.015.055.023.051.021.1.042.15.065l.059.025c.048.021.1.044.147.067l.059.027.147.072.057.027.147.076.053.027c.048.027.1.053.147.08.017.008.032.019.048.027.051.027.1.057.15.086a.391.391,0,0,0,.04.023l.156.093.029.019.164.1.008.006a10.255,10.255,0,0,1,1.215.931,13.658,13.658,0,0,1-2.1.7,8.882,8.882,0,0,0-1.725-2.831l.057.017c.046.019.093.032.139.046ZM16.4,10.271a18.572,18.572,0,0,0-.828-5.208,13.764,13.764,0,0,0,2.5-.88,9.812,9.812,0,0,1,2.538,6.091H16.4ZM10.267,4.686A18.885,18.885,0,0,1,7.259,4.37C8.018,2.546,9.083,1.291,10.267,1Zm0,.937v4.648H6.1a17.655,17.655,0,0,1,.826-5A20,20,0,0,0,10.267,5.623Zm0,5.68v4.648a20,20,0,0,0-3.34.352,17.668,17.668,0,0,1-.826-5Zm0,5.585V20.57c-1.184-.286-2.249-1.542-3.007-3.365A18.911,18.911,0,0,1,10.267,16.888Zm1.032,0a18.885,18.885,0,0,1,3.007.316c-.758,1.824-1.824,3.079-3.007,3.365V16.888Zm0-.937V11.3h4.166a17.655,17.655,0,0,1-.826,5,20,20,0,0,0-3.34-.352Zm0-5.68V5.623a20,20,0,0,0,3.34-.352,17.668,17.668,0,0,1,.826,5Zm0-5.585V1c1.184.286,2.249,1.542,3.007,3.365a18.911,18.911,0,0,1-3.007.316ZM3.49,4.18a13.708,13.708,0,0,0,2.5.88,18.661,18.661,0,0,0-.828,5.208H.952A9.793,9.793,0,0,1,3.49,4.18Z"
      transform="translate(66.215 340.213)" />
    <path class="c" stroke="#eab170"
      d="M1085-1183.366s-5.353.556-5.145,10.671S1085-1162.68,1085-1162.68"
      transform="translate(-1008 1524)" />
    <path class="c" stroke="#eab170"
      d="M1079.85-1183.366s5.353.556,5.145,10.671-5.145,10.015-5.145,10.015"
      transform="translate(-1002.85 1524)" />
  </g>
</svg>