<svg xmlns="http://www.w3.org/2000/svg" width="20" height="20" viewBox="0 0 20 20"><defs><style>.a,.c{fill:none;}.b{fill:#2b2b2b;stroke:#2b2b2b;stroke-width:0.4px;}.c{stroke:#154afc;}</style></defs><g transform="translate(-64 -338)"><rect class="a" width="20" height="20" transform="translate(64 338)"/><path class="b" d="M13.711,12.825c.023-.026.046-.053.067-.079l.053-.064c.02-.024.04-.049.059-.074l.053-.068L14,12.467c.018-.023.035-.047.052-.07s.036-.049.055-.074l.05-.071.053-.076.049-.071.052-.078.047-.073c.017-.026.033-.053.05-.081s.03-.049.044-.073.033-.056.05-.085l.041-.07c.018-.032.036-.064.055-.1s.023-.04.033-.061l.082-.155c.011-.02.02-.04.03-.061s.033-.067.05-.1l.033-.07c.015-.03.029-.062.044-.093l.033-.074c.014-.03.027-.061.04-.091s.021-.052.032-.076.026-.061.038-.091.02-.052.03-.078.024-.062.035-.093.02-.052.029-.078.023-.064.033-.1.018-.052.026-.078l.032-.1c.008-.024.015-.049.024-.074l.032-.108c.006-.023.014-.044.02-.067.014-.047.026-.093.038-.14a.331.331,0,0,1,.011-.036c.015-.059.03-.119.044-.178,0-.02.009-.038.012-.058l.027-.123c0-.024.009-.049.014-.071s.015-.073.021-.111l.014-.078L15.474,9c0-.026.008-.053.012-.079s.011-.071.015-.106.008-.053.011-.081.009-.071.012-.106l.009-.081.009-.109c0-.026,0-.053.006-.079s0-.076.008-.114l0-.074,0-.128c0-.021,0-.043,0-.062,0-.064,0-.128,0-.192a7.761,7.761,0,0,0-2.519-5.727l-.006-.006-.125-.113-.012-.011-.123-.1-.018-.015c-.04-.033-.081-.067-.122-.1L12.624,1.7c-.04-.032-.079-.062-.12-.093l-.026-.02-.119-.088-.03-.023-.117-.082-.035-.024-.116-.078-.038-.026-.116-.073-.041-.026-.114-.07-.046-.027L11.595,1,11.546.973c-.036-.021-.074-.041-.112-.061L11.382.885c-.036-.02-.074-.038-.111-.056L11.215.8c-.036-.018-.073-.036-.109-.053L11.046.721,10.936.67,10.874.643,10.766.6,10.7.57c-.035-.015-.071-.029-.106-.043L10.526.5l-.106-.04L10.348.436,10.243.4,10.169.376l-.1-.033L9.988.319l-.1-.03C9.857.281,9.831.274,9.8.268L9.7.24,9.618.219l-.1-.024C9.489.189,9.46.182,9.431.175l-.1-.021C9.3.147,9.272.141,9.241.137l-.1-.018C9.114.113,9.082.108,9.05.1l-.1-.015-.1-.014c-.032,0-.062-.009-.094-.012L8.661.05,8.569.04,8.464.03,8.376.023,8.264.015l-.082,0-.131,0c-.023,0-.044,0-.067,0-.065,0-.132,0-.2,0s-.132,0-.2,0c-.023,0-.044,0-.067,0l-.131,0-.082,0L7.2.023c-.03,0-.059,0-.088.008L7,.04c-.03,0-.061.006-.091.011l-.1.012c-.032,0-.062.009-.094.012l-.1.014L6.523.1,6.429.119l-.1.018L6.24.154c-.033.006-.065.014-.1.021s-.058.012-.087.02-.067.015-.1.024L5.871.24l-.1.027L5.689.289c-.035.009-.068.02-.1.03L5.508.342c-.035.011-.07.021-.1.033L5.33.4l-.1.036C5.2.444,5.178.453,5.153.462L5.047.5,4.979.528,4.872.57,4.807.6,4.7.643,4.637.67l-.109.05L4.468.748C4.431.765,4.395.783,4.358.8L4.3.829,4.191.885,4.14.912,4.027.973,3.978,1c-.038.021-.076.043-.114.065-.015.009-.03.018-.046.026-.038.023-.076.046-.114.07l-.041.026-.116.073-.038.026-.116.078-.035.024-.117.082-.03.023c-.04.029-.079.058-.119.088l-.026.02-.12.093-.021.018c-.041.032-.081.065-.122.1l-.018.015-.123.1-.012.011c-.043.036-.084.074-.125.113L2.52,2.06A7.757,7.757,0,0,0,0,7.787c0,.064,0,.128,0,.192C0,8,0,8.021,0,8.041l0,.128,0,.074c0,.038,0,.076.008.114s0,.053.006.079l.009.109.009.081c0,.036.008.071.012.106s.006.053.011.081.009.071.015.106S.091,8.973.1,9l.018.108.014.078c.006.036.014.073.021.111s.009.049.014.071L.19,9.49c0,.02.008.038.012.058.014.059.029.119.044.178a.33.33,0,0,0,.011.036c.012.047.024.094.038.14.006.023.014.044.02.067s.021.073.032.108.015.049.023.074l.032.1c.009.026.018.052.026.076s.023.064.033.1.018.052.029.078.023.062.035.093.02.052.03.078.024.061.038.091.021.052.032.076.026.061.04.091L.7,11,.74,11.1c.011.024.023.047.033.071s.033.067.05.1c.011.02.02.04.03.061l.082.155c.011.02.023.04.033.061s.035.064.055.1l.041.07.05.085c.015.024.03.049.044.073l.05.081.047.073c.017.026.033.052.052.078s.032.049.049.071.035.05.053.076l.05.071.055.074.052.07.056.073.053.068.059.074c.018.021.035.043.053.065s.044.053.067.079q.253.3.535.569c.043.04.084.081.128.12l.008.006.125.113.012.011.122.1.018.015.12.1.021.018c.04.032.079.062.119.093l.027.02.119.088.03.023.117.082.035.024.116.078.038.026.114.073a.4.4,0,0,0,.043.026l.114.068.046.027.112.065.049.027c.036.021.074.041.112.061l.053.027c.036.02.073.038.111.056l.056.027.109.053.059.027.109.05.062.027.108.046L4.869,15c.035.015.071.029.108.043l.068.026.106.04.071.026.1.036L5.4,15.2l.1.033.078.023.1.03c.027.008.053.015.081.021l.1.027.084.021.1.024c.029.006.058.012.087.02l.1.021.09.017.1.018c.03.006.062.011.094.015l.1.015.1.014c.032,0,.062.009.094.012l.1.012L7,15.535l.1.009.088.008.112.008.082,0,.131,0c.023,0,.044,0,.067,0,.065,0,.132,0,.2,0s.132,0,.2,0c.023,0,.044,0,.067,0l.131,0,.082,0,.112-.008c.03,0,.059,0,.088-.008l.1-.009c.03,0,.061-.006.091-.011l.1-.012c.032,0,.062-.009.094-.012l.1-.014.1-.015.094-.015.1-.018.09-.017c.033-.006.065-.014.1-.021s.058-.012.087-.02.067-.015.1-.024l.084-.021.1-.027.081-.021c.035-.009.068-.02.1-.03l.078-.023c.035-.011.07-.021.1-.033l.074-.024.1-.036c.024-.008.047-.017.071-.026l.106-.04.068-.026L10.7,15l.065-.027.108-.046.062-.027.109-.05.059-.027c.036-.017.073-.035.109-.053l.056-.027.111-.056.053-.027.112-.061.049-.027c.038-.021.076-.043.112-.065l.046-.027.114-.068a.4.4,0,0,1,.043-.026l.114-.073.038-.026.116-.078.035-.024.117-.082.03-.023c.04-.029.079-.058.119-.088l.027-.02c.04-.03.081-.061.119-.093l.021-.018c.041-.032.081-.065.12-.1l.018-.015.122-.1.012-.011c.043-.036.084-.074.125-.113l.008-.006c.043-.04.085-.079.128-.12a7.28,7.28,0,0,0,.535-.569Zm1.16-4.509c0,.024,0,.05-.006.074l-.009.1c0,.026-.006.052-.008.078s-.008.064-.011.1-.006.052-.011.078-.009.062-.014.093-.008.053-.012.079-.011.061-.015.091l-.014.079c-.006.03-.011.061-.017.09s-.011.053-.017.079-.012.059-.02.088-.012.052-.018.079-.014.059-.021.088-.012.052-.02.078-.015.058-.024.088-.014.052-.021.076-.017.058-.026.087l-.023.076c-.009.029-.018.058-.029.087s-.015.049-.024.074-.021.061-.032.09-.017.046-.024.068c-.018.052-.038.1-.058.154-.009.024-.02.05-.03.074s-.021.053-.033.081-.023.052-.033.078-.021.05-.033.074l-.036.079c-.011.024-.023.049-.033.073l-.038.079c-.012.023-.023.047-.035.07s-.027.052-.041.079l-.036.068c-.014.026-.029.052-.043.079s-.024.044-.038.067l-.046.078-.038.065c-.015.026-.03.052-.047.078l-.04.064-.049.078c-.014.021-.027.041-.041.061s-.033.052-.052.076l-.041.059-.055.078c-.014.018-.027.036-.041.056s-.038.052-.058.078-.027.035-.04.052l-.061.079c-.012.015-.024.03-.036.044l-.068.084a.08.08,0,0,1-.015.017c-.064.076-.129.151-.195.225a9.894,9.894,0,0,0-1.806-.635,13.472,13.472,0,0,0,.6-3.76h3.04c0,.017,0,.035,0,.052a.791.791,0,0,1,0,.1Zm-3.227,5.435c-.04.026-.079.05-.119.074l-.021.014c-.036.023-.074.046-.112.067l-.029.017-.108.062-.035.02-.106.058c-.012.008-.026.014-.038.02l-.1.055-.041.021-.1.052-.043.02c-.035.017-.07.033-.106.049l-.043.018-.108.047-.04.017-.114.046-.027.011c-.134.052-.269.1-.407.143l-.027.009-.1.03-.043.012a6.439,6.439,0,0,0,1.245-2.043,9.859,9.859,0,0,1,1.517.5,6.98,6.98,0,0,1-.877.672l-.009.006Zm-5.982.819-.027-.009c-.138-.044-.274-.091-.407-.143a.132.132,0,0,1-.026-.011l-.114-.046-.04-.015c-.036-.015-.073-.03-.108-.047L4.9,14.282l-.106-.049-.043-.02c-.035-.017-.07-.033-.1-.052L4.6,14.141l-.1-.055-.038-.02-.106-.058-.035-.02c-.036-.02-.073-.041-.108-.062l-.029-.017-.112-.067a.152.152,0,0,0-.021-.012l-.119-.074-.006,0a7.112,7.112,0,0,1-.876-.672,9.859,9.859,0,0,1,1.517-.5,6.412,6.412,0,0,0,1.245,2.043l-.043-.012c-.04-.015-.073-.026-.1-.035ZM2.309,12.313l-.068-.084c-.012-.015-.024-.029-.035-.044s-.041-.053-.061-.079-.026-.033-.04-.052l-.058-.078c-.014-.018-.027-.036-.041-.056l-.055-.078-.041-.059-.052-.078c-.014-.02-.027-.041-.04-.061s-.033-.052-.049-.078l-.04-.064-.047-.078c-.014-.021-.026-.044-.038-.065s-.03-.052-.044-.078-.024-.044-.038-.067l-.043-.078-.036-.068c-.014-.026-.027-.052-.041-.079s-.023-.047-.035-.07-.026-.053-.038-.079-.023-.049-.033-.073-.024-.052-.036-.079-.021-.05-.033-.074-.023-.052-.033-.078-.023-.055-.033-.082-.02-.049-.03-.073c-.02-.05-.04-.1-.058-.154-.008-.023-.017-.046-.024-.068l-.032-.091c-.008-.024-.017-.049-.024-.074S1.012,9.938,1,9.909L.981,9.833C.971,9.8.962,9.776.955,9.747S.941,9.7.933,9.669.917,9.611.909,9.581.9,9.529.889,9.5.874,9.444.868,9.415L.85,9.338c-.006-.03-.014-.059-.02-.09S.819,9.2.813,9.169.8,9.108.8,9.079L.783,9c0-.03-.011-.061-.015-.091S.76,8.856.756,8.83L.742,8.737c0-.026-.008-.052-.011-.078S.724,8.6.721,8.564.714,8.512.713,8.486L.7,8.386c0-.024,0-.05-.006-.074s0-.07-.006-.1c0-.017,0-.035,0-.052h3.04a13.408,13.408,0,0,0,.6,3.76,9.935,9.935,0,0,0-1.806.635c-.067-.074-.132-.151-.2-.227a.016.016,0,0,1-.014-.011ZM3.924,1.823c.04-.026.079-.05.119-.074l.021-.014c.036-.023.074-.046.112-.067L4.2,1.651c.036-.021.073-.041.108-.062l.035-.02.106-.058c.012-.008.026-.014.038-.02l.1-.055.041-.021.1-.052.043-.02c.035-.017.07-.033.106-.049l.043-.018.108-.047.04-.017c.038-.015.076-.032.114-.046l.027-.011c.134-.052.269-.1.406-.143L5.657,1l.1-.03A.348.348,0,0,1,5.8.962,6.439,6.439,0,0,0,4.555,3.006a9.859,9.859,0,0,1-1.517-.5,7.077,7.077,0,0,1,.876-.672ZM9.907,1l.027.009c.137.044.274.091.407.143l.027.011.114.046.04.017c.036.015.073.03.108.047l.043.018.106.049.043.02.106.052.041.02.106.055.038.02.106.058.035.02c.036.02.073.041.108.062l.029.017.112.067.021.014.119.074.006,0a7.4,7.4,0,0,1,.877.672,9.859,9.859,0,0,1-1.517.5A6.412,6.412,0,0,0,9.766.958L9.807.97c.033.014.067.023.1.033Zm1.932,6.411a13.408,13.408,0,0,0-.6-3.76,9.935,9.935,0,0,0,1.806-.635,7.084,7.084,0,0,1,1.832,4.4h-3.04ZM7.411,3.383A13.631,13.631,0,0,1,5.24,3.155,3.767,3.767,0,0,1,7.411.725Zm0,.677V7.415H4.4A12.746,12.746,0,0,1,5,3.805,14.438,14.438,0,0,0,7.411,4.059Zm0,4.1v3.355A14.438,14.438,0,0,0,5,11.769,12.755,12.755,0,0,1,4.4,8.16Zm0,4.032v2.658A3.767,3.767,0,0,1,5.24,12.42,13.65,13.65,0,0,1,7.411,12.191Zm.745,0a13.631,13.631,0,0,1,2.171.228,3.767,3.767,0,0,1-2.171,2.429V12.191Zm0-.677V8.16h3.007a12.746,12.746,0,0,1-.6,3.609,14.439,14.439,0,0,0-2.411-.254Zm0-4.1V4.059a14.438,14.438,0,0,0,2.411-.254,12.755,12.755,0,0,1,.6,3.609Zm0-4.032V.725a3.767,3.767,0,0,1,2.171,2.429,13.65,13.65,0,0,1-2.171.228ZM2.519,3.018a9.894,9.894,0,0,0,1.806.635,13.472,13.472,0,0,0-.6,3.76H.687A7.07,7.07,0,0,1,2.519,3.018Z" transform="translate(66.215 340.213)"/><path class="c" d="M1083.511-1183.366s-3.805.395-3.657,7.576,3.657,7.11,3.657,7.11" transform="translate(-1009.511 1524)"/><path class="c" d="M1079.85-1183.366s3.852.395,3.7,7.576-3.7,7.11-3.7,7.11" transform="translate(-1005.849 1524)"/></g></svg>