<svg width="24" height="24" viewBox="0 0 24 24" fill="none" xmlns="http://www.w3.org/2000/svg">
<path d="M5 7C4.44772 7 4 7.44772 4 8V21C4 21.5523 4.44772 22 5 22H19C19.5523 22 20 21.5523 20 21V8C20 7.44772 19.5523 7 19 7H13.0001V12.6497L14.405 11.2447L15.8192 12.6589L12.7128 15.7656C12.3183 16.1601 11.6788 16.1601 11.2844 15.7657L8.17798 12.6591L9.59223 11.245L11.0001 12.6529V7H5Z" fill="black"/>
<path fill-rule="evenodd" clip-rule="evenodd" d="M13 2L13.0001 7H11.0001L11 2L13 2Z" fill="black"/>
</svg>
