<svg height="56" viewBox="0 0 56 56" width="56" xmlns="http://www.w3.org/2000/svg" xmlns:xlink="http://www.w3.org/1999/xlink"><title>add_Add_emoticon_button</title><desc>Created with Sketch.</desc><defs/><g fill="none" fill-rule="evenodd" id="add_Add_emoticon_button" stroke="none" stroke-width="1"><g id="Group" transform="translate(-0.666667, -0.666667)"><path d="M1.66666667 50.6666667C1.66666667 53.4202846 3.89260508 55.6540068 6.64326181 55.666613L6.6468384 55.6702168V56.6656231H6.63124216C3.33709807 56.6656231.666666667 53.9951917.666666667 50.7010476.666666667 50.6895872.666699697 50.6781269.666765757 50.6666667H1.66666667z" fill="#000" id="Combined-Shape"/><path d="M51.6666667 50.6666667C51.6666667 53.4202846 53.8926051 55.6540068 56.6432618 55.666613L56.6468384 55.6702168V56.6656231H56.6312422C53.3370981 56.6656231 50.6666667 53.9951917 50.6666667 50.7010476 50.6666667 50.6895872 50.6666997 50.6781269 50.6667658 50.6666667H51.6666667z" fill="#000" id="Combined-Shape-Copy" transform="translate(53.656753, 53.666145) scale(-1, 1) translate(-53.656753, -53.666145)"/><path d="M51.6666667.666666667C51.6666667 3.4202846 53.8926051 5.65400677 56.6432618 5.66661304L56.6468384 5.67021679V6.66562309H56.6312422C53.3370981 6.66562309 50.6666667 3.99519168 50.6666667.7010476 50.6666667.689587218 50.6666997.678126859 50.6667658.666666667H51.6666667z" fill="#000" id="Combined-Shape-Copy-2" transform="translate(53.656753, 3.666145) scale(-1, -1) translate(-53.656753, -3.666145)"/><path d="M1.66666667.666666667C1.66666667 3.4202846 3.89260508 5.65400677 6.64326181 5.66661304L6.6468384 5.67021679V6.66562309H6.63124216C3.33709807 6.66562309.666666667 3.99519168.666666667.7010476.666666667.689587218.666699697.678126859.666765757.666666667H1.66666667z" fill="#000" id="Combined-Shape-Copy-3" transform="translate(3.656753, 3.666145) scale(1, -1) translate(-3.656753, -3.666145)"/><path d="M11.1666667 1.16666667h5" id="Line-2-Copy" stroke="#000" stroke-linecap="square"/><path d="M11.1666667 56.1666667h5" id="Line-2-Copy-3" stroke="#000" stroke-linecap="square"/><path d="M21.1666667 56.1666667h5" id="Line-2-Copy-14" stroke="#000" stroke-linecap="square"/><path d="M31.1666667 1.16666667h5" id="Line-2-Copy-2" stroke="#000" stroke-linecap="square"/><path d="M41.1666667 1.16666667h5" id="Line-2-Copy-6" stroke="#000" stroke-linecap="square"/><path d="M41.1666667 56.1666667h5" id="Line-2-Copy-4" stroke="#000" stroke-linecap="square"/><path d="M56.1666667 11.1666667v5" id="Line-2-Copy-7" stroke="#000" stroke-linecap="square"/><path d="M1.16666667 21.1666667v5" id="Line-2-Copy-10" stroke="#000" stroke-linecap="square"/><path d="M1.16666667 11.1666667v5" id="Line-2-Copy-15" stroke="#000" stroke-linecap="square"/><path d="M31.1666667 56.1666667h5" id="Line-2-Copy-5" stroke="#000" stroke-linecap="square"/><path d="M56.1666667 26.1666667v-5" id="Line-2-Copy-8" stroke="#000" stroke-linecap="square"/><path d="M1.16666667 36.1666667v-5" id="Line-2-Copy-11" stroke="#000" stroke-linecap="square"/><path d="M56.1666667 36.1666667v-5" id="Line-2-Copy-9" stroke="#000" stroke-linecap="square"/><path d="M1.16666667 46.1666667v-5" id="Line-2-Copy-12" stroke="#000" stroke-linecap="square"/><path d="M21.1666667 1.16666667h5" id="Line-2" stroke="#000" stroke-linecap="square"/><path d="M56.1666667 46.1666667v-5" id="Line-2-Copy-13" stroke="#000" stroke-linecap="square"/></g><g id="Icons/Outlined/camera" transform="translate(15.333333, 17.333333)"><mask fill="#fff" id="mask-2"><g xlink:href="#path-1"/></mask><g fill="#000" fill-rule="nonzero" id="camera" xlink:href="#path-1"><path d="M15.5483972 2.35555556H9.78493618L7.34049173 6.02222222H1.91111111V18.9777778H23.4222222V6.02222222H17.9928416L15.5483972 2.35555556zM16.0062766.888888889C16.2106035.888888889 16.4014116.991006249 16.5147518 1.16101655l2.263026 3.39453901H23.6666667C24.3416814 4.55555556 24.8888889 5.10276308 24.8888889 5.77777778V19.2222222C24.8888889 19.8972369 24.3416814 20.4444444 23.6666667 20.4444444H1.66666667C.991651972 20.4444444.444444444 19.8972369.444444444 19.2222222V5.77777778C.444444444 5.10276308.991651972 4.55555556 1.66666667 4.55555556H6.55555556l2.263026-3.39453901C8.93192176.991006249 9.12272979.888888889 9.32705674.888888889H16.0062766zM12.6666667 15.3111111C14.5567078 15.3111111 16.0888889 13.77893 16.0888889 11.8888889 16.0888889 9.99884775 14.5567078 8.46666667 12.6666667 8.46666667 10.7766255 8.46666667 9.24444444 9.99884775 9.24444444 11.8888889 9.24444444 13.77893 10.7766255 15.3111111 12.6666667 15.3111111zm0 1.4666666999999993C9.96660789 16.7777778 7.77777778 14.5889477 7.77777778 11.8888889 7.77777778 9.18883011 9.96660789 7 12.6666667 7 15.3667254 7 17.5555556 9.18883011 17.5555556 11.8888889 17.5555556 14.5889477 15.3667254 16.7777778 12.6666667 16.7777778z" id="path-1"/></g></g></g></svg>