<svg width="24" height="24" viewBox="0 0 24 24" xmlns="http://www.w3.org/2000/svg" xmlns:xlink="http://www.w3.org/1999/xlink"><title>0.图标/面型/icons_filled_video_call</title><g id="0.图标/面型/icons_filled_video_call" stroke="none" stroke-width="1" fill="none" fill-rule="evenodd"><path d="M16 5.5C16.5522847 5.5 17 5.94771525 17 6.5v11C17 18.0522847 16.5522847 18.5 16 18.5H3C2.44771525 18.5 2 18.0522847 2 17.5V6.5C2 5.94771525 2.44771525 5.5 3 5.5H16zM22.7808688 7.4559298C22.9227192 7.63324285 23 7.85355335 23 8.08062485V15.9193752C23 16.4716599 22.5522847 16.9193752 22 16.9193752 21.7729285 16.9193752 21.552618 16.8420944 21.375305 16.700244L18 14V10L21.375305 7.29975604C21.8065669 6.95474649 22.4358593 7.02466786 22.7808688 7.4559298z" id="形状" fill="#000"/></g></svg>