<svg width="1240" height="1066" xmlns="http://www.w3.org/2000/svg" xmlns:xlink="http://www.w3.org/1999/xlink" xml:space="preserve" overflow="hidden"><defs><filter id="fx0" x="-10%" y="-10%" width="120%" height="120%" filterUnits="userSpaceOnUse" primitiveUnits="userSpaceOnUse"><feComponentTransfer color-interpolation-filters="sRGB"><feFuncR type="discrete" tableValues="0 0"/><feFuncG type="discrete" tableValues="0 0"/><feFuncB type="discrete" tableValues="0 0"/><feFuncA type="linear" slope="0.4" intercept="0"/></feComponentTransfer><feGaussianBlur stdDeviation="5.76706 5.76706"/></filter><filter id="fx1" x="-10%" y="-10%" width="120%" height="120%" filterUnits="userSpaceOnUse" primitiveUnits="userSpaceOnUse"><feComponentTransfer color-interpolation-filters="sRGB"><feFuncR type="discrete" tableValues="0 0"/><feFuncG type="discrete" tableValues="0 0"/><feFuncB type="discrete" tableValues="0 0"/><feFuncA type="linear" slope="0.4" intercept="0"/></feComponentTransfer><feGaussianBlur stdDeviation="5.77576 5.77533"/></filter><linearGradient x1="3739.5" y1="293.404" x2="3739.5" y2="1316.4" gradientUnits="userSpaceOnUse" spreadMethod="reflect" id="fill2"><stop offset="0" stop-color="#6A11CB"/><stop offset="0.3" stop-color="#6A11CB"/><stop offset="0.85" stop-color="#2575FC"/><stop offset="1" stop-color="#2575FC"/></linearGradient><clipPath id="clip3"><rect x="0" y="0" width="332" height="349"/></clipPath><linearGradient x1="3739.5" y1="293.404" x2="3739.5" y2="1316.4" gradientUnits="userSpaceOnUse" spreadMethod="reflect" id="fill4"><stop offset="0" stop-color="#6A11CB"/><stop offset="0.3" stop-color="#6A11CB"/><stop offset="0.85" stop-color="#2575FC"/><stop offset="1" stop-color="#2575FC"/></linearGradient></defs><g transform="translate(-3120 -277)"><g filter="url(#fx0)" transform="matrix(2 0 0 2 3153 492)"><g><path d="M111.331 24.9993C144.374 24.9993 170.266 31.7328 189.009 45.1997 207.752 58.6667 217.123 77.34 217.123 101.22 217.123 119.823 212.09 135.442 202.025 148.076 191.959 160.71 177.833 168.971 159.645 172.858L159.645 173.899C179.777 176.676 195.673 184.347 207.335 196.911 218.997 209.476 224.828 224.921 224.828 243.247 224.828 271.986 214.416 294.269 193.591 310.096 172.765 325.923 142.985 333.837 104.25 333.837 89.8117 333.837 75.5117 332.622 61.3506 330.193 47.1895 327.763 35.0414 324.535 24.9065 320.509L24.9065 250.953C34.2084 256.506 44.8293 260.879 56.769 264.073 68.7088 267.266 80.7874 268.862 93.0049 268.862 107.166 268.862 118.03 266.329 125.596 261.261 133.163 256.194 136.946 248.94 136.946 239.499 136.946 229.919 132.295 222.422 122.993 217.008 113.691 211.593 100.71 208.886 84.05 208.886L55.3113 208.886 55.3113 143.495 80.718 143.495C97.517 143.495 109.908 140.892 117.891 135.685 125.874 130.479 129.865 123.711 129.865 115.381 129.865 107.467 126.846 101.22 120.807 96.638 114.767 92.0564 105.5 89.7656 93.0049 89.7656 73.7069 89.7656 54.4089 95.319 35.1108 106.426L35.1108 39.9934C59.2681 29.9973 84.6748 24.9993 111.331 24.9993Z" stroke="#5F340B" stroke-width="14" stroke-linejoin="round" stroke-miterlimit="10" fill="#FF0000" fill-rule="evenodd"/></g></g><path d="M3375.66 516.138C3441.75 516.138 3493.53 529.605 3531.02 556.538 3568.5 583.472 3587.25 620.819 3587.25 668.578 3587.25 705.786 3577.18 737.023 3557.05 762.291 3536.92 787.559 3508.67 804.081 3472.29 811.855L3472.29 813.938C3512.55 819.491 3544.35 834.832 3567.67 859.962 3590.99 885.091 3602.66 915.981 3602.66 952.634 3602.66 1010.11 3581.83 1054.68 3540.18 1086.33 3498.53 1117.99 3438.97 1133.81 3361.5 1133.81 3332.62 1133.81 3304.02 1131.38 3275.7 1126.52 3247.38 1121.66 3223.08 1115.21 3202.81 1107.16L3202.81 968.044C3221.42 979.151 3242.66 987.898 3266.54 994.284 3290.42 1000.67 3314.57 1003.86 3339.01 1003.86 3367.33 1003.86 3389.06 998.796 3404.19 988.661 3419.33 978.526 3426.89 964.018 3426.89 945.137 3426.89 925.977 3417.59 910.983 3398.99 900.154 3380.38 889.325 3354.42 883.91 3321.1 883.91L3263.62 883.91 3263.62 753.128 3314.44 753.128C3348.03 753.128 3372.82 747.922 3388.78 737.509 3404.75 727.097 3412.73 713.56 3412.73 696.9 3412.73 681.073 3406.69 668.578 3394.61 659.415 3382.53 650.252 3364 645.67 3339.01 645.67 3300.41 645.67 3261.82 656.777 3223.22 678.991L3223.22 546.126C3271.54 526.134 3322.35 516.138 3375.66 516.138Z" stroke="#5F340B" stroke-width="28" stroke-linejoin="round" stroke-miterlimit="10" fill="url(#fill2)" fill-rule="evenodd"/><text fill="#000000" fill-opacity="0" font-family="Arial,Arial_MSFontService,sans-serif" font-size="617.675" x="3202.81" y="1056.6">3</text><g filter="url(#fx1)" transform="matrix(1.99699 0 0 1.99713 3688 502)"><g clip-path="url(#clip3)"><path d="M115.173 95.5233 115.173 253.605 140.41 253.605C161.962 253.605 179.168 246.201 192.03 231.394 204.892 216.587 211.322 196.67 211.322 171.644 211.322 157.046 208.368 143.907 202.458 132.228 196.549 120.549 188.102 111.512 177.118 105.117 166.133 98.7211 153.202 95.5233 138.324 95.5233ZM25.0729 25.0332 148.961 25.0332C254.357 25.0332 307.054 73.6255 307.054 170.81 307.054 201.12 300.693 227.918 287.97 251.206 275.248 274.495 257.068 292.465 233.43 305.117 209.793 317.769 182.54 324.095 151.672 324.095L25.0729 324.095Z" stroke="#5F340B" stroke-width="14.0211" stroke-linejoin="round" stroke-miterlimit="10" fill="#FF0000" fill-rule="evenodd"/></g></g><path d="M3918 666.912 3918 982.622 3968.4 982.622C4011.44 982.622 4045.8 967.836 4071.48 938.264 4097.17 908.692 4110.01 868.916 4110.01 818.936 4110.01 789.781 4104.11 763.541 4092.31 740.217 4080.51 716.892 4063.64 698.844 4041.7 686.071 4019.77 673.298 3993.94 666.912 3964.23 666.912ZM3738.07 526.134 3985.47 526.134C4195.95 526.134 4301.18 623.179 4301.18 817.27 4301.18 877.802 4288.48 931.323 4263.07 977.832 4237.67 1024.34 4201.36 1060.23 4154.16 1085.5 4106.95 1110.77 4052.53 1123.4 3990.89 1123.4L3738.07 1123.4Z" stroke="#5F340B" stroke-width="28" stroke-linejoin="round" stroke-miterlimit="10" fill="url(#fill4)" fill-rule="evenodd"/><text fill="#000000" fill-opacity="0" font-family="Arial,Arial_MSFontService,sans-serif" font-size="597.267" x="3738.07" y="1048.74">D</text></g></svg>