<svg width="64" height="64" xmlns="http://www.w3.org/2000/svg" xmlns:xlink="http://www.w3.org/1999/xlink" xml:space="preserve" overflow="hidden"><g transform="translate(-775 -298)"><path d="M784.847 338.193C784.4 340.414 785.731 345.727 794.148 345.727 799.332 345.727 804.323 342.577 808.384 337.289 802.601 334.472 797.783 333.096 792.406 333.096 787.727 333.096 785.287 335.981 784.847 338.193Z" fill="#1678FF"/><path d="M835.797 340.633 835.8 340.633 835.8 308.88C835.8 304.638 832.362 301.2 828.12 301.2L785.88 301.2C781.638 301.2 778.2 304.638 778.2 308.88L778.2 351.12C778.2 355.362 781.638 358.8 785.88 358.8L828.12 358.8C832.362 358.8 835.8 355.362 835.8 351.12L835.8 349.754 819.958 342.798C817.504 341.695 815.179 340.629 813.329 339.746 808.283 345.86 802.996 349.529 795.03 349.529 787.064 349.529 781.745 344.621 782.384 338.614 782.805 334.674 785.509 328.232 797.25 329.335 803.442 329.916 806.273 331.072 811.321 332.739 812.626 330.343 813.712 327.708 814.535 324.905L792.153 324.905 792.153 322.688 803.229 322.688 803.229 318.702 789.719 318.702 789.719 316.262 803.226 316.262 803.226 310.517C803.226 310.517 803.347 309.618 804.34 309.618L809.878 309.618 809.878 316.262 824.278 316.262 824.278 318.705 809.878 318.705 809.878 322.685 821.625 322.685C820.612 326.879 819.005 330.908 816.854 334.648 820.266 335.887 835.797 340.633 835.797 340.633Z" fill="#1678FF"/></g></svg>