<svg width="55" height="55" xmlns="http://www.w3.org/2000/svg" xmlns:xlink="http://www.w3.org/1999/xlink" xml:space="preserve" overflow="hidden"><defs><clipPath id="clip0"><rect x="281" y="295" width="55" height="55"/></clipPath></defs><g clip-path="url(#clip0)" transform="translate(-281 -295)"><path d="M188.047 40.919C172.86 40.919 160.547 53.2188 160.547 68.3889 160.547 83.5591 172.86 95.8589 188.047 95.8589 203.234 95.8589 215.547 83.5591 215.547 68.3889 215.547 53.2188 203.234 40.919 188.047 40.919ZM203.516 66.3839C203.516 68.2211 202.791 69.992 201.508 71.2996L201.441 71.3598C200.36 72.4261 198.93 73.1506 197.353 73.3317 195.56 76.1353 192.552 78.0597 189.242 78.4219L189.242 81.4331 194.412 81.4331C195.063 81.4331 195.613 81.9699 195.613 82.6402 195.613 83.2907 195.063 83.8473 194.412 83.8473L181.682 83.8473C181.031 83.8473 180.494 83.2907 180.494 82.6402 180.494 81.9765 181.031 81.4331 181.682 81.4331L186.859 81.4331 186.859 78.4219C183.542 78.0597 180.541 76.1353 178.748 73.3317 177.13 73.1506 175.673 72.3996 174.586 71.2996L174.579 71.2996C173.337 70.0389 172.578 68.2885 172.578 66.3839L172.578 59.7376C172.578 59.0803 173.109 58.5438 173.76 58.5438L176.989 58.5438 176.989 54.1242C176.989 53.4602 177.519 52.9304 178.178 52.9304L197.91 52.9304C198.588 52.9304 199.111 53.4602 199.111 54.1242L199.111 58.5438 202.327 58.5438C202.986 58.5438 203.522 59.0803 203.516 59.7376L203.516 66.3839Z" fill="#F7641C" fill-rule="evenodd" transform="matrix(1 0 0 1.0011 120.453 254.036)"/><path d="M177.004 60.9495 174.989 60.9495 174.989 66.411C174.989 67.6699 175.484 68.7945 176.314 69.6496 176.643 70.0065 177.037 70.3031 177.466 70.5252 177.185 69.5419 177.037 68.5454 177.01 67.5218L177.01 60.9495ZM192.66 63.6502 189.447 63.6568 188.456 60.5457C188.41 60.4109 188.309 60.3032 188.175 60.2563 187.941 60.1823 187.693 60.3098 187.613 60.5457L186.623 63.6568 183.409 63.6502C183.269 63.6502 183.128 63.7176 183.048 63.8385 182.901 64.0341 182.948 64.3169 183.142 64.4649L185.752 66.3839 184.755 69.495C184.708 69.6364 184.728 69.7844 184.815 69.9054 184.882 69.9998 184.989 70.0672 185.103 70.0805 185.217 70.1009 185.337 70.0672 185.431 69.9998L188.028 68.0742 190.605 69.9866C190.759 70.1076 190.973 70.1142 191.141 69.9998 191.301 69.8855 191.368 69.6767 191.308 69.4883L190.311 66.3773 192.901 64.4716C193.022 64.3843 193.102 64.2429 193.102 64.0943 193.102 63.9733 193.055 63.859 192.975 63.7777 192.894 63.6971 192.78 63.6502 192.66 63.6502Z" fill="#F7641C" fill-rule="evenodd" transform="matrix(1 0 0 1.0011 120.453 254.036)"/><path d="M199.093 67.5242C199.072 68.54 198.919 69.5497 198.638 70.5252 199.039 70.3236 199.413 70.0275 199.747 69.7044L199.794 69.6502C200.604 68.7957 201.105 67.6723 201.105 66.414L201.105 60.9573 199.086 60.9573 199.086 67.5242Z" fill="#F7641C" fill-rule="evenodd" transform="matrix(1 0 0 1.0011 120.453 254.036)"/><path d="M179.141 81.2965 197.615 81.2965 197.615 89.5405 179.141 89.5405Z" fill="#F7641C" transform="matrix(1 0 0 1.0011 120.453 254.036)"/><path d="M183.474 82.1991 192.801 82.1991 192.801 85.5689 183.474 85.5689Z" fill="#FFFFFF" transform="matrix(1 0 0 1.0011 120.453 254.036)"/><path d="M180.074 84.576 196.261 84.576 196.261 89.8714 180.074 89.8714Z" stroke="#F7641C" stroke-width="0.275802" stroke-miterlimit="8" fill="#FFFFFF" transform="matrix(1 0 0 1.0011 120.453 254.036)"/><path d="M182.15 85.8698 194.125 85.8698 194.125 88.2768 182.15 88.2768Z" fill="#F7641C" transform="matrix(1 0 0 1.0011 120.453 254.036)"/><path d="M186.904 77.5055 189.371 77.5055 189.371 84.2451 186.904 84.2451Z" fill="#FFFFFF" transform="matrix(1 0 0 1.0011 120.453 254.036)"/></g></svg>