<svg width="64" height="63" xmlns="http://www.w3.org/2000/svg" xmlns:xlink="http://www.w3.org/1999/xlink" xml:space="preserve" overflow="hidden"><g transform="translate(-518 -297)"><path d="M52.29 3.15 10.71 3.15C6.53468 3.15 3.15 6.53468 3.15 10.71L3.15 52.29C3.15 56.4653 6.53468 59.85 10.71 59.85L52.29 59.85C56.4653 59.85 59.85 56.4653 59.85 52.29L59.85 10.71C59.85 6.53468 56.4653 3.15 52.29 3.15ZM19.1529 17.5272C21.0316 17.5272 22.5521 18.8965 22.5521 20.5749 22.5521 22.2522 21.0316 23.62 19.1529 23.62 17.2771 23.62 15.7569 22.2525 15.7569 20.5749 15.7569 18.8969 17.2774 17.5272 19.1529 17.5272ZM21.9879 35.8246C21.0915 38.6023 21.3142 37.5723 17.755 45.3039L12.6 42.0894C12.6 42.0894 18.3487 36.8569 19.5325 34.4673 20.7809 31.9445 18.1519 30.601 18.1519 30.601L14.204 28.1396 16.3365 24.851C19.3158 27.062 19.5388 27.2478 21.5498 29.2607 23.1027 30.8199 22.9071 32.9855 21.9879 35.8246ZM50.0122 39.4326C49.0071 48.8631 36.7375 45.3606 36.7375 45.3606L37.4028 42.6598 40.2428 43.2719C45.5017 43.6061 44.9886 39.0118 44.9886 39.0118L44.9886 25.6605C45.0327 20.5928 40.2217 20.0661 31.5895 23.1541L33.6007 23.6971C33.424 24.2909 32.7707 25.2142 31.9407 26.2285L43.4905 26.2285 43.4905 28.5639 36.9886 28.5639 36.9886 31.488 43.4624 31.488 43.4624 33.8234 36.9889 33.8234 36.9889 38.7248C37.955 38.4004 38.8622 37.9625 39.6478 37.3801L39.0739 35.2416 42.1335 34.2922 44.6727 40.526 40.9119 42.0894 40.2425 39.604C38.5667 40.8914 35.0702 42.7505 28.9769 42.5864 22.462 42.7531 24.1321 35.2413 24.1321 35.2413L24.2988 35.154 28.8767 35.154C28.8468 36.1242 28.4524 37.6979 28.9942 38.5547 29.4339 39.2578 30.5818 39.38 31.3123 39.4128 31.3935 39.4238 31.4808 39.4238 31.5662 39.427L31.5662 33.8234 24.9228 33.8234 24.9228 31.488 31.5662 31.488 31.5662 28.5636 29.8604 28.5636C28.3651 30.1496 27.0034 31.4625 27.0034 31.4625L24.9984 29.7089C26.4225 28.2114 27.8473 25.842 28.7236 24.2541 27.9832 24.5558 27.2472 24.8681 26.5158 25.1909 25.7229 26.1869 24.875 27.1378 23.9759 28.0391 24.0109 28.092 20.7002 26.1844 20.7002 26.1844 24.1221 23.2612 26.041 17.0034 26.041 17.0034L30.8039 18.3339C30.8039 18.3339 30.4035 19.2623 29.5958 20.6788 48.6527 15.2829 49.7583 23.9869 49.7583 23.9869 49.7583 23.9869 51.0139 29.9993 50.0122 39.4326Z" fill="#FF5000" transform="matrix(1.00581 0 0 1 518.069 297)"/></g></svg>