<svg width="94" height="94" viewBox="0 0 94 94" fill="none" xmlns="http://www.w3.org/2000/svg">
<g clip-path="url(#clip0_6868_2939)">
<path d="M10.7129 30.7036L11.9766 27.2148L16.2405 28.7594L15.5385 30.6975L10.7129 30.7036Z" fill="#FAD518"/>
<path d="M18.1413 22.2686L16.4922 23.0931L18.5536 27.2159L19.3782 26.8036L18.1413 22.2686Z" fill="#FAD518"/>
<path d="M1.43928 49.9689L7.69363 49.8276L5.20072 54.9677L1.43928 49.9689Z" fill="#AA6FFD"/>
<rect x="46.707" y="9.07422" width="3.29825" height="3.29825" transform="rotate(41.3861 46.707 9.07422)" fill="#77ECB0"/>
<circle cx="78.7411" cy="26.8026" r="2.0614" fill="#F7787C"/>
<rect x="82.4609" y="69.2686" width="2.47282" height="2.47282" fill="#7FE026"/>
<path d="M82.4551 47.1718C83.1102 45.2475 85.5488 41.5564 90.0623 42.187C90.7575 42.3044 92.1203 42.8977 92.0101 44.3311C91.9 45.7645 90.4459 46.1018 89.7327 46.0913C88.0396 45.6953 85.9986 43.7775 91.3794 39.2745L94.2194 37.1142" stroke="#F4D422" stroke-width="1.64912" stroke-linecap="round"/>
<path d="M75.8599 56.0716C75.8599 72.0103 62.939 84.9312 47.0003 84.9312C31.0615 84.9312 18.1406 72.0103 18.1406 56.0716C18.1406 53.8154 18.3995 51.6197 18.8892 49.5125C19.3125 47.6913 19.9082 45.9362 20.6582 44.2653C21.4382 42.5276 22.3852 40.881 23.4786 39.3461C24.5231 37.8798 25.7012 36.5154 26.9953 35.2706C28.3972 33.9219 29.9352 32.7137 31.5866 31.6684C33.0349 30.7517 34.5704 29.9604 36.1779 29.3097C38.0555 28.5497 40.0313 27.9815 42.081 27.6295C43.6797 27.355 45.3233 27.2119 47.0003 27.2119C62.939 27.2119 75.8599 40.1328 75.8599 56.0716Z" fill="url(#paint0_linear_6868_2939)"/>
<path d="M61.6654 51.9997H32.332V49.333H61.6654V51.9997ZM37.6654 62.6663H44.332V58.6663H37.6654V62.6663ZM61.6654 47.9997V46.9997C61.6649 46.5578 61.4891 46.1342 61.1767 45.8217C60.8642 45.5093 60.4406 45.3335 59.9987 45.333H33.9987C33.5568 45.3335 33.1332 45.5093 32.8207 45.8217C32.5083 46.1342 32.3325 46.5578 32.332 46.9997V47.9997H61.6654ZM61.6654 53.333V66.333C61.6649 66.7749 61.4891 67.1985 61.1767 67.511C60.8642 67.8234 60.4406 67.9992 59.9987 67.9997H33.9987C33.5568 67.9992 33.1332 67.8234 32.8207 67.511C32.5083 67.1985 32.3325 66.7749 32.332 66.333V53.333H61.6654ZM45.6654 58.4997C45.665 58.1904 45.542 57.8938 45.3233 57.6751C45.1046 57.4564 44.808 57.3333 44.4987 57.333H37.4987C37.1894 57.3333 36.8928 57.4564 36.6741 57.6751C36.4554 57.8938 36.3324 58.1904 36.332 58.4997V62.833C36.3324 63.1423 36.4554 63.4389 36.6741 63.6576C36.8928 63.8763 37.1894 63.9993 37.4987 63.9997H44.4987C44.808 63.9993 45.1046 63.8763 45.3233 63.6576C45.542 63.4389 45.665 63.1423 45.6654 62.833V58.4997ZM54.9987 61.9997C54.9987 61.9121 54.9815 61.8254 54.948 61.7445C54.9144 61.6637 54.8653 61.5902 54.8034 61.5283C54.7415 61.4664 54.668 61.4173 54.5872 61.3838C54.5063 61.3503 54.4196 61.333 54.332 61.333H50.332C50.1552 61.333 49.9857 61.4032 49.8606 61.5283C49.7356 61.6533 49.6654 61.8229 49.6654 61.9997C49.6654 62.1765 49.7356 62.3461 49.8606 62.4711C49.9857 62.5961 50.1552 62.6663 50.332 62.6663H54.332C54.5088 62.6663 54.6784 62.5961 54.8034 62.4711C54.9285 62.3461 54.9987 62.1765 54.9987 61.9997ZM57.6654 61.9997C57.6654 61.8678 57.6263 61.7389 57.553 61.6293C57.4798 61.5197 57.3756 61.4342 57.2538 61.3838C57.132 61.3333 56.998 61.3201 56.8686 61.3458C56.7393 61.3715 56.6205 61.435 56.5273 61.5283C56.4341 61.6215 56.3706 61.7403 56.3448 61.8696C56.3191 61.9989 56.3323 62.133 56.3828 62.2548C56.4332 62.3766 56.5187 62.4807 56.6283 62.554C56.738 62.6272 56.8668 62.6663 56.9987 62.6663C57.1755 62.6663 57.3451 62.5961 57.4701 62.4711C57.5951 62.3461 57.6654 62.1765 57.6654 61.9997Z" fill="white"/>
</g>
<defs>
<linearGradient id="paint0_linear_6868_2939" x1="21.645" y1="27.2119" x2="71.011" y2="30.2357" gradientUnits="userSpaceOnUse">
<stop stop-color="#006FFF"/>
<stop offset="1" stop-color="#087BFF"/>
</linearGradient>
<clipPath id="clip0_6868_2939">
<rect width="94" height="94" fill="white"/>
</clipPath>
</defs>
</svg>
