<svg width="20" height="20" viewBox="0 0 20 20" fill="none" xmlns="http://www.w3.org/2000/svg">
<circle cx="10" cy="10" r="10" fill="#F2F2F2"/>
<g filter="url(#filter0_b_6648_9189)">
<path d="M5 7.77778C5 6.24365 6.24365 5 7.77778 5H13.1511C13.7648 5 14.2622 5.49746 14.2622 6.11111V15.999H6.11111C5.49746 15.999 5 15.5016 5 14.8879V7.77778Z" fill="url(#paint0_linear_6648_9189)"/>
</g>
<g filter="url(#filter1_bi_6648_9189)">
<path d="M5 7.19922H14.5233C15.137 7.19922 15.6344 7.69668 15.6344 8.31033V14.8873C15.6344 15.501 15.137 15.9984 14.5233 15.9984H6.11111C5.49746 15.9984 5 15.501 5 14.8873V7.19922Z" fill="#087BFF" fill-opacity="0.1"/>
</g>
<ellipse cx="12.3739" cy="11.4162" rx="0.514569" ry="0.549951" fill="white"/>
<path d="M5.88281 6.72822C5.88281 6.46788 6.09386 6.25684 6.3542 6.25684H12.9723C13.2791 6.25684 13.5278 6.50557 13.5278 6.81239V7.19961H6.3542C6.09386 7.19961 5.88281 6.98856 5.88281 6.72822Z" fill="white"/>
<path fill-rule="evenodd" clip-rule="evenodd" d="M12.4551 10.6884L15.419 10.6884V12.1437L12.4551 12.1437C12.0532 12.1437 11.7274 11.8179 11.7274 11.416C11.7274 11.0142 12.0532 10.6884 12.4551 10.6884ZM12.4551 12.6993C11.7464 12.6993 11.1719 12.1247 11.1719 11.416C11.1719 10.7073 11.7464 10.1328 12.4551 10.1328L15.419 10.1328L15.9745 10.1328V10.6884V12.1437V12.6993H15.419L12.4551 12.6993Z" fill="white"/>
<defs>
<filter id="filter0_b_6648_9189" x="2.77778" y="2.77778" width="13.7062" height="15.4435" filterUnits="userSpaceOnUse" color-interpolation-filters="sRGB">
<feFlood flood-opacity="0" result="BackgroundImageFix"/>
<feGaussianBlur in="BackgroundImageFix" stdDeviation="1.11111"/>
<feComposite in2="SourceAlpha" operator="in" result="effect1_backgroundBlur_6648_9189"/>
<feBlend mode="normal" in="SourceGraphic" in2="effect1_backgroundBlur_6648_9189" result="shape"/>
</filter>
<filter id="filter1_bi_6648_9189" x="0.555556" y="2.75477" width="19.5217" height="17.6877" filterUnits="userSpaceOnUse" color-interpolation-filters="sRGB">
<feFlood flood-opacity="0" result="BackgroundImageFix"/>
<feGaussianBlur in="BackgroundImageFix" stdDeviation="2.22222"/>
<feComposite in2="SourceAlpha" operator="in" result="effect1_backgroundBlur_6648_9189"/>
<feBlend mode="normal" in="SourceGraphic" in2="effect1_backgroundBlur_6648_9189" result="shape"/>
<feColorMatrix in="SourceAlpha" type="matrix" values="0 0 0 0 0 0 0 0 0 0 0 0 0 0 0 0 0 0 127 0" result="hardAlpha"/>
<feOffset dy="0.555556"/>
<feGaussianBlur stdDeviation="0.555556"/>
<feComposite in2="hardAlpha" operator="arithmetic" k2="-1" k3="1"/>
<feColorMatrix type="matrix" values="0 0 0 0 1 0 0 0 0 1 0 0 0 0 1 0 0 0 0.25 0"/>
<feBlend mode="normal" in2="shape" result="effect2_innerShadow_6648_9189"/>
</filter>
<linearGradient id="paint0_linear_6648_9189" x1="5.56235" y1="5" x2="13.4928" y2="5.40905" gradientUnits="userSpaceOnUse">
<stop stop-color="#006FFF"/>
<stop offset="1" stop-color="#087BFF"/>
</linearGradient>
</defs>
</svg>
