<svg width="94" height="94" viewBox="0 0 94 94" fill="none" xmlns="http://www.w3.org/2000/svg">
<g clip-path="url(#clip0_211_11605)">
<path d="M10.7148 30.704L11.9785 27.2153L16.2425 28.7598L15.5404 30.698L10.7148 30.704Z" fill="#FAD518"/>
<path d="M18.1403 22.2686L16.4912 23.0931L18.5526 27.2159L19.3772 26.8036L18.1403 22.2686Z" fill="#FAD518"/>
<path d="M1.43928 49.9694L7.69363 49.8281L5.20072 54.9682L1.43928 49.9694Z" fill="#AA6FFD"/>
<rect x="46.7061" y="9.07422" width="3.29825" height="3.29825" transform="rotate(41.3861 46.7061 9.07422)" fill="#77ECB0"/>
<circle cx="78.7421" cy="26.8021" r="2.0614" fill="#F7787C"/>
<rect x="82.4619" y="69.2686" width="2.47282" height="2.47282" fill="#7FE026"/>
<path d="M82.4541 47.1718C83.1092 45.2475 85.5478 41.5564 90.0614 42.187C90.7565 42.3044 92.1193 42.8977 92.0092 44.3311C91.899 45.7645 90.445 46.1018 89.7317 46.0913C88.0386 45.6953 85.9976 43.7775 91.3784 39.2745L94.2184 37.1142" stroke="#F4D422" stroke-width="1.64912" stroke-linecap="round"/>
<path d="M75.8619 56.0716C75.8619 72.0103 62.941 84.9312 47.0022 84.9312C31.0635 84.9312 18.1426 72.0103 18.1426 56.0716C18.1426 53.8154 18.4015 51.6197 18.8912 49.5125C19.3145 47.6913 19.9102 45.9362 20.6601 44.2653C21.4402 42.5276 22.3871 40.881 23.4805 39.3461C24.525 37.8798 25.7032 36.5154 26.9972 35.2706C28.3992 33.9219 29.9372 32.7137 31.5885 31.6684C33.0368 30.7517 34.5724 29.9604 36.1799 29.3097C38.0575 28.5497 40.0333 27.9815 42.083 27.6295C43.6816 27.355 45.3252 27.2119 47.0022 27.2119C62.941 27.2119 75.8619 40.1328 75.8619 56.0716Z" fill="url(#paint0_linear_211_11605)"/>
<path d="M39.0531 60.3845H55.0093C55.5687 60.3845 56.025 59.9313 56.025 59.3688V52.972C56.025 48.497 52.7562 44.7876 48.4781 44.097C48.5437 43.9251 48.5812 43.7345 48.5812 43.5407C48.5812 42.6845 47.8875 41.9907 47.0312 41.9907C46.1749 41.9907 45.4812 42.6845 45.4812 43.5407C45.4812 43.7376 45.5187 43.9251 45.5843 44.097C41.3062 44.7876 38.0374 48.5001 38.0374 52.972V59.3688C38.0374 59.9282 38.4937 60.3845 39.0531 60.3845ZM47.0312 69.9876C48.4187 69.9876 49.5406 68.8626 49.5406 67.4782H44.5218C44.5218 68.8657 45.6437 69.9876 47.0312 69.9876ZM59.4906 64.4063L58.9687 63.3657C58.5062 62.4376 57.4781 61.7376 56.6406 61.7376H37.4218C36.5843 61.7376 35.5562 62.4376 35.0937 63.3657L34.5718 64.4063C34.0249 65.5032 34.3656 66.4657 35.3812 66.4657H58.6812C59.6968 66.4657 60.0406 65.5032 59.4906 64.4063Z" fill="white"/>
</g>
<defs>
<linearGradient id="paint0_linear_211_11605" x1="21.647" y1="27.2119" x2="71.013" y2="30.2357" gradientUnits="userSpaceOnUse">
<stop stop-color="#006FFF"/>
<stop offset="1" stop-color="#087BFF"/>
</linearGradient>
<clipPath id="clip0_211_11605">
<rect width="94" height="94" fill="white"/>
</clipPath>
</defs>
</svg>
