<svg width="94" height="94" viewBox="0 0 94 94" fill="none" xmlns="http://www.w3.org/2000/svg">
<g clip-path="url(#clip0_211_11587)">
<path d="M10.7148 30.704L11.9785 27.2153L16.2425 28.7598L15.5404 30.698L10.7148 30.704Z" fill="#FAD518"/>
<path d="M18.1403 22.2686L16.4912 23.0931L18.5526 27.2159L19.3772 26.8036L18.1403 22.2686Z" fill="#FAD518"/>
<path d="M1.43928 49.9694L7.69363 49.8281L5.20072 54.9682L1.43928 49.9694Z" fill="#AA6FFD"/>
<rect x="46.7061" y="9.07422" width="3.29825" height="3.29825" transform="rotate(41.3861 46.7061 9.07422)" fill="#77ECB0"/>
<circle cx="78.7421" cy="26.8021" r="2.0614" fill="#F7787C"/>
<rect x="82.4619" y="69.2686" width="2.47282" height="2.47282" fill="#7FE026"/>
<path d="M82.4541 47.1718C83.1092 45.2475 85.5478 41.5564 90.0614 42.187C90.7565 42.3044 92.1193 42.8977 92.0092 44.3311C91.899 45.7645 90.445 46.1018 89.7317 46.0913C88.0386 45.6953 85.9976 43.7775 91.3784 39.2745L94.2184 37.1142" stroke="#F4D422" stroke-width="1.64912" stroke-linecap="round"/>
<path d="M75.8619 56.0716C75.8619 72.0103 62.941 84.9312 47.0022 84.9312C31.0635 84.9312 18.1426 72.0103 18.1426 56.0716C18.1426 53.8154 18.4015 51.6197 18.8912 49.5125C19.3145 47.6913 19.9102 45.9362 20.6601 44.2653C21.4402 42.5276 22.3871 40.881 23.4805 39.3461C24.525 37.8798 25.7032 36.5154 26.9972 35.2706C28.3992 33.9219 29.9372 32.7137 31.5885 31.6684C33.0368 30.7517 34.5724 29.9604 36.1799 29.3097C38.0575 28.5497 40.0333 27.9815 42.083 27.6295C43.6816 27.355 45.3252 27.2119 47.0022 27.2119C62.941 27.2119 75.8619 40.1328 75.8619 56.0716Z" fill="url(#paint0_linear_211_11587)"/>
<path d="M57.2783 47.3906L46.8889 42.938C46.7965 42.8984 46.697 42.8779 46.5964 42.8779C46.4959 42.8779 46.3964 42.8984 46.304 42.938L35.9145 47.3906C35.7811 47.4478 35.6673 47.543 35.5874 47.6642C35.5075 47.7854 35.4649 47.9274 35.4649 48.0727V54.8578C35.4606 57.8299 36.3101 60.7407 37.9122 63.2439C39.5143 65.7472 41.8017 67.7377 44.5023 68.9787C45.4204 69.3982 46.0862 69.5937 46.5964 69.5937C47.1066 69.5937 47.7724 69.3982 48.6906 68.9787C51.3939 67.7433 53.6822 65.7523 55.2795 63.2457C56.8804 60.7411 57.7301 57.8303 57.728 54.8578V48.0727C57.728 47.9274 57.6854 47.7854 57.6055 47.6642C57.5255 47.543 57.4118 47.4478 57.2783 47.3906ZM50.0892 57.9373C50.1581 58.0062 50.2128 58.0881 50.2501 58.1781C50.2874 58.2682 50.3066 58.3647 50.3066 58.4621C50.3066 58.5596 50.2874 58.6561 50.2501 58.7462C50.2128 58.8362 50.1581 58.918 50.0892 58.9869C50.0203 59.0559 49.9385 59.1105 49.8484 59.1478C49.7584 59.1851 49.6619 59.2043 49.5644 59.2043C49.4669 59.2043 49.3704 59.1851 49.2804 59.1478C49.1903 59.1105 49.1085 59.0559 49.0396 58.9869L46.5964 56.5431L44.1528 58.9869C44.0839 59.0559 44.0021 59.1105 43.912 59.1478C43.822 59.1851 43.7255 59.2043 43.628 59.2043C43.5306 59.2043 43.434 59.1851 43.344 59.1478C43.2539 59.1105 43.1721 59.0559 43.1032 58.9869C43.0343 58.918 42.9796 58.8362 42.9423 58.7462C42.905 58.6561 42.8858 58.5596 42.8858 58.4621C42.8858 58.3647 42.905 58.2682 42.9423 58.1781C42.9796 58.0881 43.0343 58.0062 43.1032 57.9373L45.5471 55.4937L43.1032 53.0501C42.964 52.9109 42.8858 52.7221 42.8858 52.5253C42.8858 52.3284 42.964 52.1397 43.1032 52.0005C43.2424 51.8613 43.4312 51.7831 43.628 51.7831C43.8249 51.7831 44.0136 51.8613 44.1528 52.0005L46.5964 54.4443L49.0401 52.0005C49.1792 51.8613 49.368 51.7831 49.5649 51.7831C49.7617 51.7831 49.9505 51.8613 50.0897 52.0005C50.2289 52.1397 50.307 52.3284 50.307 52.5253C50.307 52.7221 50.2289 52.9109 50.0897 53.0501L47.6458 55.4937L50.0892 57.9373Z" fill="white"/>
</g>
<defs>
<linearGradient id="paint0_linear_211_11587" x1="21.647" y1="27.2119" x2="71.013" y2="30.2357" gradientUnits="userSpaceOnUse">
<stop stop-color="#006FFF"/>
<stop offset="1" stop-color="#087BFF"/>
</linearGradient>
<clipPath id="clip0_211_11587">
<rect width="94" height="94" fill="white"/>
</clipPath>
</defs>
</svg>
