<svg width="60" height="60" viewBox="0 0 60 60" fill="none" xmlns="http://www.w3.org/2000/svg">
<path d="M1.5 30C1.5 14.2599 14.2599 1.5 30 1.5C45.7401 1.5 58.5 14.2599 58.5 30C58.5 45.7401 45.7401 58.5 30 58.5C14.2599 58.5 1.5 45.7401 1.5 30Z" fill="url(#paint0_linear_6648_9084)" stroke="#F7F8F9" stroke-width="3"/>
<path d="M26.4169 36.6465C26.0762 36.6465 25.7947 36.3933 25.7501 36.0649L25.744 35.9736L25.744 23.7551C25.744 23.3835 26.0453 23.0822 26.4169 23.0822C26.7576 23.0822 27.0391 23.3354 27.0837 23.6638L27.0898 23.7551L27.0898 35.9736C27.0898 36.3452 26.7886 36.6465 26.4169 36.6465Z" fill="white"/>
<path d="M23.2365 27.9053C22.9743 28.1687 22.5482 28.1697 22.2848 27.9075C22.0454 27.6692 22.0228 27.2954 22.2177 27.0315L22.2826 26.9559L25.9414 23.2802C26.1805 23.0399 26.5558 23.0181 26.8197 23.2146L26.8953 23.2802L30.554 26.9559C30.8162 27.2193 30.8152 27.6453 30.5518 27.9075C30.3123 28.1459 29.9384 28.1667 29.6755 27.9706L29.6001 27.9053L26.4187 24.7094L23.2365 27.9053Z" fill="white"/>
<path d="M35.3232 39.0811C34.9825 39.0811 34.7009 38.8279 34.6564 38.4994L34.6502 38.4081L34.6502 26.1897C34.6502 25.818 34.9515 25.5168 35.3232 25.5168C35.6638 25.5168 35.9454 25.7699 35.99 26.0984L35.9961 26.1897L35.9961 38.4081C35.9961 38.7798 35.6948 39.0811 35.3232 39.0811Z" fill="white"/>
<path d="M35.8015 38.8838C35.5624 39.1241 35.1871 39.1459 34.9232 38.9494L34.8476 38.8838L31.1889 35.2081C30.9267 34.9447 30.9277 34.5187 31.1911 34.2565C31.4305 34.0181 31.8044 33.9973 32.0674 34.1933L32.1428 34.2587L35.3248 37.4556L38.5064 34.2587C38.7447 34.0192 39.1185 33.9966 39.3824 34.1915L39.4581 34.2565C39.6975 34.4948 39.7201 34.8686 39.5252 35.1325L39.4603 35.2081L35.8015 38.8838Z" fill="white"/>
<defs>
<linearGradient id="paint0_linear_6648_9084" x1="3.64286" y1="-1.28151e-06" x2="54.9595" y2="3.14322" gradientUnits="userSpaceOnUse">
<stop stop-color="#006FFF"/>
<stop offset="1" stop-color="#087BFF"/>
</linearGradient>
</defs>
</svg>
