<svg width="40" height="40" viewBox="0 0 40 40" fill="none" xmlns="http://www.w3.org/2000/svg">
<circle cx="13.5" cy="13.5" r="1.5" fill="#474747"/>
<path d="M26.1847 30.1084C26.1506 30.1084 26.1137 30.1084 26.0796 30.1055H12.4846C11.5751 30.1055 11.0492 29.7218 10.7707 29.4006C10.1596 28.6957 10.2079 27.7407 10.2363 27.4735V19.3018H11.6916V27.5758L11.6859 27.6185C11.6689 27.7634 11.666 28.2154 11.8735 28.4513C11.9161 28.4996 12.0497 28.6531 12.4846 28.6531H26.1336L26.1506 28.6559C26.199 28.6588 26.6594 28.6644 26.9465 28.3944C27.1398 28.2125 27.2364 27.9112 27.2364 27.5019V19.2932H28.6917V27.4962C28.6917 28.5394 28.2767 29.142 27.9299 29.4632C27.3046 30.043 26.5116 30.1084 26.1847 30.1084ZM10.964 19.9839H8.72703C8.42574 19.9839 8.15288 19.7963 8.04771 19.5149C7.9397 19.2335 8.01929 18.9124 8.24383 18.7134L18.9822 9.18299C19.2551 8.94139 19.6672 8.93855 19.9429 9.17731L30.8291 18.631C31.0565 18.8271 31.139 19.1426 31.0366 19.424C30.9372 19.7054 30.6728 19.8986 30.3715 19.9072L27.984 19.9754C27.5832 19.9868 27.2478 19.6713 27.2364 19.2676C27.225 18.8669 27.5405 18.5315 27.9442 18.5201L28.4672 18.5059L19.4711 10.6951L10.6428 18.5286H10.964C11.3647 18.5286 11.6916 18.8555 11.6916 19.2563C11.6916 19.657 11.3647 19.9839 10.964 19.9839ZM17.0267 29.3864C16.8647 29.3864 16.7084 29.321 16.5918 29.2073C16.4753 29.0908 16.4127 28.9373 16.4127 28.7725V23.6363C16.4127 23.5255 16.4412 23.0707 16.8675 22.6358C17.3848 22.11 18.266 21.8428 19.4796 21.8428C20.6763 21.8428 21.546 22.1128 22.0633 22.6472C22.5011 23.0991 22.5295 23.5738 22.5266 23.6989V28.7526C22.5266 28.9714 22.4101 29.1732 22.2197 29.2841C22.0292 29.3949 21.7962 29.3949 21.6057 29.2841C21.4153 29.1732 21.2987 28.9714 21.2987 28.7526V23.7074C21.2959 23.6818 21.2703 23.5681 21.1168 23.4459C20.9435 23.3066 20.5029 23.0736 19.4796 23.0736C18.2915 23.0736 17.868 23.372 17.743 23.4999C17.6804 23.5624 17.6549 23.6164 17.6435 23.6505C17.6435 23.6534 17.6406 23.6591 17.6406 23.6619V28.7725C17.6406 28.9345 17.5753 29.0908 17.4616 29.2073C17.345 29.321 17.1887 29.3864 17.0267 29.3864Z" fill="#5E6480"/>
<path d="M30.7355 15H33V28.5566C31 32.5 28 33.5 24 33" stroke="#5E6480" stroke-width="1.5" stroke-linecap="round" stroke-linejoin="round"/>
</svg>
