<svg width="40" height="40" viewBox="0 0 40 40" fill="none" xmlns="http://www.w3.org/2000/svg">
<g clip-path="url(#clip0_6648_8819)">
<g filter="url(#filter0_d_6648_8819)">
<path d="M32 14H22.5C22.5 14.6812 24.0957 16.6704 23 20.5C22.7553 21.3554 26.1461 24.4776 26 25.5C25.7607 27.1753 18.6083 26.4747 18.5793 27.5C18.5113 29.9019 19.12 30.7992 20.872 31.5C21.872 31.9 23.1 32 27.5 32C31.9 32 33.6666 30 34 28V16C34 14.8954 33.1045 14 32 14Z" fill="url(#paint0_linear_6648_8819)"/>
<g filter="url(#filter1_i_6648_8819)">
<path d="M13.7998 16.1859L6.74414 17.491C6.0957 17.5845 5.7334 16.7605 6.23633 16.3368L11.0059 11.5651C11.8896 10.8021 13.168 10.7255 14.1357 11.3768L19 14.9697V16.7035C19 17.2758 19.0498 17.84 19.1445 18.3923C19.2471 18.9845 19.4004 19.5631 19.5986 20.1234H10.5508C9.97266 20.1234 9.68262 19.4166 10.0918 19.0032L13.7998 16.1859Z" fill="white"/>
<path d="M25.2773 16.8262L29.3672 18.8896C31.0693 19.7493 32.0957 21.5179 31.9932 23.4572C31.8555 26.0493 29.5674 28.0004 26.9961 28H6.72168C6.32324 28 6 27.6719 6 27.2699C6 26.9287 6.23438 26.6329 6.56445 26.5591C10.2021 25.7429 16.2539 24.3402 24.2002 24.0609C21.7637 22.4207 20.2998 19.6599 20.2998 16.7035V12.2484L17.8799 11.2291C17.6396 11.1082 17.6396 10.7632 17.8799 10.6422L20.2998 9.62341L17.7959 7.55823C17.5908 7.35156 17.7363 7 18.0254 7H27.6719C28.0811 7 28.4668 7.19275 28.7119 7.52332L31.7402 11.5995C31.8848 11.7946 31.9727 12.0264 31.9941 12.2692C32.0166 12.5118 31.9707 12.7559 31.8623 12.9739L31.2812 14.1478C31.1729 14.3658 31.0078 14.5492 30.8018 14.6772C30.5967 14.8054 30.3604 14.8733 30.1182 14.8734H28.8604C28.5156 14.8734 28.1846 14.7351 27.9414 14.489L26.7998 13.5609H24.2002V15.0657C24.2002 15.2231 24.2188 15.3792 24.2549 15.5306C24.3037 15.7311 24.3828 15.9235 24.4912 16.1005C24.5518 16.1997 24.6211 16.293 24.6982 16.3792C24.8613 16.5629 25.0576 16.7148 25.2773 16.8262Z" fill="white"/>
</g>
<path d="M26.1665 11.6386C26.7726 11.6738 27.2776 11.2329 27.421 10.6304L25.0477 10C24.784 11.1123 25.6778 11.6103 26.1665 11.6386Z" fill="url(#paint1_linear_6648_8819)"/>
</g>
</g>
<defs>
<filter id="filter0_d_6648_8819" x="-2" y="3.5" width="40" height="37" filterUnits="userSpaceOnUse" color-interpolation-filters="sRGB">
<feFlood flood-opacity="0" result="BackgroundImageFix"/>
<feColorMatrix in="SourceAlpha" type="matrix" values="0 0 0 0 0 0 0 0 0 0 0 0 0 0 0 0 0 0 127 0" result="hardAlpha"/>
<feOffset dx="-2" dy="2.5"/>
<feGaussianBlur stdDeviation="3"/>
<feComposite in2="hardAlpha" operator="out"/>
<feColorMatrix type="matrix" values="0 0 0 0 0.372619 0 0 0 0 0.57129 0 0 0 0 1 0 0 0 0.6 0"/>
<feBlend mode="normal" in2="BackgroundImageFix" result="effect1_dropShadow_6648_8819"/>
<feBlend mode="normal" in="SourceGraphic" in2="effect1_dropShadow_6648_8819" result="shape"/>
</filter>
<filter id="filter1_i_6648_8819" x="2" y="3" width="30" height="25" filterUnits="userSpaceOnUse" color-interpolation-filters="sRGB">
<feFlood flood-opacity="0" result="BackgroundImageFix"/>
<feBlend mode="normal" in="SourceGraphic" in2="BackgroundImageFix" result="shape"/>
<feColorMatrix in="SourceAlpha" type="matrix" values="0 0 0 0 0 0 0 0 0 0 0 0 0 0 0 0 0 0 127 0" result="hardAlpha"/>
<feOffset dx="-4" dy="-4"/>
<feGaussianBlur stdDeviation="2"/>
<feComposite in2="hardAlpha" operator="arithmetic" k2="-1" k3="1"/>
<feColorMatrix type="matrix" values="0 0 0 0 0.756863 0 0 0 0 0.847059 0 0 0 0 1 0 0 0 1 0"/>
<feBlend mode="normal" in2="shape" result="effect1_innerShadow_6648_8819"/>
</filter>
<linearGradient id="paint0_linear_6648_8819" x1="19.5108" y1="14" x2="32.7172" y2="14.6932" gradientUnits="userSpaceOnUse">
<stop stop-color="#006FFF"/>
<stop offset="1" stop-color="#087BFF"/>
</linearGradient>
<linearGradient id="paint1_linear_6648_8819" x1="25.147" y1="10" x2="27.2086" y2="10.1863" gradientUnits="userSpaceOnUse">
<stop stop-color="#006FFF"/>
<stop offset="1" stop-color="#087BFF"/>
</linearGradient>
<clipPath id="clip0_6648_8819">
<rect width="40" height="40" fill="white"/>
</clipPath>
</defs>
</svg>
