<svg width="40" height="40" viewBox="0 0 40 40" fill="none" xmlns="http://www.w3.org/2000/svg">
<g clip-path="url(#clip0_6648_8795)">
<g filter="url(#filter0_d_6648_8795)">
<path d="M31.9979 14H17.9979C17.9979 14.5031 15.1537 15.8029 15.4976 18C15.7234 19.4422 19.315 21.2809 18.9979 23.5C18.1979 29.1 18.37 30.5 20.87 31.5C21.87 31.9 23.0979 32 27.4979 32C31.8979 32 33.6646 30 33.9979 28V16C33.9979 14.8954 33.1025 14 31.9979 14Z" fill="url(#paint0_linear_6648_8795)"/>
<g filter="url(#filter1_i_6648_8795)">
<path d="M26.385 7H10.485C9.29613 7.00119 8.15627 7.47389 7.31547 8.31441C6.47467 9.15493 6.00159 10.2946 6 11.4835V24.184C6.00119 25.3731 6.4741 26.5132 7.31494 27.3541C8.15578 28.1949 9.29587 28.6678 10.485 28.669H26.385C27.5739 28.6674 28.7136 28.1943 29.5541 27.3535C30.3946 26.5127 30.8673 25.3729 30.8685 24.184V11.4835C30.8669 10.2949 30.394 9.15542 29.5536 8.31494C28.7131 7.47446 27.5736 7.00159 26.385 7ZM29.3745 20.896H20.691C20.2913 20.896 19.8956 20.8173 19.5263 20.6643C19.157 20.5114 18.8215 20.2872 18.5389 20.0046C18.2563 19.722 18.0321 19.3865 17.8792 19.0172C17.7262 18.6479 17.6475 18.2522 17.6475 17.8525C17.6475 17.4528 17.7262 17.0571 17.8792 16.6878C18.0321 16.3185 18.2563 15.983 18.5389 15.7004C18.8215 15.4178 19.157 15.1936 19.5263 15.0407C19.8956 14.8877 20.2913 14.809 20.691 14.809H29.3685L29.3745 20.896Z" fill="white"/>
</g>
<path d="M20 17.936C20 18.1842 20.0986 18.4223 20.2741 18.5979C20.4497 18.7734 20.6878 18.872 20.936 18.872C21.1842 18.872 21.4223 18.7734 21.5979 18.5979C21.7734 18.4223 21.872 18.1842 21.872 17.936C21.872 17.6878 21.7734 17.4497 21.5979 17.2741C21.4223 17.0986 21.1842 17 20.936 17C20.6878 17 20.4497 17.0986 20.2741 17.2741C20.0986 17.4497 20 17.6878 20 17.936Z" fill="white"/>
</g>
</g>
<defs>
<filter id="filter0_d_6648_8795" x="-2" y="3.5" width="39.9961" height="37" filterUnits="userSpaceOnUse" color-interpolation-filters="sRGB">
<feFlood flood-opacity="0" result="BackgroundImageFix"/>
<feColorMatrix in="SourceAlpha" type="matrix" values="0 0 0 0 0 0 0 0 0 0 0 0 0 0 0 0 0 0 127 0" result="hardAlpha"/>
<feOffset dx="-2" dy="2.5"/>
<feGaussianBlur stdDeviation="3"/>
<feComposite in2="hardAlpha" operator="out"/>
<feColorMatrix type="matrix" values="0 0 0 0 0.372619 0 0 0 0 0.57129 0 0 0 0 1 0 0 0 0.6 0"/>
<feBlend mode="normal" in2="BackgroundImageFix" result="effect1_dropShadow_6648_8795"/>
<feBlend mode="normal" in="SourceGraphic" in2="effect1_dropShadow_6648_8795" result="shape"/>
</filter>
<filter id="filter1_i_6648_8795" x="2" y="3" width="28.8672" height="25.6689" filterUnits="userSpaceOnUse" color-interpolation-filters="sRGB">
<feFlood flood-opacity="0" result="BackgroundImageFix"/>
<feBlend mode="normal" in="SourceGraphic" in2="BackgroundImageFix" result="shape"/>
<feColorMatrix in="SourceAlpha" type="matrix" values="0 0 0 0 0 0 0 0 0 0 0 0 0 0 0 0 0 0 127 0" result="hardAlpha"/>
<feOffset dx="-4" dy="-4"/>
<feGaussianBlur stdDeviation="2"/>
<feComposite in2="hardAlpha" operator="arithmetic" k2="-1" k3="1"/>
<feColorMatrix type="matrix" values="0 0 0 0 0.756863 0 0 0 0 0.847059 0 0 0 0 1 0 0 0 1 0"/>
<feBlend mode="normal" in2="shape" result="effect1_innerShadow_6648_8795"/>
</filter>
<linearGradient id="paint0_linear_6648_8795" x1="16.5937" y1="14" x2="32.4378" y2="14.999" gradientUnits="userSpaceOnUse">
<stop stop-color="#006FFF"/>
<stop offset="1" stop-color="#087BFF"/>
</linearGradient>
<clipPath id="clip0_6648_8795">
<rect width="40" height="40" fill="white"/>
</clipPath>
</defs>
</svg>
