<svg width="40" height="40" viewBox="0 0 40 40" fill="none" xmlns="http://www.w3.org/2000/svg">
<path d="M28.385 9H12.485C11.2961 9.00119 10.1563 9.47389 9.31547 10.3144C8.47467 11.1549 8.00159 12.2946 8 13.4835V26.184C8.00119 27.3731 8.4741 28.5132 9.31494 29.3541C10.1558 30.1949 11.2959 30.6678 12.485 30.669H28.385C29.5739 30.6674 30.7136 30.1943 31.5541 29.3535C32.3946 28.5127 32.8673 27.3729 32.8685 26.184V13.4835C32.8669 12.2949 32.394 11.1554 31.5536 10.3149C30.7131 9.47446 29.5736 9.00159 28.385 9ZM31.3685 22.896H22.691C22.2913 22.896 21.8956 22.8173 21.5263 22.6643C21.157 22.5114 20.8215 22.2872 20.5389 22.0046C20.2563 21.722 20.0321 21.3865 19.8792 21.0172C19.7262 20.6479 19.6475 20.2522 19.6475 19.8525C19.6475 19.4528 19.7262 19.0571 19.8792 18.6878C20.0321 18.3185 20.2563 17.983 20.5389 17.7004C20.8215 17.4178 21.157 17.1936 21.5263 17.0407C21.8956 16.8877 22.2913 16.809 22.691 16.809H31.3685V22.896ZM22.691 15.315C22.0943 15.315 21.5035 15.4325 20.9523 15.6609C20.401 15.8892 19.9002 16.2239 19.4783 16.6458C19.0564 17.0677 18.7217 17.5685 18.4934 18.1198C18.265 18.671 18.1475 19.2618 18.1475 19.8585C18.1475 20.4552 18.265 21.046 18.4934 21.5972C18.7217 22.1485 19.0564 22.6493 19.4783 23.0712C19.9002 23.4931 20.401 23.8278 20.9523 24.0561C21.5035 24.2845 22.0943 24.402 22.691 24.402H31.3685V26.19C31.3677 26.9812 31.0532 27.7397 30.4939 28.2993C29.9346 28.8589 29.1762 29.1738 28.385 29.175H12.485C11.6937 29.1738 10.9351 28.8589 10.3756 28.2994C9.81606 27.7399 9.50119 26.9813 9.5 26.19V13.4835C9.50119 12.6913 9.81694 11.932 10.3778 11.3725C10.9387 10.813 11.6988 10.4992 12.491 10.5H28.391C29.1819 10.5012 29.9401 10.8159 30.4993 11.3752C31.0586 11.9344 31.3733 12.6926 31.3745 13.4835V15.315H22.691Z" fill="#5E6480"/>
<path d="M22 19.852C22 20.1003 22.0986 20.3383 22.2741 20.5139C22.4497 20.6894 22.6878 20.788 22.936 20.788C23.1842 20.788 23.4223 20.6894 23.5979 20.5139C23.7734 20.3383 23.872 20.1003 23.872 19.852C23.872 19.6038 23.7734 19.3657 23.5979 19.1902C23.4223 19.0146 23.1842 18.916 22.936 18.916C22.6878 18.916 22.4497 19.0146 22.2741 19.1902C22.0986 19.3657 22 19.6038 22 19.852Z" fill="#474747"/>
</svg>
