<svg width="36" height="36" viewBox="0 0 36 36" fill="none" xmlns="http://www.w3.org/2000/svg">
<path d="M25.7092 21.2773C25.7767 21.1893 25.8744 21.1333 25.9809 21.1215C26.0875 21.1097 26.1941 21.1431 26.2773 21.2144L29.8509 24.2873C29.8975 24.3274 29.935 24.378 29.9608 24.4353C29.9866 24.4927 30 24.5555 30 24.619C30 24.6825 29.9866 24.7453 29.9608 24.8027C29.935 24.86 29.8975 24.9106 29.8509 24.9507L26.2773 28.0236C26.218 28.0745 26.1462 28.1066 26.0704 28.1162C25.9946 28.1257 25.9177 28.1123 25.8488 28.0775C25.7798 28.0427 25.7216 27.988 25.6809 27.9196C25.6401 27.8513 25.6185 27.7721 25.6186 27.6913V25.8408H21.7505C21.5515 25.8408 21.3606 25.7572 21.2198 25.6082C21.0791 25.4593 21 25.2573 21 25.0466V24.1914C21 23.9807 21.0791 23.7787 21.2198 23.6298C21.3606 23.4809 21.5515 23.3972 21.7505 23.3972H25.6186V21.5461C25.6186 21.4682 25.6388 21.3917 25.6769 21.325L25.7092 21.2773Z" fill="url(#paint0_linear_6608_5106)"/>
<path d="M21.8238 13.6937C21.8238 15.799 20.7613 17.6374 19.1817 18.6226C20.2231 18.9238 21.1912 19.3978 22.0527 20.0116C20.873 21.4188 20.1626 23.2328 20.1626 25.2127C20.1626 26.2868 20.3717 27.3122 20.7514 28.2502H7V27.7782C7 23.4355 9.90485 19.7713 13.8775 18.6226C12.2978 17.6374 11.2354 15.799 11.2354 13.6937C11.2354 10.5492 13.6057 8 16.5296 8C19.4535 8 21.8238 10.5492 21.8238 13.6937Z" fill="url(#paint1_linear_6608_5106)"/>
<rect x="14.0859" y="21.1621" width="4.76475" height="1.19119" rx="0.595594" fill="white"/>
<defs>
<linearGradient id="paint0_linear_6608_5106" x1="21.5464" y1="21.1191" x2="29.2252" y2="21.7239" gradientUnits="userSpaceOnUse">
<stop stop-color="#006FFF"/>
<stop offset="1" stop-color="#087BFF"/>
</linearGradient>
<linearGradient id="paint1_linear_6608_5106" x1="7.91392" y1="8" x2="20.8097" y2="8.58715" gradientUnits="userSpaceOnUse">
<stop stop-color="#006FFF"/>
<stop offset="1" stop-color="#087BFF"/>
</linearGradient>
</defs>
</svg>
