<svg width="17" height="18" viewBox="0 0 17 18" fill="none" xmlns="http://www.w3.org/2000/svg">
<path d="M11.0395 9.51591C10.7012 9.86536 10.6969 10.4299 11.0351 10.7838C11.0351 10.7838 11.0351 10.7838 11.0395 10.7883C11.3777 11.1377 11.9241 11.1377 12.2624 10.7883L16.7463 6.15577C17.0846 5.80632 17.0846 5.24182 16.7463 4.89236L12.2624 0.259862C11.9241 -0.0895915 11.3734 -0.0851149 11.0351 0.264339C10.6969 0.613793 10.7012 1.18278 11.0351 1.53223L14.0533 4.67732C7.07154 4.59219 1.09148 9.81608 0.0116877 16.944C-0.0663696 17.4369 0.254533 17.9073 0.735886 17.9879C1.2129 18.0686 1.66824 17.737 1.7463 17.2397C1.7463 17.2353 1.7463 17.2263 1.7463 17.2218C2.69599 10.9809 7.93017 6.40667 14.0447 6.46939L11.0351 9.51591L11.0395 9.51591Z" fill="url(#paint0_linear_221_9381)"/>
<defs>
<linearGradient id="paint0_linear_221_9381" x1="-3.93402e-07" y1="9" x2="17" y2="9" gradientUnits="userSpaceOnUse">
<stop stop-color="#087BFF"/>
<stop offset="0.515" stop-color="#41A0FF"/>
</linearGradient>
</defs>
</svg>
