<svg width="36" height="36" viewBox="0 0 36 36" fill="none" xmlns="http://www.w3.org/2000/svg">
<g clip-path="url(#clip0_6608_5072)">
<path d="M24.6413 8.01953H11.0412C9.78125 8.01953 8.78125 9.05953 8.78125 10.3295V25.6795C8.78125 26.9595 9.80125 27.9995 11.0412 27.9995H24.6513C25.9013 27.9995 26.9113 26.9595 26.9113 25.6895V10.3295C26.9113 9.05953 25.9113 8.01953 24.6413 8.01953ZM17.8812 11.0195C18.9212 11.0195 19.7713 11.8695 19.7713 12.9095C19.7713 13.9495 18.9212 14.7995 17.8812 14.7995C16.8412 14.7995 15.9913 13.9495 15.9913 12.9095C15.9913 11.8595 16.8412 11.0195 17.8812 11.0195ZM12.6913 11.0195C13.7313 11.0195 14.5812 11.8695 14.5812 12.9095C14.5812 13.9495 13.7313 14.7995 12.6913 14.7995C11.6513 14.7995 10.8012 13.9495 10.8012 12.9095C10.8012 11.8595 11.6513 11.0195 12.6913 11.0195ZM11.7512 19.0095H19.4113C19.9313 19.0095 20.3612 19.4395 20.3612 19.9595C20.3612 20.4795 19.9313 20.9095 19.4113 20.9095H11.7512C11.2312 20.9095 10.8012 20.4795 10.8012 19.9595C10.8012 19.4395 11.2312 19.0095 11.7512 19.0095ZM23.9813 24.4795H11.7212C11.2012 24.4795 10.7713 24.0495 10.7713 23.5295C10.7713 23.0095 11.2012 22.5795 11.7212 22.5795H23.9813C24.5013 22.5795 24.9313 23.0095 24.9313 23.5295C24.9313 24.0495 24.5013 24.4795 23.9813 24.4795ZM23.0813 14.7995C22.0413 14.7995 21.1913 13.9495 21.1913 12.9095C21.1913 11.8695 22.0413 11.0195 23.0813 11.0195C24.1213 11.0195 24.9713 11.8695 24.9713 12.9095C24.9713 13.9495 24.1213 14.7995 23.0813 14.7995Z" fill="url(#paint0_linear_6608_5072)"/>
</g>
<defs>
<linearGradient id="paint0_linear_6608_5072" x1="9.882" y1="8.01953" x2="25.3984" y2="8.88194" gradientUnits="userSpaceOnUse">
<stop stop-color="#006FFF"/>
<stop offset="1" stop-color="#087BFF"/>
</linearGradient>
<clipPath id="clip0_6608_5072">
<rect width="20" height="20" fill="white" transform="translate(8 8)"/>
</clipPath>
</defs>
</svg>
