<svg width="16" height="16" viewBox="0 0 16 16" fill="none" xmlns="http://www.w3.org/2000/svg">
<g clip-path="url(#clip0_6618_5992)">
<path d="M7.99994 8.53775C5.12216 8.53775 2.24883 7.66397 0.201272 5.91997C0.142965 5.86913 0.0952792 5.80727 0.0609556 5.73794C0.026632 5.66862 0.00634732 5.59319 0.00126732 5.516C-0.00381268 5.43881 0.00641215 5.36137 0.0313542 5.28815C0.0562962 5.21492 0.0954637 5.14734 0.146606 5.0893C0.250309 4.97177 0.396334 4.90008 0.552748 4.88992C0.709162 4.87976 0.863234 4.93195 0.981272 5.03508C4.59194 8.14174 11.4235 8.14174 15.0186 5.03508C15.1366 4.93195 15.2907 4.87976 15.4471 4.88992C15.6035 4.90008 15.7496 4.97177 15.8533 5.0893C16.0684 5.33375 16.0444 5.70575 15.7986 5.92041C13.751 7.66397 10.8777 8.53775 7.99994 8.53775ZM5.86305 11.1084C5.82804 11.1123 5.79272 11.1123 5.75772 11.1084C5.59638 11.0862 5.45105 10.9973 5.35861 10.864C5.26572 10.7302 5.23416 10.5635 5.2706 10.4053L5.66038 8.11419C5.68771 7.95944 5.77531 7.82185 5.90396 7.73162C6.03261 7.64138 6.1918 7.60586 6.34661 7.63286C6.42329 7.64587 6.49666 7.67389 6.5625 7.71532C6.62834 7.75674 6.68535 7.81076 6.73027 7.87426C6.7752 7.93776 6.80714 8.00951 6.82428 8.08538C6.84143 8.16125 6.84342 8.23976 6.83016 8.31641L6.44038 10.6071C6.4205 10.7461 6.3512 10.8733 6.24517 10.9654C6.13914 11.0574 6.00348 11.1082 5.86305 11.1084ZM14.6288 9.94308C14.4733 9.94308 14.3239 9.87997 14.2155 9.76841L12.2933 7.82708C12.2117 7.75691 12.1511 7.66545 12.1185 7.5629C12.0858 7.46034 12.0823 7.35072 12.1083 7.24628C12.1342 7.14183 12.1888 7.04666 12.2657 6.97138C12.3426 6.89611 12.4389 6.84369 12.5439 6.81997C12.6488 6.79564 12.7584 6.80065 12.8606 6.83444C12.9628 6.86822 13.0538 6.92949 13.1235 7.01152L15.0462 8.95286C15.2742 9.18041 15.2742 9.54886 15.0462 9.77641C14.9333 9.88308 14.7839 9.94263 14.6284 9.94308H14.6288ZM1.37105 9.94308C1.22536 9.93597 1.08706 9.87683 0.981272 9.77641C0.927023 9.72243 0.883975 9.65827 0.8546 9.5876C0.825226 9.51694 0.810104 9.44116 0.810104 9.36463C0.810104 9.28811 0.825226 9.21233 0.8546 9.14167C0.883975 9.071 0.927023 9.00683 0.981272 8.95286L2.90349 7.01152C2.96939 6.91775 3.06134 6.84535 3.16795 6.80329C3.27456 6.76122 3.39116 6.75132 3.50334 6.77483C3.61552 6.79833 3.71834 6.8542 3.7991 6.93553C3.87986 7.01686 3.935 7.12007 3.95772 7.23241C3.97971 7.34485 3.96799 7.46129 3.92402 7.56709C3.88006 7.67289 3.80581 7.76334 3.71061 7.82708L1.78838 9.76841C1.73413 9.82408 1.66921 9.86824 1.59751 9.89826C1.5258 9.92827 1.44878 9.94351 1.37105 9.94308ZM10.1639 11.1084C10.0271 11.108 9.89467 11.0596 9.78988 10.9715C9.68509 10.8835 9.61456 10.7614 9.5906 10.6266L9.20083 8.33552C9.16571 8.23039 9.1614 8.11741 9.18842 8.00992C9.21543 7.90242 9.27263 7.8049 9.35327 7.72886C9.43405 7.65258 9.53483 7.60081 9.64388 7.57956C9.75293 7.55832 9.86577 7.56848 9.96927 7.60886C10.1808 7.69197 10.3248 7.88886 10.3395 8.11419L10.7293 10.4053C10.7577 10.5573 10.7239 10.7142 10.635 10.8413C10.5462 10.9684 10.4106 11.0546 10.2573 11.0813C10.2271 11.0933 10.1959 11.1022 10.1639 11.108V11.1084Z" fill="#333333"/>
</g>
<defs>
<clipPath id="clip0_6618_5992">
<rect width="16" height="16" fill="white"/>
</clipPath>
</defs>
</svg>
