<svg width="16" height="16" viewBox="0 0 16 16" fill="none" xmlns="http://www.w3.org/2000/svg">
<path d="M15.9167 7.51068C15.9167 7.51068 15.85 7.31068 15.7833 7.24401L15.45 6.57734C15.1167 6.04401 14.65 5.37734 13.9833 4.64401C12.7167 3.24401 10.7167 1.77734 7.98333 1.77734C5.25 1.77734 3.25 3.24401 1.98333 4.64401C1.31667 5.37734 0.85 6.04401 0.516667 6.57734C0.383333 6.84401 0.25 7.04401 0.183333 7.24401C0.116667 7.31068 0.05 7.51068 0.05 7.51068C-0.0166667 7.71068 -0.0166667 7.91068 0.05 8.04401C0.05 8.04401 0.116667 8.24401 0.183333 8.31068L0.516667 8.97734C0.85 9.51068 1.31667 10.1773 1.98333 10.9107C3.25 12.3107 5.25 13.7773 7.98333 13.7773C10.7167 13.7773 12.7167 12.3107 13.9833 10.9107C14.65 10.1773 15.1167 9.51068 15.45 8.97734C15.5833 8.71068 15.7167 8.51068 15.7833 8.31068C15.85 8.24401 15.9167 8.04401 15.9167 8.04401C15.9833 7.84401 15.9833 7.71068 15.9167 7.51068ZM14.3167 8.24401C14.05 8.71068 13.5833 9.37734 13.05 9.97734C11.85 11.244 10.1833 12.444 7.98333 12.444C5.78333 12.444 4.11667 11.244 2.91667 9.97734C2.31667 9.37734 1.91667 8.71068 1.65 8.24401C1.51667 8.04401 1.45 7.91068 1.38333 7.77734C1.45 7.64401 1.51667 7.51068 1.65 7.31068C1.98333 6.84401 2.38333 6.17734 2.91667 5.57734C4.11667 4.31068 5.78333 3.11068 7.98333 3.11068C10.1833 3.11068 11.85 4.31068 13.05 5.57734C13.65 6.17734 14.05 6.84401 14.3167 7.31068C14.45 7.51068 14.5167 7.64401 14.5833 7.77734C14.5167 7.91068 14.3833 8.04401 14.3167 8.24401Z" fill="#333333"/>
<path d="M7.98281 5.37826C6.78281 5.37826 5.71615 6.44492 5.71615 7.77826C5.71615 9.11159 6.78281 10.1783 7.98281 10.1783C9.18281 10.1783 10.2495 9.11159 10.2495 7.77826C10.2495 6.44492 9.18281 5.37826 7.98281 5.37826ZM4.38281 7.77826C4.38281 5.77826 5.98281 4.04492 7.98281 4.04492C9.98281 4.04492 11.5828 5.77826 11.5828 7.77826C11.5828 9.77826 9.98281 11.5116 7.98281 11.5116C5.98281 11.5116 4.38281 9.77826 4.38281 7.77826Z" fill="#333333"/>
</svg>
