<svg width="36" height="36" viewBox="0 0 36 36" fill="none" xmlns="http://www.w3.org/2000/svg">
<path fill-rule="evenodd" clip-rule="evenodd" d="M20.1578 8.49998C20.6494 8.8257 21.0343 9.28887 21.2646 9.8318C21.4208 10.2018 21.5 10.5948 21.5 10.9998C21.501 11.3939 21.4238 11.7844 21.2731 12.1486C21.1223 12.5127 20.9009 12.8435 20.6217 13.1216C20.3435 13.4009 20.0129 13.6223 19.6487 13.7731C19.2845 13.9238 18.8941 14.0009 18.5 14C18.106 14.0005 17.7158 13.9232 17.3517 13.7725C16.9877 13.6217 16.6571 13.4005 16.3788 13.1216C16.0994 12.8435 15.878 12.5128 15.7271 12.1486C15.5763 11.7844 15.4991 11.394 15.5 10.9998C15.4992 10.6057 15.5764 10.2153 15.7272 9.85121C15.8781 9.4871 16.0995 9.15647 16.3788 8.8784C16.6568 8.59917 16.9875 8.37779 17.3515 8.22703C17.7156 8.07626 18.106 7.99911 18.5 8.00001C19.0897 8.00038 19.6663 8.17425 20.1578 8.49998ZM18.6504 10.8173L18.5621 10.7719C18.1775 10.5723 18.0554 10.4677 18.0396 10.3231C18.0374 10.2889 18.0424 10.2547 18.0543 10.2226C18.0662 10.1905 18.0848 10.1613 18.1088 10.1368C18.1942 10.0414 18.3413 9.98431 18.5013 9.98431C18.6377 9.98464 18.7712 10.0241 18.8858 10.0981C18.9344 10.127 18.979 10.1621 19.0183 10.2027C19.0589 10.2474 19.1155 10.2745 19.1758 10.2781C19.2362 10.2816 19.2955 10.2614 19.3411 10.2216C19.3866 10.1819 19.4148 10.1259 19.4195 10.0656C19.4242 10.0053 19.4051 9.94563 19.3663 9.8993C19.3333 9.8618 19.2596 9.78721 19.1308 9.70679C19.0183 9.63595 18.8963 9.58428 18.7663 9.55345L18.7313 9.54511V9.20009C18.7277 9.14115 18.7018 9.08579 18.6588 9.04531C18.6159 9.00484 18.559 8.9823 18.5 8.9823C18.441 8.9823 18.3842 9.00484 18.3412 9.04531C18.2982 9.08579 18.2723 9.14115 18.2688 9.20009V9.54678L18.2346 9.55553C18.0333 9.60637 17.8567 9.71512 17.7375 9.8618C17.6146 10.0126 17.5604 10.1897 17.5813 10.3735C17.6013 10.5585 17.6604 10.6889 17.7792 10.8094C17.8892 10.921 18.0546 11.029 18.35 11.1823L18.4388 11.2277C18.8229 11.4273 18.945 11.5319 18.9608 11.6765C18.9632 11.7106 18.9583 11.7449 18.9465 11.777C18.9346 11.8091 18.9161 11.8384 18.8921 11.8628C18.8067 11.9578 18.66 12.0149 18.4996 12.0149C18.365 12.0149 18.2358 11.9769 18.115 11.9015C18.0488 11.8598 18.0021 11.819 17.9829 11.7969C17.9427 11.7507 17.8858 11.7224 17.8247 11.7182C17.7636 11.714 17.7033 11.7342 17.6571 11.7744C17.6109 11.8147 17.5826 11.8716 17.5784 11.9327C17.5741 11.9938 17.5944 12.0541 17.6346 12.1003C17.7033 12.1756 17.7826 12.2404 17.87 12.2928C17.9821 12.364 18.1053 12.4158 18.2346 12.4461L18.2696 12.4549V12.7999C18.2696 12.8611 18.2939 12.9199 18.3372 12.9631C18.3805 13.0064 18.4392 13.0308 18.5004 13.0308C18.5616 13.0308 18.6204 13.0064 18.6636 12.9631C18.7069 12.9199 18.7313 12.8611 18.7313 12.7999V12.4528L18.7658 12.4441C18.9598 12.3978 19.1339 12.2906 19.2625 12.1382C19.3854 11.9869 19.4396 11.8098 19.4196 11.6261C19.3992 11.4415 19.3396 11.3111 19.2213 11.1906C19.1108 11.079 18.9458 10.9706 18.6504 10.8173ZM12.4499 9.37837C12.2955 9.32688 12.141 9.27539 11.9865 9.27539C11.4201 9.27539 10.9567 9.7388 10.9567 10.3052V12.6737C10.6912 12.9634 10.4596 13.2758 10.2513 13.6054C9.77506 14.3593 9.49398 15.2152 9.24715 16.0721C9.06179 16.8856 9 17.3181 9 17.7507V17.9978V18.245V18.8628L9.06179 19.4807L9.18537 20.1604L9.37073 20.8401L9.412 20.9637C10.0814 22.7144 11.3171 24.2591 12.9648 25.3404L12.6559 26.5761C12.5014 27.091 12.8104 27.6574 13.3768 27.8119L13.7887 27.9149C14.3036 28.0693 14.87 27.7604 15.0244 27.194L15.2304 26.5246C16.3117 26.9366 17.496 27.1425 18.6803 27.1425C19.916 27.1425 21.1003 26.8851 22.1816 26.4731L22.3876 27.2455V27.297C22.542 27.8119 23.1084 28.1208 23.6233 27.9664L24.0352 27.8634H24.0867C24.6016 27.7089 24.9106 27.1425 24.7561 26.6276L24.3957 25.2374C26.5583 23.5897 28 21.0152 28 18.1317C28 14.8363 26.1463 11.9014 23.3659 10.3567V10.5626C23.3659 11.9014 22.7995 13.0857 21.8727 13.9095C22.4905 14.0125 23.0569 14.167 23.6233 14.3729C23.7263 14.4244 23.7778 14.5274 23.7263 14.6304L23.3144 15.7117C23.2629 15.8147 23.1599 15.8661 23.0569 15.8147C21.6667 15.3512 20.225 15.1453 18.6803 15.1453C17.187 15.1453 15.6938 15.4027 14.3036 15.9176C14.2006 15.9691 14.0976 15.9176 14.0461 15.8147L13.6342 14.7849C13.5827 14.6819 13.6342 14.5789 13.7372 14.5274C14.3036 14.2699 14.9215 14.1155 15.5908 13.961C14.664 13.1372 14.0976 11.9529 14.0976 10.6141V10.2537H14.0461L14.0976 10.2022L12.4499 9.37837L12.4499 9.37837Z" fill="url(#paint0_linear_6608_5066)"/>
<defs>
<linearGradient id="paint0_linear_6608_5066" x1="10.1536" y1="8" x2="26.4098" y2="8.94564" gradientUnits="userSpaceOnUse">
<stop stop-color="#006FFF"/>
<stop offset="1" stop-color="#087BFF"/>
</linearGradient>
</defs>
</svg>
