<svg width="32" height="32" viewBox="0 0 32 32" fill="none" xmlns="http://www.w3.org/2000/svg">
<g filter="url(#filter0_ddi_6661_4169)">
<circle cx="16" cy="15" r="12" fill="white"/>
<circle cx="16" cy="15" r="11.75" stroke="white" stroke-width="0.5"/>
</g>
<g clip-path="url(#clip0_6661_4169)">
<path d="M21.7116 16.0367C21.5936 15.5731 21.3165 15.2332 20.8961 15.0108C20.7341 14.9251 20.5646 14.8538 20.4006 14.7719C20.3242 14.7338 20.2523 14.6865 20.1791 14.6421C20.1633 14.6325 20.1506 14.6176 20.1283 14.5981C20.4853 14.5494 20.7967 14.418 21.0749 14.2062C21.0561 14.215 21.0372 14.2236 21.0186 14.2326C20.7884 14.3435 20.5566 14.4507 20.3009 14.4898C20.238 14.4995 20.1737 14.4995 20.1105 14.5077C20.0529 14.5152 20.0238 14.488 20.0013 14.4385C19.9182 14.2549 19.933 14.0691 19.9869 13.8831C20.008 13.8105 20.0368 13.7401 20.0646 13.6697C20.4172 12.7751 20.1187 11.8955 19.2945 11.4003C19.0918 11.2785 18.8772 11.1823 18.6519 11.1124C18.4013 11.0346 18.1961 10.8919 18.0351 10.6888C17.9039 10.5233 17.7807 10.3511 17.66 10.1777C17.2231 9.54989 16.6254 9.17936 15.8736 9.05338C15.7698 9.036 15.6649 9.02543 15.5604 9.01172C15.4087 9.01172 15.257 9.01172 15.1053 9.01172C15.0899 9.01501 15.0746 9.02021 15.0591 9.0213C14.6258 9.05198 14.208 9.15046 13.805 9.31109C13.3556 9.49027 12.9439 9.72981 12.6085 10.0851C12.4181 10.2869 12.2707 10.5148 12.2123 10.791C12.1805 10.942 12.181 11.0929 12.2241 11.256C12.2473 11.1822 12.2642 11.1209 12.2856 11.0612C12.4643 10.562 12.8153 10.2201 13.2786 9.98441C13.732 9.75373 14.2183 9.65783 14.7235 9.65098C15.0848 9.64609 15.4403 9.6896 15.7839 9.80779C16.1656 9.93909 16.4829 10.1708 16.77 10.4479C17.0011 10.671 17.2302 10.8962 17.46 11.1207C17.4614 11.1221 17.4597 11.1266 17.4597 11.1277C17.3212 11.0634 17.1847 10.9936 17.0434 10.9359C16.6966 10.7944 16.3702 10.6196 16.0635 10.4022C15.5477 10.0367 14.9693 9.87305 14.3362 9.912C13.9901 9.93329 13.6549 10.0125 13.3194 10.0954C13.1371 10.1405 12.9935 10.2483 12.8317 10.3367C12.8474 10.368 12.8595 10.395 12.8741 10.4206C12.9767 10.6006 13.1271 10.7336 13.3006 10.8405C13.7569 11.1217 14.2631 11.252 14.7889 11.3092C15.122 11.3454 15.458 11.3529 15.7916 11.385C16.2313 11.4274 16.6649 11.506 17.0814 11.6598C17.3569 11.7615 17.6154 11.8936 17.8201 12.1114C17.8652 12.1594 17.9038 12.2135 17.9454 12.2648C17.8487 12.2263 17.7618 12.1779 17.6711 12.1384C17.2599 11.9588 16.8234 11.8735 16.3837 11.803C16.0391 11.7478 15.6928 11.703 15.3488 11.6441C15.0267 11.589 14.7074 11.5177 14.3856 11.4603C14.1127 11.4115 13.8387 11.3692 13.5759 11.2766C13.1972 11.1431 12.9116 10.91 12.7687 10.5238C12.7664 10.5175 12.7599 10.5128 12.7528 10.5045C12.6993 10.5792 12.6521 10.6536 12.5961 10.7207C12.5481 10.7781 12.5394 10.8383 12.5471 10.9093C12.5788 11.1975 12.7268 11.4207 12.9342 11.6108C13.1607 11.8185 13.4252 11.9656 13.7076 12.081C14.1542 12.2634 14.6147 12.3847 15.1011 12.389C15.3207 12.3909 15.5403 12.3943 15.7596 12.4024C16.1151 12.4156 16.4683 12.4491 16.8126 12.5458C17.4411 12.7223 17.8841 13.1008 18.0814 13.7336C18.1536 13.9652 18.1997 14.205 18.2544 14.4419C18.2965 14.624 18.3137 14.8123 18.4023 14.9821C18.5501 15.2655 18.7742 15.4729 19.0452 15.6339C19.1144 15.675 19.1869 15.7106 19.2695 15.7549C19.0015 15.7 18.7821 15.5849 18.6034 15.3926C18.4122 15.1867 18.2873 14.9433 18.1968 14.6809C18.1058 14.4171 18.0302 14.1476 17.929 13.8879C17.693 13.2822 17.2731 12.8788 16.6226 12.7404C16.2973 12.6712 15.9669 12.6515 15.6365 12.6278C15.3044 12.6039 14.9697 12.5925 14.6416 12.5413C13.6873 12.3923 12.9485 11.9026 12.4262 11.0886C12.4197 11.0786 12.4114 11.0696 12.3952 11.0489C12.3998 11.0791 12.4014 11.0948 12.4046 11.11C12.4539 11.3432 12.5714 11.5411 12.7293 11.7145C13.1038 12.1259 13.5611 12.4052 14.0961 12.5584C14.5426 12.6864 15.0008 12.7266 15.4619 12.7498C15.8246 12.768 16.1866 12.7908 16.5452 12.8558C17.1001 12.9564 17.5213 13.2412 17.7935 13.7389C17.8014 13.7532 17.8071 13.7687 17.8138 13.7836C17.7998 13.7797 17.7937 13.772 17.7881 13.7639C17.5309 13.3962 17.1869 13.1501 16.7524 13.0377C16.3571 12.9354 15.9513 12.9255 15.546 12.9199C15.2468 12.9158 14.9473 12.9232 14.6483 12.9134C14.4283 12.9062 14.2073 12.8741 14.0127 12.7642C13.7454 12.6134 13.478 12.4602 13.2262 12.2856C12.828 12.0096 12.5219 11.6513 12.3435 11.1937C12.3411 11.1875 12.3357 11.1824 12.3237 11.1657C12.3186 11.2801 12.3002 11.383 12.3124 11.4822C12.3436 11.7361 12.4612 11.956 12.6137 12.1574C12.8819 12.5117 13.2347 12.7624 13.6208 12.9714C13.6523 12.9884 13.6871 13.0021 13.7136 13.0252C13.9387 13.2212 14.1989 13.3596 14.4644 13.4902C14.5157 13.5155 14.5694 13.5442 14.6083 13.5845C14.7118 13.6917 14.8239 13.7958 14.9038 13.9196C15.2032 14.3842 15.3084 14.8921 15.2208 15.4413C15.1831 15.6774 15.1581 15.9165 15.1888 16.1568C15.2262 16.4499 15.3508 16.6893 15.6157 16.8392C15.6544 16.8611 15.6667 16.8807 15.6623 16.9265C15.6289 17.2659 15.7011 17.5747 15.947 17.8251C16.2218 18.105 16.5591 18.2486 16.9499 18.2509C17.4632 18.2538 17.7823 17.9356 17.7761 17.4405C17.7732 17.2095 17.5247 16.9772 17.2943 16.9902C17.1715 16.9972 17.0948 17.0906 17.1203 17.2064C17.1265 17.1938 17.1314 17.1835 17.1366 17.1733C17.159 17.1302 17.1823 17.0831 17.239 17.0857C17.297 17.0882 17.3231 17.1358 17.3409 17.1832C17.3757 17.276 17.3808 17.3717 17.3409 17.4637C17.2379 17.7013 17.043 17.8157 16.7968 17.8492C16.5552 17.8821 16.3868 17.7646 16.2658 17.5669C16.1556 17.3869 16.1301 17.1865 16.1295 16.9801C16.1293 16.9311 16.1415 16.9077 16.1939 16.8947C16.3325 16.8603 16.4563 16.7929 16.5693 16.7053C16.4325 16.7651 16.2941 16.816 16.1274 16.8219C16.1614 16.6489 16.1833 16.4824 16.228 16.3223C16.311 16.0249 16.4113 15.7323 16.4973 15.4357C16.6698 14.8413 16.5668 14.311 16.1175 13.8659C16.0809 13.8297 16.0424 13.7955 16.0047 13.7604C16.0229 13.7569 16.0381 13.7591 16.0512 13.7655C16.1931 13.8336 16.3355 13.9007 16.4753 13.9729C16.4987 13.985 16.5201 14.018 16.5257 14.0449C16.5621 14.2165 16.591 14.3897 16.6276 14.5613C16.7298 15.0409 16.8713 15.5072 17.1049 15.9414C17.3114 16.3252 17.5558 16.6781 17.9332 16.915C18.1341 17.0411 18.3381 17.1632 18.5473 17.2746C18.8307 17.4253 19.1242 17.5571 19.4065 17.7098C19.7103 17.8741 19.8583 18.1979 19.8059 18.5389C19.7552 18.8688 19.5953 19.1419 19.3517 19.3608C18.9688 19.7049 18.5763 20.0383 18.186 20.374C18.1491 20.4057 18.1427 20.433 18.154 20.4763C18.2093 20.6867 18.342 20.83 18.5383 20.9139C18.616 20.9471 18.7007 20.9639 18.7822 20.9883C18.866 20.9883 18.9498 20.9883 19.0337 20.9883C19.1616 20.9523 19.29 20.9177 19.4173 20.8794C19.4564 20.8676 19.4925 20.8457 19.5405 20.8236C19.4896 20.8048 19.4488 20.7912 19.4091 20.7747C19.1746 20.6774 19.0977 20.5083 19.1824 20.2689C19.2541 20.0662 19.3853 19.9001 19.5183 19.7351C19.6532 19.5675 19.7889 19.4003 19.9176 19.228C19.9732 19.1535 20.015 19.068 20.0571 18.9846C20.0762 18.9468 20.0964 18.9351 20.1384 18.9356C20.5559 18.9404 20.9047 18.7912 21.1734 18.4667C21.3149 18.2959 21.3674 18.0876 21.402 17.8772C21.4241 17.7432 21.4148 17.604 21.4211 17.4673C21.422 17.4491 21.4272 17.4275 21.4382 17.4139C21.6199 17.1887 21.7217 16.9312 21.7541 16.6449C21.7556 16.6313 21.7608 16.6181 21.7643 16.6048C21.7643 16.509 21.7643 16.4132 21.7643 16.3174C21.747 16.2238 21.735 16.1288 21.7116 16.0367ZM16.0532 14.9286C16.0583 15.1702 16.0268 15.4067 15.966 15.639C15.8693 16.0089 15.7666 16.3772 15.6653 16.7502C15.5684 16.7124 15.4912 16.6403 15.4398 16.5392C15.371 16.4039 15.3422 16.2575 15.3205 16.109C15.2817 15.8432 15.3072 15.581 15.3486 15.3172C15.3999 14.9898 15.4047 14.6614 15.3122 14.338C15.2488 14.1165 15.136 13.9244 14.973 13.7617C14.9589 13.7476 14.945 13.7333 14.9312 13.719C14.9299 13.7176 14.9294 13.7154 14.9228 13.7016C15.1992 13.8328 15.4624 13.9603 15.6877 14.1532C15.926 14.3572 16.0466 14.6143 16.0532 14.9286ZM17.8435 11.4189C17.8332 11.4096 17.8227 11.4005 17.8191 11.3805C17.9496 11.4499 18.0887 11.507 18.2092 11.5908C18.6465 11.8948 18.9727 12.2937 19.1846 12.7833C19.2439 12.92 19.2713 13.0642 19.2656 13.2146C19.254 13.5195 19.2448 13.8244 19.2341 14.1427C19.1088 14.0241 19.0164 13.8931 18.9752 13.738C18.9242 13.5462 18.8861 13.3501 18.8556 13.1538C18.8107 12.8647 18.7622 12.5769 18.5993 12.3268C18.3833 11.995 18.139 11.6852 17.8435 11.4189ZM16.7705 14.3365C16.762 14.2816 16.7536 14.2267 16.7427 14.1563C16.7716 14.1797 16.7897 14.1937 16.8069 14.2085C17.116 14.4748 17.314 14.814 17.4539 15.1919C17.5991 15.5841 17.7891 15.9508 18.0837 16.254C18.1654 16.3381 18.2562 16.4134 18.3337 16.4844C17.5217 15.9903 16.9244 15.325 16.7705 14.3365ZM18.2592 15.1623C18.1669 14.8935 18.0975 14.6168 18.0178 14.3438C18.0237 14.3408 18.0296 14.3378 18.0356 14.3348C18.0891 14.491 18.1379 14.6491 18.1976 14.8029C18.2501 14.9382 18.3075 15.0727 18.3754 15.2009C18.5721 15.5722 18.8711 15.8107 19.2881 15.9009C19.5371 15.9548 19.7845 16.0192 20.0281 16.0936C20.2218 16.1527 20.3956 16.2557 20.5499 16.4066C20.429 16.3792 20.3192 16.3489 20.2075 16.3301C19.9833 16.2923 19.7568 16.268 19.5337 16.2251C18.9144 16.1063 18.4682 15.7708 18.2592 15.1623ZM20.4883 16.2074C20.5884 16.279 20.6622 16.3663 20.714 16.4717C20.6401 16.3851 20.5662 16.2986 20.4883 16.2074ZM20.1198 18.8521C20.1271 18.828 20.1325 18.808 20.1391 18.7884C20.2857 18.3544 20.2155 17.9469 19.9858 17.5607C19.9085 17.4307 19.793 17.3368 19.663 17.2639C19.4196 17.1275 19.1725 16.9975 18.9287 16.8618C18.8018 16.7911 18.6786 16.7139 18.5538 16.6396C18.557 16.6351 18.5603 16.6306 18.5636 16.6261C18.8111 16.7648 19.0785 16.848 19.3525 16.9121C19.5504 16.9584 19.7497 16.999 19.9464 17.0499C20.1912 17.1133 20.4174 17.2129 20.5855 17.4137C20.6672 17.5113 20.7285 17.6194 20.7672 17.7408C20.778 17.7747 20.7728 17.7955 20.7384 17.8121C20.6455 17.857 20.554 17.905 20.4643 17.9603C20.5722 17.9304 20.68 17.9006 20.7878 17.8707C20.8759 18.2479 20.5396 18.7466 20.1198 18.8521ZM21.3817 17.1671C21.3759 17.1789 21.3686 17.1899 21.3667 17.1932C21.2827 17.0621 21.2031 16.9271 21.112 16.8004C21.0603 16.7284 20.989 16.6706 20.928 16.6051C20.9142 16.5903 20.8984 16.5705 20.8971 16.552C20.871 16.1889 20.6749 15.9283 20.395 15.7193C20.1526 15.5383 19.8806 15.4132 19.5948 15.3215C19.4037 15.2602 19.2567 15.1473 19.1342 14.9946C18.9453 14.7592 18.8105 14.4923 18.6867 14.2195C18.6442 14.1258 18.6098 14.0285 18.5717 13.9329C18.576 13.9307 18.5804 13.9285 18.5847 13.9263C18.5917 13.9339 18.5997 13.9409 18.6056 13.9493C18.7641 14.1778 18.9715 14.3472 19.2234 14.4641C19.2457 14.4744 19.2729 14.4964 19.2782 14.5179C19.3848 14.9475 19.6621 15.2394 20.0414 15.4365C20.2204 15.5295 20.4184 15.5864 20.6085 15.6577C20.7185 15.699 20.8316 15.7324 20.9405 15.7763C21.2612 15.9056 21.4266 16.1586 21.4868 16.4872C21.5304 16.7244 21.4884 16.9515 21.3817 17.1671ZM11.33 14.9892C11.4586 14.9465 11.5896 14.911 11.7171 14.8652C11.9467 14.7828 12.0778 14.6115 12.1365 14.38C12.1695 14.2499 12.1654 14.1191 12.1409 13.9883C12.096 13.7481 11.9974 13.5274 11.88 13.3165C11.6795 12.9562 11.6624 12.5819 11.7681 12.193C11.8376 11.9373 11.9544 11.7016 12.0718 11.466C12.0927 11.4241 12.1088 11.3798 12.1271 11.3366C12.112 11.3357 12.1054 11.3393 12.1013 11.3448C11.9264 11.5787 11.7683 11.8225 11.6632 12.097C11.5629 12.359 11.5226 12.6278 11.5726 12.9069C11.6111 13.1218 11.706 13.3145 11.8001 13.5086C11.8651 13.6425 11.9357 13.7784 11.9697 13.9215C12.0448 14.2368 11.9332 14.4718 11.653 14.6055C11.5686 14.6458 11.4804 14.6779 11.3935 14.7127C11.2752 14.76 11.1531 14.7992 11.0388 14.8547C10.895 14.9245 10.8047 15.0435 10.7695 15.2016C10.7675 15.2107 10.7618 15.2189 10.7578 15.2276C10.7578 15.3154 10.7578 15.4032 10.7578 15.491C10.7744 15.5685 10.791 15.6459 10.8076 15.7234C10.8199 15.6998 10.8191 15.678 10.8201 15.6563C10.8269 15.5087 10.8554 15.3684 10.9422 15.2436C11.038 15.106 11.1786 15.0395 11.33 14.9892ZM17.251 18.9367C17.1884 18.8788 17.1258 18.8168 17.0528 18.7746C16.2252 18.2962 15.3606 18.209 14.4599 18.5416C14.4129 18.5589 14.3772 18.5587 14.3386 18.5294C14.2718 18.4788 14.2041 18.4295 14.1368 18.3796C13.8742 18.1849 13.6134 17.9874 13.3475 17.7971C13.2758 17.7457 13.1898 17.7128 13.1076 17.6778C13.0511 17.6538 13.0044 17.6707 12.9615 17.7221C12.709 18.0253 12.6284 18.3611 12.7401 18.7448C12.7911 18.9201 12.8267 19.1008 12.8551 19.2812C12.8686 19.3669 12.8488 19.4579 12.844 19.5495C12.8833 19.5397 12.9232 19.5271 12.964 19.5201C13.0517 19.5052 13.1411 19.4761 13.2275 19.4829C13.7176 19.5213 14.2011 19.6012 14.6722 19.7452C15.0733 19.8679 15.4577 20.0286 15.7837 20.2993C15.9204 20.4129 16.0389 20.5484 16.1654 20.6736C16.2266 20.5929 16.2956 20.5005 16.3664 20.4094C16.5975 20.1116 16.833 19.8171 17.059 19.5154C17.1457 19.3997 17.2132 19.2693 17.2857 19.1434C17.329 19.068 17.3134 18.9945 17.251 18.9367ZM13.3262 15.6167C13.5394 15.6828 13.7497 15.7579 13.9625 15.8254C13.9884 15.8336 14.0258 15.8268 14.0507 15.8135C14.2549 15.7038 14.3906 15.5344 14.4709 15.3186C14.4773 15.3014 14.485 15.2846 14.4921 15.2676C14.4985 15.2686 14.505 15.2697 14.5114 15.2708C14.5011 15.4679 14.4907 15.665 14.4803 15.8615C14.6455 15.8485 14.7682 15.7626 14.8174 15.6136C14.893 15.3845 14.856 15.154 14.8232 14.9153C14.7066 15.0052 14.5995 15.0908 14.4893 15.1721C14.3226 15.2952 14.1441 15.3958 13.9368 15.4325C13.7797 15.4603 13.6376 15.3514 13.6333 15.192C13.6302 15.0809 13.5917 15.0136 13.4798 14.9836C13.3983 14.9618 13.3678 14.9042 13.3713 14.8194C13.3721 14.7995 13.3755 14.7798 13.3784 14.7534C13.3662 14.7486 13.3573 14.7448 13.3483 14.7415C13.2324 14.6988 13.1893 14.629 13.2033 14.5069C13.206 14.4831 13.2106 14.4592 13.2099 14.4355C13.2083 14.3825 13.1933 14.3445 13.1306 14.3287C13.0619 14.3115 12.9969 14.2779 12.9315 14.249C12.8852 14.2286 12.871 14.1933 12.881 14.1417C12.9048 14.0184 12.9194 13.8932 12.9457 13.7705C12.9949 13.5401 12.9637 13.3292 12.8476 13.1194C12.74 12.9249 12.6558 12.7164 12.5737 12.5092C12.44 12.172 12.3123 11.8321 12.2378 11.4753C12.232 11.4477 12.2271 11.42 12.2189 11.3781C12.0827 11.624 11.955 11.8563 11.8701 12.1085C11.8347 12.2138 11.8032 12.3225 11.7884 12.4322C11.7453 12.753 11.8019 13.0632 11.9376 13.3534C12.0521 13.5985 12.1937 13.8309 12.3172 14.0721C12.3731 14.1814 12.4262 14.2949 12.4589 14.4124C12.5044 14.5757 12.4458 14.7008 12.2951 14.7767C12.1981 14.8256 12.092 14.8577 11.988 14.8913C11.8327 14.9415 11.6713 14.9754 11.5202 15.0358C11.1391 15.1881 10.9533 15.485 10.9735 15.8932C10.985 16.1269 11.0657 16.3449 11.1341 16.5659C11.187 16.7368 11.2434 16.9089 11.2709 17.0847C11.3025 17.2868 11.2111 17.3928 11.0083 17.4352C10.9637 17.4446 10.9181 17.4497 10.8658 17.4579C11.1009 17.6222 11.5689 17.5477 11.6911 17.1721C11.7302 17.0519 11.7436 16.9288 11.7202 16.8059C11.6869 16.6318 11.6405 16.4603 11.6053 16.2866C11.5514 16.0206 11.6127 15.8704 11.8534 15.7467C12.0261 15.658 12.2136 15.5979 12.3946 15.5255C12.4076 15.5203 12.4219 15.5185 12.4341 15.5155C12.3195 15.5844 12.2 15.6455 12.0923 15.723C11.7849 15.9442 11.667 16.2481 11.7368 16.6183C11.7669 16.7783 11.8213 16.9336 11.8609 17.092C11.9325 17.3778 11.8497 17.5739 11.597 17.7259C11.5641 17.7457 11.5304 17.7643 11.499 17.7823C11.6315 17.7823 11.7622 17.7823 11.8979 17.7823C11.901 17.7311 11.9037 17.6897 11.906 17.6484C11.9307 17.2101 11.9566 16.7719 11.9795 16.3335C11.9903 16.1274 12.0555 15.9436 12.1877 15.7844C12.3006 15.6484 12.4438 15.5645 12.619 15.5373C12.8618 15.4997 13.0962 15.5455 13.3262 15.6167ZM13.2459 15.0885C13.2148 15.2135 12.9945 15.3555 12.8247 15.3763C12.9574 15.2857 13.1074 15.1831 13.2459 15.0885Z" fill="url(#paint0_linear_6661_4169)"/>
</g>
<defs>
<filter id="filter0_ddi_6661_4169" x="0" y="-1" width="32" height="33" filterUnits="userSpaceOnUse" color-interpolation-filters="sRGB">
<feFlood flood-opacity="0" result="BackgroundImageFix"/>
<feColorMatrix in="SourceAlpha" type="matrix" values="0 0 0 0 0 0 0 0 0 0 0 0 0 0 0 0 0 0 127 0" result="hardAlpha"/>
<feOffset dy="1"/>
<feGaussianBlur stdDeviation="2"/>
<feComposite in2="hardAlpha" operator="out"/>
<feColorMatrix type="matrix" values="0 0 0 0 0.705966 0 0 0 0 0.776278 0 0 0 0 1 0 0 0 0.8 0"/>
<feBlend mode="normal" in2="BackgroundImageFix" result="effect1_dropShadow_6661_4169"/>
<feColorMatrix in="SourceAlpha" type="matrix" values="0 0 0 0 0 0 0 0 0 0 0 0 0 0 0 0 0 0 127 0" result="hardAlpha"/>
<feOffset dy="-1"/>
<feGaussianBlur stdDeviation="1"/>
<feComposite in2="hardAlpha" operator="out"/>
<feColorMatrix type="matrix" values="0 0 0 0 0.723642 0 0 0 0 0.914967 0 0 0 0 1 0 0 0 1 0"/>
<feBlend mode="normal" in2="effect1_dropShadow_6661_4169" result="effect2_dropShadow_6661_4169"/>
<feBlend mode="normal" in="SourceGraphic" in2="effect2_dropShadow_6661_4169" result="shape"/>
<feColorMatrix in="SourceAlpha" type="matrix" values="0 0 0 0 0 0 0 0 0 0 0 0 0 0 0 0 0 0 127 0" result="hardAlpha"/>
<feOffset dx="-2" dy="-4"/>
<feGaussianBlur stdDeviation="2"/>
<feComposite in2="hardAlpha" operator="arithmetic" k2="-1" k3="1"/>
<feColorMatrix type="matrix" values="0 0 0 0 0.794823 0 0 0 0 0.880865 0 0 0 0 1 0 0 0 0.6 0"/>
<feBlend mode="normal" in2="shape" result="effect3_innerShadow_6661_4169"/>
</filter>
<linearGradient id="paint0_linear_6661_4169" x1="11.4261" y1="9.01172" x2="20.8452" y2="9.54192" gradientUnits="userSpaceOnUse">
<stop stop-color="#006FFF"/>
<stop offset="1" stop-color="#087BFF"/>
</linearGradient>
<clipPath id="clip0_6661_4169">
<rect x="10" y="9" width="12" height="12" rx="6" fill="white"/>
</clipPath>
</defs>
</svg>
