<svg width="32" height="32" viewBox="0 0 32 32" fill="none" xmlns="http://www.w3.org/2000/svg">
<g filter="url(#filter0_ddi_6661_4163)">
<circle cx="16" cy="15" r="12" fill="white"/>
<circle cx="16" cy="15" r="11.75" stroke="white" stroke-width="0.5"/>
</g>
<g clip-path="url(#clip0_6661_4163)">
<path d="M18.1101 13.6531H10V21H21.6064V13.6531H18.1101ZM13.5136 19.9354H11.0646V14.7178H13.5136V19.9354ZM17.0272 19.9354H14.5792V14.7178H17.0282V19.9354H17.0272ZM20.5413 19.9354H18.0928V14.7178H20.5418V19.9354H20.5413ZM14.7894 12.1738L15.821 11.6314L16.852 12.1738L16.6552 11.0256L17.4894 10.2125L16.3365 10.0445L15.821 9L15.305 10.045L14.152 10.2125L14.9862 11.0256L14.7894 12.1738ZM18.0611 12.0019L17.8643 13.1501L18.8954 12.6077L19.9264 13.1501L19.7296 12.0019L20.5638 11.1883L19.4109 11.0208L18.8954 9.97584L18.3798 11.0208L17.2269 11.1888L18.0611 12.0019ZM11.715 13.1501L12.7461 12.6077L13.7776 13.1501L13.5808 12.0019L14.415 11.1883L13.2621 11.0208L12.7456 9.97584L12.2306 11.0208L11.0776 11.1888L11.9118 12.0019L11.715 13.1501Z" fill="url(#paint0_linear_6661_4163)"/>
<path d="M19.0146 16.8296H19.4192L18.6152 18.6647L19.0448 19.0093L20.1829 16.2939H18.4789V17.0442H19.0146V16.8296ZM15.4472 16.8296H15.8519L15.0479 18.6647L15.478 19.0093L16.6156 16.2939H14.912V17.0442H15.4472V16.8296ZM11.9336 16.8296H12.3383L11.5343 18.6647L11.9639 19.0093L13.102 16.2939H11.3984V17.0442H11.9336V16.8296Z" fill="url(#paint1_linear_6661_4163)"/>
</g>
<defs>
<filter id="filter0_ddi_6661_4163" x="0" y="-1" width="32" height="33" filterUnits="userSpaceOnUse" color-interpolation-filters="sRGB">
<feFlood flood-opacity="0" result="BackgroundImageFix"/>
<feColorMatrix in="SourceAlpha" type="matrix" values="0 0 0 0 0 0 0 0 0 0 0 0 0 0 0 0 0 0 127 0" result="hardAlpha"/>
<feOffset dy="1"/>
<feGaussianBlur stdDeviation="2"/>
<feComposite in2="hardAlpha" operator="out"/>
<feColorMatrix type="matrix" values="0 0 0 0 0.705966 0 0 0 0 0.776278 0 0 0 0 1 0 0 0 0.8 0"/>
<feBlend mode="normal" in2="BackgroundImageFix" result="effect1_dropShadow_6661_4163"/>
<feColorMatrix in="SourceAlpha" type="matrix" values="0 0 0 0 0 0 0 0 0 0 0 0 0 0 0 0 0 0 127 0" result="hardAlpha"/>
<feOffset dy="-1"/>
<feGaussianBlur stdDeviation="1"/>
<feComposite in2="hardAlpha" operator="out"/>
<feColorMatrix type="matrix" values="0 0 0 0 0.723642 0 0 0 0 0.914967 0 0 0 0 1 0 0 0 1 0"/>
<feBlend mode="normal" in2="effect1_dropShadow_6661_4163" result="effect2_dropShadow_6661_4163"/>
<feBlend mode="normal" in="SourceGraphic" in2="effect2_dropShadow_6661_4163" result="shape"/>
<feColorMatrix in="SourceAlpha" type="matrix" values="0 0 0 0 0 0 0 0 0 0 0 0 0 0 0 0 0 0 127 0" result="hardAlpha"/>
<feOffset dx="-2" dy="-4"/>
<feGaussianBlur stdDeviation="2"/>
<feComposite in2="hardAlpha" operator="arithmetic" k2="-1" k3="1"/>
<feColorMatrix type="matrix" values="0 0 0 0 0.794823 0 0 0 0 0.880865 0 0 0 0 1 0 0 0 0.6 0"/>
<feBlend mode="normal" in2="shape" result="effect3_innerShadow_6661_4163"/>
</filter>
<linearGradient id="paint0_linear_6661_4163" x1="10.7047" y1="9" x2="20.6338" y2="9.58822" gradientUnits="userSpaceOnUse">
<stop stop-color="#006FFF"/>
<stop offset="1" stop-color="#087BFF"/>
</linearGradient>
<linearGradient id="paint1_linear_6661_4163" x1="11.9318" y1="16.2939" x2="19.1882" y2="17.7318" gradientUnits="userSpaceOnUse">
<stop stop-color="#006FFF"/>
<stop offset="1" stop-color="#087BFF"/>
</linearGradient>
<clipPath id="clip0_6661_4163">
<rect width="12" height="12" fill="white" transform="translate(10 9)"/>
</clipPath>
</defs>
</svg>
