<svg width="32" height="32" viewBox="0 0 32 32" fill="none" xmlns="http://www.w3.org/2000/svg">
<g filter="url(#filter0_ddi_6661_4181)">
<circle cx="16" cy="15" r="12" fill="white"/>
<circle cx="16" cy="15" r="11.75" stroke="white" stroke-width="0.5"/>
</g>
<path d="M20.8456 10.9346L21.6331 11.2554C21.9306 11.3779 22.0765 11.7162 21.954 12.0137L20.8456 14.7612V10.9346ZM18.0106 9.72123H19.0956C19.4165 9.72123 19.679 9.98373 19.679 10.3046V13.8512L18.0106 9.72123ZM19.6673 18.4887L14.2598 20.6762C13.9623 20.7987 13.624 20.6529 13.5015 20.3554L10.2231 12.2412C10.1006 11.9437 10.2465 11.6054 10.544 11.4829L15.9515 9.2954C16.249 9.1729 16.5873 9.31873 16.7098 9.61623L19.9881 17.7304C20.1106 18.0279 19.9648 18.3721 19.6673 18.4887ZM16.1206 13.6121L14.1956 12.7721L13.3615 14.6971C13.169 15.2162 13.414 15.7996 13.9273 16.0212C14.3765 16.2137 14.884 16.0737 15.1698 15.7062L15.1465 16.7796L16.2315 16.3537L15.4848 15.5837C15.9456 15.6537 16.4123 15.4146 16.6106 14.9654C16.8323 14.4579 16.6106 13.8629 16.1206 13.6121ZM11.909 12.0954L11.2498 11.8096L10.964 12.4687C10.8998 12.6437 10.9815 12.8479 11.1565 12.9237C11.3081 12.9879 11.4831 12.9412 11.5823 12.8187L11.5765 13.1862L11.9498 13.0404L11.6931 12.7779C11.8506 12.8012 12.014 12.7196 12.0781 12.5679C12.1481 12.3812 12.0781 12.1771 11.909 12.0954ZM19.0548 17.1587L18.3956 16.8729L18.1098 17.5321C18.0456 17.7071 18.1273 17.9112 18.3023 17.9871C18.454 18.0512 18.629 18.0046 18.7281 17.8821L18.7223 18.2496L19.0956 18.1037L18.839 17.8412C18.9965 17.8646 19.1598 17.7829 19.224 17.6312C19.2998 17.4504 19.224 17.2462 19.0548 17.1587Z" fill="url(#paint0_linear_6661_4181)"/>
<defs>
<filter id="filter0_ddi_6661_4181" x="0" y="-1" width="32" height="33" filterUnits="userSpaceOnUse" color-interpolation-filters="sRGB">
<feFlood flood-opacity="0" result="BackgroundImageFix"/>
<feColorMatrix in="SourceAlpha" type="matrix" values="0 0 0 0 0 0 0 0 0 0 0 0 0 0 0 0 0 0 127 0" result="hardAlpha"/>
<feOffset dy="1"/>
<feGaussianBlur stdDeviation="2"/>
<feComposite in2="hardAlpha" operator="out"/>
<feColorMatrix type="matrix" values="0 0 0 0 0.705966 0 0 0 0 0.776278 0 0 0 0 1 0 0 0 0.8 0"/>
<feBlend mode="normal" in2="BackgroundImageFix" result="effect1_dropShadow_6661_4181"/>
<feColorMatrix in="SourceAlpha" type="matrix" values="0 0 0 0 0 0 0 0 0 0 0 0 0 0 0 0 0 0 127 0" result="hardAlpha"/>
<feOffset dy="-1"/>
<feGaussianBlur stdDeviation="1"/>
<feComposite in2="hardAlpha" operator="out"/>
<feColorMatrix type="matrix" values="0 0 0 0 0.723642 0 0 0 0 0.914967 0 0 0 0 1 0 0 0 1 0"/>
<feBlend mode="normal" in2="effect1_dropShadow_6661_4181" result="effect2_dropShadow_6661_4181"/>
<feBlend mode="normal" in="SourceGraphic" in2="effect2_dropShadow_6661_4181" result="shape"/>
<feColorMatrix in="SourceAlpha" type="matrix" values="0 0 0 0 0 0 0 0 0 0 0 0 0 0 0 0 0 0 127 0" result="hardAlpha"/>
<feOffset dx="-2" dy="-4"/>
<feGaussianBlur stdDeviation="2"/>
<feComposite in2="hardAlpha" operator="arithmetic" k2="-1" k3="1"/>
<feColorMatrix type="matrix" values="0 0 0 0 0.794823 0 0 0 0 0.880865 0 0 0 0 1 0 0 0 0.6 0"/>
<feBlend mode="normal" in2="shape" result="effect3_innerShadow_6661_4181"/>
</filter>
<linearGradient id="paint0_linear_6661_4181" x1="10.8972" y1="9.25195" x2="21.0023" y2="9.8898" gradientUnits="userSpaceOnUse">
<stop stop-color="#006FFF"/>
<stop offset="1" stop-color="#087BFF"/>
</linearGradient>
</defs>
</svg>
