<svg width="32" height="32" viewBox="0 0 32 32" fill="none" xmlns="http://www.w3.org/2000/svg">
<g filter="url(#filter0_ddi_6661_4175)">
<circle cx="16" cy="15" r="12" fill="white"/>
<circle cx="16" cy="15" r="11.75" stroke="white" stroke-width="0.5"/>
</g>
<path d="M16.8941 13.1886C17.0674 13.1106 17.2321 13.0391 17.3946 12.9719C17.4097 12.9719 17.4097 12.9264 17.4119 12.9026C17.4141 12.8787 17.4119 12.8311 17.4227 12.7986L17.6112 12.8982L17.6806 12.6816C17.7027 12.7192 17.7273 12.7554 17.7542 12.7899C17.7694 12.8094 17.7976 12.8397 17.8062 12.8354C17.8318 12.8221 17.8524 12.8008 17.8647 12.7747C17.8796 12.7235 17.8912 12.6714 17.8994 12.6187H17.9319C17.9557 12.6664 17.9774 12.7141 18.0034 12.7596C18.0161 12.7763 18.0306 12.7916 18.0467 12.8051C18.0619 12.7899 18.0836 12.7769 18.0901 12.7574C18.1117 12.6946 18.1247 12.6317 18.1421 12.5689H18.1811L18.2742 12.7726H18.5581L18.6621 12.5126C18.7726 12.5927 18.6794 12.8094 18.8787 12.7682C18.7769 12.7271 18.7856 12.6621 18.9394 12.4779L19.0044 12.7639C19.0499 12.7639 19.0477 12.7639 19.0932 12.6729C19.1171 12.6209 19.1496 12.5711 19.1907 12.5017L19.2709 12.7379L19.3879 12.6252L19.4052 12.8744C19.4321 12.8603 19.4575 12.8436 19.4811 12.8246C19.502 12.8057 19.5209 12.7847 19.5374 12.7617H19.5721C19.5778 12.861 19.5676 12.9604 19.5417 13.0564C19.3307 13.5506 19.0236 13.9979 18.6382 14.3725C18.2529 14.747 17.797 15.0413 17.2971 15.2382C16.8115 15.4136 16.3453 15.6386 15.9061 15.9099C15.4554 16.1864 15.1146 16.6106 14.9419 17.1102C14.9129 17.1947 14.8969 17.2831 14.8942 17.3724L15.0177 17.0496C15.0459 17.2662 15.0546 17.4417 15.0936 17.6129C15.1515 17.8527 15.2584 18.0779 15.4076 18.2744C15.5567 18.4709 15.7449 18.6344 15.9602 18.7547C16.0413 18.8122 16.1413 18.8364 16.2397 18.8223C16.3381 18.8082 16.4273 18.7569 16.4889 18.6789C16.6309 18.5131 16.7605 18.3372 16.8767 18.1524C17.1672 17.7107 17.5188 17.3125 17.9211 16.9694C17.9969 16.9044 18.2569 16.9564 18.2916 17.0496C18.3024 17.0777 18.2786 17.1232 18.2634 17.1579C17.9969 17.7386 17.7326 18.3192 17.4617 18.8912C17.3245 19.194 17.2896 19.5332 17.3621 19.8576C17.4531 20.3234 17.5571 20.7871 17.6546 21.2529C17.6566 21.2724 17.6566 21.292 17.6546 21.3114C17.6069 21.2746 17.5679 21.2464 17.5332 21.2139C17.1865 20.8573 16.9068 20.4412 16.7077 19.9854C16.6471 19.8619 16.5886 19.7362 16.5301 19.6106C16.5019 19.5394 16.4547 19.4775 16.3935 19.4316C16.3323 19.3857 16.2596 19.3576 16.1834 19.3506C15.9126 19.3289 15.6374 19.3202 15.3666 19.3202C15.0246 19.3333 14.6827 19.2901 14.3547 19.1924C14.0126 19.0731 13.7 18.8818 13.4382 18.6312C12.9539 18.1969 12.5866 17.6478 12.3701 17.0344C12.3159 16.8806 12.3159 16.8806 12.4676 16.7961C12.2942 16.7961 12.1187 16.8091 11.9454 16.8221C11.7721 16.8351 11.5901 16.8546 11.4124 16.8784C11.2347 16.9022 11.0592 16.9304 10.8837 16.9629C10.7082 16.9954 10.5327 17.0279 10.3594 17.0691C10.1832 17.1181 10.0046 17.1578 9.82422 17.1882C9.84805 17.1514 9.86539 17.1102 9.89139 17.0756C10.2333 16.6172 10.6973 16.2643 11.2304 16.0572C11.6247 15.8969 12.0429 15.7886 12.4437 15.6369C12.7113 15.535 12.9725 15.417 13.2259 15.2837C13.3294 15.2175 13.4179 15.1304 13.4859 15.0281C13.1154 15.3487 12.6387 15.4246 12.1491 15.5719C12.1816 15.4311 12.2054 15.3227 12.2314 15.2144C12.3904 14.6134 12.6788 14.0544 13.0764 13.5764C13.573 12.8976 14.1845 12.311 14.8834 11.8431C15.5279 11.4595 16.2077 11.1388 16.9136 10.8854C17.6535 10.6106 18.4114 10.3869 19.1821 10.2159C19.3915 10.1696 19.6047 10.1428 19.8191 10.1357C20.0097 10.1357 20.0357 10.1791 20.0357 10.3676C20.0357 10.4542 20.0596 10.5626 20.0184 10.6254C19.9317 10.7597 19.9859 10.8854 19.9816 11.0197C19.9755 11.5084 19.9026 11.9939 19.7649 12.4627C19.7519 12.5017 19.7346 12.5386 19.7172 12.5797C19.1366 12.0727 18.5147 12.1659 17.8864 12.4172C17.5139 12.5963 17.1775 12.8423 16.8941 13.1431C16.8941 13.1431 16.8962 13.1582 16.8941 13.1886ZM17.7607 11.2689C17.7152 11.2212 17.6567 11.1844 17.6546 11.1454C17.6524 11.1064 17.7152 11.0717 17.7564 11.0262C17.7402 10.9905 17.7112 10.962 17.6752 10.9464C17.6391 10.9307 17.5986 10.9291 17.5614 10.9417C17.5143 10.9518 17.4719 10.9773 17.4409 11.0142C17.4099 11.0511 17.392 11.0973 17.3902 11.1454C17.3872 11.1895 17.3996 11.2333 17.4253 11.2692C17.451 11.3052 17.4884 11.3311 17.5311 11.3426C17.5511 11.3531 17.573 11.3595 17.5955 11.3615C17.6181 11.3635 17.6408 11.3609 17.6623 11.3541C17.6839 11.3472 17.7039 11.3362 17.7211 11.3216C17.7384 11.3069 17.7526 11.289 17.7629 11.2689H17.7607ZM19.4377 10.8356C19.4589 10.7907 19.477 10.7443 19.4919 10.6969C19.4919 10.6969 19.4659 10.6687 19.4507 10.6536C19.4263 10.6842 19.4046 10.7168 19.3857 10.7511C19.3836 10.7597 19.4117 10.7857 19.4399 10.8312L19.4377 10.8356Z" fill="url(#paint0_linear_6661_4175)"/>
<path d="M15.3672 16.4856C15.469 16.3946 15.5643 16.2949 15.6705 16.2126C16.0816 15.9072 16.5397 15.6709 17.0268 15.5128C17.0706 15.4987 17.1181 15.5026 17.159 15.5236C17.6689 15.9085 18.1087 16.3783 18.459 16.9124C18.4693 16.9339 18.4772 16.9564 18.4828 16.9796C17.5264 16.4945 16.4371 16.3369 15.3823 16.5311L15.3672 16.4856ZM14.0953 12.2194L13.519 12.8434C13.3094 12.5085 13.0088 12.2402 12.6523 12.0699C13.1372 11.9686 13.6416 12.0209 14.0953 12.2194ZM18.4503 12.5293L18.4763 12.7199H18.368L18.3853 12.5271L18.4503 12.5293Z" fill="url(#paint1_linear_6661_4175)"/>
<defs>
<filter id="filter0_ddi_6661_4175" x="0" y="-1" width="32" height="33" filterUnits="userSpaceOnUse" color-interpolation-filters="sRGB">
<feFlood flood-opacity="0" result="BackgroundImageFix"/>
<feColorMatrix in="SourceAlpha" type="matrix" values="0 0 0 0 0 0 0 0 0 0 0 0 0 0 0 0 0 0 127 0" result="hardAlpha"/>
<feOffset dy="1"/>
<feGaussianBlur stdDeviation="2"/>
<feComposite in2="hardAlpha" operator="out"/>
<feColorMatrix type="matrix" values="0 0 0 0 0.705966 0 0 0 0 0.776278 0 0 0 0 1 0 0 0 0.8 0"/>
<feBlend mode="normal" in2="BackgroundImageFix" result="effect1_dropShadow_6661_4175"/>
<feColorMatrix in="SourceAlpha" type="matrix" values="0 0 0 0 0 0 0 0 0 0 0 0 0 0 0 0 0 0 127 0" result="hardAlpha"/>
<feOffset dy="-1"/>
<feGaussianBlur stdDeviation="1"/>
<feComposite in2="hardAlpha" operator="out"/>
<feColorMatrix type="matrix" values="0 0 0 0 0.723642 0 0 0 0 0.914967 0 0 0 0 1 0 0 0 1 0"/>
<feBlend mode="normal" in2="effect1_dropShadow_6661_4175" result="effect2_dropShadow_6661_4175"/>
<feBlend mode="normal" in="SourceGraphic" in2="effect2_dropShadow_6661_4175" result="shape"/>
<feColorMatrix in="SourceAlpha" type="matrix" values="0 0 0 0 0 0 0 0 0 0 0 0 0 0 0 0 0 0 127 0" result="hardAlpha"/>
<feOffset dx="-2" dy="-4"/>
<feGaussianBlur stdDeviation="2"/>
<feComposite in2="hardAlpha" operator="arithmetic" k2="-1" k3="1"/>
<feColorMatrix type="matrix" values="0 0 0 0 0.794823 0 0 0 0 0.880865 0 0 0 0 1 0 0 0 0.6 0"/>
<feBlend mode="normal" in2="shape" result="effect3_innerShadow_6661_4175"/>
</filter>
<linearGradient id="paint0_linear_6661_4175" x1="10.4446" y1="10.1357" x2="19.1895" y2="10.6255" gradientUnits="userSpaceOnUse">
<stop stop-color="#006FFF"/>
<stop offset="1" stop-color="#087BFF"/>
</linearGradient>
<linearGradient id="paint1_linear_6661_4175" x1="13.0063" y1="12.0195" x2="17.9859" y2="12.3781" gradientUnits="userSpaceOnUse">
<stop stop-color="#006FFF"/>
<stop offset="1" stop-color="#087BFF"/>
</linearGradient>
</defs>
</svg>
