<svg width="32" height="32" viewBox="0 0 32 32" fill="none" xmlns="http://www.w3.org/2000/svg">
<g filter="url(#filter0_ddi_6661_4156)">
<circle cx="16" cy="15" r="12" fill="white"/>
<circle cx="16" cy="15" r="11.75" stroke="white" stroke-width="0.5"/>
</g>
<g clip-path="url(#clip0_6661_4156)">
<path d="M19.7072 15.0107C19.6883 15.0102 19.6699 15.0045 19.6541 14.9941C19.6382 14.9838 19.6256 14.9693 19.6176 14.9522L19.3994 14.4922L18.8979 14.4063C18.8792 14.4032 18.8618 14.395 18.8475 14.3825C18.8333 14.3701 18.8228 14.3539 18.8173 14.3359C18.8116 14.318 18.8111 14.2988 18.8159 14.2807C18.8207 14.2625 18.8305 14.2461 18.8443 14.2333L19.2135 13.8892L19.135 13.3877C19.132 13.3692 19.1344 13.3502 19.1418 13.333C19.1492 13.3157 19.1614 13.301 19.1769 13.2904C19.1923 13.2797 19.2105 13.2736 19.2292 13.2727C19.248 13.2718 19.2667 13.2762 19.2831 13.2854L19.7294 13.5328L20.183 13.3087C20.1998 13.3004 20.2187 13.297 20.2373 13.2988C20.256 13.3006 20.2738 13.3076 20.2887 13.319C20.3199 13.3426 20.3347 13.3807 20.3275 13.4185L20.2342 13.9156L20.5929 14.2784C20.6203 14.3062 20.6294 14.3458 20.617 14.3823C20.6109 14.4 20.5999 14.4157 20.5852 14.4274C20.5706 14.4391 20.5529 14.4464 20.5343 14.4485L20.0301 14.5087L19.7983 14.957C19.7897 14.9737 19.7766 14.9875 19.7605 14.997C19.7444 15.0065 19.7259 15.0112 19.7072 15.0107ZM16.0875 13.993L13.4614 12.0118L10.7211 15.6441L11.6147 16.3182C11.6593 16.3519 11.6685 16.4151 11.6352 16.4592C11.6019 16.5035 11.5386 16.5118 11.494 16.4782L10.5196 15.743C10.4982 15.727 10.484 15.7033 10.4802 15.6769C10.4763 15.6505 10.483 15.6236 10.4989 15.6022L13.3603 11.8094C13.3937 11.7652 13.4569 11.7568 13.5015 11.7905L16.2085 13.8327C16.2531 13.8664 16.2624 13.9295 16.2291 13.9735C16.1958 14.0178 16.1324 14.0263 16.0878 13.9927M15.4492 10.4778C15.4646 10.4671 15.4828 10.461 15.5016 10.4601C15.5203 10.4592 15.539 10.4636 15.5554 10.4728L16.0017 10.7202L16.4553 10.4961C16.4722 10.4878 16.491 10.4844 16.5097 10.4862C16.5283 10.488 16.5461 10.495 16.5611 10.5064C16.5923 10.53 16.607 10.5681 16.5998 10.606L16.5065 11.103L16.8652 11.4658C16.8924 11.4935 16.9017 11.5332 16.8893 11.5697C16.8832 11.5874 16.8722 11.6031 16.8576 11.6148C16.8429 11.6265 16.8252 11.6339 16.8066 11.6359L16.3023 11.6963L16.0705 12.1446C16.0619 12.1613 16.0488 12.1751 16.0327 12.1846C16.0165 12.1941 15.9981 12.1988 15.9794 12.1983C15.9605 12.1978 15.9421 12.1921 15.9262 12.1818C15.9103 12.1715 15.8977 12.157 15.8896 12.1399L15.6715 11.6799L15.1699 11.5941C15.1512 11.591 15.1338 11.5828 15.1196 11.5703C15.1054 11.5579 15.0949 11.5417 15.0893 11.5236C15.0836 11.5057 15.0831 11.4866 15.0879 11.4684C15.0927 11.4503 15.1026 11.4338 15.1163 11.4211L15.4855 11.0769L15.4071 10.5755C15.4041 10.557 15.4064 10.538 15.4138 10.5207C15.4212 10.5035 15.4334 10.4887 15.4489 10.4782M17.2729 11.2487C17.2884 11.2379 17.3065 11.2317 17.3253 11.2308C17.3441 11.2299 17.3628 11.2343 17.3792 11.2435L18.0788 11.6312L18.7894 11.28C18.8063 11.2717 18.8251 11.2683 18.8439 11.2702C18.8626 11.272 18.8804 11.2791 18.8953 11.2905C18.9265 11.314 18.9413 11.3522 18.9342 11.3899L18.7876 12.1689L19.3498 12.7379C19.3772 12.7653 19.3863 12.8053 19.3739 12.8414C19.3679 12.8592 19.3569 12.8749 19.3422 12.8867C19.3276 12.8985 19.3099 12.9059 19.2912 12.9079L18.5014 13.0016L18.1383 13.7044C18.1297 13.7211 18.1165 13.7351 18.1003 13.7446C18.0841 13.7541 18.0655 13.7589 18.0467 13.7582C18.0278 13.7578 18.0094 13.752 17.9936 13.7417C17.9778 13.7314 17.9651 13.7168 17.9571 13.6997L17.6153 12.9789L16.8289 12.8443C16.8103 12.8412 16.7929 12.8329 16.7787 12.8204C16.7644 12.8079 16.754 12.7917 16.7485 12.7737C16.7428 12.7558 16.7423 12.7366 16.7471 12.7185C16.7519 12.7003 16.7617 12.6839 16.7755 12.6711L17.3542 12.1319L17.2314 11.346C17.2284 11.3275 17.2307 11.3085 17.238 11.2913C17.2454 11.2741 17.2575 11.2593 17.2729 11.2487ZM15.2901 19.0911L16.8879 20.2965L17.2546 19.8104C17.2879 19.7662 17.3513 19.7576 17.3961 19.7914C17.4407 19.8251 17.4499 19.8884 17.4166 19.9324L16.9895 20.4986C16.9561 20.5429 16.8929 20.5513 16.8483 20.5176L15.1694 19.251C15.1481 19.2351 15.1339 19.2113 15.13 19.1849C15.1261 19.1585 15.1329 19.1316 15.1487 19.1102C15.1821 19.066 15.2455 19.0574 15.2901 19.0911ZM21.5945 13.4808C21.4764 13.3927 21.3837 13.275 21.3255 13.1397C21.2673 13.0043 21.2459 12.8561 21.2632 12.7098L20.5727 12.1889C20.4399 12.2441 20.2951 12.2643 20.1522 12.2476C20.0093 12.231 19.873 12.178 19.7563 12.0938L19.7398 12.0813C19.6261 11.9924 19.5371 11.8758 19.4815 11.7426C19.4258 11.6094 19.4054 11.4641 19.422 11.3208L18.7318 10.8C18.5955 10.8557 18.4471 10.8751 18.3011 10.8562C18.1551 10.8374 18.0165 10.7809 17.8989 10.6924C17.7817 10.6035 17.6896 10.4857 17.6314 10.3506C17.5733 10.2155 17.5511 10.0676 17.5671 9.92134L16.9278 9.43904C16.7914 9.49451 16.6429 9.51372 16.4969 9.49479C16.3508 9.47587 16.2121 9.41945 16.0944 9.33103C15.855 9.15043 15.729 8.85337 15.7629 8.56022L15.5079 8.36785C15.4389 8.31572 15.3411 8.32875 15.2895 8.39712L9.36258 16.2532L9.74271 16.54C9.87882 16.4842 10.0271 16.4648 10.1729 16.4836C10.3188 16.5023 10.4573 16.5587 10.5749 16.647C10.8143 16.8276 10.9408 17.1251 10.9076 17.4188L11.5467 17.901C11.6829 17.8454 11.8313 17.8262 11.9772 17.845C12.1231 17.8638 12.2617 17.9201 12.3794 18.0084C12.6192 18.1893 12.7455 18.4866 12.7116 18.7798L13.4018 19.3005C13.5347 19.2452 13.6796 19.2249 13.8225 19.2415C13.9655 19.2582 14.1018 19.3113 14.2184 19.3958L14.2347 19.4081C14.3484 19.4971 14.4373 19.6138 14.4929 19.747C14.5486 19.8802 14.5692 20.0254 14.5527 20.1688L15.2431 20.6897C15.379 20.6329 15.5275 20.6129 15.6736 20.6317C15.8196 20.6505 15.9582 20.7074 16.0753 20.7968C16.3154 20.9779 16.4419 21.2754 16.408 21.5685L16.6169 21.7261L18.2896 19.509C18.1175 19.641 17.9014 19.6701 17.677 19.5904C16.4686 19.1595 15.2128 18.8754 13.9366 18.7444C13.8073 18.7325 13.6838 18.6849 13.58 18.6068C13.4338 18.4949 13.334 18.3331 13.2996 18.1523C13.2418 17.8457 13.3851 17.56 13.6647 17.424C13.761 17.3771 13.8622 17.3345 13.9663 17.2973C13.506 17.2481 13.0441 17.2153 12.5814 17.199C12.2954 17.1892 12.0827 17.0461 11.9975 16.8062C11.8905 16.5041 12.0102 16.1194 12.2823 15.8913C12.5423 15.6734 12.8125 15.5264 13.1838 15.4017C13.0025 15.3817 12.8304 15.3631 12.5438 15.3469C12.0958 15.3214 11.897 14.9734 11.9019 14.6606C11.9075 14.3122 12.1524 13.9589 12.6096 13.9572C13.25 13.9551 13.8902 13.9832 14.528 14.0413C16.1787 14.193 17.8052 14.5429 19.3722 15.0835C19.6681 15.1855 19.8452 15.4184 19.8454 15.7063C19.8458 16.0265 19.6263 16.3219 19.3117 16.424C18.8604 16.571 18.4323 16.6477 17.9264 16.6721C18.1416 16.737 18.3559 16.8051 18.569 16.8766C18.92 16.9934 19.0707 17.3794 19.0347 17.6836C18.9975 17.9958 18.787 18.2024 18.4852 18.2223L18.0523 18.2509L18.1063 18.27C18.3509 18.3569 18.511 18.5377 18.5578 18.7794C18.586 18.9253 18.5674 19.0797 18.5103 19.2165L22.6372 13.7464L22.428 13.5886C22.2917 13.6443 22.1431 13.6636 21.9971 13.6446C21.851 13.6257 21.7123 13.5692 21.5946 13.4806" fill="url(#paint0_linear_6661_4156)"/>
<path d="M17.4353 11.4793L17.5657 12.1179C17.5726 12.1506 17.5623 12.183 17.5389 12.2043L17.0797 12.6183L17.7354 12.7556C17.7522 12.7591 17.7681 12.7663 17.7818 12.7767C17.7955 12.7871 17.8068 12.8003 17.8149 12.8155L18.1241 13.4097L18.3988 12.8562C18.4061 12.8421 18.4169 12.83 18.4303 12.8214C18.4437 12.8128 18.4591 12.8078 18.475 12.807L19.125 12.7601L18.6393 12.2807C18.6272 12.2692 18.6179 12.255 18.6123 12.2393C18.6066 12.2235 18.6048 12.2067 18.6068 12.1901L18.6995 11.5671L18.1243 11.8244C18.1089 11.8309 18.0922 11.8337 18.0755 11.8325C18.0588 11.8313 18.0427 11.8263 18.0283 11.8177L17.4355 11.4795L17.4353 11.4793ZM15.6096 10.7428L15.6563 11.1173C15.6607 11.1522 15.6478 11.1877 15.6216 11.2127L15.3418 11.4788L15.7102 11.5325C15.727 11.5349 15.7429 11.5415 15.7564 11.5517C15.77 11.5619 15.7807 11.5754 15.7876 11.5909L15.9383 11.9314L16.1192 11.5897C16.1274 11.5742 16.1391 11.5608 16.1534 11.5506C16.1676 11.5403 16.1841 11.5336 16.2014 11.5309L16.5748 11.475L16.3181 11.2102C16.3063 11.1978 16.2977 11.1827 16.2931 11.1661C16.2885 11.1496 16.288 11.1322 16.2917 11.1155L16.3716 10.7403L16.032 10.9184C16.0169 10.9266 15.9999 10.9309 15.9827 10.931C15.9655 10.931 15.9485 10.9268 15.9333 10.9187L15.6094 10.7427L15.6096 10.7428ZM19.6447 14.7325L19.8256 14.3909C19.8338 14.3753 19.8455 14.3618 19.8598 14.3516C19.8741 14.3413 19.8907 14.3345 19.908 14.3318L20.2813 14.2761L20.0246 14.0113C20.0127 13.9989 20.004 13.9837 19.9994 13.9671C19.9948 13.9505 19.9944 13.9331 19.9981 13.9163L20.078 13.5414L19.7385 13.7195C19.7233 13.7277 19.7064 13.7319 19.6892 13.732C19.672 13.732 19.6551 13.7278 19.6399 13.7197L19.3158 13.5438L19.3627 13.9184C19.3673 13.9531 19.3543 13.9889 19.3281 14.0138L19.0482 14.2799L19.4166 14.3336C19.4334 14.336 19.4493 14.3426 19.4629 14.3528C19.4764 14.363 19.4872 14.3765 19.4941 14.392L19.6447 14.7325ZM13.9047 18.5763C13.6398 18.5501 13.485 18.3431 13.4487 18.1498C13.4168 17.9778 13.4676 17.7528 13.7067 17.6361C13.9311 17.5265 14.1772 17.4444 14.4586 17.3849C14.4819 17.38 14.5026 17.367 14.5172 17.3482C14.5317 17.3294 14.5391 17.3061 14.538 17.2823C14.5369 17.2585 14.5274 17.2358 14.5112 17.2183C14.495 17.2008 14.4732 17.1895 14.4495 17.1865C13.8155 17.1041 13.178 17.052 12.539 17.0304C12.3354 17.0239 12.1979 16.9352 12.1411 16.774C12.0626 16.5514 12.1602 16.2519 12.368 16.0772C12.6982 15.8001 13.0357 15.6486 13.7061 15.4771C13.7293 15.4713 13.7496 15.4573 13.7633 15.4377C13.7771 15.4181 13.7833 15.3942 13.7808 15.3704C13.7786 15.3465 13.7679 15.3242 13.7507 15.3075C13.7336 15.2907 13.711 15.2806 13.6871 15.2789C13.4626 15.2627 13.3104 15.2463 13.1629 15.2306C12.9779 15.2106 12.8031 15.192 12.5097 15.1761C12.1728 15.1575 12.0574 14.906 12.0613 14.6961C12.0658 14.4522 12.2271 14.1889 12.5712 14.1869C13.2053 14.1835 13.8392 14.2099 14.4707 14.2662C16.1047 14.4131 17.7149 14.7568 19.2664 15.2897C19.4794 15.3628 19.6015 15.5197 19.6012 15.7204C19.6011 15.956 19.4376 16.1738 19.2037 16.2504C18.5873 16.4524 17.9925 16.5234 17.1516 16.4951C17.1267 16.4941 17.1024 16.5025 17.0834 16.5185C17.0644 16.5345 17.052 16.557 17.0487 16.5817C17.0417 16.6328 17.0744 16.6807 17.1245 16.6935C17.5751 16.8077 18.0211 16.9391 18.4616 17.0876C18.7097 17.17 18.8145 17.4534 18.7875 17.6783C18.775 17.7816 18.7146 18.0235 18.422 18.0435L17.4797 18.1081C17.4563 18.1096 17.4342 18.1192 17.4172 18.1354C17.4002 18.1516 17.3895 18.1732 17.3868 18.1965C17.3842 18.2199 17.3898 18.2434 17.4027 18.2631C17.4155 18.2828 17.4348 18.2975 17.4573 18.3045C17.6364 18.361 17.8146 18.4205 17.9917 18.4829C18.1651 18.5443 18.2782 18.6706 18.3104 18.8387C18.3467 19.0282 18.2759 19.2372 18.1342 19.3582C18.0495 19.4309 17.9041 19.5011 17.6923 19.4261C16.4685 18.9916 15.1968 18.7063 13.9047 18.5763ZM18.5087 18.8021C18.4624 18.5603 18.3025 18.3796 18.0581 18.2931L18.0042 18.2741L18.4372 18.2444C18.7392 18.2239 18.9502 18.0168 18.9879 17.7038C19.0248 17.3992 18.8745 17.0129 18.5241 16.8965C18.2827 16.8166 18.0779 16.7516 17.8817 16.6933C18.3878 16.6676 18.816 16.5899 19.2678 16.4419C19.5826 16.3388 19.8028 16.0427 19.8033 15.7218C19.8034 15.4336 19.6271 15.2007 19.3311 15.0992C17.764 14.5609 16.1377 14.2139 14.4874 14.0657C13.8495 14.0087 13.2093 13.9819 12.5688 13.9853C12.1114 13.988 11.8657 14.3425 11.8594 14.6909C11.8538 15.0043 12.0518 15.3526 12.5 15.3771C12.7138 15.3887 12.9272 15.4066 13.14 15.4308C12.7684 15.5566 12.4978 15.7041 12.2373 15.9231C11.9645 16.1522 11.8438 16.5377 11.9505 16.8399C12.0349 17.08 12.2477 17.223 12.5337 17.2321C12.9964 17.2475 13.4584 17.2793 13.9188 17.3275C13.8145 17.3654 13.7128 17.4082 13.6167 17.4552C13.3369 17.5919 13.193 17.8784 13.2503 18.1854C13.2841 18.3662 13.3836 18.5281 13.5296 18.64C13.6326 18.7177 13.7526 18.7639 13.8861 18.7771C15.1618 18.9055 16.4175 19.1873 17.6258 19.6164C17.8502 19.6958 18.0663 19.6662 18.2387 19.5339L18.2661 19.5119C18.3511 19.4377 18.4176 19.3447 18.4603 19.2402C18.5186 19.1021 18.5354 18.9499 18.5086 18.8023" fill="url(#paint1_linear_6661_4156)"/>
</g>
<defs>
<filter id="filter0_ddi_6661_4156" x="0" y="-1" width="32" height="33" filterUnits="userSpaceOnUse" color-interpolation-filters="sRGB">
<feFlood flood-opacity="0" result="BackgroundImageFix"/>
<feColorMatrix in="SourceAlpha" type="matrix" values="0 0 0 0 0 0 0 0 0 0 0 0 0 0 0 0 0 0 127 0" result="hardAlpha"/>
<feOffset dy="1"/>
<feGaussianBlur stdDeviation="2"/>
<feComposite in2="hardAlpha" operator="out"/>
<feColorMatrix type="matrix" values="0 0 0 0 0.705966 0 0 0 0 0.776278 0 0 0 0 1 0 0 0 0.8 0"/>
<feBlend mode="normal" in2="BackgroundImageFix" result="effect1_dropShadow_6661_4156"/>
<feColorMatrix in="SourceAlpha" type="matrix" values="0 0 0 0 0 0 0 0 0 0 0 0 0 0 0 0 0 0 127 0" result="hardAlpha"/>
<feOffset dy="-1"/>
<feGaussianBlur stdDeviation="1"/>
<feComposite in2="hardAlpha" operator="out"/>
<feColorMatrix type="matrix" values="0 0 0 0 0.723642 0 0 0 0 0.914967 0 0 0 0 1 0 0 0 1 0"/>
<feBlend mode="normal" in2="effect1_dropShadow_6661_4156" result="effect2_dropShadow_6661_4156"/>
<feBlend mode="normal" in="SourceGraphic" in2="effect2_dropShadow_6661_4156" result="shape"/>
<feColorMatrix in="SourceAlpha" type="matrix" values="0 0 0 0 0 0 0 0 0 0 0 0 0 0 0 0 0 0 127 0" result="hardAlpha"/>
<feOffset dx="-2" dy="-4"/>
<feGaussianBlur stdDeviation="2"/>
<feComposite in2="hardAlpha" operator="arithmetic" k2="-1" k3="1"/>
<feColorMatrix type="matrix" values="0 0 0 0 0.794823 0 0 0 0 0.880865 0 0 0 0 1 0 0 0 0.6 0"/>
<feBlend mode="normal" in2="shape" result="effect3_innerShadow_6661_4156"/>
</filter>
<linearGradient id="paint0_linear_6661_4156" x1="15.8233" y1="8.60572" x2="21.7709" y2="13.6353" gradientUnits="userSpaceOnUse">
<stop stop-color="#006FFF"/>
<stop offset="1" stop-color="#087BFF"/>
</linearGradient>
<linearGradient id="paint1_linear_6661_4156" x1="16.123" y1="9.62327" x2="21.4686" y2="14.1575" gradientUnits="userSpaceOnUse">
<stop stop-color="#006FFF"/>
<stop offset="1" stop-color="#087BFF"/>
</linearGradient>
<clipPath id="clip0_6661_4156">
<rect width="9.99599" height="9.99599" fill="white" transform="translate(15.0195 8) rotate(37.0322)"/>
</clipPath>
</defs>
</svg>
