<svg width="32" height="32" viewBox="0 0 32 32" fill="none" xmlns="http://www.w3.org/2000/svg">
<g filter="url(#filter0_ddi_6661_4151)">
<circle cx="16" cy="15" r="12" fill="white"/>
<circle cx="16" cy="15" r="11.75" stroke="white" stroke-width="0.5"/>
</g>
<g clip-path="url(#clip0_6661_4151)">
<path d="M15.645 9.86621C14.5022 9.86621 13.3852 10.2051 12.435 10.8399C11.4849 11.4748 10.7443 12.3772 10.307 13.4329C9.86969 14.4887 9.75527 15.6504 9.97821 16.7712C10.2011 17.892 10.7514 18.9215 11.5595 19.7295C12.3675 20.5375 13.397 21.0878 14.5178 21.3107C15.6386 21.5337 16.8003 21.4193 17.856 20.982C18.9118 20.5447 19.8141 19.8041 20.449 18.8539C21.0839 17.9038 21.4227 16.7867 21.4227 15.644C21.4227 14.1116 20.814 12.642 19.7305 11.5585C18.6469 10.4749 17.1773 9.86621 15.645 9.86621ZM14.4894 19.3995C13.8038 19.3995 13.1335 19.1962 12.5634 18.8153C11.9933 18.4344 11.549 17.893 11.2866 17.2595C11.0242 16.6261 10.9556 15.929 11.0894 15.2566C11.2231 14.5841 11.5533 13.9664 12.0381 13.4816C12.5229 12.9968 13.1406 12.6666 13.8131 12.5328C14.4856 12.3991 15.1826 12.4677 15.816 12.7301C16.4495 12.9925 16.9909 13.4368 17.3718 14.0069C17.7528 14.577 17.9561 15.2472 17.9561 15.9329C17.9561 16.8523 17.5908 17.7341 16.9407 18.3842C16.2906 19.0343 15.4088 19.3995 14.4894 19.3995ZM18.4616 13.2607C17.8405 12.6395 17.5227 11.952 17.7539 11.7238C17.985 11.4955 18.6696 11.8104 19.2907 12.4315C19.9119 13.0527 20.2296 13.7402 19.9985 13.9684C19.7674 14.1967 19.0827 13.8818 18.4616 13.2607Z" fill="url(#paint0_linear_6661_4151)"/>
<path d="M15.2746 15.8492C15.8061 15.6797 16.0806 15.3619 16.0979 14.8958C16.0459 14.2429 15.5664 13.8818 14.6535 13.8125C13.7252 13.8992 13.2186 14.346 13.1339 15.1529C13.1165 15.4041 13.1832 15.654 13.3233 15.8632C13.4635 16.0724 13.6692 16.229 13.9081 16.3085C13.3304 16.5319 13.0289 16.893 13.0039 17.3918C13.0559 18.0621 13.5615 18.4145 14.5264 18.4463C15.6453 18.4155 16.2298 17.9773 16.2799 17.1318C16.2953 16.5521 15.9602 16.1246 15.2746 15.8492ZM14.6535 14.0696C15.1359 14.0869 15.3844 14.3585 15.4017 14.8958C15.4091 15.0509 15.3775 15.2054 15.3099 15.3452C15.2423 15.485 15.1408 15.6056 15.0146 15.6961C14.3097 15.4014 13.9746 15.0653 14.0092 14.6878C14.0107 14.6049 14.0286 14.523 14.0618 14.447C14.0951 14.371 14.143 14.3023 14.2029 14.2448C14.2627 14.1874 14.3333 14.1423 14.4107 14.1123C14.488 14.0822 14.5705 14.0677 14.6535 14.0696ZM14.5784 18.2441C14.0275 18.2094 13.7386 17.8916 13.7117 17.2907C13.7102 17.1279 13.7527 16.9676 13.8345 16.8268C13.9163 16.686 14.0346 16.5698 14.1768 16.4905C14.2234 16.4949 14.2676 16.513 14.3039 16.5425C14.3104 16.5501 14.3184 16.5563 14.3273 16.5607C14.3362 16.5652 14.3459 16.5678 14.3559 16.5685L14.7777 16.7996C15.1561 16.9903 15.3352 17.2301 15.3179 17.5218C15.3141 17.7152 15.2344 17.8993 15.0961 18.0344C14.9577 18.1696 14.7717 18.2449 14.5784 18.2441Z" fill="url(#paint1_linear_6661_4151)"/>
</g>
<defs>
<filter id="filter0_ddi_6661_4151" x="0" y="-1" width="32" height="33" filterUnits="userSpaceOnUse" color-interpolation-filters="sRGB">
<feFlood flood-opacity="0" result="BackgroundImageFix"/>
<feColorMatrix in="SourceAlpha" type="matrix" values="0 0 0 0 0 0 0 0 0 0 0 0 0 0 0 0 0 0 127 0" result="hardAlpha"/>
<feOffset dy="1"/>
<feGaussianBlur stdDeviation="2"/>
<feComposite in2="hardAlpha" operator="out"/>
<feColorMatrix type="matrix" values="0 0 0 0 0.705966 0 0 0 0 0.776278 0 0 0 0 1 0 0 0 0.8 0"/>
<feBlend mode="normal" in2="BackgroundImageFix" result="effect1_dropShadow_6661_4151"/>
<feColorMatrix in="SourceAlpha" type="matrix" values="0 0 0 0 0 0 0 0 0 0 0 0 0 0 0 0 0 0 127 0" result="hardAlpha"/>
<feOffset dy="-1"/>
<feGaussianBlur stdDeviation="1"/>
<feComposite in2="hardAlpha" operator="out"/>
<feColorMatrix type="matrix" values="0 0 0 0 0.723642 0 0 0 0 0.914967 0 0 0 0 1 0 0 0 1 0"/>
<feBlend mode="normal" in2="effect1_dropShadow_6661_4151" result="effect2_dropShadow_6661_4151"/>
<feBlend mode="normal" in="SourceGraphic" in2="effect2_dropShadow_6661_4151" result="shape"/>
<feColorMatrix in="SourceAlpha" type="matrix" values="0 0 0 0 0 0 0 0 0 0 0 0 0 0 0 0 0 0 127 0" result="hardAlpha"/>
<feOffset dx="-2" dy="-4"/>
<feGaussianBlur stdDeviation="2"/>
<feComposite in2="hardAlpha" operator="arithmetic" k2="-1" k3="1"/>
<feColorMatrix type="matrix" values="0 0 0 0 0.794823 0 0 0 0 0.880865 0 0 0 0 1 0 0 0 0.6 0"/>
<feBlend mode="normal" in2="shape" result="effect3_innerShadow_6661_4151"/>
</filter>
<linearGradient id="paint0_linear_6661_4151" x1="10.5688" y1="9.86621" x2="20.452" y2="10.4716" gradientUnits="userSpaceOnUse">
<stop stop-color="#006FFF"/>
<stop offset="1" stop-color="#087BFF"/>
</linearGradient>
<linearGradient id="paint1_linear_6661_4151" x1="13.2028" y1="13.8125" x2="16.0104" y2="13.9341" gradientUnits="userSpaceOnUse">
<stop stop-color="#006FFF"/>
<stop offset="1" stop-color="#087BFF"/>
</linearGradient>
<clipPath id="clip0_6661_4151">
<rect width="13" height="13" fill="white" transform="translate(9 9)"/>
</clipPath>
</defs>
</svg>
