<svg width="40" height="40" viewBox="0 0 40 40" fill="none" xmlns="http://www.w3.org/2000/svg">
<path d="M28.7553 19.3257C27.543 18.6292 26.4961 18.0279 26.4961 17.2183V16.875H27.1851L28.3478 17.7786C28.6866 18.0419 29.1091 18.1875 29.5369 18.1875H30.7224C31.5816 18.1875 32.351 17.6063 32.5919 16.7745L32.8926 15.7426C33.1298 14.9304 32.9689 14.0429 32.4611 13.3673L30.1483 10.2957C29.5381 9.48439 28.5712 9 27.5621 9H19.0722C18.2812 9 17.7279 9.98602 18.4465 10.6919L19.9696 11.9326L18.6472 12.483C17.9895 12.8087 17.8697 13.8288 18.6931 14.232L20.6476 15.0215V17.1088L12.9166 15.145C12.1374 14.9456 11.3046 15.261 10.8451 15.9275L7.15265 21.2686C6.94831 21.593 6.94952 21.9954 7.15387 22.3182C7.22253 22.4256 7.54144 22.8559 8.1691 22.7657L12.8418 21.8715L12.3515 22.5811C12.1472 22.9055 12.1484 23.3079 12.3527 23.6307C12.6249 24.0593 13.0787 24.1171 13.3338 24.0839L21.5755 22.9605C21.9139 23.6459 22.3137 24.2873 22.8418 24.8361C17.5382 25.195 12.5883 26.3455 8.04885 27.3516C7.44109 27.4857 7.00031 28.0354 7.00031 28.6592C7.00031 29.3975 7.59953 29.9979 8.33567 29.9979L27.5926 30C29.3252 30 30.9702 29.1891 31.9919 27.8307C32.9425 26.5674 33.2306 25.0117 32.8004 23.4502C32.2113 21.3112 30.2946 20.21 28.7553 19.3257ZM8.6948 21.3301L11.9111 16.6785C12.0635 16.4575 12.3413 16.3562 12.6018 16.4177L16.0171 17.2798L13.9062 20.3326L8.6948 21.3301ZM13.8615 22.6877L17.3647 17.6231L20.6468 18.4639C20.6468 20.4286 20.9994 21.4429 21.0775 21.7042L13.8615 22.6877ZM27.5926 28.6875H8.29992C17.6653 26.359 22.6253 26.1298 24.5692 26.0617C25.2005 26.0399 25.4313 25.2073 24.9032 24.8583C22.9141 23.5363 21.9472 21.5393 21.9472 18.7539V14.5773C21.9472 14.3087 21.786 14.0679 21.5386 13.9678L19.9887 13.3431L21.4801 12.7242C21.6921 12.6356 21.8432 12.4408 21.8761 12.2115C21.9091 11.9822 21.8189 11.7521 21.6401 11.6065L20.0468 10.3125H27.5621C28.1674 10.3125 28.7475 10.6029 29.1132 11.0897L31.4256 14.1622C31.6848 14.5059 31.7668 14.9575 31.6466 15.3714L31.346 16.4046C31.2647 16.6814 31.0084 16.875 30.7228 16.875H29.5373C29.3927 16.875 29.257 16.8282 29.1412 16.7384L27.8022 15.6983C27.6886 15.6102 27.5493 15.5625 27.4061 15.5625H25.8461C25.4869 15.5625 25.1961 15.8562 25.1961 16.2188V17.2187C25.1961 18.7912 26.6127 19.6054 28.113 20.4667C29.5828 21.3113 31.1022 22.1849 31.5487 23.8025C32.3352 26.6679 29.8773 28.6875 27.5926 28.6875Z" fill="#5E6480"/>
<path d="M27.1665 12.6386C27.7726 12.6738 28.2776 12.2329 28.421 11.6304L26.0477 11C25.784 12.1123 26.6778 12.6103 27.1665 12.6386Z" fill="#474747"/>
</svg>
