<svg width="40" height="40" viewBox="0 0 40 40" fill="none" xmlns="http://www.w3.org/2000/svg">
<g clip-path="url(#clip0_6648_8807)">
<g filter="url(#filter0_d_6648_8807)">
<path d="M31 14H17C17 14.8333 18.8 17.9 18 23.5C17.2 29.1 17.3721 30.5 19.8721 31.5C20.8721 31.9 22.1 32 26.5 32C30.9 32 32.6667 30 33 28V16C33 14.8954 32.1046 14 31 14Z" fill="url(#paint0_linear_6648_8807)"/>
<g filter="url(#filter1_i_6648_8807)">
<circle cx="17.5" cy="17.5" r="9.5" fill="white"/>
</g>
<rect x="13" y="16" width="1.5" height="3" rx="0.75" fill="url(#paint1_linear_6648_8807)"/>
<rect x="18" y="16" width="1.5" height="3" rx="0.75" fill="url(#paint2_linear_6648_8807)"/>
</g>
</g>
<defs>
<filter id="filter0_d_6648_8807" x="0" y="4.5" width="37" height="36" filterUnits="userSpaceOnUse" color-interpolation-filters="sRGB">
<feFlood flood-opacity="0" result="BackgroundImageFix"/>
<feColorMatrix in="SourceAlpha" type="matrix" values="0 0 0 0 0 0 0 0 0 0 0 0 0 0 0 0 0 0 127 0" result="hardAlpha"/>
<feOffset dx="-2" dy="2.5"/>
<feGaussianBlur stdDeviation="3"/>
<feComposite in2="hardAlpha" operator="out"/>
<feColorMatrix type="matrix" values="0 0 0 0 0.372619 0 0 0 0 0.57129 0 0 0 0 1 0 0 0 0.6 0"/>
<feBlend mode="normal" in2="BackgroundImageFix" result="effect1_dropShadow_6648_8807"/>
<feBlend mode="normal" in="SourceGraphic" in2="effect1_dropShadow_6648_8807" result="shape"/>
</filter>
<filter id="filter1_i_6648_8807" x="4" y="4" width="23" height="23" filterUnits="userSpaceOnUse" color-interpolation-filters="sRGB">
<feFlood flood-opacity="0" result="BackgroundImageFix"/>
<feBlend mode="normal" in="SourceGraphic" in2="BackgroundImageFix" result="shape"/>
<feColorMatrix in="SourceAlpha" type="matrix" values="0 0 0 0 0 0 0 0 0 0 0 0 0 0 0 0 0 0 127 0" result="hardAlpha"/>
<feOffset dx="-4" dy="-4"/>
<feGaussianBlur stdDeviation="2"/>
<feComposite in2="hardAlpha" operator="arithmetic" k2="-1" k3="1"/>
<feColorMatrix type="matrix" values="0 0 0 0 0.756863 0 0 0 0 0.847059 0 0 0 0 1 0 0 0 1 0"/>
<feBlend mode="normal" in2="shape" result="effect1_innerShadow_6648_8807"/>
</filter>
<linearGradient id="paint0_linear_6648_8807" x1="17.9714" y1="14" x2="31.6666" y2="14.7456" gradientUnits="userSpaceOnUse">
<stop stop-color="#006FFF"/>
<stop offset="1" stop-color="#087BFF"/>
</linearGradient>
<linearGradient id="paint1_linear_6648_8807" x1="13.0911" y1="16" x2="14.3776" y2="16.0394" gradientUnits="userSpaceOnUse">
<stop stop-color="#006FFF"/>
<stop offset="1" stop-color="#087BFF"/>
</linearGradient>
<linearGradient id="paint2_linear_6648_8807" x1="18.0911" y1="16" x2="19.3776" y2="16.0394" gradientUnits="userSpaceOnUse">
<stop stop-color="#006FFF"/>
<stop offset="1" stop-color="#087BFF"/>
</linearGradient>
<clipPath id="clip0_6648_8807">
<rect width="40" height="40" fill="white"/>
</clipPath>
</defs>
</svg>
