<svg width="36" height="36" viewBox="0 0 36 36" fill="none" xmlns="http://www.w3.org/2000/svg">
<path fill-rule="evenodd" clip-rule="evenodd" d="M10.1765 8C9.52672 8 9 8.52672 9 9.17647V26.8235C9 27.4733 9.52672 28 10.1765 28H26.6471C27.2968 28 27.8235 27.4733 27.8235 26.8235V9.17647C27.8235 8.52672 27.2968 8 26.6471 8H10.1765Z" fill="url(#paint0_linear_6608_5095)"/>
<path d="M16.1484 22.1474C16.4083 22.3423 16.777 22.2897 16.972 22.0298C17.1669 21.7699 17.1142 21.4012 16.8543 21.2062L16.1484 22.1474ZM17.3837 20.5003L22.6778 20.5003L22.6778 19.3239L17.3837 19.3239L17.3837 20.5003ZM16.8543 21.2062L14.7837 19.6533L14.0778 20.5945L16.1484 22.1474L16.8543 21.2062ZM14.5014 20.5003L17.3837 20.5003L17.3837 19.3239L14.5014 19.3239L14.5014 20.5003ZM14.7837 19.6533C15.1455 19.9246 14.9536 20.5003 14.5014 20.5003L14.5014 19.3239C13.823 19.3239 13.5352 20.1874 14.0778 20.5945L14.7837 19.6533Z" fill="white"/>
<path d="M20.6797 14.1475C20.4198 13.9526 20.0511 14.0053 19.8562 14.2652C19.6612 14.5251 19.7139 14.8938 19.9738 15.0887L20.6797 14.1475ZM19.4444 15.7946L14.1503 15.7946L14.1503 16.971L19.4444 16.971L19.4444 15.7946ZM19.9738 15.0887L22.0444 16.6416L22.7503 15.7005L20.6797 14.1475L19.9738 15.0887ZM22.3267 15.7946L19.4444 15.7946L19.4444 16.971L22.3267 16.971L22.3267 15.7946ZM22.0444 16.6416C21.6826 16.3703 21.8745 15.7946 22.3267 15.7946L22.3267 16.971C23.0051 16.971 23.293 16.1075 22.7503 15.7005L22.0444 16.6416Z" fill="white"/>
<defs>
<linearGradient id="paint0_linear_6608_5095" x1="10.1429" y1="8" x2="26.2491" y2="8.9285" gradientUnits="userSpaceOnUse">
<stop stop-color="#006FFF"/>
<stop offset="1" stop-color="#087BFF"/>
</linearGradient>
</defs>
</svg>
