<svg width="36" height="36" viewBox="0 0 36 36" fill="none" xmlns="http://www.w3.org/2000/svg">
<path d="M9 23.0263C9 24.1316 9.87083 25 10.9792 25H26.0208C27.1292 25 28 24.1316 28 23.0263V14.5395H9V23.0263ZM11.7708 16.5132H16.5208C16.7583 16.5132 16.9167 16.6711 16.9167 16.9079C16.9167 17.1447 16.7583 17.3026 16.5208 17.3026H11.7708C11.5333 17.3026 11.375 17.1447 11.375 16.9079C11.375 16.6711 11.5333 16.5132 11.7708 16.5132ZM11.7708 18.8816H16.5208C16.7583 18.8816 16.9167 19.0395 16.9167 19.2763C16.9167 19.5132 16.7583 19.6711 16.5208 19.6711H11.7708C11.5333 19.6711 11.375 19.5132 11.375 19.2763C11.375 19.0395 11.5333 18.8816 11.7708 18.8816ZM26.0208 10H10.9792C9.87083 10 9 10.8684 9 11.9737V13.75H28V11.9737C28 10.8684 27.1292 10 26.0208 10Z" fill="url(#paint0_linear_6608_5103)"/>
<defs>
<linearGradient id="paint0_linear_6608_5103" x1="10.1536" y1="10" x2="26.3672" y2="11.2579" gradientUnits="userSpaceOnUse">
<stop stop-color="#006FFF"/>
<stop offset="1" stop-color="#087BFF"/>
</linearGradient>
</defs>
</svg>
