<svg width="40" height="40" viewBox="0 0 40 40" fill="none" xmlns="http://www.w3.org/2000/svg">
<path fill-rule="evenodd" clip-rule="evenodd" d="M28.3342 12.128C28.2605 12.3951 28.1441 12.7683 27.9895 13H26.08C26.3799 12.8131 26.8929 12.287 27.0205 11.79C27.1046 11.4652 27.0178 11.1232 26.7586 10.7454L26.7563 10.7421C26.6726 10.6222 26.428 10.2715 25.6213 10.3319C24.2846 10.4313 22.5067 11.6851 21.459 13H18.9443C17.9034 11.6851 16.1188 10.4313 14.782 10.3319C13.9719 10.2709 13.7262 10.6288 13.6461 10.7454L13.6461 10.7454C13.3842 11.1312 13.2987 11.4679 13.3842 11.7939C13.5199 12.2923 14.0343 12.8184 14.326 13H12.4153C12.2616 12.7668 12.1461 12.3949 12.0732 12.128C11.947 11.6415 11.9212 10.882 12.5224 10.0071C13.0178 9.28737 13.8578 8.93346 14.8892 9.01034C16.6929 9.14421 18.9484 10.5917 20.2037 12.3109C21.4604 10.593 23.7146 9.14421 25.5195 9.01166C26.5509 8.93478 27.3896 9.2887 27.885 10.0071C28.4862 10.8846 28.4604 11.6442 28.3342 12.128Z" fill="#474747"/>
<path fill-rule="evenodd" clip-rule="evenodd" d="M12.7035 13C12.7043 13.0013 12.7052 13.0027 12.7061 13.004H11.6584C11.2196 13.0043 10.7988 13.0552 10.488 13.3578C10.1773 13.6603 10.0018 14.0708 10 14.4993V17.5189C10.0003 17.8613 10.1117 18.1949 10.3182 18.4716C10.5248 18.7484 10.8158 18.954 11.1495 19.0591V27.5133C11.1506 28.1725 11.4191 28.8044 11.8964 29.2705C12.3736 29.7366 13.0205 29.9989 13.6954 30H27.3046C27.9796 29.9993 28.6267 29.7371 29.104 29.2709C29.5813 28.8047 29.8498 28.1726 29.8505 27.5133V19.0591C30.1842 18.954 30.4752 18.7484 30.6818 18.4716C30.8883 18.1949 30.9997 17.8613 31 17.5189V14.4993C30.9993 14.0703 30.8245 13.659 30.5139 13.3557C30.2033 13.0523 29.7822 13.0007 29.343 13H28.2776H26.3682H21.7472H19.2325H14.6142H12.7035ZM29.6429 17.5189V14.4993C29.6429 14.4216 29.6113 14.3471 29.555 14.2922C29.4988 14.2373 29.4225 14.2064 29.343 14.2064H21.1786V17.8131H29.343C29.4226 17.8128 29.4989 17.7816 29.5551 17.7265C29.6113 17.6713 29.6429 17.5967 29.6429 17.5189ZM11.3801 14.3869C11.3649 14.4225 11.3571 14.4607 11.3571 14.4993V17.5189C11.3571 17.5969 11.3889 17.6718 11.4454 17.7269C11.5019 17.7821 11.5785 17.8131 11.6584 17.8131H19.8214V14.2064H11.6584C11.6189 14.2062 11.5797 14.2137 11.5432 14.2283C11.5067 14.2429 11.4734 14.2645 11.4454 14.2917C11.4174 14.3189 11.3952 14.3513 11.3801 14.3869ZM12.5066 19.1387V27.5133C12.507 27.8212 12.6323 28.1163 12.8552 28.334C13.0781 28.5517 13.3802 28.6741 13.6954 28.6745H19.8214V19.1387H12.5066ZM21.1786 28.6745H27.2991H27.3046C27.6198 28.6741 27.9219 28.5517 28.1448 28.334C28.3677 28.1163 28.493 27.8212 28.4934 27.5133V19.1387H21.1786V28.6745Z" fill="#5E6480"/>
</svg>
