<svg width="40" height="40" viewBox="0 0 40 40" fill="none" xmlns="http://www.w3.org/2000/svg">
<g clip-path="url(#clip0_6648_8781)">
<g filter="url(#filter0_d_6648_8781)">
<path d="M32.9999 28V16C32.9999 14.8954 32.1044 14 30.9999 14H27.9999V11.5H8.99987C8.99987 12.1395 8.86846 13.5943 9 17C9.03986 18.0321 18.1859 22.1976 17.9999 23.5C17.1999 29.1 17.3719 30.5 19.8719 31.5C20.8719 31.9 22.0999 32 26.4999 32C30.8999 32 32.6665 30 32.9999 28Z" fill="url(#paint0_linear_6648_8781)"/>
<path fill-rule="evenodd" clip-rule="evenodd" d="M26.3342 10.128C26.2605 10.3951 26.1441 10.7683 25.9895 11H24.08C24.3799 10.8131 24.8929 10.287 25.0205 9.78996C25.1046 9.46521 25.0178 9.12322 24.7586 8.74545L24.7563 8.74213C24.6726 8.62219 24.428 8.27148 23.6213 8.33188C22.2846 8.4313 20.5067 9.68508 19.459 11H16.9443C15.9034 9.68508 14.1188 8.4313 12.782 8.33188C11.9719 8.27091 11.7262 8.62877 11.6461 8.74543L11.6461 8.74545C11.3842 9.13117 11.2987 9.46786 11.3842 9.79394C11.5199 10.2923 12.0343 10.8184 12.326 11H10.4153C10.2616 10.7668 10.1461 10.3949 10.0732 10.128C9.94702 9.6415 9.92124 8.88198 10.5224 8.00713C11.0178 7.28737 11.8578 6.93346 12.8892 7.01034C14.6929 7.14421 16.9484 8.59169 18.2037 10.3109C19.4604 8.59301 21.7146 7.14421 23.5195 7.01166C24.5509 6.93478 25.3896 7.2887 25.885 8.00713C26.4862 8.88463 26.4604 9.64415 26.3342 10.128Z" fill="url(#paint1_linear_6648_8781)"/>
<g filter="url(#filter1_i_6648_8781)">
<path fill-rule="evenodd" clip-rule="evenodd" d="M10.7035 11C10.7043 11.0013 10.7052 11.0027 10.7061 11.004H9.65839C9.21961 11.0043 8.79882 11.0552 8.48804 11.3578C8.17727 11.6603 8.00179 12.0708 8 12.4993V15.5189C8.0003 15.8613 8.11171 16.1949 8.31824 16.4716C8.52477 16.7484 8.81578 16.954 9.14948 17.0591V25.5133C9.15055 26.1725 9.41913 26.8044 9.89636 27.2705C10.3736 27.7366 11.0205 27.9989 11.6954 28H25.3046C25.9796 27.9993 26.6267 27.7371 27.104 27.2709C27.5813 26.8047 27.8498 26.1726 27.8505 25.5133V17.0591C28.1842 16.954 28.4752 16.7484 28.6818 16.4716C28.8883 16.1949 28.9997 15.8613 29 15.5189V12.4993C28.9993 12.0703 28.8245 11.659 28.5139 11.3557C28.2033 11.0523 27.7822 11.0007 27.343 11H26.2776H24.3682H19.7472H17.2325H12.6142H10.7035ZM27.6429 15.5189V12.4993C27.6429 12.4216 27.6113 12.3471 27.555 12.2922C27.4988 12.2373 27.4225 12.2064 27.343 12.2064H19.1786V15.8131H27.343C27.4226 15.8128 27.4989 15.7816 27.5551 15.7265C27.6113 15.6713 27.6429 15.5967 27.6429 15.5189ZM9.38007 12.3869C9.36492 12.4225 9.35711 12.4607 9.35712 12.4993V15.5189C9.35712 15.5969 9.38886 15.6718 9.44536 15.7269C9.50186 15.7821 9.57849 15.8131 9.65839 15.8131H17.8214V12.2064H9.65839C9.61889 12.2062 9.57975 12.2137 9.5432 12.2283C9.50666 12.2429 9.47343 12.2645 9.44544 12.2917C9.41745 12.3189 9.39523 12.3513 9.38007 12.3869Z" fill="white"/>
</g>
</g>
</g>
<defs>
<filter id="filter0_d_6648_8781" x="0" y="3.5" width="37" height="37" filterUnits="userSpaceOnUse" color-interpolation-filters="sRGB">
<feFlood flood-opacity="0" result="BackgroundImageFix"/>
<feColorMatrix in="SourceAlpha" type="matrix" values="0 0 0 0 0 0 0 0 0 0 0 0 0 0 0 0 0 0 127 0" result="hardAlpha"/>
<feOffset dx="-2" dy="2.5"/>
<feGaussianBlur stdDeviation="3"/>
<feComposite in2="hardAlpha" operator="out"/>
<feColorMatrix type="matrix" values="0 0 0 0 0.372619 0 0 0 0 0.57129 0 0 0 0 1 0 0 0 0.6 0"/>
<feBlend mode="normal" in2="BackgroundImageFix" result="effect1_dropShadow_6648_8781"/>
<feBlend mode="normal" in="SourceGraphic" in2="effect1_dropShadow_6648_8781" result="shape"/>
</filter>
<filter id="filter1_i_6648_8781" x="4" y="7" width="25" height="21" filterUnits="userSpaceOnUse" color-interpolation-filters="sRGB">
<feFlood flood-opacity="0" result="BackgroundImageFix"/>
<feBlend mode="normal" in="SourceGraphic" in2="BackgroundImageFix" result="shape"/>
<feColorMatrix in="SourceAlpha" type="matrix" values="0 0 0 0 0 0 0 0 0 0 0 0 0 0 0 0 0 0 127 0" result="hardAlpha"/>
<feOffset dx="-4" dy="-4"/>
<feGaussianBlur stdDeviation="2"/>
<feComposite in2="hardAlpha" operator="arithmetic" k2="-1" k3="1"/>
<feColorMatrix type="matrix" values="0 0 0 0 0.756863 0 0 0 0 0.847059 0 0 0 0 1 0 0 0 1 0"/>
<feBlend mode="normal" in2="shape" result="effect1_innerShadow_6648_8781"/>
</filter>
<linearGradient id="paint0_linear_6648_8781" x1="10.4021" y1="11.5" x2="30.9498" y2="12.977" gradientUnits="userSpaceOnUse">
<stop stop-color="#006FFF"/>
<stop offset="1" stop-color="#087BFF"/>
</linearGradient>
<linearGradient id="paint1_linear_6648_8781" x1="10.9962" y1="7" x2="24.2454" y2="10.3288" gradientUnits="userSpaceOnUse">
<stop stop-color="#006FFF"/>
<stop offset="1" stop-color="#087BFF"/>
</linearGradient>
<clipPath id="clip0_6648_8781">
<rect width="40" height="40" fill="white"/>
</clipPath>
</defs>
</svg>
