<svg width="36" height="36" viewBox="0 0 36 36" fill="none" xmlns="http://www.w3.org/2000/svg">
<path fill-rule="evenodd" clip-rule="evenodd" d="M10.5697 9.47392C10.8564 9.17212 11.2629 9 11.689 9H23.4888C23.9146 9.00064 24.3204 9.17297 24.6066 9.47477C24.8927 9.77654 25.0329 10.1798 24.9924 10.5855L24.9341 11.172H26.6638C27.4992 11.172 28.1765 11.8202 28.1765 12.62V14.2793C28.1762 15.9246 27.205 17.4285 25.6677 18.1642L24.1504 18.8904C23.733 21.2697 21.9388 23.2359 19.4986 23.9365C19.2672 24.0031 19.1008 24.2008 19.1008 24.4317C19.1008 24.5633 19.1553 24.6894 19.2525 24.7824C19.3496 24.8754 19.4814 24.9276 19.6188 24.9276H22.8822C23.4227 24.9276 23.9222 25.2035 24.1923 25.6515C24.4626 26.0995 24.4626 26.6516 24.1923 27.0996C23.9222 27.5476 23.4227 27.8236 22.8822 27.8235H12.294C11.7536 27.8236 11.2542 27.5476 10.9839 27.0996C10.7137 26.6516 10.7137 26.0995 10.9839 25.6515C11.2542 25.2035 11.7536 24.9276 12.294 24.9276H15.5574C15.6948 24.9276 15.8266 24.8754 15.9238 24.7824C16.0209 24.6894 16.0756 24.5633 16.0756 24.4317C16.0717 24.2007 15.9099 23.9995 15.6778 23.9365C13.2379 23.2357 11.444 21.2697 11.0266 18.8908L9.5086 18.1642C7.97132 17.4285 7.00008 15.9246 7 14.2793V12.62C7 11.8202 7.67716 11.172 8.5126 11.172H10.2416L10.1832 10.5855C10.1426 10.1794 10.2831 9.77582 10.5697 9.47392Z" fill="url(#paint0_linear_6608_5076)"/>
<path fill-rule="evenodd" clip-rule="evenodd" d="M17.3791 12.6665C17.4175 12.5827 17.4984 12.5293 17.5872 12.5293C17.6759 12.5293 17.7568 12.5827 17.7951 12.6665L18.3301 13.8389C18.3637 13.9128 18.4306 13.9639 18.5081 13.9746L19.7395 14.1444C19.8276 14.1564 19.9013 14.2204 19.9289 14.3088C19.9564 14.3972 19.933 14.4943 19.8686 14.5584L18.9674 15.4535C18.9108 15.5098 18.8854 15.5923 18.8997 15.6725L19.1256 16.9503C19.1417 17.0417 19.1062 17.1346 19.0343 17.1892C18.9625 17.2437 18.867 17.2503 18.789 17.206L17.6969 16.5864C17.6284 16.5477 17.5459 16.5477 17.4774 16.5864L16.3853 17.206C16.3072 17.2503 16.2118 17.2437 16.1399 17.1892C16.0681 17.1346 16.0326 17.0417 16.0486 16.9503L16.2746 15.6721C16.2888 15.5919 16.2633 15.5097 16.2068 15.4535L15.3062 14.5584C15.2418 14.4945 15.2183 14.3975 15.2456 14.3091C15.273 14.2209 15.3463 14.1567 15.4343 14.1444L16.6657 13.9746C16.7432 13.9641 16.8104 13.9132 16.8442 13.8394L17.3791 12.6665Z" fill="white"/>
<defs>
<linearGradient id="paint0_linear_6608_5076" x1="8.28571" y1="9" x2="26.3795" y2="10.2468" gradientUnits="userSpaceOnUse">
<stop stop-color="#006FFF"/>
<stop offset="1" stop-color="#087BFF"/>
</linearGradient>
</defs>
</svg>
