<svg width="26" height="26" viewBox="0 0 26 26" fill="none" xmlns="http://www.w3.org/2000/svg">
<path d="M23.4982 9.96736L22.0459 9.76423C21.7234 9.71853 21.4619 9.50017 21.335 9.2031C21.048 8.52517 20.6824 7.8904 20.2457 7.3115C20.0502 7.05251 19.9918 6.71482 20.1137 6.41521L20.6646 5.05681C20.8348 4.6404 20.6697 4.16052 20.2787 3.93708L17.1379 2.12165C16.7469 1.89568 16.2518 1.99216 15.975 2.34763L15.0762 3.49783C14.8756 3.75681 14.5506 3.87615 14.2256 3.83552C13.8701 3.78982 13.507 3.76443 13.1389 3.76443C12.7707 3.76443 12.4076 3.78982 12.0521 3.83552C11.7271 3.87615 11.4021 3.75681 11.2016 3.49783L10.3027 2.34763C10.026 1.99216 9.53086 1.89568 9.13984 2.12165L5.99902 3.93454C5.60801 4.16052 5.44551 4.63786 5.61309 5.05427L6.16406 6.41267C6.28594 6.71482 6.22754 7.04997 6.03203 7.30896C5.59531 7.88786 5.22715 8.52263 4.94277 9.20056C4.81582 9.50017 4.5543 9.71853 4.23184 9.76169L2.77949 9.96482C2.33262 10.0283 2 10.4092 2 10.8611V14.4894C2 14.9388 2.33262 15.3197 2.77695 15.3832L4.2293 15.5863C4.55176 15.632 4.81328 15.8504 4.94023 16.1474C5.22715 16.8254 5.59277 17.4601 6.02949 18.039C6.225 18.298 6.2834 18.6357 6.16152 18.9353L5.61055 20.2937C5.44043 20.7101 5.60547 21.19 5.99648 21.4135L9.1373 23.2263C9.52832 23.4523 10.0234 23.3558 10.3002 23.0004L11.199 21.8502C11.3996 21.5912 11.7246 21.4718 12.0496 21.5125C12.4051 21.5582 12.7682 21.5836 13.1363 21.5836C13.5045 21.5836 13.8676 21.5582 14.223 21.5125C14.548 21.4718 14.873 21.5912 15.0736 21.8502L15.9725 23.0004C16.2492 23.3558 16.7443 23.4523 17.1354 23.2263L20.2762 21.4135C20.6672 21.1875 20.8297 20.7101 20.6621 20.2937L20.1111 18.9353C19.9893 18.6357 20.0477 18.298 20.2432 18.039C20.6799 17.4601 21.048 16.8254 21.3324 16.1474C21.4594 15.8478 21.7209 15.6295 22.0434 15.5863L23.4957 15.3832C23.9426 15.3197 24.2727 14.9388 24.2727 14.4894V10.8611C24.2777 10.4092 23.9451 10.0283 23.4982 9.96736ZM13.1389 16.2008C11.1914 16.2008 9.61211 14.6215 9.61211 12.674C9.61211 10.7265 11.1914 9.14724 13.1389 9.14724C15.0863 9.14724 16.6656 10.7265 16.6656 12.674C16.6656 14.6215 15.0863 16.2008 13.1389 16.2008Z" fill="white"/>
</svg>
