<svg width="20" height="20" viewBox="0 0 20 20" fill="none" xmlns="http://www.w3.org/2000/svg">
<g filter="url(#filter0_b_221_9375)">
<path d="M0 2.85714C0 1.27919 1.27919 0 2.85714 0H17.1429C17.774 0 18.2857 0.511675 18.2857 1.14286V20H1.14286C0.511675 20 0 19.4883 0 18.8571V2.85714Z" fill="#E6F2FF"/>
</g>
<path d="M0 4H18.8571C19.4883 4 20 4.51167 20 5.14286V18.8571C20 19.4883 19.4883 20 18.8571 20H1.14286C0.511674 20 0 19.4883 0 18.8571V4Z" fill="url(#paint0_linear_221_9375)"/>
<g filter="url(#filter1_b_221_9375)">
<path d="M10.8574 12.0001C10.8574 10.7377 11.8808 9.71436 13.1431 9.71436H20.0003V14.2858H13.1431C11.8808 14.2858 10.8574 13.2624 10.8574 12.0001V12.0001Z" fill="#087BFF" fill-opacity="0.3"/>
</g>
<g filter="url(#filter2_di_221_9375)">
<circle cx="13.7141" cy="11.9998" r="1.14286" fill="white"/>
</g>
<path d="M1.71387 3.14279C1.71387 2.6694 2.09762 2.28564 2.57101 2.28564H15.9996C16.3152 2.28564 16.571 2.54148 16.571 2.85707V3.99993H2.57101C2.09762 3.99993 1.71387 3.61617 1.71387 3.14279V3.14279Z" fill="#087AFF"/>
<defs>
<filter id="filter0_b_221_9375" x="-2.28571" y="-2.28571" width="22.8576" height="24.5714" filterUnits="userSpaceOnUse" color-interpolation-filters="sRGB">
<feFlood flood-opacity="0" result="BackgroundImageFix"/>
<feGaussianBlur in="BackgroundImageFix" stdDeviation="1.14286"/>
<feComposite in2="SourceAlpha" operator="in" result="effect1_backgroundBlur_221_9375"/>
<feBlend mode="normal" in="SourceGraphic" in2="effect1_backgroundBlur_221_9375" result="shape"/>
</filter>
<filter id="filter1_b_221_9375" x="8.57171" y="7.42864" width="13.714" height="9.14272" filterUnits="userSpaceOnUse" color-interpolation-filters="sRGB">
<feFlood flood-opacity="0" result="BackgroundImageFix"/>
<feGaussianBlur in="BackgroundImageFix" stdDeviation="1.14286"/>
<feComposite in2="SourceAlpha" operator="in" result="effect1_backgroundBlur_221_9375"/>
<feBlend mode="normal" in="SourceGraphic" in2="effect1_backgroundBlur_221_9375" result="shape"/>
</filter>
<filter id="filter2_di_221_9375" x="11.9999" y="10.2855" width="3.42899" height="3.4285" filterUnits="userSpaceOnUse" color-interpolation-filters="sRGB">
<feFlood flood-opacity="0" result="BackgroundImageFix"/>
<feColorMatrix in="SourceAlpha" type="matrix" values="0 0 0 0 0 0 0 0 0 0 0 0 0 0 0 0 0 0 127 0" result="hardAlpha"/>
<feOffset/>
<feGaussianBlur stdDeviation="0.285714"/>
<feComposite in2="hardAlpha" operator="out"/>
<feColorMatrix type="matrix" values="0 0 0 0 0 0 0 0 0 0 0 0 0 0 0 0 0 0 0.25 0"/>
<feBlend mode="normal" in2="BackgroundImageFix" result="effect1_dropShadow_221_9375"/>
<feBlend mode="normal" in="SourceGraphic" in2="effect1_dropShadow_221_9375" result="shape"/>
<feColorMatrix in="SourceAlpha" type="matrix" values="0 0 0 0 0 0 0 0 0 0 0 0 0 0 0 0 0 0 127 0" result="hardAlpha"/>
<feOffset/>
<feGaussianBlur stdDeviation="0.285714"/>
<feComposite in2="hardAlpha" operator="arithmetic" k2="-1" k3="1"/>
<feColorMatrix type="matrix" values="0 0 0 0 0.740007 0 0 0 0 0.740007 0 0 0 0 0.740007 0 0 0 0.25 0"/>
<feBlend mode="normal" in2="shape" result="effect2_innerShadow_221_9375"/>
</filter>
<linearGradient id="paint0_linear_221_9375" x1="0.571429" y1="4.28571" x2="19.4286" y2="20" gradientUnits="userSpaceOnUse">
<stop stop-color="#E6F0FF"/>
<stop offset="1" stop-color="#A8C8FF"/>
</linearGradient>
</defs>
</svg>
