<svg width="24" height="24" viewBox="0 0 24 24" fill="none" xmlns="http://www.w3.org/2000/svg">
<path fill-rule="evenodd" clip-rule="evenodd" d="M12 22C6.47715 22 2 17.5228 2 12C2 6.47715 6.47715 2 12 2C17.5228 2 22 6.47715 22 12C22 17.5228 17.5228 22 12 22ZM10.983 6H13.0147L12.8981 14.0967H11.0996L10.983 6ZM10.85 16.8818C10.85 17.5239 11.3635 18.0137 11.9955 18.0137C12.6412 18.0137 13.1478 17.5239 13.1478 16.8818C13.1478 16.2397 12.6412 15.75 11.9955 15.75C11.3635 15.75 10.85 16.2397 10.85 16.8818Z" fill="black"/>
</svg>
