<svg width="24" height="24" viewBox="0 0 24 24" xmlns="http://www.w3.org/2000/svg" xmlns:xlink="http://www.w3.org/1999/xlink"><title>icons_outlined_eyes_on</title><desc>Created with Sketch.</desc><defs/><g id="icons_outlined_eyes_on" stroke="none" stroke-width="1" fill="none" fill-rule="evenodd"><g id="icon21" fill="#000" fill-rule="nonzero"><g id="Group-19" transform="translate(1.000000, 5.000000)"><path d="M11 12.8C15.0343177 12.8 18.6862248 10.5498748 20.6478722 7 18.6862248 3.45012523 15.0343177 1.2 11 1.2 6.96568232 1.2 3.31377519 3.45012523 1.35212783 7 3.31377519 10.5498748 6.96568232 12.8 11 12.8zM11 0C15.8077906.0 19.9720635 2.84762755 22 7 19.9720635 11.1523724 15.8077906 14 11 14 6.1922094 14 2.0279365 11.1523724-109636744e-19 7 2.0279365 2.84762755 6.1922094.0 11 0zm0 9.8C12.5463973 9.8 13.8 8.5463973 13.8 7 13.8 5.4536027 12.5463973 4.2 11 4.2 9.4536027 4.2 8.2 5.4536027 8.2 7 8.2 8.5463973 9.4536027 9.8 11 9.8zM11 11C8.790861 11 7 9.209139 7 7 7 4.790861 8.790861 3 11 3 13.209139 3 15 4.790861 15 7 15 9.209139 13.209139 11 11 11z" id="Combined-Shape"/></g></g></g></svg>