<svg width="24" height="24" viewBox="0 0 24 24" xmlns="http://www.w3.org/2000/svg" xmlns:xlink="http://www.w3.org/1999/xlink"><title>icons_outlined_eyes_off</title><desc>Created with Sketch.</desc><defs/><g id="icons_outlined_eyes_off" stroke="none" stroke-width="1" fill="none" fill-rule="evenodd"><g id="icon21" fill="#000" fill-rule="nonzero"><path d="M18.6701381 16.9730813l2.7548408 2.7548408L20.5764507 20.5764502 3.84852868 3.84852817 4.69705685 3 7.55246809 5.85541124C8.93196844 5.3029864 10.4317492 5 12 5 16.8077906 5 20.9720635 7.84762755 23 12 22.0088953 14.0293711 20.5075207 15.7471002 18.6701381 16.9730813zM8.48629025 6.7892334 10.1497736 8.45271674C10.7030717 8.1635303 11.3324386 8 12 8 14.209139 8 16 9.790861 16 12 16 12.6675614 15.8364697 13.2969283 15.5472833 13.8502264L17.8030731 16.1060162C19.3773063 15.1062525 20.7070071 13.7026267 21.6478722 12 19.6862248 8.45012523 16.0343177 6.2 12 6.2 10.7819015 6.2 9.59866509 6.40513103 8.48629025 6.7892334zM14.6379795 12.9409226C14.7428778 12.6468535 14.7999997 12.3300974 14.7999997 11.9999998 14.7999997 10.4536025 13.546397 9.19999981 11.9999998 9.19999981 11.6699021 9.19999981 11.353146 9.25712171 11.0590769 9.36202004L14.6379795 12.9409226zM16.4475319 18.1445888C15.0680316 18.6970136 13.5682508 19 12 19 7.1922094 19 3.0279365 16.1523724 1 12 1.99110467 9.9706289 3.49247928 8.25289977 5.32986187 7.02691872l.86706504.86706504C4.62269375 8.89374754 3.29299288 10.2973733 2.35212783 12 4.31377519 15.5498748 7.96568232 17.8 12 17.8 13.2180985 17.8 14.4013349 17.594869 15.5137097 17.2107666L16.4475319 18.1445888zM8.45271674 10.1497736 9.36202004 11.0590769C9.25712171 11.353146 9.19999981 11.6699021 9.19999981 11.9999998 9.19999981 13.546397 10.4536025 14.7999997 11.9999998 14.7999997 12.3300974 14.7999997 12.6468535 14.7428778 12.9409226 14.6379795l.9093038.9093038C13.2969283 15.8364697 12.6675614 16 12 16 9.790861 16 8 14.209139 8 12 8 11.3324386 8.1635303 10.7030717 8.45271674 10.1497736z" id="Combined-Shape"/></g></g></svg>