<?xml version="1.0" encoding="UTF-8"?>
<svg width="72px" height="72px" viewBox="0 0 72 72" version="1.1" xmlns="http://www.w3.org/2000/svg" xmlns:xlink="http://www.w3.org/1999/xlink">
    <title>3.Icons/Filled/album 2</title>
    <g id="页面-1备份-2" stroke="none" stroke-width="1" fill="none" fill-rule="evenodd" fill-opacity="0.9">
        <g id="icon11" fill="#000000">
            <path d="M7.5,60 L7.5,57.94639 L7.5,57.94639 C7.5,55.8911231 8.99445272,53.4957236 10.8422928,52.5939981 L27.8233523,44.307429 C30.2861314,43.1056201 30.8587772,40.4437873 29.0803357,38.3359167 L27.9957381,37.050414 C25.7889529,34.4348555 24,29.5484894 24,26.1278716 L24,20.9987411 C24,14.3720194 29.3860685,9 36,9 C42.627417,9 48,14.3789407 48,21.0006224 L48,26.1305571 C48,29.5478878 46.2027972,34.448581 44.0042615,37.0547191 L42.9196638,38.3403982 C41.1510972,40.436852 41.7035631,43.1051928 44.176647,44.3115311 L61.1577071,52.5946727 C63.0036045,53.4950776 64.5,55.8755104 64.5,57.94639 L64.5,60 C64.5,61.6568542 63.1568542,63 61.5,63 L10.5,63 C8.84314575,63 7.5,61.6568542 7.5,60 Z" id="Path-67"></path>
        </g>
    </g>
</svg>