<?xml version="1.0" encoding="UTF-8"?>
<svg width="72px" height="72px" viewBox="0 0 72 72" version="1.1" xmlns="http://www.w3.org/2000/svg" xmlns:xlink="http://www.w3.org/1999/xlink">
    <!-- Generator: Sketch 52.2 (67145) - http://www.bohemiancoding.com/sketch -->
    <title>icons_outlined_refresh</title>
    <desc>Created with Sketch.</desc>
    <g id="icons_outlined_refresh" stroke="none" stroke-width="1" fill="none" fill-rule="evenodd">
        <g id="common_icons_miniprogram" fill="#000000" fill-rule="nonzero">
            <path d="M55.0918831,19.9081169 C59.9779221,24.7941559 63,31.5441559 63,39 C63,53.9116882 50.9116882,66 36,66 C21.0883118,66 9,53.9116882 9,39 C9,24.0883118 21.0883118,12 36,12 L36,15.6 C23.0765369,15.6 12.6,26.0765369 12.6,39 C12.6,51.9234631 23.0765369,62.4 36,62.4 C48.9234631,62.4 59.4,51.9234631 59.4,39 C59.4,32.7062465 56.908664,26.8160667 52.5462987,22.4537013 L55.0918831,19.9081169 Z M34.7308429,15.6338322 C22.3975446,16.2930217 12.6,26.5023413 12.6,39 C12.6,51.9234631 23.0765369,62.4 36,62.4 C48.9234631,62.4 59.4,51.9234631 59.4,39 C59.4,32.7062465 56.908664,26.8160667 52.5462987,22.4537013 L55.0918831,19.9081169 C59.9779221,24.7941559 63,31.5441559 63,39 C63,53.9116882 50.9116882,66 36,66 C21.0883118,66 9,53.9116882 9,39 C9,24.9286244 19.7642836,13.371382 33.5076179,12.1135056 L29.9396969,8.54558451 L32.4852814,6 L39.9099026,13.4246212 C40.495689,14.0104076 40.495689,14.9601551 39.9099026,15.5459415 L38.4249782,17.0308659 L32.4852814,22.9705627 L29.9396969,20.4249782 L34.7308429,15.6338322 Z" id="Combined-Shape"></path>
        </g>
    </g>
</svg>