<svg height="72" viewBox="0 0 72 72" width="72" xmlns="http://www.w3.org/2000/svg"><path d="m56.2499818 32.25v-8.25h4.5v8.25h8.2500182v4.5h-8.2500182v8.25h-4.5v-8.25h-8.2499818v-2.25-2.25zm-32.7542437 4.800414c-2.2067852-2.6155585-3.9957381-7.5019246-3.9957381-10.9225424v-5.1291305c0-6.6267217 5.3860685-11.9987411 12-11.9987411 6.627417 0 12 5.3789407 12 12.0006224v5.1299347c0 3.4173307-1.7972028 8.3180239-3.9957385 10.924162l-1.0845977 1.2856791c-1.7685666 2.0964538-1.2161007 4.7647946 1.2569832 5.9711329l16.9810601 8.2831416c1.8458974.9004049 3.3422929 3.2808377 3.3422929 5.3517173v2.0582956c0 1.6542665-1.3527762 2.9953144-3.0042888 2.9953144h-50.99142237c-1.6592229 0-3.00428883-1.3327336-3.00428883-2.9953144v-2.0582956c0-2.0552669 1.49445272-4.4506664 3.34229282-5.3523919l16.98105948-8.2865691c2.4627791-1.2018089 3.0354249-3.8636417 1.2569834-5.9715123z" fill-rule="evenodd" fill="#000000" /></svg>