<?xml version="1.0" encoding="UTF-8"?>
<svg width="56px" height="56px" viewBox="0 0 56 56" version="1.1" xmlns="http://www.w3.org/2000/svg" xmlns:xlink="http://www.w3.org/1999/xlink">
    <title>画板</title>
    <g id="过完组会备份" stroke="none" stroke-width="1" fill="none" fill-rule="evenodd">
        <g id="画板" transform="translate(-593.000000, -303.000000)" fill="#07C160">
            <g id="common_icons_miniprogram" transform="translate(593.000000, 303.000000)">
                <path d="M28,4.66666667 C40.8866442,4.66666667 51.3333333,15.1133558 51.3333333,28 C51.3333333,40.8866442 40.8866442,51.3333333 28,51.3333333 C15.1133558,51.3333333 4.66666667,40.8866442 4.66666667,28 C4.66666667,15.1133558 15.1133558,4.66666667 28,4.66666667 Z M28,7.46666667 C16.6597531,7.46666667 7.46666667,16.6597531 7.46666667,28 C7.46666667,39.3402469 16.6597531,48.5333333 28,48.5333333 C39.3402469,48.5333333 48.5333333,39.3402469 48.5333333,28 C48.5333333,16.6597531 39.3402469,7.46666667 28,7.46666667 Z M38.8190912,20.4166667 L40.7989903,22.3965657 L26.9162462,36.2793098 C26.0050228,37.1905332 24.5276379,37.1905332 23.6164145,36.2793098 L16.3333333,28.9962286 L18.3132324,27.0163296 L25.2663304,33.9694275 L38.8190912,20.4166667 Z" id="Combined-Shape"></path>
            </g>
        </g>
    </g>
</svg>