<svg width="24" height="24" viewBox="0 0 24 24" fill="none" xmlns="http://www.w3.org/2000/svg">
<path d="M1 20C1 20.5523 1.44771 21 2 21H19C19.5523 21 20 20.5523 20 20V19.3155C20 18.6252 19.5012 17.8317 18.8859 17.5316L13.2255 14.7705C12.4012 14.3684 12.217 13.479 12.8066 12.7801L13.1681 12.3516C13.9009 11.4829 14.5 9.8493 14.5 8.71019V7.00021C14.5 4.79298 12.7091 3 10.5 3C8.29536 3 6.5 4.79067 6.5 6.99958V8.70929C6.5 9.8495 7.09632 11.4783 7.83191 12.3501L8.19345 12.7786C8.78626 13.4813 8.59538 14.3685 7.77445 14.7691L2.1141 17.5313C1.49815 17.8319 1 18.6304 1 19.3155V20Z" fill="black"/>
<path d="M23 8.5H16V10H23V8.5Z" fill="black"/>
<path d="M18 11.5H23V13H18V11.5Z" fill="black"/>
<path d="M20 14.5H23V16H20V14.5Z" fill="black"/>
</svg>
