<svg width="32" height="32" viewBox="0 0 32 32" fill="none" xmlns="http://www.w3.org/2000/svg">
<path d="M8.80005 8.79999H20.8" stroke="black" stroke-width="1.6"/>
<path d="M8.80005 12.8H14.8" stroke="black" stroke-width="1.6"/>
<path d="M24.8 25.8L28.3 29.8" stroke="black" stroke-width="1.6"/>
<circle cx="20.3" cy="21.3" r="6.7" stroke="black" stroke-width="1.6"/>
<path fill-rule="evenodd" clip-rule="evenodd" d="M6.8 3C5.80589 3 5 3.80589 5 4.8V26.8C5 27.7941 5.80589 28.6 6.8 28.6H15.0348C14.4011 28.1422 13.8295 27.6038 13.3347 27H6.8C6.68954 27 6.6 26.9105 6.6 26.8V4.8C6.6 4.68954 6.68954 4.6 6.8 4.6H23.3C23.4105 4.6 23.5 4.68954 23.5 4.8V12.8855C24.0625 13.0996 24.598 13.3684 25.1 13.6855V4.8C25.1 3.80589 24.2941 3 23.3 3H6.8ZM25.1 15.6678C24.6164 15.2553 24.0791 14.904 23.5 14.6258V15.8H25.1V15.6678ZM15.5806 27C15.8092 27.1895 16.0494 27.3655 16.3 27.5268V27H15.5806Z" fill="black"/>
</svg>
