<?xml version="1.0" encoding="UTF-8" standalone="no"?>
<svg width="96px" height="96px" viewBox="0 0 96 96" version="1.1" xmlns="http://www.w3.org/2000/svg" xmlns:xlink="http://www.w3.org/1999/xlink">
    <!-- Generator: Sketch 41.2 (35397) - http://www.bohemiancoding.com/sketch -->
    <title>addtodesktop</title>
    <desc>Created with Sketch.</desc>
    <defs></defs>
    <g id="♦️Slice♦️" stroke="none" stroke-width="1" fill="none" fill-rule="evenodd">
        <g id="Artboard" transform="translate(-249.000000, -128.000000)">
            <g id="icon-mail" transform="translate(249.000000, 128.000000)">
                <polygon id="bounds" transform="translate(48.000000, 48.000000) scale(1, -1) translate(-48.000000, -48.000000) " points="96 -1.42108547e-14 0 -1.42108547e-14 0 96 96 96"></polygon>
                <g id="icon-message">
                    <polygon id="bounds" transform="translate(48.000000, 48.000000) scale(1, -1) translate(-48.000000, -48.000000) " points="96 -1.42108547e-14 0 -1.42108547e-14 0 96 96 96"></polygon>
                    <path d="M80,38 L80,46 C81.5974167,46.5 83.5,48.4030556 84,50 L84,77 C83.5,78.5974167 81.5974167,80.5 80,81 L53,81 C51.4025833,80.5 49.5,78.5974167 49,77 L41,77 C41,83.2917778 46.7082222,89 53,89 L80,89 C86.2917778,89 92,83.2917778 92,77 L92,50 C92,43.7082222 86.2917778,38 80,38 M16,56 L16,17 C16,14.9127576 17.9127576,13 20,13 L59,13 C61.0872424,13 63,14.9127576 63,17 L63,56 C63,58.0872424 61.0872424,60 59,60 L20,60 C17.9127576,60 16,58.0872424 16,56 M71,56 L71,17 C71,10.6415333 65.3589333,5 59,5 L20,5 C13.6410667,5 8,10.6415333 8,17 L8,56 C8,62.3589333 13.6410667,68 20,68 L59,68 C65.3589333,68 71,62.3589333 71,56" id="Page-1" fill="#727272"></path>
                </g>
            </g>
        </g>
    </g>
</svg>