<svg xmlns="http://www.w3.org/2000/svg" width="17.952" height="18" viewBox="0 0 17.952 18">
  <defs>
    <style>.a{fill:none;}.b{fill:#a2a2a2;}</style>
  </defs>
  <g transform="translate(-645.005 -436)">
    <rect class="a" width="17.952" height="18" transform="translate(645.005 436)" />
    <path
      fill="#a2a2a2"
      d="M137.882,67.162a1.186,1.186,0,0,1,1.186,1.186V79.416a1.186,1.186,0,0,1-1.186,1.186h-8.7A1.186,1.186,0,0,1,128,79.416V68.348a1.186,1.186,0,0,1,1.186-1.186Zm-.4,1.581h-7.906V79.021h7.906ZM141.042,64a1.186,1.186,0,0,1,1.181,1.072l0,.114V75.853a.791.791,0,0,1-1.576.092l-.006-.092V65.581h-7.9a.791.791,0,0,1-.785-.7l-.006-.093a.791.791,0,0,1,.7-.785l.093-.006Z"
      transform="translate(518.867 372.699)" />
  </g>
</svg>