<svg xmlns="http://www.w3.org/2000/svg" width="16" height="16" viewBox="0 0 16 16">
  <defs>
    <style>.a{fill:none;}.b{isolation:isolate;}</style>
  </defs>
  <g transform="translate(-0.151 -0.288)">
    <rect class="a" width="16" height="16" transform="translate(0.151 0.288)" />
    <path class="b"
      fill="#1f2c3b"
      d="M7.042,2.158a.513.513,0,0,1-.15-.363V.513a.513.513,0,1,1,1.026,0V1.8a.513.513,0,0,1-.876.363Zm3.816,1.28a.513.513,0,0,1,.15-.363l.907-.907a.513.513,0,1,1,.725.725l-.906.906a.513.513,0,0,1-.876-.362Zm1.793,3.6a.513.513,0,0,1,.363-.15H14.3a.513.513,0,0,1,0,1.026H13.014a.513.513,0,0,1-.363-.876Zm-1.28,3.816a.513.513,0,0,1,.363.15l.906.906a.513.513,0,1,1-.725.725l-.907-.906a.513.513,0,0,1,.363-.875Zm-3.6,1.793a.513.513,0,0,1,.15.363V14.3a.513.513,0,0,1-1.026,0V13.014a.513.513,0,0,1,.876-.363Zm-3.816-1.28a.513.513,0,0,1-.15.363l-.906.906a.513.513,0,0,1-.725-.725l.907-.906a.513.513,0,0,1,.875.363Zm-1.793-3.6a.513.513,0,0,1-.363.15H.513a.513.513,0,1,1,0-1.026H1.8a.513.513,0,0,1,.363.876Zm1.28-3.816a.513.513,0,0,1-.363-.15l-.907-.906a.513.513,0,0,1,.725-.725l.906.907a.512.512,0,0,1-.362.875Zm7.813,3.486A3.846,3.846,0,1,1,7.4,3.59,3.847,3.847,0,0,1,11.251,7.436Zm-6.667,0A2.821,2.821,0,1,0,7.4,4.616,2.821,2.821,0,0,0,4.584,7.436Z"
      transform="translate(0.815 0.815)" />
  </g>
</svg>