<svg xmlns="http://www.w3.org/2000/svg" width="20" height="20" viewBox="0 0 20 20"><defs><style>.a{fill:none;}.b{fill:#79d1ff;}.c{fill:#fff;}</style></defs><g transform="translate(-64 -338)"><rect class="a" width="20" height="20" transform="translate(64 338)"/><g transform="translate(65.844 341.32)"><path class="b" d="M60.368,400.431H45.346c-.291,0-.546-.349-.546-.749s.255-.749.546-.749H60.368c.291,0,.546.349.546.749S60.659,400.431,60.368,400.431Z" transform="translate(-44.6 -394.236)"/><path class="c" d="M49.613,115.759H39.184a2.871,2.871,0,0,1-2.917-2.805v-7.749a2.871,2.871,0,0,1,2.917-2.805h1.532a2.533,2.533,0,0,1,1.9.806l1.313,1.332a.93.93,0,0,0,.656.281h5.032a2.871,2.871,0,0,1,2.917,2.805v5.365A2.819,2.819,0,0,1,49.613,115.759ZM39.184,103.417a1.794,1.794,0,0,0-1.823,1.753v7.749a1.8,1.8,0,0,0,1.823,1.753H49.613a1.794,1.794,0,0,0,1.823-1.753v-5.33a1.8,1.8,0,0,0-1.823-1.753H44.581a2.085,2.085,0,0,1-1.459-.6l-1.313-1.368a1.612,1.612,0,0,0-1.094-.456Z" transform="translate(-36.267 -102.4)"/></g></g></svg>