<svg xmlns="http://www.w3.org/2000/svg" width="26" height="26" viewBox="0 0 26 26">
  <defs>
    <style>.a{fill:none;}</style>
  </defs>
  <g transform="translate(-64 -338)">
    <rect class="a" width="26" height="26" transform="translate(64 338)" />
    <g transform="translate(29.577 238.92)">
      <path
        fill="#eab170"
        d="M66.164,400.431H45.549a.749.749,0,1,1,0-1.5H66.164a.749.749,0,1,1,0,1.5Z"
        transform="translate(-8.333 -289.46)"
      />
      <path
        fill="#ffffff"
        d="M54.537,121.759H40.26a4.041,4.041,0,0,1-3.993-4.065V106.465A4.041,4.041,0,0,1,40.26,102.4h2.1a3.379,3.379,0,0,1,2.6,1.169l1.8,1.931a1.24,1.24,0,0,0,.9.407h6.889a4.041,4.041,0,0,1,3.993,4.065v7.774A3.966,3.966,0,0,1,54.537,121.759ZM40.26,103.874a2.526,2.526,0,0,0-2.5,2.541v11.229a2.526,2.526,0,0,0,2.5,2.541H54.537a2.526,2.526,0,0,0,2.5-2.541V109.92a2.526,2.526,0,0,0-2.5-2.541H47.648a2.774,2.774,0,0,1-2-.864l-1.8-1.982a2.146,2.146,0,0,0-1.5-.661h-2.1Z" />
    </g>
  </g>
</svg>