<svg xmlns="http://www.w3.org/2000/svg" width="20" height="20" viewBox="0 0 20 20">
  <defs>
    <style>.a{fill:#a2a2a2;opacity:0.608;}.b{fill:none;}</style>
  </defs>
  <g transform="translate(-1850 -618.872)">
    <path
      fill="#a2a2a2"
      d="M1.468,91.245,0,96.629V86.3a.966.966,0,0,1,.965-.965H5.55a.959.959,0,0,1,.682.283l1.977,1.977a.191.191,0,0,0,.136.057h6.9a.966.966,0,0,1,.965.965v1.351H3.144a1.74,1.74,0,0,0-1.676,1.28Zm16.681-.129a.958.958,0,0,0-.767-.379H3.144a.967.967,0,0,0-.931.712l-2,7.333A.965.965,0,0,0,1.144,100H15.383a.967.967,0,0,0,.931-.712l2-7.333a.958.958,0,0,0-.164-.839Z"
      transform="translate(1850.762 536.269)" />
    <rect class="b" width="20" height="20" transform="translate(1850 618.872)" />
  </g>
</svg>