<?xml version="1.0" encoding="utf-8"?>

<svg xmlns="http://www.w3.org/2000/svg" width="26" height="26" viewBox="0 0 26 26">
  <defs>
    <style>.a{fill:none;}</style>
  </defs>
  <g transform="translate(-64 -338)">
    <rect class="a" width="26" height="26" transform="translate(64 338)" />
    <g transform="translate(-112.05 157.122)">
      <path class="b" fill="#eab170"
        d="M279.662,314.662a.462.462,0,0,1-.462-.462v-5.158a1.622,1.622,0,0,1,.693-1.331l5.562-3.918a.462.462,0,0,1,.534.755l-5.565,3.918a.71.71,0,0,0-.3.579V314.2a.458.458,0,0,1-.459.459Zm0,0"
        transform="translate(-97.713 -116.295)" />
      <path class="c" fill="#ffffff"
        d="M189.044,184.857a1.106,1.106,0,0,1,.635.2l8.4,5.917a1.087,1.087,0,0,1,.462.889V202.9h-5.077a.186.186,0,0,1-.189-.182v-1.334a2.46,2.46,0,0,0-2.464-2.457H187.28a2.463,2.463,0,0,0-2.464,2.457v1.334a.186.186,0,0,1-.189.182h-5.077V191.861a1.091,1.091,0,0,1,.462-.888l8.4-5.917a1.117,1.117,0,0,1,.631-.2m0-1.357a2.445,2.445,0,0,0-1.416.449l-8.393,5.917a2.437,2.437,0,0,0-1.035,1.995v11.3a1.1,1.1,0,0,0,1.106,1.1h5.327a1.541,1.541,0,0,0,1.543-1.539v-1.334a1.1,1.1,0,0,1,1.106-1.1h3.534a1.1,1.1,0,0,1,1.107,1.1v1.334a1.543,1.543,0,0,0,1.543,1.539h5.327a1.1,1.1,0,0,0,1.107-1.1v-11.3a2.433,2.433,0,0,0-1.035-1.995l-8.4-5.917A2.462,2.462,0,0,0,189.044,183.5Zm0,0"
        transform="translate(0)" />
    </g>
  </g>
</svg>