<svg xmlns="http://www.w3.org/2000/svg" width="52" height="52" viewBox="0 0 52 52">
  <defs>
    <style>.a{fill:#f49d3a;}.b{fill:none;}</style>
  </defs>
  <g transform="translate(-663 -259)">
    <path
      fill="#f49d3a"
      d="M143.649,119.465a3.464,3.464,0,0,1,3.455,3.467v23.113a3.464,3.464,0,0,1-3.455,3.47h-4.6a3.464,3.464,0,0,1-3.455-3.47V122.929a3.464,3.464,0,0,1,3.455-3.47h4.6Zm-32.231,4.618a3.464,3.464,0,0,1,3.455,3.473v18.486a3.464,3.464,0,0,1-3.455,3.47h-4.6a3.464,3.464,0,0,1-3.455-3.47V127.554a3.464,3.464,0,0,1,3.455-3.47h4.6v0Zm16.114,4.621a3.464,3.464,0,0,1,3.455,3.47v13.864a3.464,3.464,0,0,1-3.455,3.47h-4.6a3.464,3.464,0,0,1-3.458-3.47V132.175a3.464,3.464,0,0,1,3.458-3.47Zm11.919-22.5-2.718.018a1.735,1.735,0,0,1-.03-3.464l6.931-.05a1.738,1.738,0,0,1,1.741,1.729V111.4a1.726,1.726,0,1,1-3.452,0v-2.777l-15.469,15.528a1.717,1.717,0,0,1-1.924.355l-20.718-9.237a1.735,1.735,0,0,1,1.4-3.174l19.634,8.763,14.6-14.658Z"
      transform="translate(564.054 158.89)" />
    <rect class="b" width="52" height="52" transform="translate(663 259)" />
  </g>
</svg>