<svg xmlns="http://www.w3.org/2000/svg" width="20" height="20" viewBox="0 0 20 20"><defs><style>.a{fill:none;}.b{fill:#154afc;}.c{fill:#2b2b2b;}</style></defs><g transform="translate(-64 -338)"><rect class="a" width="20" height="20" transform="translate(64 338)"/><g transform="translate(66.25 340.729)"><path class="b" d="M389.91,359.552h-5.373a.534.534,0,0,1-.537-.576q0-.576.4-.576h5.238q.4,0,.4.576C390.044,359.36,390.044,359.552,389.91,359.552Zm0,4.031h-5.373c-.269,0-.537-.384-.537-.768s.134-.576.4-.576h5.238q.4,0,.4.576C390.313,363.2,390.044,363.583,389.91,363.583Zm0,4.031h-5.373q-.4,0-.4-.576t.4-.576h5.238q.4,0,.4.576C390.179,367.423,390.044,367.615,389.91,367.615Z" transform="translate(-379.723 -355.692)"/><path class="c" d="M216.783,180.941H207.33a2.3,2.3,0,0,1-2.4-2.31v-.679c0-.272.266-.408.533-.408s.533.136.533.408v.679a1.471,1.471,0,0,0,1.465,1.359h8.388a1.471,1.471,0,0,0,1.465-1.359v-3.126c0-.272.266-.408.533-.408s.533.136.533.408v3.126C218.115,179.99,218.115,180.941,216.783,180.941Zm-11.451-5.436c-.266,0-.533-.136-.533-.408v-2.854c0-.272.266-.408.533-.408a.743.743,0,0,1,.355.113.585.585,0,0,1,.178.3V175.1A.6.6,0,0,1,205.333,175.505Zm12.383-3.262c-.266,0-.533-.136-.533-.408V168.71a1.471,1.471,0,0,0-1.465-1.359H207.33a1.38,1.38,0,0,0-1.465,1.359v.679c0,.272-.266.408-.533.408s-.533-.136-.533-.408v-.679a2.419,2.419,0,0,1,2.53-2.31h8.388a2.3,2.3,0,0,1,2.4,2.31v3.126A.43.43,0,0,1,217.715,172.244Z" transform="translate(-204.224 -166.4)"/><path class="b" d="M188.368,359.251h-2.214c-.277,0-.554-.142-.554-.426s.277-.426.554-.426h2.214c.277,0,.554.142.554.426S188.783,359.251,188.368,359.251Zm0,5.96h-2.214c-.277,0-.554-.142-.554-.426s.277-.426.554-.426h2.214c.277,0,.554.142.554.426S188.783,365.211,188.368,365.211Zm10.8-1.561a1.987,1.987,0,0,1,0-3.973,2.005,2.005,0,0,1,1.938,1.987A1.916,1.916,0,0,1,199.163,363.65Zm0-2.838a.994.994,0,0,0,0,1.987,1.053,1.053,0,0,0,.969-.993A.958.958,0,0,0,199.163,360.812Z" transform="translate(-185.6 -354.489)"/></g></g></svg>