<svg xmlns="http://www.w3.org/2000/svg" width="26" height="26" viewBox="0 0 26 26">
  <defs>
    <style>.a{fill:none;}</style>
  </defs>
  <g transform="translate(-64 -338)">
    <rect class="a" width="26" height="26" transform="translate(64 338)" />
    <g transform="translate(-119.35 174.329)">
      <path
        fill="#eab170"
        d="M392.447,359.552h-7.679c-.384,0-.768-.192-.768-.576a.509.509,0,0,1,.576-.576h7.487a.509.509,0,0,1,.576.576C392.639,359.36,392.639,359.552,392.447,359.552Zm0,4.031h-7.679a.826.826,0,0,1-.768-.768.509.509,0,0,1,.576-.576h7.487a.509.509,0,0,1,.576.576A.436.436,0,0,1,392.447,363.583Zm0,4.031h-7.679a.576.576,0,1,1,0-1.152h7.487a.509.509,0,0,1,.576.576C392.831,367.423,392.639,367.615,392.447,367.615Z"
        transform="translate(-192.449 -186.241)" />
      <path
        fill="#ffffff"
        d="M222.078,186.941h-13.63a3.283,3.283,0,0,1-3.456-3.264v-.96c0-.384.384-.576.768-.576s.768.192.768.576v.96a2.1,2.1,0,0,0,2.112,1.92h12.094a2.1,2.1,0,0,0,2.112-1.92v-4.415c0-.384.384-.576.768-.576s.768.192.768.576v4.415C224,185.6,224,186.941,222.078,186.941Zm-16.51-7.679c-.384,0-.768-.192-.768-.576v-4.031c0-.384.384-.576.768-.576a1.088,1.088,0,0,1,.511.159.822.822,0,0,1,.257.417v4.031A.857.857,0,0,1,205.568,179.262Zm17.853-4.607c-.384,0-.768-.192-.768-.576v-4.415a2.1,2.1,0,0,0-2.112-1.92H208.447a1.973,1.973,0,0,0-2.112,1.92v.96c0,.384-.384.576-.768.576s-.768-.192-.768-.576v-.96a3.459,3.459,0,0,1,3.647-3.264h12.094A3.283,3.283,0,0,1,224,169.664v4.415A.613.613,0,0,1,223.421,174.655Z"
        transform="translate(-18.624)" />
      <path
        fill="#eab170"
        d="M189.439,359.552h-3.072c-.384,0-.768-.192-.768-.576s.384-.576.768-.576h3.072c.384,0,.768.192.768.576S190.015,359.552,189.439,359.552Zm0,8.063h-3.072c-.384,0-.768-.192-.768-.576s.384-.576.768-.576h3.072c.384,0,.768.192.768.576S190.015,367.615,189.439,367.615Zm14.974-2.112a2.688,2.688,0,0,1,0-5.375,2.746,2.746,0,0,1,2.688,2.688A2.624,2.624,0,0,1,204.413,365.5Zm0-3.839a1.344,1.344,0,1,0,0,2.688,1.442,1.442,0,0,0,1.344-1.344A1.312,1.312,0,0,0,204.413,361.663Z"
        transform="translate(0 -186.241)" />
    </g>
  </g>
</svg>