<svg xmlns="http://www.w3.org/2000/svg" width="20" height="20" viewBox="0 0 20 20"><defs><style>.a{fill:none;}.b{fill:#fff;}.c{fill:#79d1ff;}</style></defs><g transform="translate(-64 -338)"><rect class="a" width="20" height="20" transform="translate(64 338)"/><g transform="translate(67.528 340.004)"><path class="b" d="M102.148,14.833h6.766v1.158h-6.766Zm3.383-1.948A6.443,6.443,0,1,1,112,6.443,6.465,6.465,0,0,1,105.531,12.885Zm0-11.727a5.285,5.285,0,1,0,5.309,5.285A5.3,5.3,0,0,0,105.531,1.158Z" transform="translate(-99.059)"/><path class="c" d="M417.639,318.57m-2.063,0a2.063,2.063,0,1,0,2.063-2.063A2.063,2.063,0,0,0,415.576,318.57Z" transform="translate(-411.166 -311.993)"/><path class="c" d="M103.287,20.4h6.861v1.592h-6.861Z" transform="translate(-100.273 -6)"/></g></g></svg>