<svg xmlns="http://www.w3.org/2000/svg" width="16" height="16" viewBox="0 0 16 16">
  <defs>
    <style>.a{stroke-width:0.4px;isolation:isolate;}.b{fill:none;}</style>
  </defs>
  <g transform="translate(-0.274 -0.288)">
    <path
      fill="#212e3d"
      stroke="#212e3d"
      d="M14.269,8.385l0,0a6.584,6.584,0,0,1-2.7.572,5.986,5.986,0,0,1-6.2-5.744A5.371,5.371,0,0,1,5.926.82h0A.539.539,0,0,0,5.984.576.6.6,0,0,0,5.363,0,.66.66,0,0,0,5.1.054,7.252,7.252,0,0,0,0,6.815a7.5,7.5,0,0,0,7.77,7.2A7.745,7.745,0,0,0,15.138,9.1a.537.537,0,0,0,.043-.211.6.6,0,0,0-.622-.576A.658.658,0,0,0,14.269,8.385ZM.793,6.815A6.46,6.46,0,0,1,4.875.933l.171-.07q-.035.083-.067.167A6.041,6.041,0,0,0,4.573,3.21a6.751,6.751,0,0,0,6.993,6.479,7.467,7.467,0,0,0,2.513-.431l.183-.068q-.036.083-.074.165A7.01,7.01,0,0,1,7.77,13.28,6.736,6.736,0,0,1,.793,6.815Z"
      transform="translate(0.628 1.212)" />
    <rect class="b" width="16" height="16" transform="translate(0.274 0.288)" />
  </g>
</svg>