<svg xmlns="http://www.w3.org/2000/svg" width="26" height="26" viewBox="0 0 26 26">
  <defs>
    <style>.a{fill:none;}</style>
  </defs>
  <g transform="translate(-64 -338)">
    <rect class="a" width="26" height="26" transform="translate(64 338)" />
    <g transform="translate(-68.906 268.656)">
      <path
        fill="#eab170"
        d="M332.787,445.437h-7.669a.852.852,0,0,1-.852-.852v-.852h9.373v.852A.852.852,0,0,1,332.787,445.437Z"
        transform="translate(-183.047 -363.037)" />
      <path
        fill="#ffffff"
        d="M145.22,71.546l-7.669,3.37a1.7,1.7,0,0,0-1.018,1.559v5.282a10.154,10.154,0,0,0,4,8.118l4.394,3.1a1.7,1.7,0,0,0,1.965,0L151.25,89.9a10.173,10.173,0,0,0,4.029-8.142V76.476a1.7,1.7,0,0,0-1.018-1.56l-7.669-3.37a1.7,1.7,0,0,0-1.372,0Zm-6.983,4.93,7.669-3.37,7.669,3.37v5.281a8.45,8.45,0,0,1-3.341,6.775l-4.327,3.051-4.361-3.076a8.435,8.435,0,0,1-3.308-6.751Z"
        transform="translate(0)" />
      <path
        fill="#eab170"
        d="M478.719,290.133a.852.852,0,0,1,.85.788l0,.064v7.669a.852.852,0,0,1-1.7.064l0-.064v-7.669A.852.852,0,0,1,478.719,290.133Z"
        transform="translate(-332.813 -213.272)" />
    </g>
  </g>
</svg>