<svg xmlns="http://www.w3.org/2000/svg" width="26" height="26" viewBox="0 0 26 26">
  <defs>
    <style>.a{fill:none;}.b{fill:#fff;}.c{fill:#eab170;}</style>
  </defs>
  <g transform="translate(-64 -338)">
    <rect class="a" width="26" height="26" transform="translate(64 338)" />
    <g transform="translate(-32.644 221.269)">
      <path
        fill="#ffffff"
        d="M120.27,127.61a1.859,1.859,0,0,0-1.8-1.666h-.039a1.688,1.688,0,0,1-1.681-1.689,2.042,2.042,0,0,1,.147-.624,2.107,2.107,0,0,0-.727-2.55l-2.565-1.435-.1-.05a2.066,2.066,0,0,0-.826-.165,2.234,2.234,0,0,0-1.592.648,2.946,2.946,0,0,1-1.385.855,2.941,2.941,0,0,1-1.39-.871,2.219,2.219,0,0,0-1.6-.664,2.094,2.094,0,0,0-.826.165l-2.678,1.466-.1.068a2.1,2.1,0,0,0-.708,2.529,1.976,1.976,0,0,1,.152.63,1.7,1.7,0,0,1-1.747,1.689h-.042a1.85,1.85,0,0,0-1.734,1.681,10.232,10.232,0,0,0,0,4.236,1.855,1.855,0,0,0,1.736,1.666h.1a1.688,1.688,0,0,1,1.681,1.687,1.931,1.931,0,0,1-.15.624,2.107,2.107,0,0,0,.711,2.539l2.529,1.427.1.05a2.016,2.016,0,0,0,.826.168,2.207,2.207,0,0,0,1.613-.682,3.076,3.076,0,0,1,1.414-.91,2.986,2.986,0,0,1,1.422.929,2.168,2.168,0,0,0,1.611.7,2.067,2.067,0,0,0,.832-.168l2.631-1.451.1-.068a2.1,2.1,0,0,0,.706-2.526,2.055,2.055,0,0,1-.15-.63,1.7,1.7,0,0,1,1.752-1.687,1.883,1.883,0,0,0,1.771-1.681,10.376,10.376,0,0,0,0-4.242Zm-1.524,3.956c-.037.2-.142.412-.268.412a3.228,3.228,0,0,0-3.279,3.237,3.507,3.507,0,0,0,.27,1.228.555.555,0,0,1-.165.658l-.005,0-2.505,1.382a.552.552,0,0,1-.168.024.622.622,0,0,1-.456-.186,4.3,4.3,0,0,0-2.573-1.44,4.462,4.462,0,0,0-2.555,1.409.677.677,0,0,1-.475.184.513.513,0,0,1-.186-.031l-.026-.013-2.395-1.351a.557.557,0,0,1-.147-.614,3.542,3.542,0,0,0,.281-1.251,3.239,3.239,0,0,0-3.232-3.237h-.1c-.037-.008-.16-.126-.215-.4a12.083,12.083,0,0,1-.194-1.839,11.774,11.774,0,0,1,.194-1.834.638.638,0,0,1,.2-.409h.05a3.236,3.236,0,0,0,3.295-3.24,3.471,3.471,0,0,0-.273-1.23.562.562,0,0,1,.152-.645l.026-.016,2.539-1.393a.583.583,0,0,1,.171-.024.685.685,0,0,1,.472.181,4.347,4.347,0,0,0,2.516,1.354,4.349,4.349,0,0,0,2.5-1.327.71.71,0,0,1,.477-.178.518.518,0,0,1,.189.031l.021.01,2.437,1.361a.566.566,0,0,1,.16.624,3.494,3.494,0,0,0-.281,1.251,3.236,3.236,0,0,0,3.232,3.237c.22,0,.291.283.315.4a11.606,11.606,0,0,1,.2,1.839A10.89,10.89,0,0,1,118.746,131.566Z"
        transform="translate(0 0)" />
      <path
        fill="#eab170"
        d="M358.834,355.7a4.133,4.133,0,1,0,4.131,4.131A4.133,4.133,0,0,0,358.834,355.7Zm0,6.715a2.581,2.581,0,1,1,2.581-2.581A2.585,2.585,0,0,1,358.834,362.415Z"
        transform="translate(-249.187 -230.102)" />
    </g>
  </g>
</svg>