<svg xmlns="http://www.w3.org/2000/svg" width="20" height="20" viewBox="0 0 20 20"><defs><style>.a{fill:none;}.b{fill:#2b2b2b;}.c{fill:#154afc;}</style></defs><g transform="translate(-64 -338)"><rect class="a" width="20" height="20" transform="translate(64 338)"/><path class="b" d="M51.44,47.2a3.439,3.439,0,1,0,0,6.879h2.387a1.055,1.055,0,0,0,1.053-1.056V50.639A3.441,3.441,0,0,0,51.44,47.2Zm2.387,5.824v0H51.44a2.392,2.392,0,1,1,2.385-2.389v2.386Zm0,2.049H51.44a3.439,3.439,0,1,0,3.44,3.439V56.128A1.052,1.052,0,0,0,53.827,55.075Zm0,3.439a2.388,2.388,0,1,1-2.387-2.386h2.387Zm5.505-3.439H56.945a1.054,1.054,0,0,0-1.053,1.053v2.386a3.44,3.44,0,1,0,3.44-3.439Zm2.2,4.366a2.387,2.387,0,0,1-4.587-.927V56.128H59.33a2.388,2.388,0,0,1,2.2,3.313Zm-4.586-5.36h2.387a3.44,3.44,0,1,0-3.44-3.44v2.386A1.055,1.055,0,0,0,56.945,54.081Zm0-3.44a2.388,2.388,0,1,1,2.387,2.389H56.944V50.64Zm0,0" transform="translate(18.614 293.424)"/><path class="c" d="M62.543,58.277h-2.39A1.055,1.055,0,0,0,59.1,59.332v2.39a3.445,3.445,0,1,0,3.445-3.445Zm2.2,4.374a2.39,2.39,0,0,1-4.594-.929v-2.39h2.39a2.392,2.392,0,0,1,2.2,3.319Z" transform="translate(15.399 290.209)"/></g></svg>