<svg xmlns="http://www.w3.org/2000/svg" width="26" height="26" viewBox="0 0 26 26">
  <defs>
    <style>.a{fill:none;}.b{fill:#fff;}.c{fill:#eab170;}</style>
  </defs>
  <g transform="translate(-64 -338)">
    <rect class="a" width="26" height="26" transform="translate(64 338)" />
    <path
      fill="#ffffff"
      d="M52.837,47.2a4.838,4.838,0,1,0,0,9.677H56.2a1.484,1.484,0,0,0,1.481-1.486V52.037A4.84,4.84,0,0,0,52.837,47.2ZM56.193,55.4v0H52.837a3.365,3.365,0,1,1,3.354-3.361V55.4Zm0,2.882H52.837a4.837,4.837,0,1,0,4.837,4.837V59.759A1.48,1.48,0,0,0,56.193,58.277Zm0,4.837a3.358,3.358,0,1,1-3.356-3.356h3.356Zm7.741-4.837H60.579A1.482,1.482,0,0,0,59.1,59.759v3.356a4.837,4.837,0,1,0,4.837-4.837Zm3.092,6.142a3.356,3.356,0,0,1-6.45-1.3V59.759h3.356a3.359,3.359,0,0,1,3.094,4.661Zm-6.448-7.54h3.356A4.84,4.84,0,1,0,59.1,52.04V55.4A1.483,1.483,0,0,0,60.579,56.879Zm0-4.84A3.357,3.357,0,1,1,63.933,55.4H60.576V52.04Zm0,0"
      transform="translate(18.614 293.424)" />
    <path
      fill="#eab170"
      d="M63.935,58.277H60.579A1.482,1.482,0,0,0,59.1,59.759v3.356a4.837,4.837,0,1,0,4.837-4.837Zm3.092,6.142a3.356,3.356,0,0,1-6.45-1.3V59.759h3.356a3.359,3.359,0,0,1,3.094,4.661Z"
      transform="translate(18.614 293.424)" />
  </g>
</svg>