<svg xmlns="http://www.w3.org/2000/svg" width="26" height="26" viewBox="0 0 26 26">
  <defs>
    <style>.a{fill:none;}.b{fill:#fff;}.c{fill:#eab170;}</style>
  </defs>
  <g transform="translate(-64 -338)">
    <rect class="a" width="26" height="26" transform="translate(64 338)" />
    <g transform="translate(2.365 276.732)">
      <path
        fill="#ffffff"
        d="M72.8,83.069H66.27a.826.826,0,0,1-.8-.846V66.313a.826.826,0,0,1,.8-.846H79.332a.826.826,0,0,1,.8.846V70.5a.733.733,0,0,0,1.467,0V66.313A2.292,2.292,0,0,0,79.332,64H66.27A2.292,2.292,0,0,0,64,66.313v15.91a2.292,2.292,0,0,0,2.27,2.313H72.8a.733.733,0,1,0,0-1.467Z" />
      <path
        fill="#eab170"
        d="M485.867,448a5.867,5.867,0,1,0,5.867,5.867A5.867,5.867,0,0,0,485.867,448Zm0,10.268a4.4,4.4,0,1,1,4.4-4.4A4.4,4.4,0,0,1,485.867,458.268Z"
        transform="translate(-406.465 -375.199)" />
      <path
        fill="#ffffff"
        d="M269.189,297.168h-1.821V295.7a.733.733,0,1,0-1.467,0v2.2a.733.733,0,0,0,.733.733h2.555a.733.733,0,1,0,0-1.467Zm-4.388-8.434a.733.733,0,0,0-.733-.733h-7.334a.733.733,0,1,0,0,1.467h7.334A.733.733,0,0,0,264.8,288.733Zm-8.068,5.134a.733.733,0,0,0,0,1.467h1.84a.733.733,0,1,0,0-1.467Z"
        transform="translate(-187.599 -218.866)" />
    </g>
  </g>
</svg>