<svg xmlns="http://www.w3.org/2000/svg" width="20" height="20" viewBox="0 0 20 20"><defs><style>.a{fill:none;}.b{fill:#fff;}.c{fill:#79d1ff;}</style></defs><g transform="translate(-64 -338)"><rect class="a" width="20" height="20" transform="translate(64 338)"/><g transform="translate(65.945 340.31)"><path class="b" d="M65.967,149.133H52.542a1.311,1.311,0,0,1-1.342-1.289V137.822a1.311,1.311,0,0,1,1.342-1.289H65.967a1.311,1.311,0,0,1,1.342,1.289v10.023A1.311,1.311,0,0,1,65.967,149.133ZM52.542,137.679a.157.157,0,0,0-.149.143v10.023a.157.157,0,0,0,.149.143H65.967a.157.157,0,0,0,.149-.143V137.822a.157.157,0,0,0-.149-.143Z" transform="translate(-51.2 -135.143)"/><path class="c" d="M223.126,356.586a.469.469,0,0,1-.349-.234.773.773,0,0,1,.058-.858l1.629-1.872-1.629-1.872a.9.9,0,0,1-.058-.858c.175-.234.407-.312.64-.078l2.036,2.34a.635.635,0,0,1,.175.468.781.781,0,0,1-.175.468l-2.036,2.34C223.3,356.508,223.242,356.586,223.126,356.586Zm6.982.78h-3.782c-.233,0-.465-.234-.465-.624s.175-.624.465-.624h3.782c.233,0,.465.234.465.624S230.34,357.366,230.108,357.366Z" transform="translate(-219.558 -346.328)"/></g></g></svg>