<svg xmlns="http://www.w3.org/2000/svg" width="26" height="26" viewBox="0 0 26 26">
  <defs>
    <style>.a{fill:none;}.b{fill:#fff;}.c{fill:#eab170;}</style>
  </defs>
  <g transform="translate(-64 -338)">
    <rect class="a" width="26" height="26" transform="translate(64 338)" />
    <g transform="translate(64.826 339.007)">
      <path
        fill="#ffffff"
        d="M71.467,154.549H53.042a1.835,1.835,0,0,1-1.842-1.842v-14.33a1.835,1.835,0,0,1,1.842-1.842H71.467a1.835,1.835,0,0,1,1.842,1.842v14.33A1.835,1.835,0,0,1,71.467,154.549ZM53.042,138.171a.22.22,0,0,0-.2.2v14.33a.22.22,0,0,0,.2.2H71.467a.22.22,0,0,0,.2-.2v-14.33a.22.22,0,0,0-.2-.2Z"
        transform="translate(-50.081 -133.548)" />
      <path
        fill="#eab170"
        d="M223.471,358.431a.885.885,0,0,1-.614-.307.811.811,0,0,1,.1-1.126l2.866-2.457-2.866-2.457a.931.931,0,0,1-.1-1.126.8.8,0,0,1,1.126-.1l3.583,3.071a.73.73,0,0,1,.307.614.885.885,0,0,1-.307.614l-3.583,3.071C223.778,358.329,223.676,358.431,223.471,358.431Zm12.283,1.024H229.1a.807.807,0,0,1-.819-.819.753.753,0,0,1,.819-.819h6.653a.819.819,0,1,1,0,1.638Z"
        transform="translate(-217.438 -342.549)" />
    </g>
  </g>
</svg>