<svg xmlns="http://www.w3.org/2000/svg" width="22" height="22" viewBox="0 0 22 22"><defs><style>.a{fill:#eaeaea;}.b{fill:#c3c3c3;}.c{fill:none;}</style></defs><g transform="translate(-273 -285)"><g transform="translate(146.008 249.142)"><path class="a" d="M145.891,55.512a.839.839,0,0,1-.747.907l-14.285.014a.839.839,0,0,1-.748-.906L130.094,38.2a.839.839,0,0,1,.747-.907l10.51-.01,4.526,4.246Z" transform="translate(0)"/><path class="b" d="M691.475,47.013l-3.814,0a.839.839,0,0,1-.748-.906l0-3.343Z" transform="translate(-545.585 -5.373)"/><path class="b" d="M312,374.747a.455.455,0,0,1-.455.455h-7.5a.455.455,0,1,1,0-.91h7.5a.455.455,0,0,1,.455.455Zm0,3.411a.455.455,0,0,1-.455.455h-7.5a.455.455,0,1,1,0-.91h7.5a.455.455,0,0,1,.455.455Zm0,3.638a.455.455,0,0,1-.455.455h-7.5a.455.455,0,1,1,0-.91h7.5a.455.455,0,0,1,.455.455Z" transform="translate(-169.992 -330.211)"/></g><rect class="c" width="22" height="22" transform="translate(273 285)"/></g></svg>