<svg xmlns="http://www.w3.org/2000/svg" width="22" height="22" viewBox="0 0 22 22">
  <defs>
    <style>.a{fill:#f7911c;isolation:isolate;}</style>
  </defs>
  <path
    fill="#f7911c"
    d="M0,11A11,11,0,1,0,11,0,11.032,11.032,0,0,0,0,11Zm1.375,0A9.625,9.625,0,1,1,11,20.625,9.653,9.653,0,0,1,1.375,11Zm8.938-1.375V16.5a.689.689,0,0,0,.688.688.65.65,0,0,0,.688-.687V9.625A.689.689,0,0,0,11,8.938.65.65,0,0,0,10.313,9.625Zm0-4.125V6.875A.65.65,0,0,0,11,7.563a.689.689,0,0,0,.688-.687V5.5A.65.65,0,0,0,11,4.813.689.689,0,0,0,10.313,5.5Z" />
</svg>