<svg xmlns="http://www.w3.org/2000/svg" xmlns:xlink="http://www.w3.org/1999/xlink" width="36"
  height="36" viewBox="0 0 36 36">
  <defs>
    <style>.a{fill:url(#a);}.b{opacity:0.913;}.c{fill:#fff;}</style>
    <linearGradient id="a" x1="0.5" x2="0.5" y2="2.38" gradientUnits="objectBoundingBox">
      <stop offset="0" stop-color="#f7911c" />
      <stop offset="1" stop-color="#ff4848" />
    </linearGradient>
  </defs>
  <g transform="translate(-1133 -857)">
    <rect class="a" width="36" height="36" rx="18" transform="translate(1133 857)" />
    <g class="b" transform="translate(1127.792 759.947)">
      <path class="c"
        d="M422.642,376.94c0-2.833-2.835-5.14-6.017-5.14-3.371,0-6.025,2.309-6.025,5.14s2.654,5.14,6.025,5.14a8.947,8.947,0,0,0,2.127-.355l1.942,1.063-.534-1.77A5.368,5.368,0,0,0,422.642,376.94Zm-7.881-.786a.8.8,0,1,1,.8-.8A.8.8,0,0,1,414.761,376.154Zm3.9-.006a.8.8,0,1,1,.8-.8A.8.8,0,0,1,418.66,376.148Z"
        transform="translate(-389.427 -259.585)" />
      <path class="c"
        d="M20.285,106.9c-3.894,0-7.085,2.654-7.085,6.025a5.811,5.811,0,0,0,2.835,4.783l-.708,2.131L17.8,118.6a12.177,12.177,0,0,0,2.482.355c.223,0,.443-.01.662-.028a5.273,5.273,0,0,1-.219-1.485,5.8,5.8,0,0,1,6.023-5.608,5.9,5.9,0,0,1,.682.042C26.819,109.021,23.768,106.9,20.285,106.9Zm-2.38,4.862a.963.963,0,1,1,.963-.963A.963.963,0,0,1,17.9,111.762Zm4.948,0a.963.963,0,1,1,.963-.963A.963.963,0,0,1,22.853,111.762Z" />
    </g>
  </g>
</svg>